<?xml version="1.0" encoding="utf-8"?>
<!-- Generator: Adobe Illustrator 22.1.0, SVG Export Plug-In . SVG Version: 6.00 Build 0)  -->
<svg version="1.1" xmlns="http://www.w3.org/2000/svg" xmlns:xlink="http://www.w3.org/1999/xlink" x="0px" y="0px"
	 viewBox="0 0 1366 768" style="enable-background:new 0 0 1366 768;" xml:space="preserve">
<style type="text/css">
	.st0{fill:#FFFFFF;stroke:#FFFFFF;stroke-miterlimit:10;}
	.st1{fill:#FFFFFF;stroke:#FDFFFF;stroke-miterlimit:10;}
	.st2{fill:#268BD2;}
	.st3{fill:#FFFFFF;stroke:#FDFFFF;stroke-width:0.8;stroke-linecap:square;}
</style>
<g id="Layer_2">
</g>
<g id="Layer_1">
	<g id="figure_1">
		<g id="axes_1">
			<g id="matplotlib.axis_1">
				<g id="xtick_2">
					<g id="text_2">
						<g transform="translate(252.673636 530.938437)scale(0.14 -0.14)">
							<g>
								<path id="FuturaStd-CondensedBold-31" class="st0" d="M761.3-1212.9v-17.9h9.9v-85.7h19.9v103.5L761.3-1212.9L761.3-1212.9z
									"/>
							</g>
							<g>
								<path id="FuturaStd-CondensedBold-30_1_" class="st0" d="M847.2-1211.2c-24.8,0-29.1-35.1-29.1-53.4s4.3-53.4,29.1-53.4
									s29.1,35.2,29.1,53.4C876.3-1246.4,872-1211.2,847.2-1211.2z M847.2-1229.9c10.2,0,9.2-28,9.2-34.7s1-34.7-9.2-34.7
									s-9.2,28-9.2,34.7C837.9-1257.9,837-1229.9,847.2-1229.9z"/>
							</g>
							<g>
								<path id="FuturaStd-CondensedBold-30_2_" class="st0" d="M914.4-1211.2c-24.8,0-29.1-35.1-29.1-53.4s4.3-53.4,29.1-53.4
									s29.1,35.2,29.1,53.4C943.6-1246.4,939.3-1211.2,914.4-1211.2z M914.4-1229.9c10.2,0,9.2-28,9.2-34.7s1-34.7-9.2-34.7
									s-9.2,28-9.2,34.7S904.3-1229.9,914.4-1229.9z"/>
							</g>
						</g>
					</g>
				</g>
				<g id="xtick_4">
					<g id="text_4">
						<g transform="translate(455.582727 530.938437)scale(0.14 -0.14)">
							<g>
								<path id="FuturaStd-CondensedBold-33" class="st0" d="M1311.1-1289.2h-19.2c-0.8-17.3,9.7-28.8,27.2-28.8
									c18.9,0,30.6,11.5,30.6,30.5c0,11.1-4.4,21.7-15.9,24.6v0.3c10,4,12.8,14.6,12.8,24.5c0,16.3-9.5,27-26.2,27
									c-19.1,0-25-14-24.2-30.6h17.7v2.1c0,4.5,1,10.7,6.9,10.7c6.1,0,7-5.9,7-10.6c0-11.4-4.5-13.6-15.6-13.6v-17.9
									c11.5,0.4,15.5-2.9,15.5-14.4c0-6.2-0.6-14.7-8.9-14.7c-5.5,0-7.7,4.7-7.7,8.1L1311.1-1289.2z"/>
							</g>
							<g>
								<path id="FuturaStd-CondensedBold-30_5_" class="st0" d="M1388-1211.2c-24.8,0-29.1-35.1-29.1-53.4s4.3-53.4,29.1-53.4
									c24.8,0,29.1,35.2,29.1,53.4C1417.1-1246.4,1412.8-1211.2,1388-1211.2z M1388-1229.9c10.2,0,9.2-28,9.2-34.7
									s1-34.7-9.2-34.7s-9.2,28-9.2,34.7S1377.8-1229.9,1388-1229.9z"/>
							</g>
							<g>
								<path id="FuturaStd-CondensedBold-30_6_" class="st0" d="M1455.3-1211.2c-24.8,0-29.1-35.1-29.1-53.4s4.3-53.4,29.1-53.4
									c24.8,0,29.1,35.2,29.1,53.4C1484.4-1246.4,1480.1-1211.2,1455.3-1211.2z M1455.3-1229.9c10.2,0,9.2-28,9.2-34.7
									s1-34.7-9.2-34.7s-9.2,28-9.2,34.7C1446.1-1257.9,1445.1-1229.9,1455.3-1229.9z"/>
							</g>
						</g>
					</g>
				</g>
				<g id="xtick_6">
					<g id="text_6">
						<g transform="translate(658.491818 530.938437)scale(0.14 -0.14)">
							<g>
								<path id="FuturaStd-CondensedBold-35" class="st0" d="M1838-1263.8c2.5,0.4,5.2,0.8,7.8,0.8c12.1,0,20.9-5.5,20.9-18.4
									c0-9.7-5.2-18.8-16.1-18.8c-4.7,0-9.1,1.9-12.6,4.8l-3.4-18c6.4-3.2,12.6-4.7,19.9-4.7c22.9,0,34,14.3,34,36.4
									c0,20.3-9.9,33.1-30.9,34.2l2.7,16.8h25.3v17.9h-39.5L1838-1263.8z"/>
							</g>
							<g>
								<path id="FuturaStd-CondensedBold-30_9_" class="st0" d="M1928.8-1211.2c-24.8,0-29.1-35.1-29.1-53.4s4.3-53.4,29.1-53.4
									c24.8,0,29.1,35.2,29.1,53.4C1957.9-1246.4,1953.6-1211.2,1928.8-1211.2z M1928.8-1229.9c10.2,0,9.2-28,9.2-34.7
									s1-34.7-9.2-34.7s-9.2,28-9.2,34.7C1919.6-1257.9,1918.6-1229.9,1928.8-1229.9z"/>
							</g>
							<g>
								<path id="FuturaStd-CondensedBold-30_10_" class="st0" d="M1996.1-1211.2c-24.8,0-29.1-35.1-29.1-53.4s4.3-53.4,29.1-53.4
									c24.8,0,29.1,35.2,29.1,53.4C2025.2-1246.4,2020.9-1211.2,1996.1-1211.2z M1996.1-1229.9c10.2,0,9.2-28,9.2-34.7
									s1-34.7-9.2-34.7s-9.2,28-9.2,34.7S1985.9-1229.9,1996.1-1229.9z"/>
							</g>
						</g>
					</g>
				</g>
				<g id="xtick_8">
					<g id="text_8">
						<g transform="translate(861.400909 530.938437)scale(0.14 -0.14)">
							<g>
								<path id="FuturaStd-CondensedBold-37" class="st0" d="M2378.7-1212.9v-17.9h27.9l-32.3-85.7h21.3l39,103.5L2378.7-1212.9
									L2378.7-1212.9z"/>
							</g>
							<g>
								<path id="FuturaStd-CondensedBold-30_13_" class="st0" d="M2469.6-1211.2c-24.8,0-29.1-35.1-29.1-53.4s4.3-53.4,29.1-53.4
									s29.1,35.2,29.1,53.4C2498.7-1246.4,2494.5-1211.2,2469.6-1211.2z M2469.6-1229.9c10.2,0,9.2-28,9.2-34.7s1-34.7-9.2-34.7
									s-9.2,28-9.2,34.7C2460.4-1257.9,2459.4-1229.9,2469.6-1229.9z"/>
							</g>
							<g>
								<path id="FuturaStd-CondensedBold-30_14_" class="st0" d="M2536.9-1211.2c-24.8,0-29.1-35.1-29.1-53.4s4.3-53.4,29.1-53.4
									s29.1,35.2,29.1,53.4C2566-1246.4,2561.7-1211.2,2536.9-1211.2z M2536.9-1229.9c10.2,0,9.2-28,9.2-34.7s1-34.7-9.2-34.7
									s-9.2,28-9.2,34.7S2526.7-1229.9,2536.9-1229.9z"/>
							</g>
						</g>
					</g>
				</g>
			</g>
			<g id="matplotlib.axis_2">
				<g id="ytick_2">
					<g id="text_10">
						<g transform="translate(91.56 433.885182)scale(0.14 -0.14)">
							<g>
								<path id="FuturaStd-CondensedBold-32_1_" class="st1" d="M700-990.2l-0.3,6.6c0,5.6,0.4,16.8,8.2,16.8
									c6.6,0,8.2-7.4,8.2-12.8c0-11.4-8-25.4-13.3-35.3l-23.3-42.8H734v17.9h-24l17.3,32.8c4.8,9.2,8.5,17.6,8.5,28.1
									c0,17.9-10.7,26.5-27.9,26.5c-21.6,0-27.1-12.9-27.1-32.1l0.3-5.6L700-990.2L700-990.2z"/>
							</g>
							<g>
								<path id="FuturaStd-CondensedBold-30_16_" class="st1" d="M774.9-952.6c-24.8,0-29.1-35.1-29.1-53.4s4.3-53.4,29.1-53.4
									s29.1,35.2,29.1,53.4S799.7-952.6,774.9-952.6z M774.9-971.2c10.2,0,9.2-28,9.2-34.7s1-34.7-9.2-34.7s-9.2,28-9.2,34.7
									C765.7-999.2,764.7-971.2,774.9-971.2z"/>
							</g>
							<g>
								<path id="FuturaStd-CondensedBold-30_17_" class="st1" d="M842.2-952.6c-24.8,0-29.1-35.1-29.1-53.4s4.3-53.4,29.1-53.4
									s29.1,35.2,29.1,53.4S867-952.6,842.2-952.6z M842.2-971.2c10.2,0,9.2-28,9.2-34.7s1-34.7-9.2-34.7s-9.2,28-9.2,34.7
									C833-999.2,832-971.2,842.2-971.2z"/>
							</g>
							<g>
								<path id="FuturaStd-CondensedBold-30_18_" class="st1" d="M909.4-952.6c-24.8,0-29.1-35.1-29.1-53.4s4.3-53.4,29.1-53.4
									s29.1,35.2,29.1,53.4S934.3-952.6,909.4-952.6z M909.4-971.2c10.2,0,9.2-28,9.2-34.7s1-34.7-9.2-34.7s-9.2,28-9.2,34.7
									C900.2-999.2,899.3-971.2,909.4-971.2z"/>
							</g>
						</g>
					</g>
				</g>
				<g id="ytick_4">
					<g id="text_12">
						<g transform="translate(91.56 265.07711)scale(0.14 -0.14)">
							<g>
								<path id="FuturaStd-CondensedBold-36_1_" class="st1" d="M702.2-504.3l-8.5-17.6c-7.8-16.6-14.7-32.4-14.7-51.2
									c0-18.1,7.7-36.4,28.3-36.4c21.7,0,29,19.5,29,38c0,12.5-5.2,32.1-20.9,32.1c-5.5,0-9.1-2.2-12.9-5.6l-0.3,0.3l19.8,40.4
									C722-504.3,702.2-504.3,702.2-504.3z M708.1-557.4c7,0,8.2-11.1,8.2-16.2c0-5.2-1-18.4-8.8-18.4c-6.9,0-8.6,11.8-8.6,16.8
									C698.9-570,700.4-557.4,708.1-557.4z"/>
							</g>
							<g>
								<path id="FuturaStd-CondensedBold-30_22_" class="st1" d="M774.9-502.6c-24.8,0-29.1-35.1-29.1-53.4s4.3-53.4,29.1-53.4
									S804-574.3,804-556C804-537.8,799.7-502.6,774.9-502.6z M774.9-521.3c10.2,0,9.2-28,9.2-34.7s1-34.7-9.2-34.7
									s-9.2,28-9.2,34.7S764.7-521.3,774.9-521.3z"/>
							</g>
							<g>
								<path id="FuturaStd-CondensedBold-30_23_" class="st1" d="M842.2-502.6c-24.8,0-29.1-35.1-29.1-53.4s4.3-53.4,29.1-53.4
									s29.1,35.2,29.1,53.4S867-502.6,842.2-502.6z M842.2-521.3c10.2,0,9.2-28,9.2-34.7s1-34.7-9.2-34.7s-9.2,28-9.2,34.7
									S832-521.3,842.2-521.3z"/>
							</g>
							<g>
								<path id="FuturaStd-CondensedBold-30_24_" class="st1" d="M909.4-502.6c-24.8,0-29.1-35.1-29.1-53.4s4.3-53.4,29.1-53.4
									s29.1,35.2,29.1,53.4C938.6-537.8,934.3-502.6,909.4-502.6z M909.4-521.3c10.2,0,9.2-28,9.2-34.7s1-34.7-9.2-34.7
									s-9.2,28-9.2,34.7S899.3-521.3,909.4-521.3z"/>
							</g>
						</g>
					</g>
				</g>
				<g id="ytick_6">
					<g id="text_14">
						<g transform="translate(84.7 96.269037)scale(0.14 -0.14)">
							<g>
								<path id="FuturaStd-CondensedBold-31_1_" class="st1" d="M670.8-54.3v-17.9h9.9v-85.7h19.9v103.5L670.8-54.3L670.8-54.3z"/>
							</g>
							<g>
								<path id="FuturaStd-CondensedBold-30_28_" class="st1" d="M756.6-52.7c-24.8,0-29.1-35.1-29.1-53.4s4.3-53.4,29.1-53.4
									s29.1,35.2,29.1,53.4S781.4-52.7,756.6-52.7z M756.6-71.4c10.2,0,9.2-28,9.2-34.7c0-6.7,1-34.7-9.2-34.7s-9.2,28-9.2,34.7
									C747.4-99.4,746.4-71.4,756.6-71.4z"/>
							</g>
							<g>
								<path id="FuturaStd-CondensedBold-30_29_" class="st1" d="M823.9-52.7c-24.8,0-29.1-35.1-29.1-53.4s4.3-53.4,29.1-53.4
									s29.1,35.2,29.1,53.4S848.7-52.7,823.9-52.7z M823.9-71.4c10.2,0,9.2-28,9.2-34.7c0-6.7,1-34.7-9.2-34.7s-9.2,28-9.2,34.7
									C814.7-99.4,813.7-71.4,823.9-71.4z"/>
							</g>
							<g>
								<path id="FuturaStd-CondensedBold-30_30_" class="st1" d="M891.2-52.7c-24.8,0-29.1-35.1-29.1-53.4s4.3-53.4,29.1-53.4
									s29.1,35.2,29.1,53.4S916-52.7,891.2-52.7z M891.2-71.4c10.2,0,9.2-28,9.2-34.7c0-6.7,1-34.7-9.2-34.7s-9.2,28-9.2,34.7
									C882-99.4,881-71.4,891.2-71.4z"/>
							</g>
							<g>
								<path id="FuturaStd-CondensedBold-30_31_" class="st1" d="M958.4-52.7c-24.8,0-29.1-35.1-29.1-53.4s4.3-53.4,29.1-53.4
									s29.1,35.2,29.1,53.4S983.3-52.7,958.4-52.7z M958.4-71.4c10.2,0,9.2-28,9.2-34.7c0-6.7,1-34.7-9.2-34.7s-9.2,28-9.2,34.7
									C949.2-99.4,948.3-71.4,958.4-71.4z"/>
							</g>
						</g>
					</g>
				</g>
			</g>
			<g id="patch_3">
				<g>
					<path class="st2" d="M232,690.1h19.9v-22.7H232V690.1z"/>
				</g>
			</g>
			<g id="patch_4">
				<g>
					<path class="st2" d="M251.9,690.1h19.9V609h-19.9V690.1z"/>
				</g>
			</g>
			<g id="patch_5">
				<g>
					<path class="st2" d="M271.8,690.1h19.9V530.5h-19.9V690.1z"/>
				</g>
			</g>
			<g id="patch_6">
				<g>
					<path class="st2" d="M291.7,690.1h19.9V413h-19.9V690.1z"/>
				</g>
			</g>
			<g id="patch_7">
				<g>
					<path class="st2" d="M311.6,690.1h19.9V231h-19.9V690.1z"/>
				</g>
			</g>
			<g id="patch_8">
				<g>
					<path class="st2" d="M331.5,690.1h19.9v-580h-19.9V690.1z"/>
				</g>
			</g>
			<g id="patch_9">
				<g>
					<path class="st2" d="M351.4,690.1h19.9V128.5h-19.9V690.1z"/>
				</g>
			</g>
			<g id="patch_10">
				<g>
					<path class="st2" d="M371.3,690.1h19.9v-510h-19.9V690.1z"/>
				</g>
			</g>
			<g id="patch_11">
				<g>
					<path class="st2" d="M391.2,690.1h19.9V316.6h-19.9V690.1z"/>
				</g>
			</g>
			<g id="patch_12">
				<g>
					<path class="st2" d="M411.1,690.1H431V379.4h-19.9V690.1z"/>
				</g>
			</g>
			<g id="patch_13">
				<g>
					<path class="st2" d="M431,690.1h19.9V415.8H431V690.1z"/>
				</g>
			</g>
			<g id="patch_14">
				<g>
					<path class="st2" d="M450.9,690.1h19.9V474.6h-19.9V690.1z"/>
				</g>
			</g>
			<g id="patch_15">
				<g>
					<path class="st2" d="M470.8,690.1h19.9V504.6h-19.9V690.1z"/>
				</g>
			</g>
			<g id="patch_16">
				<g>
					<path class="st2" d="M490.7,690.1h19.9V530.4h-19.9V690.1z"/>
				</g>
			</g>
			<g id="patch_17">
				<g>
					<path class="st2" d="M510.6,690.1h19.9V541.5h-19.9V690.1z"/>
				</g>
			</g>
			<g id="patch_18">
				<g>
					<path class="st2" d="M530.5,690.1h19.9V559.3h-19.9V690.1z"/>
				</g>
			</g>
			<g id="patch_19">
				<g>
					<path class="st2" d="M550.4,690.1h19.9V571.4h-19.9V690.1z"/>
				</g>
			</g>
			<g id="patch_20">
				<g>
					<path class="st2" d="M570.3,690.1h19.9V574.7h-19.9V690.1z"/>
				</g>
			</g>
			<g id="patch_21">
				<g>
					<path class="st2" d="M590.2,690.1h19.9V587h-19.9V690.1z"/>
				</g>
			</g>
			<g id="patch_22">
				<g>
					<path class="st2" d="M610.1,690.1H630v-95.5h-19.9V690.1z"/>
				</g>
			</g>
			<g id="patch_23">
				<g>
					<path class="st2" d="M630,690.1h19.9v-94.2H630V690.1z"/>
				</g>
			</g>
			<g id="patch_24">
				<g>
					<path class="st2" d="M649.9,690.1h19.9v-95.6h-19.9V690.1z"/>
				</g>
			</g>
			<g id="patch_25">
				<g>
					<path class="st2" d="M669.8,690.1h19.9v-83.3h-19.9V690.1z"/>
				</g>
			</g>
			<g id="patch_26">
				<g>
					<path class="st2" d="M689.7,690.1h19.9v-82.4h-19.9V690.1z"/>
				</g>
			</g>
			<g id="patch_27">
				<g>
					<path class="st2" d="M709.6,690.1h19.9v-84.7h-19.9V690.1z"/>
				</g>
			</g>
			<g id="patch_28">
				<g>
					<path class="st2" d="M729.5,690.1h19.9v-73.4h-19.9V690.1z"/>
				</g>
			</g>
			<g id="patch_29">
				<g>
					<path class="st2" d="M749.4,690.1h19.9v-72.3h-19.9V690.1z"/>
				</g>
			</g>
			<g id="patch_30">
				<g>
					<path class="st2" d="M769.3,690.1h19.9v-67.8h-19.9V690.1z"/>
				</g>
			</g>
			<g id="patch_31">
				<g>
					<path class="st2" d="M789.2,690.1h19.9v-71.2h-19.9V690.1z"/>
				</g>
			</g>
			<g id="patch_32">
				<g>
					<path class="st2" d="M809.1,690.1H829v-65.7h-19.9V690.1z"/>
				</g>
			</g>
			<g id="patch_33">
				<g>
					<path class="st2" d="M829,690.1h19.9v-60.5H829V690.1z"/>
				</g>
			</g>
			<g id="patch_34">
				<g>
					<path class="st2" d="M848.9,690.1h19.9v-55.5h-19.9V690.1z"/>
				</g>
			</g>
			<g id="patch_35">
				<g>
					<path class="st2" d="M868.8,690.1h19.9v-42.7h-19.9V690.1z"/>
				</g>
			</g>
			<g id="patch_36">
				<g>
					<path class="st2" d="M888.7,690.1h19.9v-40.6h-19.9V690.1z"/>
				</g>
			</g>
			<g id="patch_37">
				<g>
					<path class="st2" d="M908.6,690.1h19.9v-37.7h-19.9V690.1z"/>
				</g>
			</g>
			<g id="patch_38">
				<g>
					<path class="st2" d="M928.5,690.1h19.9v-34.2h-19.9V690.1z"/>
				</g>
			</g>
			<g id="patch_39">
				<g>
					<path class="st2" d="M948.4,690.1h19.9V665h-19.9V690.1z"/>
				</g>
			</g>
			<g id="patch_40">
				<g>
					<path class="st2" d="M968.3,690.1h19.9v-21h-19.9V690.1z"/>
				</g>
			</g>
			<g id="patch_41">
				<g>
					<path class="st2" d="M988.2,690.1h19.9v-16.7h-19.9V690.1z"/>
				</g>
			</g>
			<g id="patch_42">
				<g>
					<path class="st2" d="M1008.1,690.1h19.9v-12.9h-19.9V690.1z"/>
				</g>
			</g>
			<g id="patch_43">
				<g>
					<path class="st2" d="M1028,690.1h19.9v-10.5H1028V690.1z"/>
				</g>
			</g>
			<g id="patch_44">
				<g>
					<path class="st2" d="M1047.9,690.1h19.9v-6.7h-19.9V690.1z"/>
				</g>
			</g>
			<g id="patch_45">
				<g>
					<path class="st2" d="M1067.8,690.1h19.9v-4.2h-19.9V690.1z"/>
				</g>
			</g>
			<g id="patch_46">
				<g>
					<path class="st2" d="M1087.7,690.1h19.9v-3.4h-19.9V690.1z"/>
				</g>
			</g>
			<g id="patch_47">
				<g>
					<path class="st2" d="M1107.6,690.1h19.9v-3h-19.9V690.1z"/>
				</g>
			</g>
			<g id="patch_48">
				<g>
					<path class="st2" d="M1127.5,690.1h19.9v-2.5h-19.9V690.1z"/>
				</g>
			</g>
			<g id="patch_49">
				<g>
					<path class="st2" d="M1147.4,690.1h19.9v-1.6h-19.9V690.1z"/>
				</g>
			</g>
			<g id="patch_50">
				<g>
					<path class="st2" d="M1167.3,690.1h19.9v-1.9h-19.9V690.1z"/>
				</g>
			</g>
			<g id="patch_51">
				<g>
					<path class="st2" d="M1187.2,690.1h19.9v-1.6h-19.9V690.1z"/>
				</g>
			</g>
			<g id="patch_52">
				<path class="st3" d="M223.2,81.1"/>
				<path class="st3" d="M223.2,690.1"/>
			</g>
		</g>
	</g>
</g>
</svg>
