<?xml version="1.0" encoding="utf-8"?>
<!-- Generator: Adobe Illustrator 22.1.0, SVG Export Plug-In . SVG Version: 6.00 Build 0)  -->
<svg version="1.1" id="Layer_1" xmlns="http://www.w3.org/2000/svg" xmlns:xlink="http://www.w3.org/1999/xlink" x="0px" y="0px"
	 viewBox="0 0 720 720" style="enable-background:new 0 0 720 720;" xml:space="preserve">
<style type="text/css">
	.st0{fill:#657B83;}
	.st1{fill:#268BD2;}
	.st2{fill:#FFFFFF;}
	.st3{font-family:'Futura-CondensedExtraBold';}
	.st4{font-size:17px;}
</style>
<g id="figure_1">
	<g id="axes_1">
		<g id="matplotlib.axis_2">
			<g id="ytick_2">
				<g id="text_21">
					<g transform="translate(55.56 583.010555)scale(0.14 -0.14)">
						<g>
							<path id="FuturaStd-CondensedBold-31_10_" class="st0" d="M-703.3,75.4v-13h7.2V0h14.5v75.4H-703.3z"/>
						</g>
						<g>
							<path id="FuturaStd-CondensedBold-30_31_" class="st0" d="M-640.8,76.6c-18.1,0-21.2-25.6-21.2-38.9s3.1-38.9,21.2-38.9
								s21.2,25.6,21.2,38.9S-622.7,76.6-640.8,76.6z M-640.8,63c7.4,0,6.7-20.4,6.7-25.3c0-4.9,0.7-25.3-6.7-25.3
								s-6.7,20.4-6.7,25.3C-647.5,42.6-648.2,63-640.8,63z"/>
						</g>
						<g>
							<path id="FuturaStd-CondensedBold-30_32_" class="st0" d="M-591.8,76.6c-18.1,0-21.2-25.6-21.2-38.9s3.1-38.9,21.2-38.9
								s21.2,25.6,21.2,38.9S-573.7,76.6-591.8,76.6z M-591.8,63c7.4,0,6.7-20.4,6.7-25.3c0-4.9,0.7-25.3-6.7-25.3
								s-6.7,20.4-6.7,25.3C-598.5,42.6-599.2,63-591.8,63z"/>
						</g>
						<g>
							<path id="FuturaStd-CondensedBold-30_33_" class="st0" d="M-542.8,76.6c-18.1,0-21.2-25.6-21.2-38.9s3.1-38.9,21.2-38.9
								s21.2,25.6,21.2,38.9S-524.7,76.6-542.8,76.6z M-542.8,63c7.4,0,6.7-20.4,6.7-25.3c0-4.9,0.7-25.3-6.7-25.3
								s-6.7,20.4-6.7,25.3C-549.5,42.6-550.2,63-542.8,63z"/>
						</g>
					</g>
				</g>
			</g>
			<g id="ytick_4">
				<g id="text_23">
					<g transform="translate(55.56 456.133227)scale(0.14 -0.14)">
						<g>
							<path id="FuturaStd-CondensedBold-33_2_" class="st0" d="M-696.8,19.8h-14c-0.6-12.6,7.1-21,19.8-21
								c13.8,0,22.3,8.4,22.3,22.2c0,8.1-3.2,15.8-11.6,17.9v0.2c7.3,2.9,9.3,10.6,9.3,17.8c0,11.9-6.9,19.7-19.1,19.7
								c-13.9,0-18.2-10.2-17.6-22.3h12.9v1.5c0,3.3,0.7,7.8,5,7.8c4.4,0,5.1-4.3,5.1-7.7c0-8.3-3.3-9.9-11.4-9.9V33
								c8.4,0.3,11.3-2.1,11.3-10.5c0-4.5-0.4-10.7-6.5-10.7c-4,0-5.6,3.4-5.6,5.9L-696.8,19.8z"/>
						</g>
						<g>
							<path id="FuturaStd-CondensedBold-30_37_" class="st0" d="M-640.8,76.6c-18.1,0-21.2-25.6-21.2-38.9s3.1-38.9,21.2-38.9
								s21.2,25.6,21.2,38.9S-622.7,76.6-640.8,76.6z M-640.8,63c7.4,0,6.7-20.4,6.7-25.3c0-4.9,0.7-25.3-6.7-25.3
								s-6.7,20.4-6.7,25.3C-647.5,42.6-648.2,63-640.8,63z"/>
						</g>
						<g>
							<path id="FuturaStd-CondensedBold-30_38_" class="st0" d="M-591.8,76.6c-18.1,0-21.2-25.6-21.2-38.9s3.1-38.9,21.2-38.9
								s21.2,25.6,21.2,38.9S-573.7,76.6-591.8,76.6z M-591.8,63c7.4,0,6.7-20.4,6.7-25.3c0-4.9,0.7-25.3-6.7-25.3
								s-6.7,20.4-6.7,25.3C-598.5,42.6-599.2,63-591.8,63z"/>
						</g>
						<g>
							<path id="FuturaStd-CondensedBold-30_39_" class="st0" d="M-542.8,76.6c-18.1,0-21.2-25.6-21.2-38.9s3.1-38.9,21.2-38.9
								s21.2,25.6,21.2,38.9S-524.7,76.6-542.8,76.6z M-542.8,63c7.4,0,6.7-20.4,6.7-25.3c0-4.9,0.7-25.3-6.7-25.3
								s-6.7,20.4-6.7,25.3C-549.5,42.6-550.2,63-542.8,63z"/>
						</g>
					</g>
				</g>
			</g>
			<g id="ytick_6">
				<g id="text_25">
					<g transform="translate(55.56 329.255899)scale(0.14 -0.14)">
						<g>
							<path id="FuturaStd-CondensedBold-35_2_" class="st0" d="M-706.9,38.3c1.8,0.3,3.8,0.6,5.7,0.6c8.8,0,15.2-4,15.2-13.4
								c0-7.1-3.8-13.7-11.7-13.7c-3.4,0-6.6,1.4-9.2,3.5l-2.5-13.1c4.7-2.3,9.2-3.4,14.5-3.4c16.7,0,24.8,10.4,24.8,26.5
								c0,14.8-7.2,24.1-22.5,24.9l2,12.2h18.4v13H-701L-706.9,38.3z"/>
						</g>
						<g>
							<path id="FuturaStd-CondensedBold-30_43_" class="st0" d="M-640.8,76.6c-18.1,0-21.2-25.6-21.2-38.9s3.1-38.9,21.2-38.9
								s21.2,25.6,21.2,38.9S-622.7,76.6-640.8,76.6z M-640.8,63c7.4,0,6.7-20.4,6.7-25.3c0-4.9,0.7-25.3-6.7-25.3
								s-6.7,20.4-6.7,25.3C-647.5,42.6-648.2,63-640.8,63z"/>
						</g>
						<g>
							<path id="FuturaStd-CondensedBold-30_44_" class="st0" d="M-591.8,76.6c-18.1,0-21.2-25.6-21.2-38.9s3.1-38.9,21.2-38.9
								s21.2,25.6,21.2,38.9S-573.7,76.6-591.8,76.6z M-591.8,63c7.4,0,6.7-20.4,6.7-25.3c0-4.9,0.7-25.3-6.7-25.3
								s-6.7,20.4-6.7,25.3C-598.5,42.6-599.2,63-591.8,63z"/>
						</g>
						<g>
							<path id="FuturaStd-CondensedBold-30_45_" class="st0" d="M-542.8,76.6c-18.1,0-21.2-25.6-21.2-38.9s3.1-38.9,21.2-38.9
								s21.2,25.6,21.2,38.9S-524.7,76.6-542.8,76.6z M-542.8,63c7.4,0,6.7-20.4,6.7-25.3c0-4.9,0.7-25.3-6.7-25.3
								s-6.7,20.4-6.7,25.3C-549.5,42.6-550.2,63-542.8,63z"/>
						</g>
					</g>
				</g>
			</g>
			<g id="ytick_8">
				<g id="text_27">
					<g transform="translate(55.56 202.378571)scale(0.14 -0.14)">
						<g>
							<path id="FuturaStd-CondensedBold-37_2_" class="st0" d="M-707,75.4v-13h20.3L-710.2,0h15.5l28.4,75.4H-707z"/>
						</g>
						<g>
							<path id="FuturaStd-CondensedBold-30_49_" class="st0" d="M-640.8,76.6c-18.1,0-21.2-25.6-21.2-38.9s3.1-38.9,21.2-38.9
								s21.2,25.6,21.2,38.9S-622.7,76.6-640.8,76.6z M-640.8,63c7.4,0,6.7-20.4,6.7-25.3c0-4.9,0.7-25.3-6.7-25.3
								s-6.7,20.4-6.7,25.3C-647.5,42.6-648.2,63-640.8,63z"/>
						</g>
						<g>
							<path id="FuturaStd-CondensedBold-30_50_" class="st0" d="M-591.8,76.6c-18.1,0-21.2-25.6-21.2-38.9s3.1-38.9,21.2-38.9
								s21.2,25.6,21.2,38.9S-573.7,76.6-591.8,76.6z M-591.8,63c7.4,0,6.7-20.4,6.7-25.3c0-4.9,0.7-25.3-6.7-25.3
								s-6.7,20.4-6.7,25.3C-598.5,42.6-599.2,63-591.8,63z"/>
						</g>
						<g>
							<path id="FuturaStd-CondensedBold-30_51_" class="st0" d="M-542.8,76.6c-18.1,0-21.2-25.6-21.2-38.9s3.1-38.9,21.2-38.9
								s21.2,25.6,21.2,38.9S-524.7,76.6-542.8,76.6z M-542.8,63c7.4,0,6.7-20.4,6.7-25.3c0-4.9,0.7-25.3-6.7-25.3
								s-6.7,20.4-6.7,25.3C-549.5,42.6-550.2,63-542.8,63z"/>
						</g>
					</g>
				</g>
			</g>
		</g>
		<g id="patch_3">
			<g>
				<path class="st1" d="M131.9,71.8v15.5h318.8V71.8H131.9z"/>
			</g>
		</g>
		<g id="patch_4">
			<g>
				<path class="st1" d="M131.9,102.8v15.5h233v-15.5H131.9z"/>
			</g>
		</g>
		<g id="patch_5">
			<g>
				<path class="st1" d="M131.9,133.7v15.5h307.8v-15.5H131.9z"/>
			</g>
		</g>
		<g id="patch_6">
			<g>
				<path class="st1" d="M131.9,164.7v15.5h293.2v-15.5H131.9z"/>
			</g>
		</g>
		<g id="patch_7">
			<g>
				<path class="st1" d="M131.9,195.7v15.5h386.5v-15.5H131.9z"/>
			</g>
		</g>
		<g id="patch_8">
			<g>
				<path class="st1" d="M131.9,226.7v15.5h413.6v-15.5H131.9z"/>
			</g>
		</g>
		<g id="patch_9">
			<g>
				<path class="st1" d="M131.9,257.7v15.5h469.4v-15.5H131.9z"/>
			</g>
		</g>
		<g id="patch_10">
			<g>
				<path class="st1" d="M131.9,288.6v15.5h502v-15.5H131.9z"/>
			</g>
		</g>
		<g id="patch_11">
			<g>
				<path class="st1" d="M131.9,319.6v15.5h427v-15.5H131.9z"/>
			</g>
		</g>
		<g id="patch_12">
			<g>
				<path class="st1" d="M131.9,350.6v15.5h528v-15.5H131.9z"/>
			</g>
		</g>
		<g id="patch_13">
			<g>
				<path class="st1" d="M131.9,381.6v15.5h437.2v-15.5H131.9z"/>
			</g>
		</g>
		<g id="patch_14">
			<g>
				<path class="st1" d="M131.9,412.6v15.5h396.2v-15.5H131.9z"/>
			</g>
		</g>
		<g id="patch_15">
			<g>
				<path class="st1" d="M131.9,443.5V459h270.8v-15.5H131.9z"/>
			</g>
		</g>
		<g id="patch_16">
			<g>
				<path class="st1" d="M131.9,474.5V490h451.9v-15.5H131.9z"/>
			</g>
		</g>
		<g id="patch_17">
			<g>
				<path class="st1" d="M131.9,505.5V521h339.2v-15.5H131.9z"/>
			</g>
		</g>
		<g id="patch_18">
			<g>
				<path class="st1" d="M131.9,536.5V552h331.9v-15.5H131.9z"/>
			</g>
		</g>
		<g id="patch_19">
			<g>
				<path class="st1" d="M131.9,567.5V583h280.5v-15.5H131.9z"/>
			</g>
		</g>
		<g id="patch_20">
			<g>
				<path class="st1" d="M131.9,598.4v15.5h257.2v-15.5H131.9z"/>
			</g>
		</g>
	</g>
</g>
<g>
	<text transform="matrix(1 0 0 1 78 84.2576)" class="st2 st3 st4">2000</text>
</g>
<g>
	<text transform="matrix(1 0 0 1 78 115.2385)" class="st2 st3 st4">2001</text>
</g>
<g>
	<text transform="matrix(1 0 0 1 78 146.2191)" class="st2 st3 st4">2002</text>
</g>
<g>
	<text transform="matrix(1 0 0 1 78 177.1998)" class="st2 st3 st4">2003</text>
</g>
<g>
	<text transform="matrix(1 0 0 1 78 208.1805)" class="st2 st3 st4">2004</text>
</g>
<g>
	<text transform="matrix(1 0 0 1 78 239.1613)" class="st2 st3 st4">2005</text>
</g>
<g>
	<text transform="matrix(1 0 0 1 78 270.142)" class="st2 st3 st4">2006</text>
</g>
<g>
	<text transform="matrix(1 0 0 1 78 301.1226)" class="st2 st3 st4">2007</text>
</g>
<g>
	<text transform="matrix(1 0 0 1 78 332.1036)" class="st2 st3 st4">2008</text>
</g>
<g>
	<text transform="matrix(1 0 0 1 78 363.0842)" class="st2 st3 st4">2009</text>
</g>
<g>
	<text transform="matrix(1 0 0 1 78 394.065)" class="st2 st3 st4">2010</text>
</g>
<g>
	<text transform="matrix(1 0 0 1 78 425.0455)" class="st2 st3 st4">2011</text>
</g>
<g>
	<text transform="matrix(1 0 0 1 78 456.0258)" class="st2 st3 st4">2012</text>
</g>
<g>
	<text transform="matrix(1 0 0 1 78 487.0063)" class="st2 st3 st4">2013</text>
</g>
<g>
	<text transform="matrix(1 0 0 1 78 517.9868)" class="st2 st3 st4">2014</text>
</g>
<g>
	<text transform="matrix(1 0 0 1 78 548.9671)" class="st2 st3 st4">2015</text>
</g>
<g>
	<text transform="matrix(1 0 0 1 78 579.948)" class="st2 st3 st4">2016</text>
</g>
<g>
	<text transform="matrix(1 0 0 1 78 610.9289)" class="st2 st3 st4">2017</text>
</g>
<text transform="matrix(1 0 0 1 245.2151 653.9289)" class="st2 st3 st4">2000</text>
<g>
	<text transform="matrix(1 0 0 1 371.9938 653.9291)" class="st2 st3 st4">4000</text>
</g>
<g>
	<text transform="matrix(1 0 0 1 498.9344 653.9293)" class="st2 st3 st4">6000</text>
</g>
<g>
	<text transform="matrix(1 0 0 1 625.7562 653.9288)" class="st2 st3 st4">8000</text>
</g>
</svg>
