<?xml version="1.0" encoding="utf-8"?>
<!-- Generator: Adobe Illustrator 22.1.0, SVG Export Plug-In . SVG Version: 6.00 Build 0)  -->
<svg version="1.1" id="Layer_1" xmlns="http://www.w3.org/2000/svg" xmlns:xlink="http://www.w3.org/1999/xlink" x="0px" y="0px"
	 viewBox="0 0 1357.9 905.3" style="enable-background:new 0 0 1357.9 905.3;" xml:space="preserve">
<style type="text/css">
	.st0{fill:#EEE8D5;}
	.st1{fill:#657B83;}
	.st2{clip-path:url(#SVGID_2_);fill:none;stroke:#FFFFFF;stroke-linejoin:round;stroke-dasharray:1,1.65;}
	.st3{clip-path:url(#SVGID_4_);fill:none;stroke:#FFFFFF;stroke-linejoin:round;stroke-dasharray:1,1.65;}
	.st4{clip-path:url(#SVGID_6_);fill:none;stroke:#FFFFFF;stroke-linejoin:round;stroke-dasharray:1,1.65;}
	.st5{clip-path:url(#SVGID_8_);fill:none;stroke:#FFFFFF;stroke-linejoin:round;stroke-dasharray:1,1.65;}
	.st6{clip-path:url(#SVGID_10_);fill:none;stroke:#FFFFFF;stroke-linejoin:round;stroke-dasharray:1,1.65;}
	.st7{clip-path:url(#SVGID_12_);fill:none;stroke:#FFFFFF;stroke-linejoin:round;stroke-dasharray:1,1.65;}
	.st8{clip-path:url(#SVGID_14_);fill:none;stroke:#FFFFFF;stroke-linejoin:round;stroke-dasharray:1,1.65;}
	.st9{clip-path:url(#SVGID_16_);fill:none;stroke:#DBD7AD;stroke-width:2;stroke-linejoin:round;}
	.st10{fill:none;stroke:#EEE8D5;stroke-width:0.8;stroke-linecap:square;}
	.st11{fill:none;}
	.st12{font-family:'Futura-CondensedMedium';}
	.st13{font-size:16px;}
	.st14{letter-spacing:2;}
	.st15{font-family:'Futura-CondensedExtraBold';}
	.st16{font-size:56px;}
	.st17{fill:none;stroke:#DBD7AD;stroke-width:2;stroke-linejoin:round;}
	.st18{fill:none;stroke:#D26C3D;stroke-width:2;stroke-linejoin:round;}
</style>
<path class="st0" d="M269,824.6h837V270.2H269V824.6z"/>
<path id="FuturaStd-CondensedBold-32" class="st1" d="M299.1,831.2v-0.5c0-0.4,0-1.2,0.6-1.2c0.5,0,0.6,0.5,0.6,0.9
	c0,0.8-0.6,1.9-1,2.6l-1.7,3.1h4v-1.3h-1.8l1.3-2.4c0.4-0.7,0.6-1.3,0.6-2c0-1.3-0.8-1.9-2-1.9c-1.6,0-2,0.9-2,2.3v0.4L299.1,831.2
	L299.1,831.2z"/>
<path id="FuturaStd-CondensedBold-30" class="st1" d="M304.6,828.5c-1.8,0-2.1,2.6-2.1,3.9c0,1.3,0.3,3.9,2.1,3.9
	c1.8,0,2.1-2.6,2.1-3.9C306.7,831,306.4,828.5,304.6,828.5z M304.6,829.8c0.7,0,0.7,2,0.7,2.5s0.1,2.5-0.7,2.5s-0.7-2-0.7-2.5
	C303.9,831.9,303.8,829.8,304.6,829.8z"/>
<path id="FuturaStd-CondensedBold-30_1_" class="st1" d="M309.5,828.5c-1.8,0-2.1,2.6-2.1,3.9c0,1.3,0.3,3.9,2.1,3.9
	c1.8,0,2.1-2.6,2.1-3.9C311.6,831,311.3,828.5,309.5,828.5z M309.5,829.8c0.7,0,0.7,2,0.7,2.5s0.1,2.5-0.7,2.5c-0.7,0-0.7-2-0.7-2.5
	C308.8,831.9,308.7,829.8,309.5,829.8z"/>
<path id="FuturaStd-CondensedBold-36" class="st1" d="M314,828.6l-0.6,1.3c-0.6,1.2-1.1,2.4-1.1,3.7s0.6,2.7,2.1,2.7
	c1.6,0,2.1-1.4,2.1-2.8c0-0.9-0.4-2.3-1.5-2.3c-0.4,0-0.7,0.2-0.9,0.4l0,0l1.4-2.9H314V828.6z M314.4,832.5c0.5,0,0.6,0.8,0.6,1.2
	s-0.1,1.3-0.6,1.3s-0.6-0.9-0.6-1.2C313.7,833.4,313.8,832.5,314.4,832.5z"/>
<path id="FuturaStd-CondensedBold-32_1_" class="st1" d="M375.2,831.2v-0.5c0-0.4,0-1.2,0.6-1.2c0.5,0,0.6,0.5,0.6,0.9
	c0,0.8-0.6,1.9-1,2.6l-1.7,3.1h4v-1.3h-1.8l1.3-2.4c0.4-0.7,0.6-1.3,0.6-2c0-1.3-0.8-1.9-2-1.9c-1.6,0-2,0.9-2,2.3v0.4L375.2,831.2
	L375.2,831.2z"/>
<path id="FuturaStd-CondensedBold-30_2_" class="st1" d="M380.6,828.5c-1.8,0-2.1,2.6-2.1,3.9c0,1.3,0.3,3.9,2.1,3.9
	c1.8,0,2.1-2.6,2.1-3.9C382.8,831,382.5,828.5,380.6,828.5z M380.6,829.8c0.7,0,0.7,2,0.7,2.5s0.1,2.5-0.7,2.5s-0.7-2-0.7-2.5
	C380,831.9,379.9,829.8,380.6,829.8z"/>
<path id="FuturaStd-CondensedBold-30_3_" class="st1" d="M385.5,828.5c-1.8,0-2.1,2.6-2.1,3.9c0,1.3,0.3,3.9,2.1,3.9
	c1.8,0,2.1-2.6,2.1-3.9C387.7,831,387.4,828.5,385.5,828.5z M385.5,829.8c0.7,0,0.7,2,0.7,2.5s0.1,2.5-0.7,2.5c-0.7,0-0.7-2-0.7-2.5
	C384.9,831.9,384.8,829.8,385.5,829.8z"/>
<path id="FuturaStd-CondensedBold-37" class="st1" d="M388.7,828.6v1.3h2l-2.4,6.2h1.6l2.8-7.5H388.7z"/>
<path id="FuturaStd-CondensedBold-32_2_" class="st1" d="M451.3,831.2v-0.5c0-0.4,0-1.2,0.6-1.2c0.5,0,0.6,0.5,0.6,0.9
	c0,0.8-0.6,1.9-1,2.6l-1.7,3.1h4v-1.3H452l1.3-2.4c0.4-0.7,0.6-1.3,0.6-2c0-1.3-0.8-1.9-2-1.9c-1.6,0-2,0.9-2,2.3v0.4L451.3,831.2
	L451.3,831.2z"/>
<path id="FuturaStd-CondensedBold-30_4_" class="st1" d="M456.7,828.5c-1.8,0-2.1,2.6-2.1,3.9c0,1.3,0.3,3.9,2.1,3.9
	c1.8,0,2.1-2.6,2.1-3.9C458.9,831,458.5,828.5,456.7,828.5z M456.7,829.8c0.7,0,0.7,2,0.7,2.5s0.1,2.5-0.7,2.5s-0.7-2-0.7-2.5
	C456.1,831.9,456,829.8,456.7,829.8z"/>
<path id="FuturaStd-CondensedBold-30_5_" class="st1" d="M461.6,828.5c-1.8,0-2.1,2.6-2.1,3.9c0,1.3,0.3,3.9,2.1,3.9
	c1.8,0,2.1-2.6,2.1-3.9C463.8,831,463.4,828.5,461.6,828.5z M461.6,829.8c0.7,0,0.7,2,0.7,2.5s0.1,2.5-0.7,2.5c-0.7,0-0.7-2-0.7-2.5
	C461,831.9,460.9,829.8,461.6,829.8z"/>
<path id="FuturaStd-CondensedBold-38" class="st1" d="M465.7,832.1c-0.9,0.3-1.3,1-1.3,2c0,1.2,0.9,2.2,2.2,2.2
	c1.3,0,2.2-0.9,2.2-2.2c0-1-0.4-1.7-1.3-2l0,0c0.7-0.2,1-0.9,1-1.6c0-1.1-0.7-2-1.9-2c-1.2,0-1.9,0.9-1.9,2
	C464.7,831.2,465,831.8,465.7,832.1L465.7,832.1z M466.1,830.4c0-0.3,0.1-0.8,0.4-0.8c0.4,0,0.5,0.5,0.5,0.8s0,0.9-0.5,0.9
	C466.1,831.3,466.1,830.7,466.1,830.4z M466.5,832.8c0.5,0,0.6,0.7,0.6,1.1c0,0.4-0.1,1.1-0.6,1.1s-0.6-0.7-0.6-1.1
	S466,832.8,466.5,832.8z"/>
<path id="FuturaStd-CondensedBold-32_3_" class="st1" d="M527.4,831.2v-0.5c0-0.4,0-1.2,0.6-1.2c0.5,0,0.6,0.5,0.6,0.9
	c0,0.8-0.6,1.9-1,2.6l-1.7,3.1h4v-1.3h-1.8l1.3-2.4c0.3-0.7,0.6-1.3,0.6-2c0-1.3-0.8-1.9-2-1.9c-1.6,0-2,0.9-2,2.3v0.4L527.4,831.2
	L527.4,831.2z"/>
<path id="FuturaStd-CondensedBold-30_6_" class="st1" d="M532.8,828.5c-1.8,0-2.1,2.6-2.1,3.9c0,1.3,0.3,3.9,2.1,3.9
	s2.1-2.6,2.1-3.9C534.9,831,534.6,828.5,532.8,828.5z M532.8,829.8c0.7,0,0.7,2,0.7,2.5s0.1,2.5-0.7,2.5c-0.7,0-0.7-2-0.7-2.5
	C532.2,831.9,532.1,829.8,532.8,829.8z"/>
<path id="FuturaStd-CondensedBold-30_7_" class="st1" d="M537.7,828.5c-1.8,0-2.1,2.6-2.1,3.9c0,1.3,0.3,3.9,2.1,3.9
	s2.1-2.6,2.1-3.9C539.8,831,539.5,828.5,537.7,828.5z M537.7,829.8c0.7,0,0.7,2,0.7,2.5s0.1,2.5-0.7,2.5c-0.7,0-0.7-2-0.7-2.5
	C537.1,831.9,537,829.8,537.7,829.8z"/>
<path id="FuturaStd-CondensedBold-39" class="st1" d="M543,836.1l0.6-1.3c0.6-1.2,1.1-2.4,1.1-3.7s-0.6-2.7-2.1-2.7
	c-1.6,0-2.1,1.4-2.1,2.8c0,0.9,0.4,2.3,1.5,2.3c0.4,0,0.7-0.2,0.9-0.4l0,0l-1.4,3L543,836.1L543,836.1z M542.6,829.8
	c0.5,0,0.6,0.8,0.6,1.2s-0.1,1.3-0.7,1.3c-0.5,0-0.6-0.8-0.6-1.2C542,830.7,542.1,829.8,542.6,829.8z"/>
<path id="FuturaStd-CondensedBold-32_4_" class="st1" d="M603.5,831.2v-0.5c0-0.4,0-1.2,0.6-1.2c0.5,0,0.6,0.5,0.6,0.9
	c0,0.8-0.6,1.9-1,2.6l-1.7,3.1h4v-1.3h-1.8l1.3-2.4c0.4-0.7,0.6-1.3,0.6-2c0-1.3-0.8-1.9-2-1.9c-1.6,0-2,0.9-2,2.3v0.4L603.5,831.2
	L603.5,831.2z"/>
<path id="FuturaStd-CondensedBold-30_8_" class="st1" d="M608.9,828.5c-1.8,0-2.1,2.6-2.1,3.9c0,1.3,0.3,3.9,2.1,3.9
	s2.1-2.6,2.1-3.9C611,831,610.7,828.5,608.9,828.5z M608.9,829.8c0.7,0,0.7,2,0.7,2.5s0.1,2.5-0.7,2.5s-0.7-2-0.7-2.5
	C608.2,831.9,608.2,829.8,608.9,829.8z"/>
<path id="FuturaStd-CondensedBold-31" class="st1" d="M612.5,828.6v1.3h0.7v6.2h1.5v-7.5H612.5z"/>
<path id="FuturaStd-CondensedBold-30_9_" class="st1" d="M618.7,828.5c-1.8,0-2.1,2.6-2.1,3.9c0,1.3,0.3,3.9,2.1,3.9
	s2.1-2.6,2.1-3.9C620.8,831,620.5,828.5,618.7,828.5z M618.7,829.8c0.7,0,0.7,2,0.7,2.5s0.1,2.5-0.7,2.5c-0.7,0-0.7-2-0.7-2.5
	C618,831.9,618,829.8,618.7,829.8z"/>
<path id="FuturaStd-CondensedBold-32_5_" class="st1" d="M679.6,831.2v-0.5c0-0.4,0-1.2,0.6-1.2c0.5,0,0.6,0.5,0.6,0.9
	c0,0.8-0.6,1.9-1,2.6l-1.7,3.1h4v-1.3h-1.8l1.3-2.4c0.3-0.7,0.6-1.3,0.6-2c0-1.3-0.8-1.9-2-1.9c-1.6,0-2,0.9-2,2.3v0.4L679.6,831.2
	L679.6,831.2z"/>
<path id="FuturaStd-CondensedBold-30_10_" class="st1" d="M685,828.5c-1.8,0-2.1,2.6-2.1,3.9c0,1.3,0.3,3.9,2.1,3.9s2.1-2.6,2.1-3.9
	C687.1,831,686.8,828.5,685,828.5z M685,829.8c0.7,0,0.7,2,0.7,2.5s0.1,2.5-0.7,2.5c-0.7,0-0.7-2-0.7-2.5
	C684.3,831.9,684.3,829.8,685,829.8z"/>
<path id="FuturaStd-CondensedBold-31_1_" class="st1" d="M688.6,828.6v1.3h0.7v6.2h1.5v-7.5H688.6z"/>
<path id="FuturaStd-CondensedBold-31_2_" class="st1" d="M693.5,828.6v1.3h0.7v6.2h1.5v-7.5H693.5z"/>
<path id="FuturaStd-CondensedBold-32_6_" class="st1" d="M755.7,831.2v-0.5c0-0.4,0-1.2,0.6-1.2c0.5,0,0.6,0.5,0.6,0.9
	c0,0.8-0.6,1.9-1,2.6l-1.7,3.1h4v-1.3h-1.8l1.3-2.4c0.3-0.7,0.6-1.3,0.6-2c0-1.3-0.8-1.9-2-1.9c-1.6,0-2,0.9-2,2.3v0.4L755.7,831.2
	L755.7,831.2z"/>
<path id="FuturaStd-CondensedBold-30_11_" class="st1" d="M761.1,828.5c-1.8,0-2.1,2.6-2.1,3.9c0,1.3,0.3,3.9,2.1,3.9
	s2.1-2.6,2.1-3.9C763.2,831,762.9,828.5,761.1,828.5z M761.1,829.8c0.7,0,0.7,2,0.7,2.5s0.1,2.5-0.7,2.5c-0.7,0-0.7-2-0.7-2.5
	C760.4,831.9,760.4,829.8,761.1,829.8z"/>
<path id="FuturaStd-CondensedBold-31_3_" class="st1" d="M764.7,828.6v1.3h0.7v6.2h1.5v-7.5H764.7z"/>
<path id="FuturaStd-CondensedBold-32_7_" class="st1" d="M770.4,831.2v-0.5c0-0.4,0-1.2,0.6-1.2c0.5,0,0.6,0.5,0.6,0.9
	c0,0.8-0.6,1.9-1,2.6l-1.7,3.1h4v-1.3h-1.8l1.3-2.4c0.3-0.7,0.6-1.3,0.6-2c0-1.3-0.8-1.9-2-1.9c-1.6,0-2,0.9-2,2.3v0.4L770.4,831.2
	L770.4,831.2z"/>
<path id="FuturaStd-CondensedBold-32_8_" class="st1" d="M831.7,831.2v-0.5c0-0.4,0-1.2,0.6-1.2c0.5,0,0.6,0.5,0.6,0.9
	c0,0.8-0.6,1.9-1,2.6l-1.7,3.1h4v-1.3h-1.8l1.3-2.4c0.3-0.7,0.6-1.3,0.6-2c0-1.3-0.8-1.9-2-1.9c-1.6,0-2,0.9-2,2.3v0.4L831.7,831.2
	L831.7,831.2z"/>
<path id="FuturaStd-CondensedBold-30_12_" class="st1" d="M837.2,828.5c-1.8,0-2.1,2.6-2.1,3.9c0,1.3,0.3,3.9,2.1,3.9
	s2.1-2.6,2.1-3.9C839.3,831,839,828.5,837.2,828.5z M837.2,829.8c0.7,0,0.7,2,0.7,2.5s0.1,2.5-0.7,2.5c-0.7,0-0.7-2-0.7-2.5
	C836.5,831.9,836.5,829.8,837.2,829.8z"/>
<path id="FuturaStd-CondensedBold-31_4_" class="st1" d="M840.7,828.6v1.3h0.7v6.2h1.5v-7.5H840.7z"/>
<path id="FuturaStd-CondensedBold-33" class="st1" d="M846.3,834.2h-1.4c-0.1,1.3,0.7,2.1,2,2.1c1.4,0,2.2-0.8,2.2-2.2
	c0-0.8-0.3-1.6-1.2-1.8l0,0c0.7-0.3,0.9-1.1,0.9-1.8c0-1.2-0.7-2-1.9-2c-1.4,0-1.8,1-1.8,2.2h1.3v-0.2c0-0.3,0.1-0.8,0.5-0.8
	s0.5,0.4,0.5,0.8c0,0.8-0.3,1-1.1,1v1.3c0.8,0,1.1,0.2,1.1,1.1c0,0.4,0,1.1-0.7,1.1c-0.4,0-0.6-0.3-0.6-0.6L846.3,834.2z"/>
<path id="FuturaStd-CondensedBold-32_9_" class="st1" d="M907.8,831.2v-0.5c0-0.4,0-1.2,0.6-1.2c0.5,0,0.6,0.5,0.6,0.9
	c0,0.8-0.6,1.9-1,2.6l-1.7,3.1h4v-1.3h-1.8l1.3-2.4c0.3-0.7,0.6-1.3,0.6-2c0-1.3-0.8-1.9-2-1.9c-1.6,0-2,0.9-2,2.3v0.4L907.8,831.2
	L907.8,831.2z"/>
<path id="FuturaStd-CondensedBold-30_13_" class="st1" d="M913.3,828.5c-1.8,0-2.1,2.6-2.1,3.9c0,1.3,0.3,3.9,2.1,3.9
	s2.1-2.6,2.1-3.9C915.4,831,915.1,828.5,913.3,828.5z M913.3,829.8c0.7,0,0.7,2,0.7,2.5s0.1,2.5-0.7,2.5c-0.7,0-0.7-2-0.7-2.5
	C912.6,831.9,912.5,829.8,913.3,829.8z"/>
<path id="FuturaStd-CondensedBold-31_5_" class="st1" d="M916.8,828.6v1.3h0.7v6.2h1.5v-7.5H916.8z"/>
<path id="FuturaStd-CondensedBold-34" class="st1" d="M922.9,828.6l-2,4.6v1.1h2.2v1.8h1.4v-1.8h0.6v-1.1h-0.6v-4.6H922.9z
	 M923.1,833.2H922l1.1-2.9l0,0V833.2z"/>
<path id="FuturaStd-CondensedBold-32_10_" class="st1" d="M983.9,831.2v-0.5c0-0.4,0-1.2,0.6-1.2c0.5,0,0.6,0.5,0.6,0.9
	c0,0.8-0.6,1.9-1,2.6l-1.7,3.1h4v-1.3h-1.8l1.3-2.4c0.3-0.7,0.6-1.3,0.6-2c0-1.3-0.8-1.9-2-1.9c-1.6,0-2,0.9-2,2.3v0.4L983.9,831.2
	L983.9,831.2z"/>
<path id="FuturaStd-CondensedBold-30_14_" class="st1" d="M989.4,828.5c-1.8,0-2.1,2.6-2.1,3.9c0,1.3,0.3,3.9,2.1,3.9
	s2.1-2.6,2.1-3.9C991.5,831,991.2,828.5,989.4,828.5z M989.4,829.8c0.7,0,0.7,2,0.7,2.5s0.1,2.5-0.7,2.5c-0.7,0-0.7-2-0.7-2.5
	C988.7,831.9,988.6,829.8,989.4,829.8z"/>
<path id="FuturaStd-CondensedBold-31_6_" class="st1" d="M992.9,828.6v1.3h0.7v6.2h1.5v-7.5H992.9z"/>
<path id="FuturaStd-CondensedBold-35" class="st1" d="M997.5,832.3c0.2,0,0.4-0.1,0.6-0.1c0.9,0,1.5,0.4,1.5,1.3
	c0,0.7-0.4,1.4-1.2,1.4c-0.3,0-0.7-0.1-0.9-0.4l-0.2,1.3c0.5,0.2,0.9,0.3,1.5,0.3c1.7,0,2.5-1,2.5-2.7c0-1.5-0.7-2.4-2.2-2.5
	l0.2-1.2h1.8v-1.3h-2.9L997.5,832.3z"/>
<path id="FuturaStd-CondensedBold-32_11_" class="st1" d="M1060,831.2v-0.5c0-0.4,0-1.2,0.6-1.2c0.5,0,0.6,0.5,0.6,0.9
	c0,0.8-0.6,1.9-1,2.6l-1.7,3.1h4v-1.3h-1.8l1.3-2.4c0.3-0.7,0.6-1.3,0.6-2c0-1.3-0.8-1.9-2-1.9c-1.6,0-2,0.9-2,2.3v0.4L1060,831.2
	L1060,831.2z"/>
<path id="FuturaStd-CondensedBold-30_15_" class="st1" d="M1065.5,828.5c-1.8,0-2.1,2.6-2.1,3.9c0,1.3,0.3,3.9,2.1,3.9
	c1.8,0,2.1-2.6,2.1-3.9C1067.6,831,1067.3,828.5,1065.5,828.5z M1065.5,829.8c0.7,0,0.7,2,0.7,2.5s0.1,2.5-0.7,2.5s-0.7-2-0.7-2.5
	C1064.8,831.9,1064.7,829.8,1065.5,829.8z"/>
<path id="FuturaStd-CondensedBold-31_7_" class="st1" d="M1069,828.6v1.3h0.7v6.2h1.5v-7.5H1069z"/>
<path id="FuturaStd-CondensedBold-36_1_" class="st1" d="M1074.9,828.6l-0.6,1.3c-0.6,1.2-1.1,2.4-1.1,3.7s0.6,2.7,2.1,2.7
	c1.6,0,2.1-1.4,2.1-2.8c0-0.9-0.4-2.3-1.5-2.3c-0.4,0-0.7,0.2-0.9,0.4l0,0l1.4-2.9h-1.5V828.6z M1075.3,832.5c0.5,0,0.6,0.8,0.6,1.2
	s-0.1,1.3-0.6,1.3s-0.6-0.9-0.6-1.2C1074.6,833.4,1074.7,832.5,1075.3,832.5z"/>
<g>
	<g>
		<defs>
			<rect id="SVGID_1_" x="269" y="270.2" width="837" height="554.4"/>
		</defs>
		<clipPath id="SVGID_2_">
			<use xlink:href="#SVGID_1_"  style="overflow:visible;"/>
		</clipPath>
		<path class="st2" d="M269,824.6h837"/>
	</g>
</g>
<path id="FuturaStd-CondensedBold-30_16_" class="st1" d="M263,820.9c-1.8,0-2.1,2.6-2.1,3.9c0,1.3,0.3,3.9,2.1,3.9
	c1.8,0,2.1-2.6,2.1-3.9S264.8,820.9,263,820.9z M263,822.3c0.7,0,0.7,2,0.7,2.5s0.1,2.5-0.7,2.5s-0.7-2-0.7-2.5
	S262.3,822.3,263,822.3z"/>
<g>
	<g>
		<defs>
			<rect id="SVGID_3_" x="269" y="270.2" width="837" height="554.4"/>
		</defs>
		<clipPath id="SVGID_4_">
			<use xlink:href="#SVGID_3_"  style="overflow:visible;"/>
		</clipPath>
		<path class="st3" d="M269,743.7h837"/>
	</g>
</g>
<path id="FuturaStd-CondensedBold-31_8_" class="st1" d="M256.8,740.2v1.3h0.7v6.2h1.4v-7.5H256.8z"/>
<path id="FuturaStd-CondensedBold-30_17_" class="st1" d="M263,740.1c-1.8,0-2.1,2.6-2.1,3.9c0,1.3,0.3,3.9,2.1,3.9
	c1.8,0,2.1-2.6,2.1-3.9C265.1,742.6,264.8,740.1,263,740.1z M263,741.4c0.7,0,0.7,2,0.7,2.5s0.1,2.5-0.7,2.5c-0.7,0-0.7-2-0.7-2.5
	C262.3,743.5,262.3,741.4,263,741.4z"/>
<g>
	<g>
		<defs>
			<rect id="SVGID_5_" x="269" y="270.2" width="837" height="554.4"/>
		</defs>
		<clipPath id="SVGID_6_">
			<use xlink:href="#SVGID_5_"  style="overflow:visible;"/>
		</clipPath>
		<path class="st4" d="M269,662.8h837"/>
	</g>
</g>
<path id="FuturaStd-CondensedBold-32_12_" class="st1" d="M257.6,661.9v-0.5c0-0.4,0-1.2,0.6-1.2c0.5,0,0.6,0.5,0.6,0.9
	c0,0.8-0.6,1.8-1,2.6l-1.7,3.1h4v-1.3h-1.8l1.3-2.4c0.4-0.7,0.6-1.3,0.6-2c0-1.3-0.8-1.9-2-1.9c-1.6,0-2,0.9-2,2.3v0.4L257.6,661.9
	L257.6,661.9z"/>
<path id="FuturaStd-CondensedBold-30_18_" class="st1" d="M263,659.2c-1.8,0-2.1,2.6-2.1,3.9c0,1.3,0.3,3.9,2.1,3.9
	c1.8,0,2.1-2.6,2.1-3.9C265.1,661.7,264.8,659.2,263,659.2z M263,660.5c0.7,0,0.7,2,0.7,2.5s0.1,2.5-0.7,2.5c-0.7,0-0.7-2-0.7-2.5
	C262.3,662.6,262.3,660.5,263,660.5z"/>
<path id="FuturaStd-CondensedBold-33_1_" class="st1" d="M257.4,584H256c-0.1,1.3,0.7,2.1,2,2.1c1.4,0,2.2-0.8,2.2-2.2
	c0-0.8-0.3-1.6-1.2-1.8l0,0c0.7-0.3,0.9-1.1,0.9-1.8c0-1.2-0.7-2-1.9-2c-1.4,0-1.8,1-1.8,2.2h1.3v-0.2c0-0.3,0.1-0.8,0.5-0.8
	s0.5,0.4,0.5,0.8c0,0.8-0.3,1-1.1,1v1.3c0.8,0,1.1,0.2,1.1,1c0,0.5,0,1.1-0.6,1.1c-0.4,0-0.6-0.3-0.6-0.6L257.4,584z"/>
<path id="FuturaStd-CondensedBold-30_19_" class="st1" d="M263,578.3c-1.8,0-2.1,2.6-2.1,3.9c0,1.3,0.3,3.9,2.1,3.9
	c1.8,0,2.1-2.6,2.1-3.9C265.1,580.9,264.8,578.3,263,578.3z M263,579.7c0.7,0,0.7,2,0.7,2.5s0.1,2.5-0.7,2.5c-0.7,0-0.7-2-0.7-2.5
	S262.3,579.7,263,579.7z"/>
<g>
	<g>
		<defs>
			<rect id="SVGID_7_" x="269" y="270.2" width="837" height="554.4"/>
		</defs>
		<clipPath id="SVGID_8_">
			<use xlink:href="#SVGID_7_"  style="overflow:visible;"/>
		</clipPath>
		<path class="st5" d="M269,501h837"/>
	</g>
</g>
<path id="FuturaStd-CondensedBold-34_1_" class="st1" d="M257.9,497.5l-2,4.6v1.1h2.2v1.8h1.5v-1.8h0.6v-1.1h-0.6v-4.6H257.9z
	 M258.1,502.1H257l1.1-2.9l0,0V502.1z"/>
<path id="FuturaStd-CondensedBold-30_20_" class="st1" d="M263,497.4c-1.8,0-2.1,2.6-2.1,3.9s0.3,3.9,2.1,3.9c1.8,0,2.1-2.6,2.1-3.9
	S264.8,497.4,263,497.4z M263,498.8c0.7,0,0.7,2,0.7,2.5s0.1,2.5-0.7,2.5c-0.7,0-0.7-2-0.7-2.5S262.3,498.8,263,498.8z"/>
<g>
	<g>
		<defs>
			<rect id="SVGID_9_" x="269" y="270.2" width="837" height="554.4"/>
		</defs>
		<clipPath id="SVGID_10_">
			<use xlink:href="#SVGID_9_"  style="overflow:visible;"/>
		</clipPath>
		<path class="st6" d="M269,420.2h837"/>
	</g>
</g>
<g>
	<g>
		<defs>
			<rect id="SVGID_11_" x="268.6" y="432.7" width="837" height="554.4"/>
		</defs>
		<clipPath id="SVGID_12_">
			<use xlink:href="#SVGID_11_"  style="overflow:visible;"/>
		</clipPath>
		<path class="st7" d="M268.6,582.7h837"/>
	</g>
</g>
<path id="FuturaStd-CondensedBold-35_1_" class="st1" d="M256.4,420.4c0.2,0,0.4-0.1,0.6-0.1c0.9,0,1.5,0.4,1.5,1.3
	c0,0.7-0.4,1.4-1.2,1.4c-0.3,0-0.7-0.1-0.9-0.4l-0.2,1.3c0.5,0.2,0.9,0.3,1.4,0.3c1.7,0,2.5-1,2.5-2.6c0-1.5-0.7-2.4-2.2-2.5
	l0.2-1.2h1.8v-1.3H257L256.4,420.4z"/>
<path id="FuturaStd-CondensedBold-30_21_" class="st1" d="M263,416.5c-1.8,0-2.1,2.6-2.1,3.9s0.3,3.9,2.1,3.9c1.8,0,2.1-2.6,2.1-3.9
	S264.8,416.5,263,416.5z M263,417.9c0.7,0,0.7,2,0.7,2.5s0.1,2.5-0.7,2.5c-0.7,0-0.7-2-0.7-2.5S262.3,417.9,263,417.9z"/>
<g>
	<g>
		<defs>
			<rect id="SVGID_13_" x="269" y="270.2" width="837" height="554.4"/>
		</defs>
		<clipPath id="SVGID_14_">
			<use xlink:href="#SVGID_13_"  style="overflow:visible;"/>
		</clipPath>
		<path class="st8" d="M269,339.3h837"/>
	</g>
</g>
<path id="FuturaStd-CondensedBold-36_2_" class="st1" d="M257.7,335.8l-0.6,1.3c-0.6,1.2-1.1,2.4-1.1,3.7c0,1.3,0.6,2.6,2.1,2.6
	c1.6,0,2.1-1.4,2.1-2.8c0-0.9-0.4-2.3-1.5-2.3c-0.4,0-0.7,0.2-0.9,0.4l0,0l1.4-2.9L257.7,335.8L257.7,335.8z M258.2,339.7
	c0.5,0,0.6,0.8,0.6,1.2c0,0.4-0.1,1.3-0.6,1.3s-0.6-0.9-0.6-1.2C257.5,340.6,257.6,339.7,258.2,339.7z"/>
<path id="FuturaStd-CondensedBold-30_22_" class="st1" d="M263,335.7c-1.8,0-2.1,2.6-2.1,3.9s0.3,3.9,2.1,3.9c1.8,0,2.1-2.6,2.1-3.9
	S264.8,335.7,263,335.7z M263,337c0.7,0,0.7,2,0.7,2.5s0.1,2.5-0.7,2.5c-0.7,0-0.7-2-0.7-2.5C262.3,339.1,262.3,337,263,337z"/>
<g>
	<g>
		<defs>
			<rect id="SVGID_15_" x="269" y="270.2" width="837" height="554.4"/>
		</defs>
		<clipPath id="SVGID_16_">
			<use xlink:href="#SVGID_15_"  style="overflow:visible;"/>
		</clipPath>
		<path class="st9" d="M307,576.9l76.1,28.1l76.1-97.4l76.1,224.9l76.1-238l76.1-102.3l76.1,98.9l76.1-18.8l76.1-45l76.1-92.8
			l76.1-42.2"/>
	</g>
</g>
<path class="st10" d="M269,824.6V270.2"/>
<path class="st10" d="M1106,824.6V270.2"/>
<path class="st10" d="M269,824.6h837"/>
<path class="st10" d="M269,270.2h837"/>
<rect x="157.9" y="555.1" class="st11" width="68.7" height="59.3"/>
<text transform="matrix(1 0 0 1 157.89 568.3425)" class="st1 st12 st13 st14">Overdose</text>
<text transform="matrix(1 0 0 1 221.89 568.3425)" class="st1 st12 st13">s </text>
<text transform="matrix(1 0 0 1 169.29 587.5425)" class="st1 st12 st13">per 100k </text>
<text transform="matrix(1 0 0 1 165.19 606.7426)" class="st1 st12 st13">population</text>
<rect x="267.2" y="124.9" class="st11" width="837" height="64.5"/>
<text transform="matrix(1 0 0 1 312.7673 171.116)" class="st15 st16">Drug overdoses in Mississippi</text>
<g>
	<g>
		<path d="M416.8,200.9c-1.6,0.3-1.8,0.4-2,2.1c-0.4,2.9-0.8,5.3-1,7.6c-0.3,2.3-0.2,2.4,1.4,2.6l-0.1,0.3h-5.7l0.1-0.3
			c1.4-0.2,1.6-0.4,1.9-2.6c0.4-2.6,0.8-5.1,1.2-7.8l0,0c-2,3.4-4.3,7.3-6.3,10.8H406c-0.6-3.2-1.6-7.6-2.3-10.7l0,0l-1.3,5.2
			c-0.5,2-0.7,3-0.8,3.5c-0.2,1-0.1,1.3,1.6,1.6l-0.1,0.3h-4.6l0.1-0.3c1.3-0.2,1.6-0.4,2.1-1.5c0.2-0.6,0.7-2.3,1.2-3.8l1.5-5.5
			c0.2-0.7,0.1-1.2-1.7-1.5l0.1-0.3h3.8c0.7,2.8,1.7,6.6,2.3,9.3l5.7-9.3h3.6L416.8,200.9z"/>
		<path d="M420.5,211.8c-1.1,1.5-2.4,2.1-3.1,2.1c-0.6,0-0.8-0.6-0.5-2.1c0.4-1.8,0.7-2.9,1.1-4.5c0.1-0.6,0.1-0.9-0.1-0.9
			c-0.3,0-0.8,0.4-1.1,0.8l-0.2-0.3c0.9-1.1,2.4-2,3.1-2s0.7,0.6,0.3,2.4c-0.3,1.4-0.7,2.9-1,4.3c-0.1,0.6,0,0.7,0.1,0.7
			s0.5-0.2,1.1-0.8L420.5,211.8z M420.9,201.8c0,0.7-0.4,1.3-1.1,1.3c-0.6,0-0.9-0.4-0.9-1s0.4-1.3,1.2-1.3
			C420.6,200.8,420.9,201.3,420.9,201.8z"/>
		<path d="M427.1,206c0,0.3-0.4,0.9-0.7,1.1c-0.1,0.1-0.2,0.1-0.4-0.1c-0.4-0.5-1-1.2-1.7-1.2c-0.5,0-0.9,0.4-0.9,0.8
			c0,0.6,0.4,0.9,1.3,1.6c1.5,1.2,1.8,1.6,1.8,2.4c0,1.7-2.6,3.2-3.7,3.2c-0.9,0-2-0.6-2-1.5c0-0.3,0.5-1,0.9-1c0.1,0,0.2,0,0.3,0.1
			c0.8,0.9,1.4,1.4,2.1,1.4c0.6,0,1-0.4,1-0.9c0-0.4-0.3-0.8-1.2-1.6c-0.7-0.6-1.8-1.3-1.8-2.4c0-0.6,0.2-1.3,1.2-2.2
			c0.6-0.5,1.5-0.9,2.1-0.9C426.3,204.9,427.1,205.4,427.1,206z"/>
		<path d="M433.5,206c0,0.3-0.4,0.9-0.7,1.1c-0.1,0.1-0.2,0.1-0.4-0.1c-0.4-0.5-1-1.2-1.7-1.2c-0.5,0-0.9,0.4-0.9,0.8
			c0,0.6,0.4,0.9,1.3,1.6c1.5,1.2,1.8,1.6,1.8,2.4c0,1.7-2.6,3.2-3.7,3.2c-0.9,0-2-0.6-2-1.5c0-0.3,0.5-1,0.9-1c0.1,0,0.2,0,0.3,0.1
			c0.8,0.9,1.4,1.4,2.1,1.4c0.6,0,1-0.4,1-0.9c0-0.4-0.3-0.8-1.2-1.6c-0.7-0.6-1.8-1.3-1.8-2.4c0-0.6,0.2-1.3,1.2-2.2
			c0.6-0.5,1.5-0.9,2.1-0.9C432.7,204.9,433.5,205.4,433.5,206z"/>
		<path d="M438.4,211.8c-1.1,1.5-2.4,2.1-3.1,2.1c-0.6,0-0.8-0.6-0.5-2.1c0.4-1.8,0.7-2.9,1.1-4.5c0.1-0.6,0.1-0.9-0.1-0.9
			c-0.3,0-0.8,0.4-1.1,0.8l-0.2-0.3c0.9-1.1,2.4-2,3.1-2s0.7,0.6,0.3,2.4c-0.3,1.4-0.7,2.9-1,4.3c-0.1,0.6,0,0.7,0.1,0.7
			s0.5-0.2,1.1-0.8L438.4,211.8z M438.8,201.8c0,0.7-0.4,1.3-1.1,1.3c-0.6,0-0.9-0.4-0.9-1s0.4-1.3,1.2-1.3
			C438.5,200.8,438.8,201.3,438.8,201.8z"/>
		<path d="M445,206c0,0.3-0.4,0.9-0.7,1.1c-0.1,0.1-0.2,0.1-0.4-0.1c-0.4-0.5-1-1.2-1.7-1.2c-0.5,0-0.9,0.4-0.9,0.8
			c0,0.6,0.4,0.9,1.3,1.6c1.5,1.2,1.8,1.6,1.8,2.4c0,1.7-2.6,3.2-3.7,3.2c-0.9,0-2-0.6-2-1.5c0-0.3,0.5-1,0.9-1c0.1,0,0.2,0,0.3,0.1
			c0.8,0.9,1.4,1.4,2.1,1.4c0.6,0,1-0.4,1-0.9c0-0.4-0.3-0.8-1.2-1.6c-0.7-0.6-1.8-1.3-1.8-2.4c0-0.6,0.2-1.3,1.2-2.2
			c0.6-0.5,1.5-0.9,2.1-0.9C444.2,204.9,445,205.4,445,206z"/>
		<path d="M451.4,206c0,0.3-0.4,0.9-0.7,1.1c-0.1,0.1-0.2,0.1-0.4-0.1c-0.4-0.5-1-1.2-1.7-1.2c-0.5,0-0.9,0.4-0.9,0.8
			c0,0.6,0.4,0.9,1.3,1.6c1.5,1.2,1.8,1.6,1.8,2.4c0,1.7-2.6,3.2-3.7,3.2c-0.9,0-2-0.6-2-1.5c0-0.3,0.5-1,0.9-1c0.1,0,0.2,0,0.3,0.1
			c0.8,0.9,1.4,1.4,2.1,1.4c0.6,0,1-0.4,1-0.9c0-0.4-0.3-0.8-1.2-1.6c-0.7-0.6-1.8-1.3-1.8-2.4c0-0.6,0.2-1.3,1.2-2.2
			c0.6-0.5,1.5-0.9,2.1-0.9C450.6,204.9,451.4,205.4,451.4,206z"/>
		<path d="M456.3,211.8c-1.1,1.5-2.4,2.1-3.1,2.1c-0.6,0-0.8-0.6-0.5-2.1c0.4-1.8,0.7-2.9,1.1-4.5c0.1-0.6,0.1-0.9-0.1-0.9
			c-0.3,0-0.8,0.4-1.1,0.8l-0.2-0.3c0.9-1.1,2.4-2,3.1-2s0.7,0.6,0.3,2.4c-0.3,1.4-0.7,2.9-1,4.3c-0.1,0.6,0,0.7,0.1,0.7
			s0.5-0.2,1.1-0.8L456.3,211.8z M456.7,201.8c0,0.7-0.4,1.3-1.1,1.3c-0.6,0-0.9-0.4-0.9-1s0.4-1.3,1.2-1.3
			C456.4,200.8,456.7,201.3,456.7,201.8z"/>
		<path d="M461.3,205.1c0.5-0.2,1.2-0.2,1.8-0.2c1.9,0,2.7,1,2.7,2.6c0,1.2-0.6,2.8-1.5,3.9c-0.9,1.1-2.7,2.2-3.7,2.4
			c-0.3,0-0.5,0-0.9-0.2l-0.6,3.3c-0.2,1-0.1,1.3,1,1.4h0.4l-0.1,0.3l-5.2,0.2v-0.3c1.4-0.2,1.5-0.5,1.7-1.8
			c0.6-2.6,1.5-7.2,2.2-10.5c-0.6,0.2-1.1,0.5-1.6,0.7l-0.1-0.3c0.6-0.4,1.2-0.7,1.8-1l0.2-0.8c0.4-0.4,1.4-1.1,2.2-1.4l0.1,0.1
			L461.3,205.1z M459.8,212.6c0.2,0.4,0.6,0.7,1,0.7c1,0,2.6-2.9,2.6-5.7c0-1.5-0.6-1.9-1.5-1.9c-0.4,0-0.5,0-0.8,0.1
			C460.7,208,460.2,210.3,459.8,212.6z"/>
		<path d="M470.7,205.1c0.5-0.2,1.2-0.2,1.8-0.2c1.9,0,2.7,1,2.7,2.6c0,1.2-0.6,2.8-1.5,3.9c-0.9,1.1-2.7,2.2-3.7,2.4
			c-0.3,0-0.5,0-0.9-0.2l-0.6,3.3c-0.2,1-0.1,1.3,1,1.4h0.4l-0.1,0.3l-5.2,0.2v-0.3c1.4-0.2,1.5-0.5,1.7-1.8
			c0.6-2.6,1.5-7.2,2.2-10.5c-0.6,0.2-1.1,0.5-1.6,0.7l-0.1-0.3c0.6-0.4,1.2-0.7,1.8-1l0.2-0.8c0.4-0.4,1.4-1.1,2.2-1.4l0.1,0.1
			L470.7,205.1z M469.3,212.6c0.2,0.4,0.6,0.7,1,0.7c1,0,2.6-2.9,2.6-5.7c0-1.5-0.6-1.9-1.5-1.9c-0.4,0-0.5,0-0.8,0.1
			C470.2,208,469.7,210.3,469.3,212.6z"/>
		<path d="M480.3,211.8c-1.1,1.5-2.4,2.1-3.1,2.1c-0.6,0-0.8-0.6-0.5-2.1c0.4-1.8,0.7-2.9,1.1-4.5c0.1-0.6,0.1-0.9-0.1-0.9
			c-0.3,0-0.8,0.4-1.1,0.8l-0.2-0.3c0.9-1.1,2.4-2,3.1-2s0.7,0.6,0.3,2.4c-0.3,1.4-0.7,2.9-1,4.3c-0.1,0.6,0,0.7,0.1,0.7
			s0.5-0.2,1.1-0.8L480.3,211.8z M480.7,201.8c0,0.7-0.4,1.3-1.1,1.3c-0.6,0-0.9-0.4-0.9-1s0.4-1.3,1.2-1.3
			C480.4,200.8,480.7,201.3,480.7,201.8z"/>
		<path d="M489,211.8c-1.1,1.5-2.4,2.1-3.1,2.1c-0.6,0-0.8-0.6-0.5-2.1c0.4-1.8,0.7-2.9,1.1-4.5c0.1-0.6,0.1-0.9-0.1-0.9
			c-0.3,0-0.8,0.4-1.1,0.8l-0.2-0.3c0.9-1.1,2.4-2,3.1-2s0.7,0.6,0.3,2.4c-0.3,1.4-0.7,2.9-1,4.3c-0.1,0.6,0,0.7,0.1,0.7
			s0.5-0.2,1.1-0.8L489,211.8z M489.4,201.8c0,0.7-0.4,1.3-1.1,1.3c-0.6,0-0.9-0.4-0.9-1s0.4-1.3,1.2-1.3
			C489.1,200.8,489.4,201.3,489.4,201.8z"/>
		<path d="M495.7,206c0,0.3-0.4,0.9-0.7,1.1c-0.1,0.1-0.2,0.1-0.4-0.1c-0.4-0.5-1-1.2-1.7-1.2c-0.5,0-0.9,0.4-0.9,0.8
			c0,0.6,0.4,0.9,1.3,1.6c1.5,1.2,1.8,1.6,1.8,2.4c0,1.7-2.6,3.2-3.7,3.2c-0.9,0-2-0.6-2-1.5c0-0.3,0.5-1,0.9-1c0.1,0,0.2,0,0.3,0.1
			c0.8,0.9,1.4,1.4,2.1,1.4c0.6,0,1-0.4,1-0.9c0-0.4-0.3-0.8-1.2-1.6c-0.7-0.6-1.8-1.3-1.8-2.4c0-0.6,0.2-1.3,1.2-2.2
			c0.6-0.5,1.5-0.9,2.1-0.9C494.9,204.9,495.7,205.4,495.7,206z"/>
		<path d="M505.7,205.7c-0.6,0-1.2,0-1.8,0c-0.4,2.1-1.1,5.3-1.1,5.5c-0.1,0.9-0.1,1.2,0.2,1.2c0.4,0,0.9-0.4,1.5-1l0.2,0.2
			c-0.7,1-2,2.2-3.2,2.2c-0.8,0-1.2-0.7-0.7-3l1.1-5.1h-1.4v-0.1l0.4-0.5h1.1l0.4-2.1c0.6-0.3,1.6-0.7,2.3-1.2l0.2,0.1
			c-0.3,0.8-0.5,2.1-0.8,3.2h1.9L505.7,205.7z"/>
		<path d="M507,200.1c0.8-0.1,2.1-0.3,2.7-0.6c0.4-0.1,0.6-0.2,0.7-0.2c0.2,0,0.1,0.3,0,0.7c-0.5,2.7-1.1,5.4-1.7,8.1
			c1.3-2,3.1-3.3,4.3-3.3c0.7,0,1.3,0.3,0.8,2.8c-0.3,1.3-0.6,2.6-0.9,3.9c-0.1,0.6-0.1,0.7,0.1,0.7c0.2,0,0.5-0.1,1.2-0.8l0.2,0.3
			c-1.1,1.5-2.5,2.1-3.1,2.1c-0.7,0-0.8-0.4-0.5-1.9s0.7-2.9,1-4.4c0.2-1,0.1-1.4-0.3-1.4c-0.6,0-1.4,0.6-2.4,2.3
			c-0.4,0.7-0.6,1.4-0.7,2c-0.2,0.9-0.5,2.1-0.6,2.9c-0.7,0.1-1.5,0.2-2.1,0.4l-0.1-0.2c0.8-3.6,1.6-7.8,2.4-12
			c0.2-1.1,0.1-1.2-0.7-1.3c-0.1,0-0.1,0-0.3,0L507,200.1z"/>
		<path d="M517.7,213.8c-1,0-2.2-0.6-2.2-2.8c0-1.9,0.8-3.8,2.1-4.9c0.8-0.7,2-1.2,2.9-1.2c1.1,0,1.6,0.7,1.6,1.5
			c0,1.7-2.7,2.6-4.4,3c0,0.4,0,0.6,0,0.7c0,1.3,0.4,2.3,1.5,2.3c0.7,0,1.5-0.4,2.4-1.3l0.2,0.3
			C520.3,213.3,518.7,213.8,517.7,213.8z M517.8,209c2-0.4,2.5-1.4,2.5-2.4c0-0.6-0.3-1-0.7-1C518.9,205.6,518.1,206.4,517.8,209z"
			/>
		<path d="M534.4,207.8c0,2.1-1,4.3-2.9,5.4c-0.7,0.4-1.4,0.7-2.3,0.7c-2.1,0-2.7-1.4-2.7-2.9c0-2.6,1.4-4.6,3.2-5.5
			c0.6-0.3,1.3-0.5,2.1-0.5C533.5,204.9,534.4,206.1,534.4,207.8z M528.7,210.9c0,1.7,0.6,2.3,1.2,2.3c1.8,0,2.2-4.1,2.2-5.5
			c0-1.7-0.5-2.3-1.1-2.3C529.3,205.5,528.7,209.5,528.7,210.9z"/>
		<path d="M544.4,211.8c-1.1,1.4-2.2,2-3,2c-0.6,0-0.9-0.4-0.5-1.9c0.3-1.5,0.7-2.9,1-4.3c0.2-1,0.2-1.3-0.2-1.3
			c-0.7,0-1.9,1.4-2.5,2.4c-0.5,0.8-0.6,1.3-0.7,1.9c-0.2,0.9-0.5,2.1-0.6,2.8c-0.6,0.1-1.5,0.2-2.1,0.4l-0.1-0.1
			c0.4-1.7,1-4.2,1.5-6.4c0.1-0.6,0.2-0.9-0.1-0.9s-0.8,0.4-1.1,0.8l-0.2-0.3c0.9-1.2,2.2-2,2.9-2s0.8,0.6,0.5,2.3l-0.2,1
			c1.2-1.9,3-3.4,4.3-3.4c0.7,0,1.2,0.3,0.7,2.8c-0.3,1.3-0.6,2.6-0.9,3.9c-0.1,0.6-0.1,0.7,0.1,0.7c0.1,0,0.6-0.1,1.2-0.8
			L544.4,211.8z"/>
		<path d="M549.4,211.7c-1.1,1.5-2.4,2.1-3,2.1s-0.9-0.6-0.6-2c0.6-3.3,1.4-7.2,2-10.3c0.2-0.8,0.1-0.9-0.8-1.1
			c-0.2,0-0.2,0-0.3-0.1l0.1-0.3c1-0.1,2.1-0.3,2.7-0.6c0.3-0.1,0.6-0.2,0.7-0.2c0.2,0,0.1,0.3,0,0.7c-0.7,3.7-1.5,7.5-2.3,11.4
			c-0.1,0.6-0.1,0.7,0.1,0.7c0.2,0,0.6-0.2,1.2-0.8L549.4,211.7z"/>
		<path d="M550.3,207c0.7-1.1,1.9-2.1,2.6-2.1c0.8,0,1.1,1,1.2,2.7c0.1,1.3,0.2,3.4,0.3,4.8c0.7-1,2.4-3.6,2.3-4.9
			c0-0.7-0.4-1.2-0.4-1.4c-0.1-0.2,0-0.4,0.2-0.6c0.2-0.2,0.7-0.5,1-0.5c0.5,0,0.7,0.4,0.8,1.1c0,0.6-0.2,1.5-0.8,2.5
			c-1.9,3.1-4,6.3-7,9.9l-2.3,0.6l-0.1-0.3c1.8-1.1,3.7-3,4.5-4.2c0-0.7-0.2-4.2-0.4-6.2c-0.2-1.4-0.3-1.9-0.6-1.9
			c-0.2,0-0.6,0.2-1,0.7L550.3,207z"/>
		<path d="M568,206c0,0.3-0.4,0.9-0.7,1.1c-0.1,0.1-0.2,0.1-0.4-0.1c-0.4-0.5-1-1.2-1.7-1.2c-0.5,0-0.9,0.4-0.9,0.8
			c0,0.6,0.4,0.9,1.3,1.6c1.5,1.2,1.8,1.6,1.8,2.4c0,1.7-2.6,3.2-3.7,3.2c-0.9,0-2-0.6-2-1.5c0-0.3,0.5-1,0.9-1c0.1,0,0.2,0,0.3,0.1
			c0.8,0.9,1.4,1.4,2.1,1.4c0.6,0,1-0.4,1-0.9c0-0.4-0.3-0.8-1.2-1.6c-0.7-0.6-1.8-1.3-1.8-2.4c0-0.6,0.2-1.3,1.2-2.2
			c0.6-0.5,1.5-0.9,2.1-0.9C567.2,204.9,568,205.4,568,206z"/>
		<path d="M574.5,205.7c-0.6,0-1.2,0-1.8,0c-0.4,2.1-1.1,5.3-1.1,5.5c-0.1,0.9-0.1,1.2,0.2,1.2c0.4,0,0.9-0.4,1.5-1l0.2,0.2
			c-0.7,1-2,2.2-3.2,2.2c-0.8,0-1.2-0.7-0.7-3l1.1-5.1h-1.4v-0.1l0.4-0.5h1.1l0.4-2.1c0.6-0.3,1.6-0.7,2.3-1.2l0.2,0.1
			c-0.3,0.8-0.5,2.1-0.8,3.2h1.9L574.5,205.7z"/>
		<path d="M583,211.8c-1.1,1.5-2.3,2.1-3,2.1c-0.6,0-0.8-0.5-0.5-2.3l0.2-0.9c-0.6,1-1.2,1.6-1.9,2.2c-0.7,0.6-1.3,1-2,1
			c-0.8,0-1.3-1-1.3-2.3c0-1.8,0.9-3.8,2.1-5c0.8-0.8,2.4-1.7,3.9-1.7c0.9,0,1.9,0.3,2.3,0.3c-0.4,1.6-0.9,4-1.3,6.3
			c-0.1,0.5,0,0.7,0.2,0.7s0.5-0.2,1.1-0.8L583,211.8z M579.2,210.6c0.4-0.6,0.6-1.1,0.8-1.8c0.2-0.9,0.5-2.4,0.6-3
			c-0.3-0.2-0.6-0.3-1.3-0.3c-1.7,0-2.5,3.5-2.5,5.5c0,0.9,0.2,1.2,0.5,1.2C577.8,212.3,578.3,212,579.2,210.6z"/>
		<path d="M589.7,205.7c-0.6,0-1.2,0-1.8,0c-0.4,2.1-1.1,5.3-1.1,5.5c-0.1,0.9-0.1,1.2,0.2,1.2c0.4,0,0.9-0.4,1.5-1l0.2,0.2
			c-0.7,1-2,2.2-3.2,2.2c-0.8,0-1.2-0.7-0.7-3l1.1-5.1h-1.4v-0.1l0.4-0.5h1.1l0.4-2.1c0.6-0.3,1.6-0.7,2.3-1.2l0.2,0.1
			c-0.3,0.8-0.5,2.1-0.8,3.2h1.9L589.7,205.7z"/>
		<path d="M592,213.8c-1,0-2.2-0.6-2.2-2.8c0-1.9,0.8-3.8,2.1-4.9c0.8-0.7,2-1.2,2.9-1.2c1.1,0,1.6,0.7,1.6,1.5c0,1.7-2.7,2.6-4.4,3
			c0,0.4,0,0.6,0,0.7c0,1.3,0.4,2.3,1.5,2.3c0.7,0,1.5-0.4,2.4-1.3l0.2,0.3C594.5,213.3,593,213.8,592,213.8z M592,209
			c2-0.4,2.5-1.4,2.5-2.4c0-0.6-0.3-1-0.7-1C593.2,205.6,592.3,206.4,592,209z"/>
		<path d="M604.7,211.8c-1.1,1.5-2.4,2.1-3.1,2.1c-0.6,0-0.8-0.6-0.5-2.1c0.4-1.8,0.7-2.9,1.1-4.5c0.1-0.6,0.1-0.9-0.1-0.9
			c-0.3,0-0.8,0.4-1.1,0.8l-0.2-0.3c0.9-1.1,2.4-2,3.1-2c0.7,0,0.7,0.6,0.3,2.4c-0.3,1.4-0.7,2.9-1,4.3c-0.1,0.6,0,0.7,0.1,0.7
			s0.5-0.2,1.1-0.8L604.7,211.8z M605.2,201.8c0,0.7-0.4,1.3-1.1,1.3c-0.6,0-0.9-0.4-0.9-1s0.4-1.3,1.2-1.3
			C604.9,200.8,605.2,201.3,605.2,201.8z"/>
		<path d="M614.7,211.8c-1.1,1.4-2.2,2-3,2c-0.6,0-0.9-0.4-0.5-1.9c0.3-1.5,0.7-2.9,1-4.3c0.2-1,0.2-1.3-0.2-1.3
			c-0.7,0-1.9,1.4-2.5,2.4c-0.5,0.8-0.6,1.3-0.7,1.9c-0.2,0.9-0.5,2.1-0.6,2.8c-0.6,0.1-1.5,0.2-2.1,0.4l-0.1-0.1
			c0.4-1.7,1-4.2,1.5-6.4c0.1-0.6,0.2-0.9-0.1-0.9s-0.8,0.4-1.1,0.8l-0.2-0.3c0.9-1.2,2.2-2,2.9-2s0.8,0.6,0.5,2.3l-0.2,1
			c1.2-1.9,3-3.4,4.3-3.4c0.7,0,1.2,0.3,0.7,2.8c-0.3,1.3-0.6,2.6-0.9,3.9c-0.1,0.6-0.1,0.7,0.1,0.7c0.1,0,0.6-0.1,1.2-0.8
			L614.7,211.8z"/>
		<path d="M625.1,205.7c-0.6,0-1.2,0-1.8,0c-0.4,2.1-1.1,5.3-1.1,5.5c-0.1,0.9-0.1,1.2,0.2,1.2c0.4,0,0.9-0.4,1.5-1l0.2,0.2
			c-0.7,1-2,2.2-3.2,2.2c-0.8,0-1.2-0.7-0.7-3l1.1-5.1h-1.4v-0.1l0.4-0.5h1.1l0.4-2.1c0.6-0.3,1.6-0.7,2.3-1.2l0.2,0.1
			c-0.3,0.8-0.5,2.1-0.8,3.2h1.9L625.1,205.7z"/>
		<path d="M626.4,200.1c0.8-0.1,2.1-0.3,2.7-0.6c0.4-0.1,0.6-0.2,0.7-0.2c0.2,0,0.1,0.3,0,0.7c-0.5,2.7-1.1,5.4-1.7,8.1
			c1.3-2,3.1-3.3,4.3-3.3c0.7,0,1.3,0.3,0.8,2.8c-0.3,1.3-0.6,2.6-0.9,3.9c-0.1,0.6-0.1,0.7,0.1,0.7c0.2,0,0.5-0.1,1.2-0.8l0.2,0.3
			c-1.1,1.5-2.5,2.1-3.1,2.1c-0.7,0-0.8-0.4-0.5-1.9s0.7-2.9,1-4.4c0.2-1,0.1-1.4-0.3-1.4c-0.6,0-1.4,0.6-2.4,2.3
			c-0.4,0.7-0.6,1.4-0.7,2c-0.2,0.9-0.5,2.1-0.6,2.9c-0.7,0.1-1.5,0.2-2.1,0.4l-0.1-0.2c0.8-3.6,1.6-7.8,2.4-12
			c0.2-1.1,0.1-1.2-0.7-1.3c-0.1,0-0.1,0-0.3,0L626.4,200.1z"/>
		<path d="M637.1,213.8c-1,0-2.2-0.6-2.2-2.8c0-1.9,0.8-3.8,2.1-4.9c0.8-0.7,2-1.2,2.9-1.2c1.1,0,1.6,0.7,1.6,1.5
			c0,1.7-2.7,2.6-4.4,3c0,0.4,0,0.6,0,0.7c0,1.3,0.4,2.3,1.5,2.3c0.7,0,1.5-0.4,2.4-1.3l0.2,0.3
			C639.6,213.3,638.1,213.8,637.1,213.8z M637.2,209c2-0.4,2.5-1.4,2.5-2.4c0-0.6-0.3-1-0.7-1C638.3,205.6,637.5,206.4,637.2,209z"
			/>
		<path d="M652,211.7c-1.3,1.5-2.6,2.1-3.8,2.1c-1.3,0-2.2-0.9-2.2-2.9c0-1.5,0.7-3.4,2-4.6c0.8-0.8,2.1-1.4,3.2-1.4
			c0.8,0,1.5,0.3,1.5,0.9c0,0.3-0.2,0.8-0.9,1.2c-0.1,0.1-0.3,0-0.3-0.1c-0.5-0.9-1-1.3-1.5-1.3c-0.8,0-1.7,2-1.7,4.9
			c0,1.5,0.6,2,1.3,2c0.9,0,1.7-0.6,2.3-1.2L652,211.7z"/>
		<path d="M660.9,207.8c0,2.1-1,4.3-2.9,5.4c-0.7,0.4-1.4,0.7-2.3,0.7c-2.1,0-2.7-1.4-2.7-2.9c0-2.6,1.4-4.6,3.2-5.5
			c0.6-0.3,1.3-0.5,2.1-0.5C660,204.9,660.9,206.1,660.9,207.8z M655.2,210.9c0,1.7,0.6,2.3,1.2,2.3c1.8,0,2.2-4.1,2.2-5.5
			c0-1.7-0.5-2.3-1.1-2.3C655.8,205.5,655.2,209.5,655.2,210.9z"/>
		<path d="M670.8,211.8c-1.1,1.4-2.3,2.1-3,2.1c-0.6,0-0.9-0.4-0.6-1.9c0.1-0.6,0.2-1,0.3-1.6c-1.1,1.6-2.1,2.6-2.7,3
			c-0.4,0.3-0.9,0.5-1.4,0.5c-0.8,0-1.4-0.4-0.8-2.9c0.2-1.1,0.6-2.5,0.9-3.7c0.1-0.6,0.2-0.9-0.1-0.9c-0.2,0-0.8,0.4-1.2,0.8
			l-0.2-0.3c0.9-1.1,2.2-2,3-2c0.7,0,0.8,0.6,0.4,2.4c-0.3,1.4-0.6,2.5-0.9,3.9c-0.2,1,0.1,1.2,0.3,1.2c0.6,0,1.3-0.8,2-1.9
			c0.4-0.6,0.9-1.4,1.1-2.4c0.2-0.8,0.4-1.7,0.6-2.7c0.7-0.2,1.4-0.3,2.1-0.5h0.1c-0.5,2.1-1,4.3-1.5,6.7c-0.1,0.6-0.1,0.7,0.1,0.7
			c0.2,0,0.6-0.2,1.2-0.8L670.8,211.8z"/>
		<path d="M680.9,211.8c-1.1,1.4-2.2,2-3,2c-0.6,0-0.9-0.4-0.5-1.9c0.3-1.5,0.7-2.9,1-4.3c0.2-1,0.2-1.3-0.2-1.3
			c-0.7,0-1.9,1.4-2.5,2.4c-0.5,0.8-0.6,1.3-0.7,1.9c-0.2,0.9-0.5,2.1-0.6,2.8c-0.6,0.1-1.5,0.2-2.1,0.4l-0.1-0.1
			c0.4-1.7,1-4.2,1.5-6.4c0.1-0.6,0.2-0.9-0.1-0.9s-0.8,0.4-1.1,0.8l-0.2-0.3c0.9-1.2,2.2-2,2.9-2s0.8,0.6,0.5,2.3l-0.2,1
			c1.2-1.9,3-3.4,4.3-3.4c0.7,0,1.2,0.3,0.7,2.8c-0.3,1.3-0.6,2.6-0.9,3.9c-0.1,0.6-0.1,0.7,0.1,0.7c0.1,0,0.6-0.1,1.2-0.8
			L680.9,211.8z"/>
		<path d="M687.7,205.7c-0.6,0-1.2,0-1.8,0c-0.4,2.1-1.1,5.3-1.1,5.5c-0.1,0.9-0.1,1.2,0.2,1.2c0.4,0,0.9-0.4,1.5-1l0.2,0.2
			c-0.7,1-2,2.2-3.2,2.2c-0.8,0-1.2-0.7-0.7-3l1.1-5.1h-1.4v-0.1l0.4-0.5h1.1l0.4-2.1c0.6-0.3,1.6-0.7,2.3-1.2l0.2,0.1
			c-0.3,0.8-0.5,2.1-0.8,3.2h1.9L687.7,205.7z"/>
		<path d="M687.8,206.9c1.1-1.4,2.3-2,2.9-2c0.8,0,0.7,0.9,0.4,2.7l-0.2,0.7c0.7-1.4,1.9-3.4,3-3.4c0.5,0,0.9,0.4,0.9,1
			s-0.6,1.3-0.9,1.5c-0.2,0.1-0.3,0.1-0.4,0c-0.3-0.3-0.7-0.6-1-0.6c-0.4,0-1.2,1.4-1.4,2.1c-0.5,1.2-0.9,3.3-1.2,4.5
			c-0.7,0.1-1.5,0.2-2,0.4l-0.1-0.1c0.5-2.1,1-4.4,1.3-5.8c0.2-1.1,0.2-1.5,0-1.5c-0.3,0-0.8,0.5-1.1,0.8L687.8,206.9z"/>
		<path d="M694.8,207c0.7-1.1,1.9-2.1,2.6-2.1c0.8,0,1.1,1,1.2,2.7c0.1,1.3,0.2,3.4,0.3,4.8c0.7-1,2.4-3.6,2.3-4.9
			c0-0.7-0.4-1.2-0.4-1.4c-0.1-0.2,0-0.4,0.2-0.6c0.2-0.2,0.7-0.5,1-0.5c0.5,0,0.7,0.4,0.8,1.1c0,0.6-0.2,1.5-0.8,2.5
			c-1.9,3.1-4,6.3-7,9.9l-2.3,0.6l-0.1-0.3c1.8-1.1,3.7-3,4.5-4.2c0-0.7-0.2-4.2-0.4-6.2c-0.2-1.4-0.3-1.9-0.6-1.9
			c-0.2,0-0.6,0.2-1,0.7L694.8,207z"/>
		<path d="M706.7,207c0.8-1.1,2.1-2.1,2.8-2.1c0.6,0,0.9,0.7,0.9,2.4c0,1.3,0.1,2.7,0.1,3.5c1.1-1.5,2.2-3.6,3.3-5.6h0.4
			c0.3,2.3,0.6,4.3,0.9,6.3c1.2-1.6,2-2.9,2-4c0-0.5-0.1-0.7-0.3-1.2c-0.1-0.1-0.1-0.2-0.1-0.4c0.1-0.4,0.8-1,1.4-1
			c0.5,0,0.8,0.5,0.7,1.2c0,0.6-0.2,1.1-0.7,1.9c-0.7,1.3-3.4,4.8-4.4,5.8h-0.4c-0.2-1.7-0.5-3.7-0.8-5.4c-1,1.6-2.5,3.9-3.5,5.4
			h-0.4c-0.1-1.4-0.2-4.1-0.3-5.8c-0.1-0.9-0.2-1.5-0.4-1.5s-0.6,0.3-1,0.7L706.7,207z"/>
		<path d="M723.3,211.8c-1.1,1.5-2.4,2.1-3.1,2.1c-0.6,0-0.8-0.6-0.5-2.1c0.4-1.8,0.7-2.9,1.1-4.5c0.1-0.6,0.1-0.9-0.1-0.9
			c-0.3,0-0.8,0.4-1.1,0.8l-0.2-0.3c0.9-1.1,2.4-2,3.1-2c0.7,0,0.7,0.6,0.3,2.4c-0.3,1.4-0.7,2.9-1,4.3c-0.1,0.6,0,0.7,0.1,0.7
			s0.5-0.2,1.1-0.8L723.3,211.8z M723.7,201.8c0,0.7-0.4,1.3-1.1,1.3c-0.6,0-0.9-0.4-0.9-1s0.4-1.3,1.2-1.3
			C723.4,200.8,723.7,201.3,723.7,201.8z"/>
		<path d="M730.1,205.7c-0.6,0-1.2,0-1.8,0c-0.4,2.1-1.1,5.3-1.1,5.5c-0.1,0.9-0.1,1.2,0.2,1.2c0.4,0,0.9-0.4,1.5-1l0.2,0.2
			c-0.7,1-2,2.2-3.2,2.2c-0.8,0-1.2-0.7-0.7-3l1.1-5.1h-1.4v-0.1l0.4-0.5h1.1l0.4-2.1c0.6-0.3,1.6-0.7,2.3-1.2l0.2,0.1
			c-0.3,0.8-0.5,2.1-0.8,3.2h1.9L730.1,205.7z"/>
		<path d="M731.4,200.1c0.8-0.1,2.1-0.3,2.7-0.6c0.4-0.1,0.6-0.2,0.7-0.2c0.2,0,0.1,0.3,0,0.7c-0.5,2.7-1.1,5.4-1.7,8.1
			c1.3-2,3.1-3.3,4.3-3.3c0.7,0,1.3,0.3,0.8,2.8c-0.3,1.3-0.6,2.6-0.9,3.9c-0.1,0.6-0.1,0.7,0.1,0.7c0.2,0,0.5-0.1,1.2-0.8l0.2,0.3
			c-1.1,1.5-2.5,2.1-3.1,2.1c-0.7,0-0.8-0.4-0.5-1.9s0.7-2.9,1-4.4c0.2-1,0.1-1.4-0.3-1.4c-0.6,0-1.4,0.6-2.4,2.3
			c-0.4,0.7-0.6,1.4-0.7,2c-0.2,0.9-0.5,2.1-0.6,2.9c-0.7,0.1-1.5,0.2-2.1,0.4l-0.1-0.2c0.8-3.6,1.6-7.8,2.4-12
			c0.2-1.1,0.1-1.2-0.7-1.3c-0.1,0-0.1,0-0.3,0L731.4,200.1z"/>
		<path d="M751.9,211.8c-1.1,1.5-2.3,2.1-3,2.1c-0.6,0-0.8-0.5-0.5-2.3l0.2-0.9c-0.6,1-1.2,1.6-1.9,2.2c-0.7,0.6-1.3,1-2,1
			c-0.8,0-1.3-1-1.3-2.3c0-1.8,0.9-3.8,2.1-5c0.8-0.8,2.4-1.7,3.9-1.7c0.9,0,1.9,0.3,2.3,0.3c-0.4,1.6-0.9,4-1.3,6.3
			c-0.1,0.5,0,0.7,0.2,0.7s0.5-0.2,1.1-0.8L751.9,211.8z M748.1,210.6c0.4-0.6,0.6-1.1,0.8-1.8c0.2-0.9,0.5-2.4,0.6-3
			c-0.3-0.2-0.6-0.3-1.3-0.3c-1.7,0-2.5,3.5-2.5,5.5c0,0.9,0.2,1.2,0.5,1.2C746.7,212.3,747.2,212,748.1,210.6z"/>
		<path d="M761.8,211.8c-1.1,1.4-2.2,2-3,2c-0.6,0-0.9-0.4-0.5-1.9c0.3-1.5,0.7-2.9,1-4.3c0.2-1,0.2-1.3-0.2-1.3
			c-0.7,0-1.9,1.4-2.5,2.4c-0.5,0.8-0.6,1.3-0.7,1.9c-0.2,0.9-0.5,2.1-0.6,2.8c-0.6,0.1-1.5,0.2-2.1,0.4l-0.1-0.1
			c0.4-1.7,1-4.2,1.5-6.4c0.1-0.6,0.2-0.9-0.1-0.9s-0.8,0.4-1.1,0.8l-0.2-0.3c0.9-1.2,2.2-2,2.9-2s0.8,0.6,0.5,2.3l-0.2,1
			c1.2-1.9,3-3.4,4.3-3.4c0.7,0,1.2,0.3,0.7,2.8c-0.3,1.3-0.6,2.6-0.9,3.9c-0.1,0.6-0.1,0.7,0.1,0.7c0.1,0,0.6-0.1,1.2-0.8
			L761.8,211.8z"/>
		<path d="M774.4,207.8c0,2.1-1,4.3-2.9,5.4c-0.7,0.4-1.4,0.7-2.3,0.7c-2.1,0-2.7-1.4-2.7-2.9c0-2.6,1.4-4.6,3.2-5.5
			c0.6-0.3,1.3-0.5,2.1-0.5C773.6,204.9,774.4,206.1,774.4,207.8z M768.8,210.9c0,1.7,0.6,2.3,1.2,2.3c1.8,0,2.2-4.1,2.2-5.5
			c0-1.7-0.5-2.3-1.1-2.3C769.3,205.5,768.8,209.5,768.8,210.9z"/>
		<path d="M775.3,207c0.8-1,2-2.1,2.8-2.1c0.6,0,0.8,0.8,0.9,2.6c0.1,1.5,0.1,2.6,0.2,4c0.8-0.9,2.4-2.9,2.4-4
			c0-0.5-0.1-0.8-0.3-1.2c-0.1-0.1-0.1-0.3,0-0.4c0.1-0.4,0.8-1,1.3-1s0.8,0.4,0.7,1.2c0,0.6-0.1,1.4-1.1,2.7
			c-1.3,1.7-3.7,4.3-4.6,5.1h-0.4c-0.1-1.7-0.1-3.7-0.3-5.6c-0.1-1.2-0.2-1.7-0.5-1.7c-0.1,0-0.4,0.1-1,0.7L775.3,207z"/>
		<path d="M786,213.8c-1,0-2.2-0.6-2.2-2.8c0-1.9,0.8-3.8,2.1-4.9c0.8-0.7,2-1.2,2.9-1.2c1.1,0,1.6,0.7,1.6,1.5c0,1.7-2.7,2.6-4.4,3
			c0,0.4,0,0.6,0,0.7c0,1.3,0.4,2.3,1.5,2.3c0.7,0,1.5-0.4,2.4-1.3l0.2,0.3C788.6,213.3,787,213.8,786,213.8z M786.1,209
			c2-0.4,2.5-1.4,2.5-2.4c0-0.6-0.3-1-0.7-1C787.2,205.6,786.4,206.4,786.1,209z"/>
		<path d="M791.4,206.9c1.1-1.4,2.3-2,2.9-2c0.8,0,0.7,0.9,0.4,2.7l-0.2,0.7c0.7-1.4,1.9-3.4,3-3.4c0.5,0,0.9,0.4,0.9,1
			s-0.6,1.3-0.9,1.5c-0.2,0.1-0.3,0.1-0.4,0c-0.3-0.3-0.7-0.6-1-0.6c-0.4,0-1.2,1.4-1.4,2.1c-0.5,1.2-0.9,3.3-1.2,4.5
			c-0.7,0.1-1.5,0.2-2,0.4l-0.1-0.1c0.5-2.1,1-4.4,1.3-5.8c0.2-1.1,0.2-1.5,0-1.5c-0.3,0-0.8,0.5-1.1,0.8L791.4,206.9z"/>
		<path d="M806.8,211.8c-1.1,1.5-2.3,2.1-3,2.1c-0.6,0-0.8-0.5-0.5-2.3l0.2-0.9c-0.6,1-1.2,1.6-1.9,2.2c-0.7,0.6-1.3,1-2,1
			c-0.8,0-1.3-1-1.3-2.3c0-1.8,0.9-3.8,2.1-5c0.8-0.8,2.4-1.7,3.9-1.7c0.9,0,1.9,0.3,2.3,0.3c-0.4,1.6-0.9,4-1.3,6.3
			c-0.1,0.5,0,0.7,0.2,0.7s0.5-0.2,1.1-0.8L806.8,211.8z M803.1,210.6c0.4-0.6,0.6-1.1,0.8-1.8c0.2-0.9,0.5-2.4,0.6-3
			c-0.3-0.2-0.6-0.3-1.3-0.3c-1.7,0-2.5,3.5-2.5,5.5c0,0.9,0.2,1.2,0.5,1.2C801.6,212.3,802.2,212,803.1,210.6z"/>
		<path d="M811.8,211.7c-1.1,1.5-2.4,2.1-3,2.1s-0.9-0.6-0.6-2c0.6-3.3,1.4-7.2,2-10.3c0.2-0.8,0.1-0.9-0.8-1.1
			c-0.2,0-0.2,0-0.3-0.1l0.1-0.3c1-0.1,2.1-0.3,2.7-0.6c0.3-0.1,0.6-0.2,0.7-0.2c0.2,0,0.1,0.3,0,0.7c-0.7,3.7-1.5,7.5-2.3,11.4
			c-0.1,0.6-0.1,0.7,0.1,0.7c0.2,0,0.6-0.2,1.2-0.8L811.8,211.7z"/>
		<path d="M816.8,211.7c-1.1,1.5-2.4,2.1-3,2.1s-0.9-0.6-0.6-2c0.6-3.3,1.4-7.2,2-10.3c0.2-0.8,0.1-0.9-0.8-1.1
			c-0.2,0-0.2,0-0.3-0.1l0.1-0.3c1-0.1,2.1-0.3,2.7-0.6c0.3-0.1,0.6-0.2,0.7-0.2c0.2,0,0.1,0.3,0,0.7c-0.7,3.7-1.5,7.5-2.3,11.4
			c-0.1,0.6-0.1,0.7,0.1,0.7c0.2,0,0.6-0.2,1.2-0.8L816.8,211.7z"/>
		<path d="M830,211.7c-1.1,1.5-2.4,2.1-3.1,2.1s-0.9-0.5-0.5-2.1l0.2-1c-1.2,1.8-2.8,3.1-3.9,3.1c-0.7,0-1.4-0.7-1.4-2.4
			c0-1.9,0.8-4,2.1-5.2c1-0.9,2.7-1.4,3.4-1.4c0.3,0,0.6,0,1,0.1l0.7-3.4c0.1-0.8,0-0.9-0.8-1c-0.1,0-0.3,0-0.4-0.1l0.1-0.3
			c0.9-0.1,2.2-0.3,2.8-0.6c0.4-0.1,0.6-0.2,0.7-0.2c0.2,0,0.2,0.1,0.1,0.6c-0.8,3.6-1.8,8.2-2.4,11.6c-0.1,0.5,0,0.7,0.2,0.7
			s0.6-0.2,1.2-0.8L830,211.7z M826.4,210.2c0.3-0.4,0.4-1,0.6-1.6l0.5-2.6c-0.4-0.4-1.1-0.6-1.5-0.6c-1.6,0-2.5,3.9-2.5,5.7
			c0,0.9,0.2,1.2,0.6,1.2C824.7,212.4,825.6,211.6,826.4,210.2z"/>
		<path d="M833.2,213.8c-1,0-2.2-0.6-2.2-2.8c0-1.9,0.8-3.8,2.1-4.9c0.8-0.7,2-1.2,2.9-1.2c1.1,0,1.6,0.7,1.6,1.5
			c0,1.7-2.7,2.6-4.4,3c0,0.4,0,0.6,0,0.7c0,1.3,0.4,2.3,1.5,2.3c0.7,0,1.5-0.4,2.4-1.3l0.2,0.3
			C835.8,213.3,834.2,213.8,833.2,213.8z M833.3,209c2-0.4,2.5-1.4,2.5-2.4c0-0.6-0.3-1-0.7-1C834.4,205.6,833.6,206.4,833.3,209z"
			/>
		<path d="M844.6,211.7c-1.3,1.5-2.6,2.1-3.8,2.1c-1.3,0-2.2-0.9-2.2-2.9c0-1.5,0.7-3.4,2-4.6c0.8-0.8,2.1-1.4,3.2-1.4
			c0.8,0,1.5,0.3,1.5,0.9c0,0.3-0.2,0.8-0.9,1.2c-0.1,0.1-0.3,0-0.3-0.1c-0.5-0.9-1-1.3-1.5-1.3c-0.8,0-1.7,2-1.7,4.9
			c0,1.5,0.6,2,1.3,2c0.9,0,1.7-0.6,2.3-1.2L844.6,211.7z"/>
		<path d="M845.7,206.9c1.1-1.4,2.3-2,2.9-2c0.8,0,0.7,0.9,0.4,2.7l-0.2,0.7c0.7-1.4,1.9-3.4,3-3.4c0.5,0,0.9,0.4,0.9,1
			s-0.6,1.3-0.9,1.5c-0.2,0.1-0.3,0.1-0.4,0c-0.3-0.3-0.7-0.6-1-0.6c-0.4,0-1.2,1.4-1.4,2.1c-0.5,1.2-0.9,3.3-1.2,4.5
			c-0.7,0.1-1.5,0.2-2,0.4l-0.1-0.1c0.5-2.1,1-4.4,1.3-5.8c0.2-1.1,0.2-1.5,0-1.5c-0.3,0-0.8,0.5-1.1,0.8L845.7,206.9z"/>
		<path d="M854.9,213.8c-1,0-2.2-0.6-2.2-2.8c0-1.9,0.8-3.8,2.1-4.9c0.8-0.7,2-1.2,2.9-1.2c1.1,0,1.6,0.7,1.6,1.5
			c0,1.7-2.7,2.6-4.4,3c0,0.4,0,0.6,0,0.7c0,1.3,0.4,2.3,1.5,2.3c0.7,0,1.5-0.4,2.4-1.3l0.2,0.3
			C857.4,213.3,855.9,213.8,854.9,213.8z M855,209c2-0.4,2.5-1.4,2.5-2.4c0-0.6-0.3-1-0.7-1C856.1,205.6,855.3,206.4,855,209z"/>
		<path d="M868.6,211.8c-1.1,1.5-2.3,2.1-3,2.1c-0.6,0-0.8-0.5-0.5-2.3l0.2-0.9c-0.6,1-1.2,1.6-1.9,2.2c-0.7,0.6-1.3,1-2,1
			c-0.8,0-1.3-1-1.3-2.3c0-1.8,0.9-3.8,2.1-5c0.8-0.8,2.4-1.7,3.9-1.7c0.9,0,1.9,0.3,2.3,0.3c-0.4,1.6-0.9,4-1.3,6.3
			c-0.1,0.5,0,0.7,0.2,0.7s0.5-0.2,1.1-0.8L868.6,211.8z M864.8,210.6c0.4-0.6,0.6-1.1,0.8-1.8c0.2-0.9,0.5-2.4,0.6-3
			c-0.3-0.2-0.6-0.3-1.3-0.3c-1.7,0-2.5,3.5-2.5,5.5c0,0.9,0.2,1.2,0.5,1.2C863.4,212.3,863.9,212,864.8,210.6z"/>
		<path d="M875.2,206c0,0.3-0.4,0.9-0.7,1.1c-0.1,0.1-0.2,0.1-0.4-0.1c-0.4-0.5-1-1.2-1.7-1.2c-0.5,0-0.9,0.4-0.9,0.8
			c0,0.6,0.4,0.9,1.3,1.6c1.5,1.2,1.8,1.6,1.8,2.4c0,1.7-2.6,3.2-3.7,3.2c-0.9,0-2-0.6-2-1.5c0-0.3,0.5-1,0.9-1c0.1,0,0.2,0,0.3,0.1
			c0.8,0.9,1.4,1.4,2.1,1.4c0.6,0,1-0.4,1-0.9c0-0.4-0.3-0.8-1.2-1.6c-0.7-0.6-1.8-1.3-1.8-2.4c0-0.6,0.2-1.3,1.2-2.2
			c0.6-0.5,1.5-0.9,2.1-0.9C874.4,204.9,875.2,205.4,875.2,206z"/>
		<path d="M878.2,213.8c-1,0-2.2-0.6-2.2-2.8c0-1.9,0.8-3.8,2.1-4.9c0.8-0.7,2-1.2,2.9-1.2c1.1,0,1.6,0.7,1.6,1.5
			c0,1.7-2.7,2.6-4.4,3c0,0.4,0,0.6,0,0.7c0,1.3,0.4,2.3,1.5,2.3c0.7,0,1.5-0.4,2.4-1.3l0.2,0.3
			C880.8,213.3,879.2,213.8,878.2,213.8z M878.3,209c2-0.4,2.5-1.4,2.5-2.4c0-0.6-0.3-1-0.7-1C879.4,205.6,878.6,206.4,878.3,209z"
			/>
		<path d="M891,211.8c-1.1,1.5-2.4,2.1-3.1,2.1c-0.6,0-0.8-0.6-0.5-2.1c0.4-1.8,0.7-2.9,1.1-4.5c0.1-0.6,0.1-0.9-0.1-0.9
			c-0.3,0-0.8,0.4-1.1,0.8l-0.2-0.3c0.9-1.1,2.4-2,3.1-2c0.7,0,0.7,0.6,0.3,2.4c-0.3,1.4-0.7,2.9-1,4.3c-0.1,0.6,0,0.7,0.1,0.7
			s0.5-0.2,1.1-0.8L891,211.8z M891.4,201.8c0,0.7-0.4,1.3-1.1,1.3c-0.6,0-0.9-0.4-0.9-1s0.4-1.3,1.2-1.3
			C891.2,200.8,891.4,201.3,891.4,201.8z"/>
		<path d="M901,211.8c-1.1,1.4-2.2,2-3,2c-0.6,0-0.9-0.4-0.5-1.9c0.3-1.5,0.7-2.9,1-4.3c0.2-1,0.2-1.3-0.2-1.3
			c-0.7,0-1.9,1.4-2.5,2.4c-0.5,0.8-0.6,1.3-0.7,1.9c-0.2,0.9-0.5,2.1-0.6,2.8c-0.6,0.1-1.5,0.2-2.1,0.4l-0.1-0.1
			c0.4-1.7,1-4.2,1.5-6.4c0.1-0.6,0.2-0.9-0.1-0.9s-0.8,0.4-1.1,0.8l-0.2-0.3c0.9-1.2,2.2-2,2.9-2s0.8,0.6,0.5,2.3l-0.2,1
			c1.2-1.9,3-3.4,4.3-3.4c0.7,0,1.2,0.3,0.7,2.8c-0.3,1.3-0.6,2.6-0.9,3.9c-0.1,0.6-0.1,0.7,0.1,0.7c0.1,0,0.6-0.1,1.2-0.8
			L901,211.8z"/>
		<path d="M914.4,211.7c-1.1,1.5-2.4,2.1-3.1,2.1s-0.9-0.5-0.5-2.1l0.2-1c-1.2,1.8-2.8,3.1-3.9,3.1c-0.7,0-1.4-0.7-1.4-2.4
			c0-1.9,0.8-4,2.1-5.2c1-0.9,2.7-1.4,3.4-1.4c0.3,0,0.6,0,1,0.1l0.7-3.4c0.1-0.8,0-0.9-0.8-1c-0.1,0-0.3,0-0.4-0.1l0.1-0.3
			c0.9-0.1,2.2-0.3,2.8-0.6c0.4-0.1,0.6-0.2,0.7-0.2c0.2,0,0.2,0.1,0.1,0.6c-0.8,3.6-1.8,8.2-2.4,11.6c-0.1,0.5,0,0.7,0.2,0.7
			s0.6-0.2,1.2-0.8L914.4,211.7z M910.8,210.2c0.3-0.4,0.4-1,0.6-1.6l0.5-2.6c-0.4-0.4-1.1-0.6-1.5-0.6c-1.6,0-2.5,3.9-2.5,5.7
			c0,0.9,0.2,1.2,0.6,1.2C909.1,212.4,910,211.6,910.8,210.2z"/>
		<path d="M917.6,213.8c-1,0-2.2-0.6-2.2-2.8c0-1.9,0.8-3.8,2.1-4.9c0.8-0.7,2-1.2,2.9-1.2c1.1,0,1.6,0.7,1.6,1.5
			c0,1.7-2.7,2.6-4.4,3c0,0.4,0,0.6,0,0.7c0,1.3,0.4,2.3,1.5,2.3c0.7,0,1.5-0.4,2.4-1.3l0.2,0.3
			C920.1,213.3,918.6,213.8,917.6,213.8z M917.7,209c2-0.4,2.5-1.4,2.5-2.4c0-0.6-0.3-1-0.7-1C918.8,205.6,918,206.4,917.7,209z"/>
		<path d="M931.3,211.8c-1.1,1.5-2.3,2.1-3,2.1c-0.6,0-0.8-0.5-0.5-2.3l0.2-0.9c-0.6,1-1.2,1.6-1.9,2.2c-0.7,0.6-1.3,1-2,1
			c-0.8,0-1.3-1-1.3-2.3c0-1.8,0.9-3.8,2.1-5c0.8-0.8,2.4-1.7,3.9-1.7c0.9,0,1.9,0.3,2.3,0.3c-0.4,1.6-0.9,4-1.3,6.3
			c-0.1,0.5,0,0.7,0.2,0.7s0.5-0.2,1.1-0.8L931.3,211.8z M927.5,210.6c0.4-0.6,0.6-1.1,0.8-1.8c0.2-0.9,0.5-2.4,0.6-3
			c-0.3-0.2-0.6-0.3-1.3-0.3c-1.7,0-2.5,3.5-2.5,5.5c0,0.9,0.2,1.2,0.5,1.2C926.1,212.3,926.6,212,927.5,210.6z"/>
		<path d="M938,205.7c-0.6,0-1.2,0-1.8,0c-0.4,2.1-1.1,5.3-1.1,5.5c-0.1,0.9-0.1,1.2,0.2,1.2c0.4,0,0.9-0.4,1.5-1l0.2,0.2
			c-0.7,1-2,2.2-3.2,2.2c-0.8,0-1.2-0.7-0.7-3l1.1-5.1h-1.4v-0.1l0.4-0.5h1.1l0.4-2.1c0.6-0.3,1.6-0.7,2.3-1.2l0.2,0.1
			c-0.3,0.8-0.5,2.1-0.8,3.2h1.9L938,205.7z"/>
		<path d="M939.4,200.1c0.8-0.1,2.1-0.3,2.7-0.6c0.4-0.1,0.6-0.2,0.7-0.2c0.2,0,0.1,0.3,0,0.7c-0.5,2.7-1.1,5.4-1.7,8.1
			c1.3-2,3.1-3.3,4.3-3.3c0.7,0,1.3,0.3,0.8,2.8c-0.3,1.3-0.6,2.6-0.9,3.9c-0.1,0.6-0.1,0.7,0.1,0.7c0.2,0,0.5-0.1,1.2-0.8l0.2,0.3
			c-1.1,1.5-2.5,2.1-3.1,2.1c-0.7,0-0.8-0.4-0.5-1.9s0.7-2.9,1-4.4c0.2-1,0.1-1.4-0.3-1.4c-0.6,0-1.4,0.6-2.4,2.3
			c-0.4,0.7-0.6,1.4-0.7,2c-0.2,0.9-0.5,2.1-0.6,2.9c-0.7,0.1-1.5,0.2-2.1,0.4l-0.1-0.2c0.8-3.6,1.6-7.8,2.4-12
			c0.2-1.1,0.1-1.2-0.7-1.3c-0.1,0-0.1,0-0.3,0L939.4,200.1z"/>
		<path d="M953.4,206c0,0.3-0.4,0.9-0.7,1.1c-0.1,0.1-0.2,0.1-0.4-0.1c-0.4-0.5-1-1.2-1.7-1.2c-0.5,0-0.9,0.4-0.9,0.8
			c0,0.6,0.4,0.9,1.3,1.6c1.5,1.2,1.8,1.6,1.8,2.4c0,1.7-2.6,3.2-3.7,3.2c-0.9,0-2-0.6-2-1.5c0-0.3,0.5-1,0.9-1c0.1,0,0.2,0,0.3,0.1
			c0.8,0.9,1.4,1.4,2.1,1.4c0.6,0,1-0.4,1-0.9c0-0.4-0.3-0.8-1.2-1.6c-0.7-0.6-1.8-1.3-1.8-2.4c0-0.6,0.2-1.3,1.2-2.2
			c0.6-0.5,1.5-0.9,2.1-0.9C952.6,204.9,953.4,205.4,953.4,206z"/>
	</g>
</g>
<g>
	<g>
		<path d="M604,316.9h-3.7v-10.4h-1.5v-3.2h5.1v13.6H604z"/>
		<path d="M612.2,313.7l-2.4,6.5h-2.9l1.7-6.5H612.2z"/>
		<path d="M620.3,316.9h-3.7v-10.4h-1.5v-3.2h5.1v13.6H620.3z"/>
		<path d="M632.4,316.9h-3.7v-2.8h-4.9v-2.9l4.1-8h4.5v7.9h1.2v2.9h-1.2L632.4,316.9L632.4,316.9z M628.9,311.2v-2.5
			c0-0.1,0-0.3,0-0.6s0-0.6,0.1-1l-0.5,1.2c-0.3,0.6-0.5,1.1-0.8,1.6s-0.5,0.9-0.8,1.3H628.9z"/>
		<path d="M643.2,316.9h-3.7v-2.8h-4.9v-2.9l4.1-8h4.5v7.9h1.2v2.9h-1.2L643.2,316.9L643.2,316.9z M639.7,311.2v-2.5
			c0-0.1,0-0.3,0-0.6s0-0.6,0.1-1l-0.5,1.2c-0.3,0.6-0.5,1.1-0.8,1.6s-0.5,0.9-0.8,1.3H639.7z"/>
		<path d="M654.5,309.3c0.5-0.1,1.1-0.2,1.6-0.2c1.7,0,2.4,0.9,2.4,2.4c0,1.1-0.5,2.5-1.4,3.5c-0.8,1-2.4,2-3.3,2.1
			c-0.2,0-0.5,0-0.8-0.2l-0.5,3c-0.2,0.9-0.1,1.2,0.9,1.2h0.4l-0.1,0.3l-4.7,0.2v-0.3c1.3-0.2,1.3-0.4,1.6-1.6
			c0.5-2.3,1.4-6.5,1.9-9.5c-0.5,0.2-1,0.4-1.4,0.6l-0.1-0.3c0.5-0.4,1.1-0.6,1.6-0.9l0.2-0.8c0.3-0.3,1.3-1,2-1.3l0.1,0.1
			L654.5,309.3z M653.1,316c0.2,0.3,0.6,0.7,0.9,0.6c0.9,0,2.4-2.6,2.4-5.1c0-1.4-0.5-1.7-1.4-1.7c-0.3,0-0.5,0-0.7,0.1
			C653.9,311.8,653.5,313.9,653.1,316z"/>
		<path d="M661.4,317.1c-0.9,0-2-0.5-2-2.5c0-1.7,0.7-3.4,1.9-4.4c0.7-0.6,1.8-1.1,2.6-1.1c1,0,1.4,0.6,1.4,1.4c0,1.6-2.5,2.4-4,2.7
			c0,0.3,0,0.5,0,0.6c0,1.2,0.3,2.1,1.3,2.1c0.7,0,1.4-0.3,2.2-1.2l0.2,0.3C663.7,316.7,662.3,317.1,661.4,317.1z M661.4,312.7
			c1.8-0.3,2.3-1.3,2.3-2.2c0-0.5-0.2-0.9-0.6-0.9C662.5,309.7,661.7,310.4,661.4,312.7z"/>
		<path d="M673.2,311.7c0,1.9-0.9,3.9-2.6,4.8c-0.6,0.4-1.3,0.6-2.1,0.6c-1.9,0-2.4-1.3-2.4-2.6c0-2.3,1.3-4.2,2.9-5
			c0.6-0.3,1.2-0.5,1.9-0.5C672.5,309.1,673.2,310.2,673.2,311.7z M668.1,314.5c0,1.5,0.5,2.1,1.1,2.1c1.6,0,2-3.7,2-4.9
			c0-1.5-0.5-2.1-1-2.1C668.6,309.6,668.1,313.2,668.1,314.5z"/>
		<path d="M677.8,309.3c0.5-0.1,1.1-0.2,1.6-0.2c1.7,0,2.4,0.9,2.4,2.4c0,1.1-0.5,2.5-1.4,3.5c-0.8,1-2.4,2-3.3,2.1
			c-0.2,0-0.5,0-0.8-0.2l-0.5,3c-0.2,0.9-0.1,1.2,0.9,1.2h0.4l-0.1,0.3l-4.7,0.2v-0.3c1.3-0.2,1.3-0.4,1.6-1.6
			c0.5-2.3,1.3-6.5,1.9-9.5c-0.5,0.2-1,0.4-1.4,0.6l-0.1-0.3c0.5-0.4,1.1-0.6,1.6-0.9l0.2-0.8c0.3-0.3,1.3-1,2-1.3l0.1,0.1
			L677.8,309.3z M676.4,316c0.2,0.3,0.6,0.7,0.9,0.6c0.9,0,2.4-2.6,2.4-5.1c0-1.4-0.5-1.7-1.4-1.7c-0.3,0-0.5,0-0.7,0.1
			C677.2,311.8,676.8,313.9,676.4,316z"/>
		<path d="M686.2,315.2c-1,1.3-2.1,1.9-2.7,1.9c-0.6,0-0.8-0.5-0.5-1.8c0.6-3,1.3-6.4,1.8-9.3c0.2-0.8,0.1-0.8-0.7-1
			c-0.1,0-0.2,0-0.3-0.1l0.1-0.2c0.9-0.1,1.9-0.3,2.4-0.5c0.3-0.1,0.5-0.2,0.6-0.2s0.1,0.2,0,0.7c-0.7,3.3-1.4,6.8-2.1,10.2
			c-0.1,0.5-0.1,0.6,0.1,0.6c0.1,0,0.5-0.2,1.1-0.8L686.2,315.2z"/>
		<path d="M689.1,317.1c-0.9,0-2-0.5-2-2.5c0-1.7,0.7-3.4,1.9-4.4c0.7-0.6,1.8-1.1,2.6-1.1c1,0,1.4,0.6,1.4,1.4c0,1.6-2.5,2.4-4,2.7
			c0,0.3,0,0.5,0,0.6c0,1.2,0.3,2.1,1.3,2.1c0.7,0,1.4-0.3,2.2-1.2l0.2,0.3C691.4,316.7,690,317.1,689.1,317.1z M689.2,312.7
			c1.8-0.3,2.3-1.3,2.3-2.2c0-0.5-0.2-0.9-0.6-0.9C690.2,309.7,689.5,310.4,689.2,312.7z"/>
		<path d="M698.2,304.7c0.7-0.1,1.9-0.3,2.4-0.5c0.3-0.1,0.5-0.2,0.6-0.2s0.1,0.2,0,0.7c-0.5,2.4-1,4.9-1.5,7.3c1.1-1.8,2.8-3,3.9-3
			c0.6,0,1.2,0.3,0.7,2.5c-0.3,1.2-0.5,2.3-0.8,3.5c-0.1,0.5-0.1,0.6,0.1,0.6c0.1,0,0.5-0.1,1-0.7l0.1,0.2c-1,1.3-2.2,1.9-2.8,1.9
			s-0.8-0.4-0.5-1.7c0.3-1.3,0.6-2.6,0.9-3.9c0.2-0.9,0.1-1.2-0.3-1.2c-0.5,0-1.3,0.5-2.2,2.1c-0.3,0.6-0.5,1.3-0.7,1.8
			c-0.2,0.8-0.5,1.9-0.5,2.6c-0.7,0.1-1.3,0.2-1.9,0.4l-0.1-0.1c0.7-3.3,1.5-7,2.2-10.8c0.2-1,0.1-1.1-0.7-1.2c-0.1,0-0.1,0-0.3,0
			L698.2,304.7z"/>
		<path d="M713.5,315.2c-1,1.3-2.1,1.9-2.7,1.9c-0.5,0-0.7-0.4-0.5-2l0.1-0.8c-0.6,0.9-1.1,1.4-1.7,2c-0.6,0.6-1.2,0.9-1.8,0.9
			c-0.7,0-1.2-0.9-1.2-2.1c0-1.7,0.8-3.4,1.9-4.5c0.7-0.7,2.1-1.5,3.5-1.5c0.8,0,1.7,0.2,2.1,0.3c-0.4,1.5-0.8,3.6-1.2,5.7
			c-0.1,0.5,0,0.6,0.1,0.6s0.5-0.1,1-0.7L713.5,315.2z M710.1,314.2c0.4-0.5,0.5-1,0.7-1.6c0.2-0.8,0.5-2.1,0.6-2.7
			c-0.3-0.1-0.6-0.3-1.2-0.3c-1.5,0-2.3,3.2-2.3,5c0,0.8,0.2,1.1,0.5,1.1C708.8,315.8,709.2,315.4,710.1,314.2z"/>
		<path d="M714.2,310.9c0.7-0.9,1.8-1.9,2.5-1.9c0.5,0,0.7,0.7,0.8,2.4c0.1,1.4,0.1,2.4,0.2,3.6c0.7-0.8,2.2-2.6,2.2-3.6
			c0-0.5-0.1-0.8-0.3-1.1c-0.1-0.1-0.1-0.2,0-0.3c0.1-0.3,0.7-0.9,1.2-0.9c0.4,0,0.7,0.4,0.7,1c0,0.5-0.1,1.2-1,2.4
			c-1.1,1.5-3.3,3.9-4.1,4.6H716c-0.1-1.5-0.1-3.3-0.3-5.1c-0.1-1-0.2-1.5-0.4-1.5c-0.1,0-0.4,0.1-0.9,0.7L714.2,310.9z"/>
		<path d="M723.9,317.1c-0.9,0-2-0.5-2-2.5c0-1.7,0.7-3.4,1.9-4.4c0.7-0.6,1.8-1.1,2.6-1.1c1,0,1.4,0.6,1.4,1.4c0,1.6-2.5,2.4-4,2.7
			c0,0.3,0,0.5,0,0.6c0,1.2,0.3,2.1,1.3,2.1c0.7,0,1.4-0.3,2.2-1.2l0.2,0.3C726.1,316.7,724.8,317.1,723.9,317.1z M723.9,312.7
			c1.8-0.3,2.3-1.3,2.3-2.2c0-0.5-0.2-0.9-0.6-0.9C724.9,309.7,724.2,310.4,723.9,312.7z"/>
		<path d="M739.6,315.2c-1,1.3-2.2,1.9-2.8,1.9s-0.8-0.4-0.5-1.9l0.2-0.9c-1.1,1.6-2.5,2.8-3.5,2.8c-0.7,0-1.3-0.6-1.3-2.1
			c0-1.7,0.7-3.6,1.9-4.6c0.9-0.8,2.4-1.3,3-1.3c0.2,0,0.5,0,0.9,0.1l0.6-3.1c0.1-0.8,0-0.8-0.7-0.9c-0.1,0-0.2,0-0.3-0.1l0.1-0.2
			c0.8-0.1,2-0.3,2.6-0.5c0.3-0.1,0.5-0.2,0.6-0.2s0.2,0.1,0.1,0.5c-0.7,3.3-1.6,7.4-2.2,10.4c-0.1,0.5,0,0.6,0.1,0.6
			s0.5-0.2,1.1-0.8L739.6,315.2z M736.4,313.9c0.3-0.4,0.4-0.9,0.5-1.5l0.5-2.3c-0.3-0.4-1-0.5-1.3-0.5c-1.5,0-2.2,3.5-2.2,5.1
			c0,0.8,0.2,1.1,0.5,1.1C734.8,315.8,735.6,315.1,736.4,313.9z"/>
		<path d="M744.1,315.2c-1,1.3-2.2,1.9-2.8,1.9s-0.8-0.6-0.4-1.9c0.4-1.6,0.6-2.6,1-4c0.1-0.6,0.1-0.8-0.1-0.8c-0.3,0-0.7,0.3-1,0.7
			l-0.2-0.3c0.8-1,2.1-1.8,2.8-1.8c0.6,0,0.6,0.6,0.3,2.1c-0.3,1.3-0.6,2.6-0.9,3.9c-0.1,0.5,0,0.7,0.1,0.7s0.5-0.2,1-0.7
			L744.1,315.2z M744.5,306.3c0,0.6-0.4,1.2-1,1.2c-0.5,0-0.8-0.3-0.8-0.9c0-0.5,0.4-1.2,1.1-1.2
			C744.3,305.4,744.5,305.8,744.5,306.3z"/>
		<path d="M747.1,317.1c-0.9,0-2-0.5-2-2.5c0-1.7,0.7-3.4,1.9-4.4c0.7-0.6,1.8-1.1,2.6-1.1c1,0,1.4,0.6,1.4,1.4c0,1.6-2.5,2.4-4,2.7
			c0,0.3,0,0.5,0,0.6c0,1.2,0.3,2.1,1.3,2.1c0.7,0,1.4-0.3,2.2-1.2l0.2,0.3C749.4,316.7,748,317.1,747.1,317.1z M747.2,312.7
			c1.8-0.3,2.3-1.3,2.3-2.2c0-0.5-0.2-0.9-0.6-0.9C748.2,309.7,747.5,310.4,747.2,312.7z"/>
		<path d="M759.7,315.2c-1,1.3-2.2,1.9-2.8,1.9s-0.8-0.4-0.5-1.9l0.2-0.9c-1.1,1.6-2.5,2.8-3.5,2.8c-0.7,0-1.3-0.6-1.3-2.1
			c0-1.7,0.7-3.6,1.9-4.6c0.9-0.8,2.4-1.3,3-1.3c0.2,0,0.5,0,0.9,0.1l0.6-3.1c0.1-0.8,0-0.8-0.7-0.9c-0.1,0-0.2,0-0.3-0.1l0.1-0.2
			c0.8-0.1,2-0.3,2.6-0.5c0.3-0.1,0.5-0.2,0.6-0.2s0.2,0.1,0.1,0.5c-0.7,3.3-1.6,7.4-2.2,10.4c-0.1,0.5,0,0.6,0.1,0.6
			s0.5-0.2,1.1-0.8L759.7,315.2z M756.5,313.9c0.3-0.4,0.4-0.9,0.5-1.5l0.5-2.3c-0.3-0.4-1-0.5-1.3-0.5c-1.5,0-2.2,3.5-2.2,5.1
			c0,0.8,0.2,1.1,0.5,1.1C754.9,315.8,755.7,315.1,756.5,313.9z"/>
	</g>
</g>
<g>
	<path class="st17" d="M307.4,698.7l76.1-9.7l75.7-11.3l76.1,39.5l76.1-43.8l76.1-17l76.1-13.9l76.1-10.4l76.1-31.3l76.1-43.3
		l76.1-76.9"/>
</g>
<g>
	<path class="st18" d="M307,625.9l76.1-9.3l76.1,54l76.1-21.8l76.1-21.1l76.1,23l76.1,18.6l76.1-33l76.1,28.4l76.1,8.4l76.1-12.6"/>
</g>
</svg>
