<?xml version="1.0" encoding="utf-8"?>
<!-- Generator: Adobe Illustrator 22.1.0, SVG Export Plug-In . SVG Version: 6.00 Build 0)  -->
<svg version="1.1" id="Layer_1" xmlns="http://www.w3.org/2000/svg" xmlns:xlink="http://www.w3.org/1999/xlink" x="0px" y="0px"
	 viewBox="0 0 1357.9 905.3" style="enable-background:new 0 0 1357.9 905.3;" xml:space="preserve">
<style type="text/css">
	.st0{fill:#EEE8D5;}
	.st1{fill:#657B83;}
	.st2{clip-path:url(#SVGID_2_);fill:none;stroke:#FFFFFF;stroke-linejoin:round;stroke-dasharray:1,1.65;}
	.st3{clip-path:url(#SVGID_4_);fill:none;stroke:#FFFFFF;stroke-linejoin:round;stroke-dasharray:1,1.65;}
	.st4{clip-path:url(#SVGID_6_);fill:none;stroke:#FFFFFF;stroke-linejoin:round;stroke-dasharray:1,1.65;}
	.st5{clip-path:url(#SVGID_8_);fill:none;stroke:#FFFFFF;stroke-linejoin:round;stroke-dasharray:1,1.65;}
	.st6{clip-path:url(#SVGID_10_);fill:none;stroke:#FFFFFF;stroke-linejoin:round;stroke-dasharray:1,1.65;}
	.st7{clip-path:url(#SVGID_12_);fill:none;stroke:#FFFFFF;stroke-linejoin:round;stroke-dasharray:1,1.65;}
	.st8{clip-path:url(#SVGID_14_);fill:none;stroke:#FFFFFF;stroke-linejoin:round;stroke-dasharray:1,1.65;}
	.st9{clip-path:url(#SVGID_16_);fill:none;stroke:#DBD7AD;stroke-width:2;stroke-linejoin:round;}
	.st10{clip-path:url(#SVGID_18_);fill:none;stroke:#DBD7AD;stroke-width:2;stroke-linejoin:round;}
	.st11{fill:none;stroke:#EEE8D5;stroke-width:0.8;stroke-linecap:square;}
	.st12{fill:none;}
	.st13{font-family:'Futura-CondensedMedium';}
	.st14{font-size:16px;}
	.st15{letter-spacing:2;}
	.st16{font-family:'Futura-CondensedExtraBold';}
	.st17{font-size:56px;}
	.st18{fill:none;stroke:#D26C3D;stroke-width:2;stroke-linejoin:round;}
</style>
<path class="st0" d="M269,824.6h837V270.2H269V824.6z"/>
<path id="FuturaStd-CondensedBold-32" class="st1" d="M299.1,831.2v-0.5c0-0.4,0-1.2,0.6-1.2c0.5,0,0.6,0.5,0.6,0.9
	c0,0.8-0.6,1.9-1,2.6l-1.7,3.1h4v-1.3h-1.8l1.3-2.4c0.4-0.7,0.6-1.3,0.6-2c0-1.3-0.8-1.9-2-1.9c-1.6,0-2,0.9-2,2.3v0.4L299.1,831.2
	L299.1,831.2z"/>
<path id="FuturaStd-CondensedBold-30" class="st1" d="M304.6,828.5c-1.8,0-2.1,2.6-2.1,3.9c0,1.3,0.3,3.9,2.1,3.9
	c1.8,0,2.1-2.6,2.1-3.9C306.7,831,306.4,828.5,304.6,828.5z M304.6,829.8c0.7,0,0.7,2,0.7,2.5s0.1,2.5-0.7,2.5s-0.7-2-0.7-2.5
	C303.9,831.9,303.8,829.8,304.6,829.8z"/>
<path id="FuturaStd-CondensedBold-30_1_" class="st1" d="M309.5,828.5c-1.8,0-2.1,2.6-2.1,3.9c0,1.3,0.3,3.9,2.1,3.9
	c1.8,0,2.1-2.6,2.1-3.9C311.6,831,311.3,828.5,309.5,828.5z M309.5,829.8c0.7,0,0.7,2,0.7,2.5s0.1,2.5-0.7,2.5c-0.7,0-0.7-2-0.7-2.5
	C308.8,831.9,308.7,829.8,309.5,829.8z"/>
<path id="FuturaStd-CondensedBold-36" class="st1" d="M314,828.6l-0.6,1.3c-0.6,1.2-1.1,2.4-1.1,3.7s0.6,2.7,2.1,2.7
	c1.6,0,2.1-1.4,2.1-2.8c0-0.9-0.4-2.3-1.5-2.3c-0.4,0-0.7,0.2-0.9,0.4l0,0l1.4-2.9H314V828.6z M314.4,832.5c0.5,0,0.6,0.8,0.6,1.2
	s-0.1,1.3-0.6,1.3s-0.6-0.9-0.6-1.2C313.7,833.4,313.8,832.5,314.4,832.5z"/>
<path id="FuturaStd-CondensedBold-32_1_" class="st1" d="M375.2,831.2v-0.5c0-0.4,0-1.2,0.6-1.2c0.5,0,0.6,0.5,0.6,0.9
	c0,0.8-0.6,1.9-1,2.6l-1.7,3.1h4v-1.3h-1.8l1.3-2.4c0.4-0.7,0.6-1.3,0.6-2c0-1.3-0.8-1.9-2-1.9c-1.6,0-2,0.9-2,2.3v0.4L375.2,831.2
	L375.2,831.2z"/>
<path id="FuturaStd-CondensedBold-30_2_" class="st1" d="M380.6,828.5c-1.8,0-2.1,2.6-2.1,3.9c0,1.3,0.3,3.9,2.1,3.9
	c1.8,0,2.1-2.6,2.1-3.9C382.8,831,382.5,828.5,380.6,828.5z M380.6,829.8c0.7,0,0.7,2,0.7,2.5s0.1,2.5-0.7,2.5s-0.7-2-0.7-2.5
	C380,831.9,379.9,829.8,380.6,829.8z"/>
<path id="FuturaStd-CondensedBold-30_3_" class="st1" d="M385.5,828.5c-1.8,0-2.1,2.6-2.1,3.9c0,1.3,0.3,3.9,2.1,3.9
	c1.8,0,2.1-2.6,2.1-3.9C387.7,831,387.4,828.5,385.5,828.5z M385.5,829.8c0.7,0,0.7,2,0.7,2.5s0.1,2.5-0.7,2.5c-0.7,0-0.7-2-0.7-2.5
	C384.9,831.9,384.8,829.8,385.5,829.8z"/>
<path id="FuturaStd-CondensedBold-37" class="st1" d="M388.7,828.6v1.3h2l-2.4,6.2h1.6l2.8-7.5H388.7z"/>
<path id="FuturaStd-CondensedBold-32_2_" class="st1" d="M451.3,831.2v-0.5c0-0.4,0-1.2,0.6-1.2c0.5,0,0.6,0.5,0.6,0.9
	c0,0.8-0.6,1.9-1,2.6l-1.7,3.1h4v-1.3H452l1.3-2.4c0.4-0.7,0.6-1.3,0.6-2c0-1.3-0.8-1.9-2-1.9c-1.6,0-2,0.9-2,2.3v0.4L451.3,831.2
	L451.3,831.2z"/>
<path id="FuturaStd-CondensedBold-30_4_" class="st1" d="M456.7,828.5c-1.8,0-2.1,2.6-2.1,3.9c0,1.3,0.3,3.9,2.1,3.9
	c1.8,0,2.1-2.6,2.1-3.9C458.9,831,458.5,828.5,456.7,828.5z M456.7,829.8c0.7,0,0.7,2,0.7,2.5s0.1,2.5-0.7,2.5s-0.7-2-0.7-2.5
	C456.1,831.9,456,829.8,456.7,829.8z"/>
<path id="FuturaStd-CondensedBold-30_5_" class="st1" d="M461.6,828.5c-1.8,0-2.1,2.6-2.1,3.9c0,1.3,0.3,3.9,2.1,3.9
	c1.8,0,2.1-2.6,2.1-3.9C463.8,831,463.4,828.5,461.6,828.5z M461.6,829.8c0.7,0,0.7,2,0.7,2.5s0.1,2.5-0.7,2.5c-0.7,0-0.7-2-0.7-2.5
	C461,831.9,460.9,829.8,461.6,829.8z"/>
<path id="FuturaStd-CondensedBold-38" class="st1" d="M465.7,832.1c-0.9,0.3-1.3,1-1.3,2c0,1.2,0.9,2.2,2.2,2.2
	c1.3,0,2.2-0.9,2.2-2.2c0-1-0.4-1.7-1.3-2l0,0c0.7-0.2,1-0.9,1-1.6c0-1.1-0.7-2-1.9-2c-1.2,0-1.9,0.9-1.9,2
	C464.7,831.2,465,831.8,465.7,832.1L465.7,832.1z M466.1,830.4c0-0.3,0.1-0.8,0.4-0.8c0.4,0,0.5,0.5,0.5,0.8s0,0.9-0.5,0.9
	C466.1,831.3,466.1,830.7,466.1,830.4z M466.5,832.8c0.5,0,0.6,0.7,0.6,1.1c0,0.4-0.1,1.1-0.6,1.1s-0.6-0.7-0.6-1.1
	S466,832.8,466.5,832.8z"/>
<path id="FuturaStd-CondensedBold-32_3_" class="st1" d="M527.4,831.2v-0.5c0-0.4,0-1.2,0.6-1.2c0.5,0,0.6,0.5,0.6,0.9
	c0,0.8-0.6,1.9-1,2.6l-1.7,3.1h4v-1.3h-1.8l1.3-2.4c0.3-0.7,0.6-1.3,0.6-2c0-1.3-0.8-1.9-2-1.9c-1.6,0-2,0.9-2,2.3v0.4L527.4,831.2
	L527.4,831.2z"/>
<path id="FuturaStd-CondensedBold-30_6_" class="st1" d="M532.8,828.5c-1.8,0-2.1,2.6-2.1,3.9c0,1.3,0.3,3.9,2.1,3.9
	s2.1-2.6,2.1-3.9C534.9,831,534.6,828.5,532.8,828.5z M532.8,829.8c0.7,0,0.7,2,0.7,2.5s0.1,2.5-0.7,2.5c-0.7,0-0.7-2-0.7-2.5
	C532.2,831.9,532.1,829.8,532.8,829.8z"/>
<path id="FuturaStd-CondensedBold-30_7_" class="st1" d="M537.7,828.5c-1.8,0-2.1,2.6-2.1,3.9c0,1.3,0.3,3.9,2.1,3.9
	s2.1-2.6,2.1-3.9C539.8,831,539.5,828.5,537.7,828.5z M537.7,829.8c0.7,0,0.7,2,0.7,2.5s0.1,2.5-0.7,2.5c-0.7,0-0.7-2-0.7-2.5
	C537.1,831.9,537,829.8,537.7,829.8z"/>
<path id="FuturaStd-CondensedBold-39" class="st1" d="M543,836.1l0.6-1.3c0.6-1.2,1.1-2.4,1.1-3.7s-0.6-2.7-2.1-2.7
	c-1.6,0-2.1,1.4-2.1,2.8c0,0.9,0.4,2.3,1.5,2.3c0.4,0,0.7-0.2,0.9-0.4l0,0l-1.4,3L543,836.1L543,836.1z M542.6,829.8
	c0.5,0,0.6,0.8,0.6,1.2s-0.1,1.3-0.7,1.3c-0.5,0-0.6-0.8-0.6-1.2C542,830.7,542.1,829.8,542.6,829.8z"/>
<path id="FuturaStd-CondensedBold-32_4_" class="st1" d="M603.5,831.2v-0.5c0-0.4,0-1.2,0.6-1.2c0.5,0,0.6,0.5,0.6,0.9
	c0,0.8-0.6,1.9-1,2.6l-1.7,3.1h4v-1.3h-1.8l1.3-2.4c0.4-0.7,0.6-1.3,0.6-2c0-1.3-0.8-1.9-2-1.9c-1.6,0-2,0.9-2,2.3v0.4L603.5,831.2
	L603.5,831.2z"/>
<path id="FuturaStd-CondensedBold-30_8_" class="st1" d="M608.9,828.5c-1.8,0-2.1,2.6-2.1,3.9c0,1.3,0.3,3.9,2.1,3.9
	s2.1-2.6,2.1-3.9C611,831,610.7,828.5,608.9,828.5z M608.9,829.8c0.7,0,0.7,2,0.7,2.5s0.1,2.5-0.7,2.5s-0.7-2-0.7-2.5
	C608.2,831.9,608.2,829.8,608.9,829.8z"/>
<path id="FuturaStd-CondensedBold-31" class="st1" d="M612.5,828.6v1.3h0.7v6.2h1.5v-7.5H612.5z"/>
<path id="FuturaStd-CondensedBold-30_9_" class="st1" d="M618.7,828.5c-1.8,0-2.1,2.6-2.1,3.9c0,1.3,0.3,3.9,2.1,3.9
	s2.1-2.6,2.1-3.9C620.8,831,620.5,828.5,618.7,828.5z M618.7,829.8c0.7,0,0.7,2,0.7,2.5s0.1,2.5-0.7,2.5c-0.7,0-0.7-2-0.7-2.5
	C618,831.9,618,829.8,618.7,829.8z"/>
<path id="FuturaStd-CondensedBold-32_5_" class="st1" d="M679.6,831.2v-0.5c0-0.4,0-1.2,0.6-1.2c0.5,0,0.6,0.5,0.6,0.9
	c0,0.8-0.6,1.9-1,2.6l-1.7,3.1h4v-1.3h-1.8l1.3-2.4c0.3-0.7,0.6-1.3,0.6-2c0-1.3-0.8-1.9-2-1.9c-1.6,0-2,0.9-2,2.3v0.4L679.6,831.2
	L679.6,831.2z"/>
<path id="FuturaStd-CondensedBold-30_10_" class="st1" d="M685,828.5c-1.8,0-2.1,2.6-2.1,3.9c0,1.3,0.3,3.9,2.1,3.9s2.1-2.6,2.1-3.9
	C687.1,831,686.8,828.5,685,828.5z M685,829.8c0.7,0,0.7,2,0.7,2.5s0.1,2.5-0.7,2.5c-0.7,0-0.7-2-0.7-2.5
	C684.3,831.9,684.3,829.8,685,829.8z"/>
<path id="FuturaStd-CondensedBold-31_1_" class="st1" d="M688.6,828.6v1.3h0.7v6.2h1.5v-7.5H688.6z"/>
<path id="FuturaStd-CondensedBold-31_2_" class="st1" d="M693.5,828.6v1.3h0.7v6.2h1.5v-7.5H693.5z"/>
<path id="FuturaStd-CondensedBold-32_6_" class="st1" d="M755.7,831.2v-0.5c0-0.4,0-1.2,0.6-1.2c0.5,0,0.6,0.5,0.6,0.9
	c0,0.8-0.6,1.9-1,2.6l-1.7,3.1h4v-1.3h-1.8l1.3-2.4c0.3-0.7,0.6-1.3,0.6-2c0-1.3-0.8-1.9-2-1.9c-1.6,0-2,0.9-2,2.3v0.4L755.7,831.2
	L755.7,831.2z"/>
<path id="FuturaStd-CondensedBold-30_11_" class="st1" d="M761.1,828.5c-1.8,0-2.1,2.6-2.1,3.9c0,1.3,0.3,3.9,2.1,3.9
	s2.1-2.6,2.1-3.9C763.2,831,762.9,828.5,761.1,828.5z M761.1,829.8c0.7,0,0.7,2,0.7,2.5s0.1,2.5-0.7,2.5c-0.7,0-0.7-2-0.7-2.5
	C760.4,831.9,760.4,829.8,761.1,829.8z"/>
<path id="FuturaStd-CondensedBold-31_3_" class="st1" d="M764.7,828.6v1.3h0.7v6.2h1.5v-7.5H764.7z"/>
<path id="FuturaStd-CondensedBold-32_7_" class="st1" d="M770.4,831.2v-0.5c0-0.4,0-1.2,0.6-1.2c0.5,0,0.6,0.5,0.6,0.9
	c0,0.8-0.6,1.9-1,2.6l-1.7,3.1h4v-1.3h-1.8l1.3-2.4c0.3-0.7,0.6-1.3,0.6-2c0-1.3-0.8-1.9-2-1.9c-1.6,0-2,0.9-2,2.3v0.4L770.4,831.2
	L770.4,831.2z"/>
<path id="FuturaStd-CondensedBold-32_8_" class="st1" d="M831.7,831.2v-0.5c0-0.4,0-1.2,0.6-1.2c0.5,0,0.6,0.5,0.6,0.9
	c0,0.8-0.6,1.9-1,2.6l-1.7,3.1h4v-1.3h-1.8l1.3-2.4c0.3-0.7,0.6-1.3,0.6-2c0-1.3-0.8-1.9-2-1.9c-1.6,0-2,0.9-2,2.3v0.4L831.7,831.2
	L831.7,831.2z"/>
<path id="FuturaStd-CondensedBold-30_12_" class="st1" d="M837.2,828.5c-1.8,0-2.1,2.6-2.1,3.9c0,1.3,0.3,3.9,2.1,3.9
	s2.1-2.6,2.1-3.9C839.3,831,839,828.5,837.2,828.5z M837.2,829.8c0.7,0,0.7,2,0.7,2.5s0.1,2.5-0.7,2.5c-0.7,0-0.7-2-0.7-2.5
	C836.5,831.9,836.5,829.8,837.2,829.8z"/>
<path id="FuturaStd-CondensedBold-31_4_" class="st1" d="M840.7,828.6v1.3h0.7v6.2h1.5v-7.5H840.7z"/>
<path id="FuturaStd-CondensedBold-33" class="st1" d="M846.3,834.2h-1.4c-0.1,1.3,0.7,2.1,2,2.1c1.4,0,2.2-0.8,2.2-2.2
	c0-0.8-0.3-1.6-1.2-1.8l0,0c0.7-0.3,0.9-1.1,0.9-1.8c0-1.2-0.7-2-1.9-2c-1.4,0-1.8,1-1.8,2.2h1.3v-0.2c0-0.3,0.1-0.8,0.5-0.8
	s0.5,0.4,0.5,0.8c0,0.8-0.3,1-1.1,1v1.3c0.8,0,1.1,0.2,1.1,1.1c0,0.4,0,1.1-0.7,1.1c-0.4,0-0.6-0.3-0.6-0.6L846.3,834.2z"/>
<path id="FuturaStd-CondensedBold-32_9_" class="st1" d="M907.8,831.2v-0.5c0-0.4,0-1.2,0.6-1.2c0.5,0,0.6,0.5,0.6,0.9
	c0,0.8-0.6,1.9-1,2.6l-1.7,3.1h4v-1.3h-1.8l1.3-2.4c0.3-0.7,0.6-1.3,0.6-2c0-1.3-0.8-1.9-2-1.9c-1.6,0-2,0.9-2,2.3v0.4L907.8,831.2
	L907.8,831.2z"/>
<path id="FuturaStd-CondensedBold-30_13_" class="st1" d="M913.3,828.5c-1.8,0-2.1,2.6-2.1,3.9c0,1.3,0.3,3.9,2.1,3.9
	s2.1-2.6,2.1-3.9C915.4,831,915.1,828.5,913.3,828.5z M913.3,829.8c0.7,0,0.7,2,0.7,2.5s0.1,2.5-0.7,2.5c-0.7,0-0.7-2-0.7-2.5
	C912.6,831.9,912.5,829.8,913.3,829.8z"/>
<path id="FuturaStd-CondensedBold-31_5_" class="st1" d="M916.8,828.6v1.3h0.7v6.2h1.5v-7.5H916.8z"/>
<path id="FuturaStd-CondensedBold-34" class="st1" d="M922.9,828.6l-2,4.6v1.1h2.2v1.8h1.4v-1.8h0.6v-1.1h-0.6v-4.6H922.9z
	 M923.1,833.2H922l1.1-2.9l0,0V833.2z"/>
<path id="FuturaStd-CondensedBold-32_10_" class="st1" d="M983.9,831.2v-0.5c0-0.4,0-1.2,0.6-1.2c0.5,0,0.6,0.5,0.6,0.9
	c0,0.8-0.6,1.9-1,2.6l-1.7,3.1h4v-1.3h-1.8l1.3-2.4c0.3-0.7,0.6-1.3,0.6-2c0-1.3-0.8-1.9-2-1.9c-1.6,0-2,0.9-2,2.3v0.4L983.9,831.2
	L983.9,831.2z"/>
<path id="FuturaStd-CondensedBold-30_14_" class="st1" d="M989.4,828.5c-1.8,0-2.1,2.6-2.1,3.9c0,1.3,0.3,3.9,2.1,3.9
	s2.1-2.6,2.1-3.9C991.5,831,991.2,828.5,989.4,828.5z M989.4,829.8c0.7,0,0.7,2,0.7,2.5s0.1,2.5-0.7,2.5c-0.7,0-0.7-2-0.7-2.5
	C988.7,831.9,988.6,829.8,989.4,829.8z"/>
<path id="FuturaStd-CondensedBold-31_6_" class="st1" d="M992.9,828.6v1.3h0.7v6.2h1.5v-7.5H992.9z"/>
<path id="FuturaStd-CondensedBold-35" class="st1" d="M997.5,832.3c0.2,0,0.4-0.1,0.6-0.1c0.9,0,1.5,0.4,1.5,1.3
	c0,0.7-0.4,1.4-1.2,1.4c-0.3,0-0.7-0.1-0.9-0.4l-0.2,1.3c0.5,0.2,0.9,0.3,1.5,0.3c1.7,0,2.5-1,2.5-2.7c0-1.5-0.7-2.4-2.2-2.5
	l0.2-1.2h1.8v-1.3h-2.9L997.5,832.3z"/>
<path id="FuturaStd-CondensedBold-32_11_" class="st1" d="M1060,831.2v-0.5c0-0.4,0-1.2,0.6-1.2c0.5,0,0.6,0.5,0.6,0.9
	c0,0.8-0.6,1.9-1,2.6l-1.7,3.1h4v-1.3h-1.8l1.3-2.4c0.3-0.7,0.6-1.3,0.6-2c0-1.3-0.8-1.9-2-1.9c-1.6,0-2,0.9-2,2.3v0.4L1060,831.2
	L1060,831.2z"/>
<path id="FuturaStd-CondensedBold-30_15_" class="st1" d="M1065.5,828.5c-1.8,0-2.1,2.6-2.1,3.9c0,1.3,0.3,3.9,2.1,3.9
	c1.8,0,2.1-2.6,2.1-3.9C1067.6,831,1067.3,828.5,1065.5,828.5z M1065.5,829.8c0.7,0,0.7,2,0.7,2.5s0.1,2.5-0.7,2.5s-0.7-2-0.7-2.5
	C1064.8,831.9,1064.7,829.8,1065.5,829.8z"/>
<path id="FuturaStd-CondensedBold-31_7_" class="st1" d="M1069,828.6v1.3h0.7v6.2h1.5v-7.5H1069z"/>
<path id="FuturaStd-CondensedBold-36_1_" class="st1" d="M1074.9,828.6l-0.6,1.3c-0.6,1.2-1.1,2.4-1.1,3.7s0.6,2.7,2.1,2.7
	c1.6,0,2.1-1.4,2.1-2.8c0-0.9-0.4-2.3-1.5-2.3c-0.4,0-0.7,0.2-0.9,0.4l0,0l1.4-2.9h-1.5V828.6z M1075.3,832.5c0.5,0,0.6,0.8,0.6,1.2
	s-0.1,1.3-0.6,1.3s-0.6-0.9-0.6-1.2C1074.6,833.4,1074.7,832.5,1075.3,832.5z"/>
<g>
	<g>
		<defs>
			<rect id="SVGID_1_" x="269" y="270.2" width="837" height="554.4"/>
		</defs>
		<clipPath id="SVGID_2_">
			<use xlink:href="#SVGID_1_"  style="overflow:visible;"/>
		</clipPath>
		<path class="st2" d="M269,824.6h837"/>
	</g>
</g>
<path id="FuturaStd-CondensedBold-30_16_" class="st1" d="M263,820.9c-1.8,0-2.1,2.6-2.1,3.9c0,1.3,0.3,3.9,2.1,3.9
	c1.8,0,2.1-2.6,2.1-3.9S264.8,820.9,263,820.9z M263,822.3c0.7,0,0.7,2,0.7,2.5s0.1,2.5-0.7,2.5s-0.7-2-0.7-2.5
	S262.3,822.3,263,822.3z"/>
<g>
	<g>
		<defs>
			<rect id="SVGID_3_" x="269" y="270.2" width="837" height="554.4"/>
		</defs>
		<clipPath id="SVGID_4_">
			<use xlink:href="#SVGID_3_"  style="overflow:visible;"/>
		</clipPath>
		<path class="st3" d="M269,743.7h837"/>
	</g>
</g>
<path id="FuturaStd-CondensedBold-31_8_" class="st1" d="M256.8,740.2v1.3h0.7v6.2h1.4v-7.5H256.8z"/>
<path id="FuturaStd-CondensedBold-30_17_" class="st1" d="M263,740.1c-1.8,0-2.1,2.6-2.1,3.9c0,1.3,0.3,3.9,2.1,3.9
	c1.8,0,2.1-2.6,2.1-3.9C265.1,742.6,264.8,740.1,263,740.1z M263,741.4c0.7,0,0.7,2,0.7,2.5s0.1,2.5-0.7,2.5c-0.7,0-0.7-2-0.7-2.5
	C262.3,743.5,262.3,741.4,263,741.4z"/>
<g>
	<g>
		<defs>
			<rect id="SVGID_5_" x="269" y="270.2" width="837" height="554.4"/>
		</defs>
		<clipPath id="SVGID_6_">
			<use xlink:href="#SVGID_5_"  style="overflow:visible;"/>
		</clipPath>
		<path class="st4" d="M269,662.8h837"/>
	</g>
</g>
<path id="FuturaStd-CondensedBold-32_12_" class="st1" d="M257.6,661.9v-0.5c0-0.4,0-1.2,0.6-1.2c0.5,0,0.6,0.5,0.6,0.9
	c0,0.8-0.6,1.8-1,2.6l-1.7,3.1h4v-1.3h-1.8l1.3-2.4c0.4-0.7,0.6-1.3,0.6-2c0-1.3-0.8-1.9-2-1.9c-1.6,0-2,0.9-2,2.3v0.4L257.6,661.9
	L257.6,661.9z"/>
<path id="FuturaStd-CondensedBold-30_18_" class="st1" d="M263,659.2c-1.8,0-2.1,2.6-2.1,3.9c0,1.3,0.3,3.9,2.1,3.9
	c1.8,0,2.1-2.6,2.1-3.9C265.1,661.7,264.8,659.2,263,659.2z M263,660.5c0.7,0,0.7,2,0.7,2.5s0.1,2.5-0.7,2.5c-0.7,0-0.7-2-0.7-2.5
	C262.3,662.6,262.3,660.5,263,660.5z"/>
<path id="FuturaStd-CondensedBold-33_1_" class="st1" d="M257.4,584H256c-0.1,1.3,0.7,2.1,2,2.1c1.4,0,2.2-0.8,2.2-2.2
	c0-0.8-0.3-1.6-1.2-1.8l0,0c0.7-0.3,0.9-1.1,0.9-1.8c0-1.2-0.7-2-1.9-2c-1.4,0-1.8,1-1.8,2.2h1.3v-0.2c0-0.3,0.1-0.8,0.5-0.8
	s0.5,0.4,0.5,0.8c0,0.8-0.3,1-1.1,1v1.3c0.8,0,1.1,0.2,1.1,1c0,0.5,0,1.1-0.6,1.1c-0.4,0-0.6-0.3-0.6-0.6L257.4,584z"/>
<path id="FuturaStd-CondensedBold-30_19_" class="st1" d="M263,578.3c-1.8,0-2.1,2.6-2.1,3.9c0,1.3,0.3,3.9,2.1,3.9
	c1.8,0,2.1-2.6,2.1-3.9C265.1,580.9,264.8,578.3,263,578.3z M263,579.7c0.7,0,0.7,2,0.7,2.5s0.1,2.5-0.7,2.5c-0.7,0-0.7-2-0.7-2.5
	S262.3,579.7,263,579.7z"/>
<g>
	<g>
		<defs>
			<rect id="SVGID_7_" x="269" y="270.2" width="837" height="554.4"/>
		</defs>
		<clipPath id="SVGID_8_">
			<use xlink:href="#SVGID_7_"  style="overflow:visible;"/>
		</clipPath>
		<path class="st5" d="M269,501h837"/>
	</g>
</g>
<path id="FuturaStd-CondensedBold-34_1_" class="st1" d="M257.9,497.5l-2,4.6v1.1h2.2v1.8h1.5v-1.8h0.6v-1.1h-0.6v-4.6H257.9z
	 M258.1,502.1H257l1.1-2.9l0,0V502.1z"/>
<path id="FuturaStd-CondensedBold-30_20_" class="st1" d="M263,497.4c-1.8,0-2.1,2.6-2.1,3.9s0.3,3.9,2.1,3.9c1.8,0,2.1-2.6,2.1-3.9
	S264.8,497.4,263,497.4z M263,498.8c0.7,0,0.7,2,0.7,2.5s0.1,2.5-0.7,2.5c-0.7,0-0.7-2-0.7-2.5S262.3,498.8,263,498.8z"/>
<g>
	<g>
		<defs>
			<rect id="SVGID_9_" x="269" y="270.2" width="837" height="554.4"/>
		</defs>
		<clipPath id="SVGID_10_">
			<use xlink:href="#SVGID_9_"  style="overflow:visible;"/>
		</clipPath>
		<path class="st6" d="M269,420.2h837"/>
	</g>
</g>
<g>
	<g>
		<defs>
			<rect id="SVGID_11_" x="268.6" y="432.7" width="837" height="554.4"/>
		</defs>
		<clipPath id="SVGID_12_">
			<use xlink:href="#SVGID_11_"  style="overflow:visible;"/>
		</clipPath>
		<path class="st7" d="M268.6,582.7h837"/>
	</g>
</g>
<path id="FuturaStd-CondensedBold-35_1_" class="st1" d="M256.4,420.4c0.2,0,0.4-0.1,0.6-0.1c0.9,0,1.5,0.4,1.5,1.3
	c0,0.7-0.4,1.4-1.2,1.4c-0.3,0-0.7-0.1-0.9-0.4l-0.2,1.3c0.5,0.2,0.9,0.3,1.4,0.3c1.7,0,2.5-1,2.5-2.6c0-1.5-0.7-2.4-2.2-2.5
	l0.2-1.2h1.8v-1.3H257L256.4,420.4z"/>
<path id="FuturaStd-CondensedBold-30_21_" class="st1" d="M263,416.5c-1.8,0-2.1,2.6-2.1,3.9s0.3,3.9,2.1,3.9c1.8,0,2.1-2.6,2.1-3.9
	S264.8,416.5,263,416.5z M263,417.9c0.7,0,0.7,2,0.7,2.5s0.1,2.5-0.7,2.5c-0.7,0-0.7-2-0.7-2.5S262.3,417.9,263,417.9z"/>
<g>
	<g>
		<defs>
			<rect id="SVGID_13_" x="269" y="270.2" width="837" height="554.4"/>
		</defs>
		<clipPath id="SVGID_14_">
			<use xlink:href="#SVGID_13_"  style="overflow:visible;"/>
		</clipPath>
		<path class="st8" d="M269,339.3h837"/>
	</g>
</g>
<path id="FuturaStd-CondensedBold-36_2_" class="st1" d="M257.7,335.8l-0.6,1.3c-0.6,1.2-1.1,2.4-1.1,3.7c0,1.3,0.6,2.6,2.1,2.6
	c1.6,0,2.1-1.4,2.1-2.8c0-0.9-0.4-2.3-1.5-2.3c-0.4,0-0.7,0.2-0.9,0.4l0,0l1.4-2.9L257.7,335.8L257.7,335.8z M258.2,339.7
	c0.5,0,0.6,0.8,0.6,1.2c0,0.4-0.1,1.3-0.6,1.3s-0.6-0.9-0.6-1.2C257.5,340.6,257.6,339.7,258.2,339.7z"/>
<path id="FuturaStd-CondensedBold-30_22_" class="st1" d="M263,335.7c-1.8,0-2.1,2.6-2.1,3.9s0.3,3.9,2.1,3.9c1.8,0,2.1-2.6,2.1-3.9
	S264.8,335.7,263,335.7z M263,337c0.7,0,0.7,2,0.7,2.5s0.1,2.5-0.7,2.5c-0.7,0-0.7-2-0.7-2.5C262.3,339.1,262.3,337,263,337z"/>
<g>
	<g>
		<defs>
			<rect id="SVGID_15_" x="269" y="270.2" width="837" height="554.4"/>
		</defs>
		<clipPath id="SVGID_16_">
			<use xlink:href="#SVGID_15_"  style="overflow:visible;"/>
		</clipPath>
		<path class="st9" d="M307,576.9l76.1,28.1l76.1-97.4l76.1,224.9l76.1-238l76.1-102.3l76.1,98.9l76.1-18.8l76.1-45l76.1-92.8
			l76.1-42.2"/>
	</g>
</g>
<g>
	<g>
		<defs>
			<rect id="SVGID_17_" x="269" y="270.2" width="837" height="554.4"/>
		</defs>
		<clipPath id="SVGID_18_">
			<use xlink:href="#SVGID_17_"  style="overflow:visible;"/>
		</clipPath>
		<path class="st10" d="M307,625.9l76.1-9.3l76.1,54l76.1-21.8l76.1-21.1l76.1,23l76.1,18.6l76.1-33l76.1,28.4l76.1,8.4l76.1-12.6"
			/>
	</g>
</g>
<path class="st11" d="M269,824.6V270.2"/>
<path class="st11" d="M1106,824.6V270.2"/>
<path class="st11" d="M269,824.6h837"/>
<path class="st11" d="M269,270.2h837"/>
<rect x="157.9" y="555.1" class="st12" width="68.7" height="59.3"/>
<text transform="matrix(1 0 0 1 157.89 568.3425)" class="st1 st13 st14 st15">Overdose</text>
<text transform="matrix(1 0 0 1 219.89 568.3425)" class="st1 st13 st14">s </text>
<text transform="matrix(1 0 0 1 169.29 587.5425)" class="st1 st13 st14">per 100k </text>
<text transform="matrix(1 0 0 1 165.19 606.7426)" class="st1 st13 st14">population</text>
<rect x="267.2" y="124.9" class="st12" width="837" height="64.5"/>
<text transform="matrix(1 0 0 1 393.4997 171.116)" class="st16 st17">Drug overdoses in Ohio</text>
<g>
	<g>
		<path d="M314.1,195.2c0,3.7-2.6,7.2-6.5,7.2c-2.8,0-4.7-1.9-4.7-4.9c0-3.8,2.8-7.3,6.7-7.3C312.3,190.2,314.1,192.1,314.1,195.2z
			 M305.2,198.4c0,2.2,0.8,3.6,2.4,3.6c2.6,0,4-4.3,4-7.9c0-1.7-0.4-3.5-2.3-3.5C306.8,190.6,305.2,194.6,305.2,198.4z"/>
		<path d="M316,190c0.7-0.1,1.9-0.3,2.4-0.5c0.3-0.1,0.5-0.2,0.6-0.2s0.1,0.2,0,0.7c-0.5,2.4-1,4.9-1.5,7.3c1.1-1.8,2.8-3,3.9-3
			c0.6,0,1.2,0.3,0.7,2.5c-0.3,1.2-0.5,2.3-0.8,3.5c-0.1,0.5-0.1,0.6,0.1,0.6c0.1,0,0.5-0.1,1-0.7l0.1,0.2c-1,1.3-2.2,1.9-2.8,1.9
			c-0.6,0-0.8-0.4-0.5-1.7s0.6-2.6,0.9-3.9c0.2-0.9,0.1-1.2-0.3-1.2c-0.5,0-1.3,0.5-2.2,2.1c-0.3,0.6-0.5,1.3-0.7,1.8
			c-0.2,0.8-0.5,1.9-0.5,2.6c-0.7,0.1-1.3,0.2-1.9,0.4l-0.1-0.1c0.7-3.3,1.5-7,2.2-10.8c0.2-1,0.1-1.1-0.7-1.2c-0.1,0-0.1,0-0.3,0
			L316,190z"/>
		<path d="M327.3,200.5c-1,1.3-2.2,1.9-2.8,1.9c-0.6,0-0.8-0.6-0.4-1.9c0.4-1.6,0.6-2.6,1-4c0.1-0.6,0.1-0.8-0.1-0.8
			c-0.3,0-0.7,0.3-1,0.7l-0.2-0.3c0.8-1,2.1-1.8,2.8-1.8c0.6,0,0.6,0.6,0.3,2.1c-0.3,1.3-0.6,2.6-0.9,3.9c-0.1,0.5,0,0.7,0.1,0.7
			s0.5-0.2,1-0.7L327.3,200.5z M327.7,191.5c0,0.6-0.4,1.2-1,1.2c-0.5,0-0.8-0.3-0.8-0.9c0-0.5,0.4-1.2,1.1-1.2
			C327.5,190.6,327.7,191,327.7,191.5z"/>
		<path d="M335.5,196.9c0,1.9-0.9,3.9-2.6,4.8c-0.6,0.4-1.3,0.6-2.1,0.6c-1.9,0-2.4-1.3-2.4-2.6c0-2.3,1.3-4.2,2.9-5
			c0.6-0.3,1.2-0.5,1.9-0.5C334.7,194.3,335.5,195.4,335.5,196.9z M330.4,199.7c0,1.5,0.5,2.1,1.1,2.1c1.6,0,2-3.7,2-4.9
			c0-1.5-0.5-2.1-1-2.1C330.9,194.8,330.4,198.4,330.4,199.7z"/>
		<path d="M337.6,193.2c1-0.4,1.6-0.9,1.7-1.7c0-0.6-0.3-0.7-0.8-1c-0.2-0.1-0.3-0.3-0.3-0.4c0-0.5,0.4-0.8,1-0.8
			c0.7,0,1.2,0.6,1.2,1.5c0,1.4-1.4,2.4-2.6,2.7L337.6,193.2z"/>
		<path d="M345.2,195.3c0,0.3-0.4,0.8-0.7,1c-0.1,0.1-0.2,0.1-0.3-0.1c-0.4-0.5-0.9-1-1.5-1c-0.4,0-0.8,0.4-0.8,0.8
			c0,0.5,0.4,0.8,1.2,1.5c1.4,1.1,1.6,1.5,1.6,2.2c0,1.5-2.3,2.8-3.3,2.8c-0.8,0-1.8-0.6-1.8-1.3c0-0.3,0.4-0.9,0.8-0.9
			c0.1,0,0.2,0,0.3,0.1c0.7,0.8,1.3,1.2,1.9,1.2s0.9-0.4,0.9-0.8c0-0.4-0.3-0.7-1.1-1.4c-0.7-0.6-1.6-1.2-1.6-2.2
			c0-0.6,0.2-1.2,1.1-2c0.6-0.5,1.3-0.8,1.9-0.8C344.5,194.3,345.2,194.7,345.2,195.3z"/>
		<path d="M356.2,196.9c0,1.9-0.9,3.9-2.6,4.8c-0.6,0.4-1.3,0.6-2.1,0.6c-1.9,0-2.4-1.3-2.4-2.6c0-2.3,1.3-4.2,2.9-5
			c0.6-0.3,1.2-0.5,1.9-0.5C355.5,194.3,356.2,195.4,356.2,196.9z M351.1,199.7c0,1.5,0.5,2.1,1.1,2.1c1.6,0,2-3.7,2-4.9
			c0-1.5-0.5-2.1-1-2.1C351.6,194.8,351.1,198.4,351.1,199.7z"/>
		<path d="M357,196.2c0.7-0.9,1.8-1.9,2.5-1.9c0.5,0,0.7,0.7,0.8,2.4c0.1,1.4,0.1,2.4,0.2,3.6c0.7-0.8,2.2-2.6,2.2-3.6
			c0-0.5-0.1-0.8-0.3-1.1c-0.1-0.1-0.1-0.2,0-0.3c0.1-0.3,0.7-0.9,1.2-0.9c0.4,0,0.7,0.4,0.7,1c0,0.5-0.1,1.2-1,2.4
			c-1.1,1.5-3.3,3.9-4.1,4.6h-0.3c-0.1-1.5-0.1-3.3-0.3-5.1c-0.1-1-0.2-1.5-0.4-1.5c-0.1,0-0.4,0.1-0.9,0.7L357,196.2z"/>
		<path d="M366.7,202.4c-0.9,0-2-0.5-2-2.5c0-1.7,0.7-3.4,1.9-4.4c0.7-0.6,1.8-1.1,2.6-1.1c1,0,1.4,0.6,1.4,1.4c0,1.6-2.5,2.4-4,2.7
			c0,0.3,0,0.5,0,0.6c0,1.2,0.3,2.1,1.3,2.1c0.7,0,1.4-0.3,2.2-1.2l0.2,0.3C368.9,201.9,367.6,202.4,366.7,202.4z M366.7,198
			c1.8-0.3,2.3-1.3,2.3-2.2c0-0.5-0.2-0.9-0.6-0.9C367.7,194.9,367,195.7,366.7,198z"/>
		<path d="M371.5,196.1c1-1.3,2.1-1.8,2.6-1.8c0.7,0,0.6,0.8,0.3,2.4l-0.1,0.6c0.6-1.3,1.7-3,2.7-3c0.5,0,0.8,0.4,0.8,0.9
			s-0.5,1.2-0.8,1.4c-0.1,0.1-0.3,0.1-0.3,0c-0.2-0.3-0.6-0.5-0.9-0.5c-0.4,0-1,1.3-1.3,1.9c-0.5,1.1-0.8,3-1.1,4.1
			c-0.6,0.1-1.4,0.2-1.8,0.4l-0.1-0.1c0.5-1.9,0.9-4,1.2-5.2c0.2-1,0.2-1.3,0-1.3c-0.3,0-0.7,0.5-1,0.7L371.5,196.1z"/>
		<path d="M385.6,200.4c-1,1.3-2.2,1.9-2.8,1.9c-0.6,0-0.8-0.4-0.5-1.9l0.2-0.9c-1.1,1.6-2.5,2.8-3.5,2.8c-0.7,0-1.3-0.6-1.3-2.1
			c0-1.7,0.7-3.6,1.9-4.6c0.9-0.8,2.4-1.3,3-1.3c0.2,0,0.5,0,0.9,0.1l0.6-3.1c0.1-0.8,0-0.8-0.7-0.9c-0.1,0-0.2,0-0.3-0.1l0.1-0.2
			c0.8-0.1,2-0.3,2.6-0.5c0.3-0.1,0.5-0.2,0.6-0.2s0.2,0.1,0.1,0.5c-0.7,3.3-1.6,7.4-2.2,10.4c-0.1,0.5,0,0.6,0.1,0.6
			s0.5-0.2,1.1-0.8L385.6,200.4z M382.4,199.1c0.3-0.4,0.4-0.9,0.5-1.5l0.5-2.3c-0.3-0.4-1-0.5-1.3-0.5c-1.5,0-2.3,3.5-2.3,5.1
			c0,0.8,0.2,1.1,0.5,1.1C380.9,201.1,381.6,200.3,382.4,199.1z"/>
		<path d="M393.7,196.9c0,1.9-0.9,3.9-2.6,4.8c-0.6,0.4-1.3,0.6-2.1,0.6c-1.9,0-2.4-1.3-2.4-2.6c0-2.3,1.3-4.2,2.9-5
			c0.6-0.3,1.2-0.5,1.9-0.5C392.9,194.3,393.7,195.4,393.7,196.9z M388.6,199.7c0,1.5,0.5,2.1,1.1,2.1c1.6,0,2-3.7,2-4.9
			c0-1.5-0.5-2.1-1-2.1C389.1,194.8,388.6,198.4,388.6,199.7z"/>
		<path d="M399.7,195.3c0,0.3-0.4,0.8-0.7,1c-0.1,0.1-0.2,0.1-0.3-0.1c-0.4-0.5-0.9-1-1.5-1c-0.4,0-0.8,0.4-0.8,0.8
			c0,0.5,0.4,0.8,1.2,1.5c1.4,1.1,1.6,1.5,1.6,2.2c0,1.5-2.3,2.8-3.3,2.8c-0.8,0-1.8-0.6-1.8-1.3c0-0.3,0.4-0.9,0.8-0.9
			c0.1,0,0.2,0,0.3,0.1c0.7,0.8,1.3,1.2,1.9,1.2s0.9-0.4,0.9-0.8c0-0.4-0.3-0.7-1.1-1.4c-0.7-0.6-1.6-1.2-1.6-2.2
			c0-0.6,0.2-1.2,1.1-2c0.6-0.5,1.3-0.8,1.9-0.8C399,194.3,399.7,194.7,399.7,195.3z"/>
		<path d="M402.4,202.4c-0.9,0-2-0.5-2-2.5c0-1.7,0.7-3.4,1.9-4.4c0.7-0.6,1.8-1.1,2.6-1.1c1,0,1.4,0.6,1.4,1.4c0,1.6-2.5,2.4-4,2.7
			c0,0.3,0,0.5,0,0.6c0,1.2,0.3,2.1,1.3,2.1c0.7,0,1.4-0.3,2.2-1.2l0.2,0.3C404.7,201.9,403.3,202.4,402.4,202.4z M402.4,198
			c1.8-0.3,2.3-1.3,2.3-2.2c0-0.5-0.2-0.9-0.6-0.9C403.5,194.9,402.8,195.7,402.4,198z"/>
		<path d="M410.4,196.1c1-1.3,2.1-1.8,2.6-1.8c0.7,0,0.6,0.8,0.3,2.4l-0.1,0.6c0.6-1.3,1.7-3,2.7-3c0.5,0,0.8,0.4,0.8,0.9
			s-0.5,1.2-0.8,1.4c-0.1,0.1-0.3,0.1-0.3,0c-0.2-0.3-0.6-0.5-0.9-0.5c-0.4,0-1,1.3-1.3,1.9c-0.5,1.1-0.8,3-1.1,4.1
			c-0.6,0.1-1.4,0.2-1.8,0.4l-0.1-0.1c0.5-1.9,0.9-4,1.2-5.2c0.2-1,0.2-1.3,0-1.3c-0.3,0-0.7,0.5-1,0.7L410.4,196.1z"/>
		<path d="M424.3,200.5c-1,1.3-2.1,1.9-2.7,1.9c-0.5,0-0.7-0.5-0.5-2l0.1-0.8c-0.6,0.9-1.1,1.4-1.7,2s-1.2,0.9-1.8,0.9
			c-0.7,0-1.2-0.9-1.2-2.1c0-1.7,0.8-3.4,1.9-4.5c0.7-0.7,2.1-1.5,3.5-1.5c0.8,0,1.7,0.2,2.1,0.3c-0.4,1.5-0.8,3.6-1.2,5.7
			c-0.1,0.5,0,0.6,0.1,0.6s0.5-0.1,1-0.7L424.3,200.5z M420.9,199.5c0.4-0.5,0.5-1,0.7-1.6c0.2-0.8,0.5-2.1,0.6-2.7
			c-0.3-0.1-0.6-0.3-1.2-0.3c-1.5,0-2.3,3.2-2.3,5c0,0.8,0.2,1.1,0.5,1.1C419.6,201,420.1,200.7,420.9,199.5z"/>
		<path d="M430.4,195c-0.6,0-1.1,0-1.6,0c-0.4,1.9-1,4.7-1,4.9c-0.1,0.8-0.1,1.1,0.1,1.1c0.4,0,0.8-0.3,1.4-0.9l0.2,0.2
			c-0.6,0.9-1.8,2-2.9,2c-0.7,0-1.1-0.6-0.6-2.7l1-4.6h-1.3v-0.1l0.4-0.5h1l0.4-1.9c0.6-0.2,1.4-0.7,2-1.1l0.1,0.1
			c-0.2,0.8-0.5,1.9-0.7,2.9h1.7L430.4,195z"/>
		<path d="M432.4,202.4c-0.9,0-2-0.5-2-2.5c0-1.7,0.7-3.4,1.9-4.4c0.7-0.6,1.8-1.1,2.6-1.1c1,0,1.4,0.6,1.4,1.4c0,1.6-2.5,2.4-4,2.7
			c0,0.3,0,0.5,0,0.6c0,1.2,0.3,2.1,1.3,2.1c0.7,0,1.4-0.3,2.2-1.2l0.2,0.3C434.7,201.9,433.3,202.4,432.4,202.4z M432.4,198
			c1.8-0.3,2.3-1.3,2.3-2.2c0-0.5-0.2-0.9-0.6-0.9C433.5,194.9,432.7,195.7,432.4,198z"/>
		<path d="M447.8,200.5c-1,1.3-2.1,1.9-2.7,1.9c-0.5,0-0.7-0.5-0.4-2l0.1-0.8c-0.6,0.9-1.1,1.4-1.7,2s-1.2,0.9-1.8,0.9
			c-0.7,0-1.2-0.9-1.2-2.1c0-1.7,0.8-3.4,1.9-4.5c0.7-0.7,2.1-1.5,3.5-1.5c0.8,0,1.7,0.2,2.1,0.3c-0.4,1.5-0.8,3.6-1.2,5.7
			c-0.1,0.5,0,0.6,0.1,0.6s0.5-0.1,1-0.7L447.8,200.5z M444.5,199.5c0.4-0.5,0.5-1,0.7-1.6c0.2-0.8,0.5-2.1,0.6-2.7
			c-0.3-0.1-0.6-0.3-1.2-0.3c-1.5,0-2.3,3.2-2.3,5c0,0.8,0.2,1.1,0.5,1.1S443.6,200.7,444.5,199.5z"/>
		<path d="M453.8,195.3c0,0.3-0.4,0.8-0.7,1c-0.1,0.1-0.2,0.1-0.3-0.1c-0.4-0.5-0.9-1-1.5-1c-0.5,0-0.8,0.4-0.8,0.8
			c0,0.5,0.4,0.8,1.2,1.5c1.4,1.1,1.6,1.5,1.6,2.2c0,1.5-2.3,2.8-3.3,2.8c-0.8,0-1.8-0.6-1.8-1.3c0-0.3,0.4-0.9,0.8-0.9
			c0.1,0,0.2,0,0.3,0.1c0.7,0.8,1.3,1.2,1.9,1.2s0.9-0.4,0.9-0.8c0-0.4-0.3-0.7-1.1-1.4c-0.7-0.6-1.6-1.2-1.6-2.2
			c0-0.6,0.2-1.2,1.1-2c0.6-0.5,1.3-0.8,1.9-0.8C453.1,194.3,453.8,194.7,453.8,195.3z"/>
		<path d="M461.3,200.5c-1,1.3-2.2,1.9-2.8,1.9c-0.6,0-0.8-0.6-0.4-1.9c0.4-1.6,0.6-2.6,1-4c0.1-0.6,0.1-0.8-0.1-0.8
			c-0.3,0-0.7,0.3-1,0.7l-0.2-0.3c0.8-1,2.1-1.8,2.8-1.8c0.6,0,0.6,0.6,0.3,2.1c-0.3,1.3-0.6,2.6-0.9,3.9c-0.1,0.5,0,0.7,0.1,0.7
			s0.5-0.2,1-0.7L461.3,200.5z M461.7,191.5c0,0.6-0.4,1.2-1,1.2c-0.5,0-0.8-0.3-0.8-0.9c0-0.5,0.4-1.2,1.1-1.2
			C461.5,190.6,461.7,191,461.7,191.5z"/>
		<path d="M470.3,200.6c-1,1.3-2,1.8-2.7,1.8c-0.6,0-0.8-0.4-0.5-1.7s0.6-2.6,0.9-3.9c0.2-0.9,0.1-1.2-0.2-1.2
			c-0.7,0-1.7,1.3-2.3,2.2c-0.4,0.7-0.5,1.2-0.6,1.7c-0.2,0.8-0.4,1.9-0.5,2.6c-0.6,0.1-1.4,0.2-1.9,0.4l-0.1-0.1
			c0.3-1.5,0.9-3.7,1.3-5.8c0.1-0.6,0.1-0.8-0.1-0.8c-0.3,0-0.7,0.4-1,0.7l-0.2-0.3c0.8-1.1,2-1.8,2.6-1.8c0.7,0,0.7,0.6,0.4,2.1
			l-0.2,0.9c1.1-1.7,2.7-3,3.8-3c0.6,0,1.1,0.3,0.6,2.5c-0.3,1.2-0.5,2.3-0.8,3.5c-0.1,0.5-0.1,0.7,0.1,0.7c0.1,0,0.5-0.1,1-0.7
			L470.3,200.6z"/>
		<path d="M476.9,200.4c-1.2,1.4-2.4,1.9-3.4,1.9c-1.2,0-2-0.8-2-2.6c0-1.4,0.6-3,1.8-4.1c0.8-0.7,1.9-1.3,2.9-1.3
			c0.7,0,1.3,0.3,1.3,0.8c0,0.3-0.2,0.8-0.8,1.1c-0.1,0.1-0.2,0-0.3-0.1c-0.5-0.8-0.9-1.1-1.3-1.1c-0.7,0-1.5,1.8-1.5,4.4
			c0,1.3,0.6,1.8,1.2,1.8c0.8,0,1.5-0.5,2.1-1.1L476.9,200.4z"/>
		<path d="M477.9,196.1c1-1.3,2.1-1.8,2.6-1.8c0.7,0,0.6,0.8,0.3,2.4l-0.1,0.6c0.6-1.3,1.7-3,2.7-3c0.5,0,0.8,0.4,0.8,0.9
			s-0.5,1.2-0.8,1.4c-0.1,0.1-0.3,0.1-0.3,0c-0.2-0.3-0.6-0.5-0.9-0.5c-0.4,0-1,1.3-1.3,1.9c-0.5,1.1-0.8,3-1.1,4.1
			c-0.6,0.1-1.4,0.2-1.8,0.4l-0.1-0.1c0.5-1.9,0.9-4,1.2-5.2c0.2-1,0.2-1.3,0-1.3c-0.3,0-0.7,0.5-1,0.7L477.9,196.1z"/>
		<path d="M486.2,202.4c-0.9,0-2-0.5-2-2.5c0-1.7,0.7-3.4,1.9-4.4c0.7-0.6,1.8-1.1,2.6-1.1c1,0,1.4,0.6,1.4,1.4c0,1.6-2.5,2.4-4,2.7
			c0,0.3,0,0.5,0,0.6c0,1.2,0.3,2.1,1.3,2.1c0.7,0,1.4-0.3,2.2-1.2l0.2,0.3C488.5,201.9,487.1,202.4,486.2,202.4z M486.2,198
			c1.8-0.3,2.3-1.3,2.3-2.2c0-0.5-0.2-0.9-0.6-0.9C487.3,194.9,486.5,195.7,486.2,198z"/>
		<path d="M498.5,200.5c-1,1.3-2.1,1.9-2.7,1.9c-0.5,0-0.7-0.5-0.5-2l0.1-0.8c-0.6,0.9-1.1,1.4-1.7,2s-1.2,0.9-1.8,0.9
			c-0.7,0-1.2-0.9-1.2-2.1c0-1.7,0.8-3.4,1.9-4.5c0.7-0.7,2.1-1.5,3.5-1.5c0.8,0,1.7,0.2,2.1,0.3c-0.4,1.5-0.8,3.6-1.2,5.7
			c-0.1,0.5,0,0.6,0.1,0.6s0.5-0.1,1-0.7L498.5,200.5z M495.1,199.5c0.4-0.5,0.5-1,0.7-1.6c0.2-0.8,0.5-2.1,0.6-2.7
			c-0.3-0.1-0.6-0.3-1.2-0.3c-1.5,0-2.3,3.2-2.3,5c0,0.8,0.2,1.1,0.5,1.1C493.8,201,494.3,200.7,495.1,199.5z"/>
		<path d="M504.5,195.3c0,0.3-0.4,0.8-0.7,1c-0.1,0.1-0.2,0.1-0.3-0.1c-0.4-0.5-0.9-1-1.5-1c-0.4,0-0.8,0.4-0.8,0.8
			c0,0.5,0.4,0.8,1.2,1.5c1.4,1.1,1.6,1.5,1.6,2.2c0,1.5-2.3,2.8-3.3,2.8c-0.8,0-1.8-0.6-1.8-1.3c0-0.3,0.4-0.9,0.8-0.9
			c0.1,0,0.2,0,0.3,0.1c0.7,0.8,1.3,1.2,1.9,1.2s0.9-0.4,0.9-0.8c0-0.4-0.3-0.7-1.1-1.4c-0.7-0.6-1.6-1.2-1.6-2.2
			c0-0.6,0.2-1.2,1.1-2c0.6-0.5,1.3-0.8,1.9-0.8C503.7,194.3,504.5,194.7,504.5,195.3z"/>
		<path d="M507.2,202.4c-0.9,0-2-0.5-2-2.5c0-1.7,0.7-3.4,1.9-4.4c0.7-0.6,1.8-1.1,2.6-1.1c1,0,1.4,0.6,1.4,1.4c0,1.6-2.5,2.4-4,2.7
			c0,0.3,0,0.5,0,0.6c0,1.2,0.3,2.1,1.3,2.1c0.7,0,1.4-0.3,2.2-1.2l0.2,0.3C509.5,201.9,508.1,202.4,507.2,202.4z M507.2,198
			c1.8-0.3,2.3-1.3,2.3-2.2c0-0.5-0.2-0.9-0.6-0.9C508.3,194.9,507.5,195.7,507.2,198z"/>
		<path d="M519.7,200.4c-1,1.3-2.2,1.9-2.8,1.9s-0.8-0.4-0.5-1.9l0.2-0.9c-1.1,1.6-2.5,2.8-3.5,2.8c-0.7,0-1.3-0.6-1.3-2.1
			c0-1.7,0.7-3.6,1.9-4.6c0.9-0.8,2.4-1.3,3-1.3c0.2,0,0.5,0,0.9,0.1l0.6-3.1c0.1-0.8,0-0.8-0.7-0.9c-0.1,0-0.2,0-0.3-0.1l0.1-0.2
			c0.8-0.1,2-0.3,2.6-0.5c0.3-0.1,0.5-0.2,0.6-0.2s0.2,0.1,0.1,0.5c-0.7,3.3-1.6,7.4-2.2,10.4c-0.1,0.5,0,0.6,0.1,0.6
			s0.5-0.2,1.1-0.8L519.7,200.4z M516.5,199.1c0.3-0.4,0.4-0.9,0.5-1.5l0.5-2.3c-0.3-0.4-1-0.5-1.3-0.5c-1.5,0-2.3,3.5-2.3,5.1
			c0,0.8,0.2,1.1,0.5,1.1C515,201.1,515.7,200.3,516.5,199.1z"/>
		<path d="M527.4,200.5c-1,1.3-2.2,1.9-2.8,1.9s-0.8-0.6-0.4-1.9c0.4-1.6,0.6-2.6,1-4c0.1-0.6,0.1-0.8-0.1-0.8c-0.3,0-0.7,0.3-1,0.7
			l-0.2-0.3c0.8-1,2.1-1.8,2.8-1.8c0.6,0,0.6,0.6,0.3,2.1c-0.3,1.3-0.6,2.6-0.9,3.9c-0.1,0.5,0,0.7,0.1,0.7s0.5-0.2,1-0.7
			L527.4,200.5z M527.8,191.5c0,0.6-0.4,1.2-1,1.2c-0.5,0-0.8-0.3-0.8-0.9c0-0.5,0.4-1.2,1.1-1.2C527.6,190.6,527.8,191,527.8,191.5
			z"/>
		<path d="M536.4,200.6c-1,1.3-2,1.8-2.7,1.8c-0.6,0-0.8-0.4-0.5-1.7s0.6-2.6,0.9-3.9c0.2-0.9,0.1-1.2-0.2-1.2
			c-0.7,0-1.7,1.3-2.3,2.2c-0.4,0.7-0.5,1.2-0.6,1.7c-0.2,0.8-0.4,1.9-0.5,2.6c-0.6,0.1-1.4,0.2-1.9,0.4l-0.1-0.1
			c0.3-1.5,0.9-3.7,1.3-5.8c0.1-0.6,0.1-0.8-0.1-0.8c-0.3,0-0.7,0.4-1,0.7l-0.2-0.3c0.8-1.1,2-1.8,2.6-1.8c0.7,0,0.7,0.6,0.4,2.1
			l-0.2,0.9c1.1-1.7,2.7-3,3.8-3c0.6,0,1.1,0.3,0.6,2.5c-0.3,1.2-0.5,2.3-0.8,3.5c-0.1,0.5-0.1,0.7,0.1,0.7c0.1,0,0.5-0.1,1-0.7
			L536.4,200.6z"/>
		<path d="M548.2,200.5c-1,1.3-2.1,1.9-2.7,1.9c-0.5,0-0.7-0.5-0.5-2l0.1-0.8c-0.6,0.9-1.1,1.4-1.7,2c-0.6,0.6-1.2,0.9-1.8,0.9
			c-0.7,0-1.2-0.9-1.2-2.1c0-1.7,0.8-3.4,1.9-4.5c0.7-0.7,2.1-1.5,3.5-1.5c0.8,0,1.7,0.2,2.1,0.3c-0.4,1.5-0.8,3.6-1.2,5.7
			c-0.1,0.5,0,0.6,0.1,0.6s0.5-0.1,1-0.7L548.2,200.5z M544.9,199.5c0.4-0.5,0.5-1,0.7-1.6c0.2-0.8,0.5-2.1,0.6-2.7
			c-0.3-0.1-0.6-0.3-1.2-0.3c-1.5,0-2.3,3.2-2.3,5c0,0.8,0.2,1.1,0.5,1.1S544,200.7,544.9,199.5z"/>
		<path d="M552.7,200.4c-1,1.3-2.1,1.9-2.7,1.9c-0.6,0-0.8-0.5-0.5-1.8c0.6-3,1.3-6.4,1.8-9.3c0.2-0.8,0.1-0.8-0.7-1
			c-0.1,0-0.2,0-0.3-0.1l0.1-0.2c0.9-0.1,1.9-0.3,2.4-0.5c0.3-0.1,0.5-0.2,0.6-0.2s0.1,0.2,0,0.7c-0.7,3.3-1.4,6.8-2.1,10.2
			c-0.1,0.5-0.1,0.6,0.1,0.6c0.1,0,0.5-0.2,1.1-0.8L552.7,200.4z"/>
		<path d="M557.2,200.4c-1,1.3-2.1,1.9-2.7,1.9c-0.6,0-0.8-0.5-0.5-1.8c0.6-3,1.3-6.4,1.8-9.3c0.2-0.8,0.1-0.8-0.7-1
			c-0.1,0-0.2,0-0.3-0.1l0.1-0.2c0.9-0.1,1.9-0.3,2.4-0.5c0.3-0.1,0.5-0.2,0.6-0.2s0.1,0.2,0,0.7c-0.7,3.3-1.4,6.8-2.1,10.2
			c-0.1,0.5-0.1,0.6,0.1,0.6c0.1,0,0.5-0.2,1.1-0.8L557.2,200.4z"/>
		<path d="M562.4,190c0.9-0.1,2-0.3,2.5-0.5c0.3-0.1,0.5-0.2,0.6-0.2s0.1,0.2,0,0.7c-0.5,2.1-1,4.4-1.5,6.7c1.2-1.5,2.5-2.4,3.4-2.4
			s1.3,0.8,1.3,2c0,1.8-1.1,3.9-2.6,5c-1,0.7-2.1,1.1-2.8,1.1s-1.3-0.3-1.6-0.8s-0.3-1.2-0.1-2.2c0.5-2.7,1.1-5.2,1.6-7.9
			c0.2-1.1,0-1.2-0.7-1.3c-0.1,0-0.1,0-0.2,0L562.4,190z M566.7,196.7c0-0.7-0.2-1.2-0.6-1.2c-0.3,0-1,0.3-1.7,1.3
			c-0.6,0.8-0.8,1.7-1,2.6c-0.3,1.8,0.2,2.3,0.8,2.3C566,201.7,566.7,198.1,566.7,196.7z"/>
		<path d="M577.5,200.5c-1,1.3-2.1,1.9-2.7,1.9c-0.5,0-0.8-0.4-0.5-1.7c0.1-0.5,0.2-0.9,0.3-1.4c-1,1.4-1.9,2.3-2.5,2.7
			c-0.4,0.3-0.8,0.4-1.2,0.4c-0.7,0-1.3-0.4-0.8-2.6c0.2-1,0.6-2.3,0.8-3.3c0.1-0.6,0.2-0.8-0.1-0.8c-0.2,0-0.7,0.4-1,0.7l-0.2-0.3
			c0.8-1,2-1.8,2.7-1.8c0.6,0,0.7,0.6,0.4,2.1c-0.3,1.3-0.6,2.3-0.8,3.5c-0.2,0.9,0.1,1,0.2,1c0.5,0,1.2-0.7,1.8-1.7
			c0.4-0.5,0.8-1.2,1-2.1c0.2-0.8,0.3-1.5,0.6-2.4c0.6-0.1,1.2-0.3,1.9-0.5h0.1c-0.4,1.9-0.9,3.9-1.3,6c-0.1,0.5-0.1,0.7,0.1,0.7
			c0.1,0,0.5-0.2,1-0.7L577.5,200.5z"/>
		<path d="M583.8,195c-0.6,0-1.1,0-1.6,0c-0.4,1.9-1,4.7-1,4.9c-0.1,0.8-0.1,1.1,0.1,1.1c0.4,0,0.8-0.3,1.4-0.9l0.2,0.2
			c-0.6,0.9-1.8,2-2.9,2c-0.7,0-1.1-0.6-0.6-2.7l1-4.6H579v-0.1l0.4-0.5h1l0.4-1.9c0.6-0.2,1.4-0.7,2-1.1l0.1,0.1
			c-0.2,0.8-0.5,1.9-0.7,2.9h1.7L583.8,195z"/>
		<path d="M594.1,196.9c0,1.9-0.9,3.9-2.6,4.8c-0.6,0.4-1.3,0.6-2.1,0.6c-1.9,0-2.4-1.3-2.4-2.6c0-2.3,1.3-4.2,2.9-5
			c0.6-0.3,1.2-0.5,1.9-0.5C593.3,194.3,594.1,195.4,594.1,196.9z M589,199.7c0,1.5,0.5,2.1,1.1,2.1c1.6,0,2-3.7,2-4.9
			c0-1.5-0.5-2.1-1-2.1C589.5,194.8,589,198.4,589,199.7z"/>
		<path d="M603,200.6c-1,1.3-2,1.8-2.7,1.8c-0.6,0-0.8-0.4-0.5-1.7s0.6-2.6,0.9-3.9c0.2-0.9,0.1-1.2-0.2-1.2c-0.7,0-1.7,1.3-2.3,2.2
			c-0.4,0.7-0.5,1.2-0.6,1.7c-0.2,0.8-0.4,1.9-0.5,2.6c-0.6,0.1-1.4,0.2-1.9,0.4l-0.1-0.1c0.3-1.5,0.9-3.7,1.3-5.8
			c0.1-0.6,0.1-0.8-0.1-0.8c-0.3,0-0.7,0.4-1,0.7l-0.2-0.3c0.8-1.1,2-1.8,2.6-1.8c0.7,0,0.7,0.6,0.4,2.1l-0.2,0.9
			c1.1-1.7,2.7-3,3.8-3c0.6,0,1.1,0.3,0.6,2.5c-0.3,1.2-0.5,2.3-0.8,3.5c-0.1,0.5-0.1,0.7,0.1,0.7c0.1,0,0.5-0.1,1-0.7L603,200.6z"
			/>
		<path d="M606.1,202.4c-0.9,0-2-0.5-2-2.5c0-1.7,0.7-3.4,1.9-4.4c0.7-0.6,1.8-1.1,2.6-1.1c1,0,1.4,0.6,1.4,1.4c0,1.6-2.5,2.4-4,2.7
			c0,0.3,0,0.5,0,0.6c0,1.2,0.3,2.1,1.3,2.1c0.7,0,1.4-0.3,2.2-1.2l0.2,0.3C608.3,201.9,607,202.4,606.1,202.4z M606.1,198
			c1.8-0.3,2.3-1.3,2.3-2.2c0-0.5-0.2-0.9-0.6-0.9C607.2,194.9,606.4,195.7,606.1,198z"/>
		<path d="M613.8,196.2c0.6-1,1.7-1.9,2.4-1.9s1,0.9,1.1,2.4c0.1,1.1,0.2,3.1,0.3,4.3c0.6-0.9,2.1-3.3,2.1-4.4
			c0-0.6-0.4-1.1-0.4-1.2c-0.1-0.2,0-0.4,0.2-0.6c0.2-0.2,0.6-0.5,0.9-0.5c0.4,0,0.7,0.4,0.7,1c0,0.5-0.2,1.3-0.7,2.2
			c-1.7,2.8-3.6,5.7-6.3,8.9L612,207l-0.1-0.3c1.6-1,3.3-2.7,4.1-3.8c0-0.6-0.2-3.8-0.4-5.6c-0.2-1.2-0.3-1.7-0.6-1.7
			c-0.2,0-0.5,0.2-0.9,0.7L613.8,196.2z"/>
		<path d="M623.6,202.4c-0.9,0-2-0.5-2-2.5c0-1.7,0.7-3.4,1.9-4.4c0.7-0.6,1.8-1.1,2.6-1.1c1,0,1.4,0.6,1.4,1.4c0,1.6-2.5,2.4-4,2.7
			c0,0.3,0,0.5,0,0.6c0,1.2,0.3,2.1,1.3,2.1c0.7,0,1.4-0.3,2.2-1.2l0.2,0.3C625.9,201.9,624.5,202.4,623.6,202.4z M623.6,198
			c1.8-0.3,2.3-1.3,2.3-2.2c0-0.5-0.2-0.9-0.6-0.9C624.7,194.9,623.9,195.7,623.6,198z"/>
		<path d="M635.9,200.5c-1,1.3-2.1,1.9-2.7,1.9c-0.5,0-0.7-0.5-0.4-2l0.1-0.8c-0.6,0.9-1.1,1.4-1.7,2c-0.6,0.6-1.2,0.9-1.8,0.9
			c-0.7,0-1.2-0.9-1.2-2.1c0-1.7,0.8-3.4,1.9-4.5c0.7-0.7,2.1-1.5,3.5-1.5c0.8,0,1.7,0.2,2.1,0.3c-0.4,1.5-0.8,3.6-1.2,5.7
			c-0.1,0.5,0,0.6,0.1,0.6s0.5-0.1,1-0.7L635.9,200.5z M632.5,199.5c0.4-0.5,0.5-1,0.7-1.6c0.2-0.8,0.5-2.1,0.6-2.7
			c-0.3-0.1-0.6-0.3-1.2-0.3c-1.5,0-2.3,3.2-2.3,5c0,0.8,0.2,1.1,0.5,1.1C631.2,201,631.7,200.7,632.5,199.5z"/>
		<path d="M637,196.1c1-1.3,2.1-1.8,2.6-1.8c0.7,0,0.6,0.8,0.3,2.4l-0.1,0.6c0.6-1.3,1.7-3,2.7-3c0.5,0,0.8,0.4,0.8,0.9
			s-0.5,1.2-0.8,1.4c-0.1,0.1-0.3,0.1-0.3,0c-0.2-0.3-0.6-0.5-0.9-0.5c-0.4,0-1,1.3-1.3,1.9c-0.5,1.1-0.8,3-1.1,4.1
			c-0.6,0.1-1.4,0.2-1.8,0.4l-0.1-0.1c0.5-1.9,0.9-4,1.2-5.2c0.2-1,0.2-1.3,0-1.3c-0.3,0-0.7,0.5-1,0.7L637,196.1z"/>
		<path d="M650,200.4c-1,1.3-2.1,1.9-2.7,1.9c-0.6,0-0.8-0.5-0.5-1.8c0.6-3,1.3-6.4,1.8-9.3c0.2-0.8,0.1-0.8-0.7-1
			c-0.1,0-0.2,0-0.3-0.1l0.1-0.2c0.9-0.1,1.9-0.3,2.4-0.5c0.3-0.1,0.5-0.2,0.6-0.2s0.1,0.2,0,0.7c-0.7,3.3-1.4,6.8-2.1,10.2
			c-0.1,0.5-0.1,0.6,0.1,0.6c0.1,0,0.5-0.2,1.1-0.8L650,200.4z"/>
		<path d="M652.9,202.4c-0.9,0-2-0.5-2-2.5c0-1.7,0.7-3.4,1.9-4.4c0.7-0.6,1.8-1.1,2.6-1.1c1,0,1.4,0.6,1.4,1.4c0,1.6-2.5,2.4-4,2.7
			c0,0.3,0,0.5,0,0.6c0,1.2,0.3,2.1,1.3,2.1c0.7,0,1.4-0.3,2.2-1.2l0.2,0.3C655.1,201.9,653.8,202.4,652.9,202.4z M652.9,198
			c1.8-0.3,2.3-1.3,2.3-2.2c0-0.5-0.2-0.9-0.6-0.9C654,194.9,653.2,195.7,652.9,198z"/>
		<path d="M665.2,200.5c-1,1.3-2.1,1.9-2.7,1.9c-0.5,0-0.7-0.5-0.5-2l0.1-0.8c-0.6,0.9-1.1,1.4-1.7,2c-0.6,0.6-1.2,0.9-1.8,0.9
			c-0.7,0-1.2-0.9-1.2-2.1c0-1.7,0.8-3.4,1.9-4.5c0.7-0.7,2.1-1.5,3.5-1.5c0.8,0,1.7,0.2,2.1,0.3c-0.4,1.5-0.8,3.6-1.2,5.7
			c-0.1,0.5,0,0.6,0.1,0.6s0.5-0.1,1-0.7L665.2,200.5z M661.8,199.5c0.4-0.5,0.5-1,0.7-1.6c0.2-0.8,0.5-2.1,0.6-2.7
			c-0.3-0.1-0.6-0.3-1.2-0.3c-1.5,0-2.3,3.2-2.3,5c0,0.8,0.2,1.1,0.5,1.1C660.5,201,661,200.7,661.8,199.5z"/>
		<path d="M665.9,196.2c0.7-0.9,1.8-1.9,2.5-1.9c0.5,0,0.7,0.7,0.8,2.4c0.1,1.4,0.1,2.4,0.2,3.6c0.7-0.8,2.2-2.6,2.2-3.6
			c0-0.5-0.1-0.8-0.3-1.1c-0.1-0.1-0.1-0.2,0-0.3c0.1-0.3,0.7-0.9,1.2-0.9c0.4,0,0.7,0.4,0.7,1c0,0.5-0.1,1.2-1,2.4
			c-1.1,1.5-3.3,3.9-4.1,4.6h-0.3c-0.1-1.5-0.1-3.3-0.3-5.1c-0.1-1-0.2-1.5-0.4-1.5c-0.1,0-0.4,0.1-0.9,0.7L665.9,196.2z"/>
		<path d="M677.2,200.5c-1,1.3-2.2,1.9-2.8,1.9s-0.8-0.6-0.4-1.9c0.4-1.6,0.6-2.6,1-4c0.1-0.6,0.1-0.8-0.1-0.8c-0.3,0-0.7,0.3-1,0.7
			l-0.2-0.3c0.8-1,2.1-1.8,2.8-1.8c0.6,0,0.6,0.6,0.3,2.1c-0.3,1.3-0.6,2.6-0.9,3.9c-0.1,0.5,0,0.7,0.1,0.7s0.5-0.2,1-0.7
			L677.2,200.5z M677.6,191.5c0,0.6-0.4,1.2-1,1.2c-0.5,0-0.8-0.3-0.8-0.9c0-0.5,0.4-1.2,1.1-1.2C677.4,190.6,677.6,191,677.6,191.5
			z"/>
		<path d="M686.2,200.6c-1,1.3-2,1.8-2.7,1.8c-0.6,0-0.8-0.4-0.5-1.7s0.6-2.6,0.9-3.9c0.2-0.9,0.1-1.2-0.2-1.2
			c-0.7,0-1.7,1.3-2.2,2.2c-0.4,0.7-0.5,1.2-0.6,1.7c-0.2,0.8-0.4,1.9-0.5,2.6c-0.6,0.1-1.4,0.2-1.9,0.4l-0.1-0.1
			c0.3-1.5,0.9-3.7,1.3-5.8c0.1-0.6,0.1-0.8-0.1-0.8c-0.3,0-0.7,0.4-1,0.7l-0.2-0.3c0.8-1.1,2-1.8,2.6-1.8c0.7,0,0.7,0.6,0.4,2.1
			l-0.2,0.9c1.1-1.7,2.7-3,3.8-3c0.6,0,1.1,0.3,0.6,2.5c-0.3,1.2-0.5,2.3-0.8,3.5c-0.1,0.5-0.1,0.7,0.1,0.7c0.1,0,0.5-0.1,1-0.7
			L686.2,200.6z"/>
		<path d="M689.6,200.3c-0.1,0.1-0.2,0.3-0.2,0.5c0,0.3,0.4,0.5,1.5,1.1c1.7,0.9,2.4,1.5,2.4,2.3c0,1.7-2.7,2.9-4.6,2.9
			c-1.8,0-3.2-0.9-3.2-1.9c0-0.9,1.3-1.7,3-2.5c-0.4-0.3-0.7-0.6-0.7-0.9c0-0.4,0.6-0.9,1.4-1.5L689.6,200.3L689.6,200.3z
			 M691.6,205.2c0-0.5-0.3-0.8-0.8-1.2c-0.6-0.4-1.3-0.8-2.1-1.1c-0.9,0.6-1.5,1.2-1.5,1.9c0,1.1,1.2,1.6,2.3,1.6
			C690.9,206.4,691.6,205.9,691.6,205.2z M687.5,198.3c0-1.3,0.7-2.6,1.9-3.4c0.6-0.4,1.3-0.6,2-0.6c0.6,0,1.1,0.2,1.6,0.5
			c1,0,1.6-0.2,1.9-0.4l0.1,0.2c-0.6,0.9-1.3,1-1.6,1c0.1,0.2,0.1,0.5,0.1,0.8c0,1.4-0.8,2.4-1.4,2.9c-0.8,0.6-1.9,1-2.6,1
			C688.3,200.3,687.5,199.5,687.5,198.3z M691.7,196c0-0.7-0.2-1.2-0.7-1.2c-0.9,0-1.6,2.1-1.6,3.8c0,0.8,0.2,1.3,0.8,1.3
			C690.9,199.8,691.7,198.1,691.7,196z"/>
		<path d="M702.8,195c-0.6,0-1.1,0-1.6,0c-0.4,1.9-1,4.7-1,4.9c-0.1,0.8-0.1,1.1,0.1,1.1c0.4,0,0.8-0.3,1.4-0.9l0.2,0.2
			c-0.6,0.9-1.8,2-2.9,2c-0.7,0-1.1-0.6-0.6-2.7l1-4.6H698v-0.1l0.4-0.5h1l0.4-1.9c0.6-0.2,1.4-0.7,2-1.1l0.1,0.1
			c-0.2,0.8-0.5,1.9-0.7,2.9h1.7L702.8,195z"/>
		<path d="M703.9,190c0.7-0.1,1.9-0.3,2.4-0.5c0.3-0.1,0.5-0.2,0.6-0.2s0.1,0.2,0,0.7c-0.5,2.4-1,4.9-1.5,7.3c1.1-1.8,2.8-3,3.9-3
			c0.6,0,1.2,0.3,0.7,2.5c-0.3,1.2-0.5,2.3-0.8,3.5c-0.1,0.5-0.1,0.6,0.1,0.6c0.1,0,0.5-0.1,1-0.7l0.1,0.2c-1,1.3-2.2,1.9-2.8,1.9
			s-0.8-0.4-0.5-1.7s0.6-2.6,0.9-3.9c0.2-0.9,0.1-1.2-0.3-1.2c-0.5,0-1.3,0.5-2.2,2.1c-0.3,0.6-0.5,1.3-0.7,1.8
			c-0.2,0.8-0.5,1.9-0.5,2.6c-0.7,0.1-1.3,0.2-1.9,0.4l-0.1-0.1c0.7-3.3,1.5-7,2.2-10.8c0.2-1,0.1-1.1-0.7-1.2c-0.1,0-0.1,0-0.3,0
			L703.9,190z"/>
		<path d="M713.6,202.4c-0.9,0-2-0.5-2-2.5c0-1.7,0.7-3.4,1.9-4.4c0.7-0.6,1.8-1.1,2.6-1.1c1,0,1.4,0.6,1.4,1.4c0,1.6-2.5,2.4-4,2.7
			c0,0.3,0,0.5,0,0.6c0,1.2,0.3,2.1,1.3,2.1c0.7,0,1.4-0.3,2.2-1.2l0.2,0.3C715.9,201.9,714.5,202.4,713.6,202.4z M713.6,198
			c1.8-0.3,2.3-1.3,2.3-2.2c0-0.5-0.2-0.9-0.6-0.9C714.7,194.9,714,195.7,713.6,198z"/>
		<path d="M729.5,194.3c0.6,0,1.1,0.3,0.6,2.5c-0.3,1.2-0.5,2.3-0.8,3.5c-0.1,0.5-0.1,0.7,0.1,0.7c0.1,0,0.5-0.1,1-0.7l0.2,0.2
			c-1,1.3-2.1,1.8-2.7,1.8c-0.6,0-0.8-0.4-0.5-1.7s0.6-2.6,0.9-3.9c0.2-0.9,0.1-1.2-0.2-1.2c-0.6,0-1.7,1.3-2.2,2.2
			s-0.6,1.3-0.7,1.8c-0.2,0.8-0.4,1.7-0.5,2.4c-0.7,0.1-1.4,0.2-1.9,0.4l-0.1-0.1c0.4-1.7,0.8-3.5,1.1-4.9s0.3-1.8-0.1-1.8
			c-0.6,0-1.7,1.2-2.2,2.1c-0.5,0.9-0.6,1.4-0.7,1.9c-0.2,0.8-0.4,1.7-0.5,2.4c-0.6,0.1-1.4,0.2-1.9,0.4l-0.1-0.1
			c0.4-1.9,0.9-3.7,1.3-5.8c0.1-0.6,0.1-0.8-0.1-0.8c-0.3,0-0.7,0.4-1,0.7l-0.2-0.3c0.8-1,1.8-1.8,2.5-1.8c0.6,0,0.9,0.6,0.6,2.1
			l-0.2,0.9c1.4-2,2.8-3,3.8-3c0.6,0,1.1,0.3,0.6,2.8l-0.1,0.5C727,195.4,728.6,194.3,729.5,194.3z"/>
		<path d="M734.7,196.2c0.7-1,1.9-1.9,2.5-1.9s0.8,0.6,0.8,2.2c0,1.2,0.1,2.4,0.1,3.1c1-1.4,2-3.2,3-5h0.3c0.3,2.1,0.5,3.9,0.8,5.6
			c1.1-1.5,1.8-2.6,1.8-3.6c0-0.4-0.1-0.6-0.3-1.1c-0.1-0.1-0.1-0.2-0.1-0.3c0.1-0.4,0.7-0.9,1.2-0.9s0.7,0.4,0.7,1.1
			c0,0.5-0.2,1-0.6,1.7c-0.7,1.1-3.1,4.3-3.9,5.2h-0.4c-0.2-1.5-0.5-3.3-0.7-4.9c-0.9,1.5-2.3,3.5-3.2,4.9h-0.3
			c-0.1-1.2-0.1-3.7-0.3-5.3c-0.1-0.8-0.2-1.4-0.4-1.4s-0.5,0.3-0.9,0.7L734.7,196.2z"/>
		<path d="M749.6,200.5c-1,1.3-2.2,1.9-2.8,1.9s-0.8-0.6-0.4-1.9c0.4-1.6,0.6-2.6,1-4c0.1-0.6,0.1-0.8-0.1-0.8c-0.3,0-0.7,0.3-1,0.7
			l-0.2-0.3c0.8-1,2.1-1.8,2.8-1.8c0.6,0,0.6,0.6,0.3,2.1c-0.3,1.3-0.6,2.6-0.9,3.9c-0.1,0.5,0,0.7,0.1,0.7s0.5-0.2,1-0.7
			L749.6,200.5z M750,191.5c0,0.6-0.4,1.2-1,1.2c-0.5,0-0.8-0.3-0.8-0.9c0-0.5,0.4-1.2,1.1-1.2C749.8,190.6,750,191,750,191.5z"/>
		<path d="M755.7,195c-0.6,0-1.1,0-1.6,0c-0.4,1.9-1,4.7-1,4.9c-0.1,0.8-0.1,1.1,0.1,1.1c0.4,0,0.8-0.3,1.4-0.9l0.2,0.2
			c-0.6,0.9-1.8,2-2.9,2c-0.7,0-1.1-0.6-0.6-2.7l1-4.6H751v-0.1l0.4-0.5h1l0.4-1.9c0.6-0.2,1.4-0.7,2-1.1l0.1,0.1
			c-0.2,0.8-0.5,1.9-0.7,2.9h1.7L755.7,195z"/>
		<path d="M756.9,190c0.7-0.1,1.9-0.3,2.4-0.5c0.3-0.1,0.5-0.2,0.6-0.2s0.1,0.2,0,0.7c-0.5,2.4-1,4.9-1.5,7.3c1.1-1.8,2.8-3,3.9-3
			c0.6,0,1.2,0.3,0.7,2.5c-0.3,1.2-0.5,2.3-0.8,3.5c-0.1,0.5-0.1,0.6,0.1,0.6c0.1,0,0.5-0.1,1-0.7l0.1,0.2c-1,1.3-2.2,1.9-2.8,1.9
			s-0.8-0.4-0.5-1.7s0.6-2.6,0.9-3.9c0.2-0.9,0.1-1.2-0.3-1.2c-0.5,0-1.3,0.5-2.2,2.1c-0.3,0.6-0.5,1.3-0.7,1.8
			c-0.2,0.8-0.4,1.9-0.5,2.6c-0.7,0.1-1.3,0.2-1.9,0.4l-0.1-0.1c0.7-3.3,1.5-7,2.2-10.8c0.2-1,0.1-1.1-0.7-1.2c-0.1,0-0.1,0-0.3,0
			L756.9,190z"/>
		<path d="M772.9,195c-0.6,0-1.1,0-1.6,0c-0.4,1.9-1,4.7-1,4.9c-0.1,0.8-0.1,1.1,0.1,1.1c0.4,0,0.8-0.3,1.4-0.9l0.2,0.2
			c-0.6,0.9-1.8,2-2.9,2c-0.7,0-1.1-0.6-0.6-2.7l1-4.6h-1.3v-0.1l0.4-0.5h1l0.4-1.9c0.6-0.2,1.4-0.7,2-1.1l0.1,0.1
			c-0.2,0.8-0.5,1.9-0.7,2.9h1.7L772.9,195z"/>
		<path d="M774.1,190c0.7-0.1,1.9-0.3,2.4-0.5c0.3-0.1,0.5-0.2,0.6-0.2s0.1,0.2,0,0.7c-0.5,2.4-1,4.9-1.5,7.3c1.1-1.8,2.8-3,3.9-3
			c0.6,0,1.2,0.3,0.7,2.5c-0.3,1.2-0.5,2.3-0.8,3.5c-0.1,0.5-0.1,0.6,0.1,0.6c0.1,0,0.5-0.1,1-0.7l0.1,0.2c-1,1.3-2.2,1.9-2.8,1.9
			s-0.8-0.4-0.5-1.7s0.6-2.6,0.9-3.9c0.2-0.9,0.1-1.2-0.3-1.2c-0.5,0-1.3,0.5-2.2,2.1c-0.3,0.6-0.5,1.3-0.7,1.8
			c-0.2,0.8-0.5,1.9-0.5,2.6c-0.7,0.1-1.3,0.2-1.9,0.4l-0.1-0.1c0.7-3.3,1.5-7,2.2-10.8c0.2-1,0.1-1.1-0.7-1.2c-0.1,0-0.1,0-0.3,0
			L774.1,190z"/>
		<path d="M783.7,202.4c-0.9,0-2-0.5-2-2.5c0-1.7,0.7-3.4,1.9-4.4c0.7-0.6,1.8-1.1,2.6-1.1c1,0,1.4,0.6,1.4,1.4c0,1.6-2.5,2.4-4,2.7
			c0,0.3,0,0.5,0,0.6c0,1.2,0.3,2.1,1.3,2.1c0.7,0,1.4-0.3,2.2-1.2l0.2,0.3C786,201.9,784.6,202.4,783.7,202.4z M783.8,198
			c1.8-0.3,2.3-1.3,2.3-2.2c0-0.5-0.2-0.9-0.6-0.9C784.8,194.9,784.1,195.7,783.8,198z"/>
		<path d="M796.6,195.3c0,0.3-0.4,0.8-0.7,1c-0.1,0.1-0.2,0.1-0.3-0.1c-0.4-0.5-0.9-1-1.5-1c-0.5,0-0.8,0.4-0.8,0.8
			c0,0.5,0.4,0.8,1.2,1.5c1.4,1.1,1.6,1.5,1.6,2.2c0,1.5-2.3,2.8-3.3,2.8c-0.8,0-1.8-0.6-1.8-1.3c0-0.3,0.4-0.9,0.8-0.9
			c0.1,0,0.2,0,0.3,0.1c0.7,0.8,1.3,1.2,1.9,1.2c0.6,0,0.9-0.4,0.9-0.8c0-0.4-0.3-0.7-1.1-1.4c-0.7-0.6-1.6-1.2-1.6-2.2
			c0-0.6,0.2-1.2,1.1-2c0.6-0.5,1.3-0.8,1.9-0.8C795.8,194.3,796.6,194.7,796.6,195.3z"/>
		<path d="M800.9,200.5c-1,1.3-2.2,1.9-2.8,1.9s-0.8-0.6-0.4-1.9c0.4-1.6,0.6-2.6,1-4c0.1-0.6,0.1-0.8-0.1-0.8c-0.3,0-0.7,0.3-1,0.7
			l-0.2-0.3c0.8-1,2.1-1.8,2.8-1.8c0.6,0,0.6,0.6,0.3,2.1c-0.3,1.3-0.6,2.6-0.9,3.9c-0.1,0.5,0,0.7,0.1,0.7s0.5-0.2,1-0.7
			L800.9,200.5z M801.3,191.5c0,0.6-0.4,1.2-1,1.2c-0.5,0-0.8-0.3-0.8-0.9c0-0.5,0.4-1.2,1.1-1.2C801.1,190.6,801.3,191,801.3,191.5
			z"/>
		<path d="M802.3,196.3c0.9-1.3,1.8-2,2.4-2c0.5,0,0.8,0.6,1,1.6l0.3,1.2c1.5-2.1,2.1-2.8,2.8-2.8c0.5,0,0.8,0.4,0.8,0.8
			c0,0.5-0.5,1.1-0.8,1.1c-0.2,0-0.3-0.1-0.3-0.2c-0.2-0.3-0.3-0.4-0.5-0.4s-0.7,0.5-1.7,1.9l0.7,2.2c0.3,0.8,0.5,1.2,0.7,1.2
			s0.6-0.3,1.2-1l0.1,0.2c-1,1.5-2,2.1-2.6,2.1s-0.8-0.6-1.2-1.6l-0.5-1.6c-1.6,2.4-2.2,3.2-3,3.2c-0.5,0-0.7-0.4-0.7-0.9
			c0-0.6,0.6-1.2,0.9-1.2c0.3,0,0.4,0.6,0.7,0.6s0.9-0.6,2-2.2l-0.5-1.6c-0.3-1-0.5-1.3-0.7-1.3s-0.5,0.1-1,0.8L802.3,196.3z"/>
		<path d="M814.8,195c-0.6,0-1.1,0-1.6,0c-0.4,1.9-1,4.7-1,4.9c-0.1,0.8-0.1,1.1,0.1,1.1c0.4,0,0.8-0.3,1.4-0.9l0.2,0.2
			c-0.6,0.9-1.8,2-2.9,2c-0.7,0-1.1-0.6-0.6-2.7l1-4.6H810v-0.1l0.4-0.5h1l0.4-1.9c0.6-0.2,1.4-0.7,2-1.1l0.1,0.1
			c-0.2,0.8-0.5,1.9-0.7,2.9h1.7L814.8,195z"/>
		<path d="M816,190c0.7-0.1,1.9-0.3,2.4-0.5c0.3-0.1,0.5-0.2,0.6-0.2s0.1,0.2,0,0.7c-0.5,2.4-1,4.9-1.5,7.3c1.1-1.8,2.8-3,3.9-3
			c0.6,0,1.2,0.3,0.7,2.5c-0.3,1.2-0.5,2.3-0.8,3.5c-0.1,0.5-0.1,0.6,0.1,0.6c0.1,0,0.5-0.1,1-0.7l0.1,0.2c-1,1.3-2.2,1.9-2.8,1.9
			s-0.8-0.4-0.5-1.7s0.6-2.6,0.9-3.9c0.2-0.9,0.1-1.2-0.3-1.2c-0.5,0-1.3,0.5-2.2,2.1c-0.3,0.6-0.5,1.3-0.7,1.8
			c-0.2,0.8-0.5,1.9-0.5,2.6c-0.7,0.1-1.3,0.2-1.9,0.4l-0.1-0.1c0.7-3.3,1.5-7,2.2-10.8c0.2-1,0.1-1.1-0.7-1.2c-0.1,0-0.1,0-0.3,0
			L816,190z"/>
		<path d="M828,190c0.7-0.1,1.9-0.3,2.4-0.5c0.3-0.1,0.5-0.2,0.6-0.2s0.1,0.2,0,0.7c-0.5,2.4-1,4.9-1.5,7.3c1.1-1.8,2.8-3,3.9-3
			c0.6,0,1.2,0.3,0.7,2.5c-0.3,1.2-0.5,2.3-0.8,3.5c-0.1,0.5-0.1,0.6,0.1,0.6c0.1,0,0.5-0.1,1-0.7l0.1,0.2c-1,1.3-2.2,1.9-2.8,1.9
			s-0.8-0.4-0.5-1.7s0.6-2.6,0.9-3.9c0.2-0.9,0.1-1.2-0.3-1.2c-0.5,0-1.3,0.5-2.2,2.1c-0.3,0.6-0.5,1.3-0.7,1.8
			c-0.2,0.8-0.5,1.9-0.5,2.6c-0.7,0.1-1.3,0.2-1.9,0.4l-0.1-0.1c0.7-3.3,1.5-7,2.2-10.8c0.2-1,0.1-1.1-0.7-1.2c-0.1,0-0.1,0-0.3,0
			L828,190z"/>
		<path d="M839.3,200.5c-1,1.3-2.2,1.9-2.8,1.9s-0.8-0.6-0.4-1.9c0.4-1.6,0.6-2.6,1-4c0.1-0.6,0.1-0.8-0.1-0.8c-0.3,0-0.7,0.3-1,0.7
			l-0.2-0.3c0.8-1,2.1-1.8,2.8-1.8c0.6,0,0.6,0.6,0.3,2.1c-0.3,1.3-0.6,2.6-0.9,3.9c-0.1,0.5,0,0.7,0.1,0.7s0.5-0.2,1-0.7
			L839.3,200.5z M839.7,191.5c0,0.6-0.4,1.2-1,1.2c-0.5,0-0.8-0.3-0.8-0.9c0-0.5,0.4-1.2,1.1-1.2C839.5,190.6,839.7,191,839.7,191.5
			z"/>
		<path d="M842.7,200.3c-0.1,0.1-0.2,0.3-0.2,0.5c0,0.3,0.4,0.5,1.5,1.1c1.7,0.9,2.4,1.5,2.4,2.3c0,1.7-2.7,2.9-4.6,2.9
			c-1.8,0-3.2-0.9-3.2-1.9c0-0.9,1.3-1.7,3-2.5c-0.4-0.3-0.7-0.6-0.7-0.9c0-0.4,0.6-0.9,1.4-1.5L842.7,200.3L842.7,200.3z
			 M844.7,205.2c0-0.5-0.3-0.8-0.8-1.2c-0.6-0.4-1.3-0.8-2.1-1.1c-0.9,0.6-1.5,1.2-1.5,1.9c0,1.1,1.2,1.6,2.3,1.6
			C844,206.4,844.7,205.9,844.7,205.2z M840.6,198.3c0-1.3,0.7-2.6,1.9-3.4c0.6-0.4,1.3-0.6,2-0.6c0.6,0,1.1,0.2,1.6,0.5
			c1,0,1.6-0.2,1.9-0.4l0.1,0.2c-0.6,0.9-1.3,1-1.6,1c0.1,0.2,0.1,0.5,0.1,0.8c0,1.4-0.8,2.4-1.4,2.9c-0.8,0.6-1.9,1-2.6,1
			C841.4,200.3,840.6,199.5,840.6,198.3z M844.8,196c0-0.7-0.2-1.2-0.7-1.2c-0.9,0-1.6,2.1-1.6,3.8c0,0.8,0.2,1.3,0.8,1.3
			C844.1,199.8,844.8,198.1,844.8,196z"/>
		<path d="M848.8,190c0.7-0.1,1.9-0.3,2.4-0.5c0.3-0.1,0.5-0.2,0.6-0.2s0.1,0.2,0,0.7c-0.5,2.4-1,4.9-1.5,7.3c1.1-1.8,2.8-3,3.9-3
			c0.6,0,1.2,0.3,0.7,2.5c-0.3,1.2-0.5,2.3-0.8,3.5c-0.1,0.5-0.1,0.6,0.1,0.6c0.1,0,0.5-0.1,1-0.7l0.1,0.2c-1,1.3-2.2,1.9-2.8,1.9
			s-0.8-0.4-0.5-1.7s0.6-2.6,0.9-3.9c0.2-0.9,0.1-1.2-0.3-1.2c-0.5,0-1.3,0.5-2.2,2.1c-0.3,0.6-0.5,1.3-0.7,1.8
			c-0.2,0.8-0.5,1.9-0.5,2.6c-0.7,0.1-1.3,0.2-1.9,0.4l-0.1-0.1c0.7-3.3,1.5-7,2.2-10.8c0.2-1,0.1-1.1-0.7-1.2c-0.1,0-0.1,0-0.3,0
			L848.8,190z"/>
		<path d="M858.5,202.4c-0.9,0-2-0.5-2-2.5c0-1.7,0.7-3.4,1.9-4.4c0.7-0.6,1.8-1.1,2.6-1.1c1,0,1.4,0.6,1.4,1.4c0,1.6-2.5,2.4-4,2.7
			c0,0.3,0,0.5,0,0.6c0,1.2,0.3,2.1,1.3,2.1c0.7,0,1.4-0.3,2.2-1.2l0.2,0.3C860.7,201.9,859.4,202.4,858.5,202.4z M858.5,198
			c1.8-0.3,2.3-1.3,2.3-2.2c0-0.5-0.2-0.9-0.6-0.9C859.5,194.9,858.8,195.7,858.5,198z"/>
		<path d="M868.1,195.3c0,0.3-0.4,0.8-0.7,1c-0.1,0.1-0.2,0.1-0.3-0.1c-0.4-0.5-0.9-1-1.5-1c-0.5,0-0.8,0.4-0.8,0.8
			c0,0.5,0.4,0.8,1.2,1.5c1.4,1.1,1.6,1.5,1.6,2.2c0,1.5-2.3,2.8-3.3,2.8c-0.8,0-1.8-0.6-1.8-1.3c0-0.3,0.4-0.9,0.8-0.9
			c0.1,0,0.2,0,0.3,0.1c0.7,0.8,1.3,1.2,1.9,1.2c0.6,0,0.9-0.4,0.9-0.8c0-0.4-0.3-0.7-1.1-1.4c-0.7-0.6-1.6-1.2-1.6-2.2
			c0-0.6,0.2-1.2,1.1-2c0.6-0.5,1.3-0.8,1.9-0.8C867.4,194.3,868.1,194.7,868.1,195.3z"/>
		<path d="M874,195c-0.6,0-1.1,0-1.6,0c-0.4,1.9-1,4.7-1,4.9c-0.1,0.8-0.1,1.1,0.1,1.1c0.4,0,0.8-0.3,1.4-0.9l0.2,0.2
			c-0.6,0.9-1.8,2-2.9,2c-0.7,0-1.1-0.6-0.6-2.7l1-4.6h-1.3v-0.1l0.4-0.5h1l0.4-1.9c0.6-0.2,1.4-0.7,2-1.1l0.1,0.1
			c-0.2,0.8-0.5,1.9-0.7,2.9h1.7L874,195z"/>
		<path d="M885,200.4c-1,1.3-2.2,1.9-2.8,1.9s-0.8-0.4-0.5-1.9l0.2-0.9c-1.1,1.6-2.5,2.8-3.5,2.8c-0.7,0-1.3-0.6-1.3-2.1
			c0-1.7,0.7-3.6,1.9-4.6c0.9-0.8,2.4-1.3,3-1.3c0.2,0,0.5,0,0.9,0.1l0.6-3.1c0.1-0.8,0-0.8-0.7-0.9c-0.1,0-0.2,0-0.3-0.1l0.1-0.2
			c0.8-0.1,2-0.3,2.6-0.5c0.3-0.1,0.5-0.2,0.6-0.2s0.2,0.1,0.1,0.5c-0.7,3.3-1.6,7.4-2.2,10.4c-0.1,0.5,0,0.6,0.1,0.6
			s0.5-0.2,1.1-0.8L885,200.4z M881.8,199.1c0.3-0.4,0.4-0.9,0.5-1.5l0.5-2.3c-0.3-0.4-1-0.5-1.3-0.5c-1.5,0-2.2,3.5-2.2,5.1
			c0,0.8,0.2,1.1,0.5,1.1C880.3,201.1,881,200.3,881.8,199.1z"/>
		<path d="M887.9,202.4c-0.9,0-2-0.5-2-2.5c0-1.7,0.7-3.4,1.9-4.4c0.7-0.6,1.8-1.1,2.6-1.1c1,0,1.4,0.6,1.4,1.4c0,1.6-2.5,2.4-4,2.7
			c0,0.3,0,0.5,0,0.6c0,1.2,0.3,2.1,1.3,2.1c0.7,0,1.4-0.3,2.2-1.2l0.2,0.3C890.2,201.9,888.8,202.4,887.9,202.4z M887.9,198
			c1.8-0.3,2.3-1.3,2.3-2.2c0-0.5-0.2-0.9-0.6-0.9C889,194.9,888.2,195.7,887.9,198z"/>
		<path d="M900.2,200.5c-1,1.3-2.1,1.9-2.7,1.9c-0.5,0-0.7-0.5-0.5-2l0.1-0.8c-0.6,0.9-1.1,1.4-1.7,2c-0.6,0.6-1.2,0.9-1.8,0.9
			c-0.7,0-1.2-0.9-1.2-2.1c0-1.7,0.8-3.4,1.9-4.5c0.7-0.7,2.1-1.5,3.5-1.5c0.8,0,1.7,0.2,2.1,0.3c-0.4,1.5-0.8,3.6-1.2,5.7
			c-0.1,0.5,0,0.6,0.1,0.6s0.4-0.1,1-0.7L900.2,200.5z M896.8,199.5c0.4-0.5,0.5-1,0.7-1.6c0.2-0.8,0.5-2.1,0.6-2.7
			c-0.3-0.1-0.6-0.3-1.2-0.3c-1.5,0-2.3,3.2-2.3,5c0,0.8,0.2,1.1,0.5,1.1C895.5,201,896,200.7,896.8,199.5z"/>
		<path d="M906.3,195c-0.6,0-1.1,0-1.6,0c-0.4,1.9-1,4.7-1,4.9c-0.1,0.8-0.1,1.1,0.1,1.1c0.4,0,0.8-0.3,1.4-0.9l0.2,0.2
			c-0.6,0.9-1.8,2-2.9,2c-0.7,0-1.1-0.6-0.6-2.7l1-4.6h-1.3v-0.1l0.4-0.5h1l0.4-1.9c0.6-0.2,1.4-0.7,2-1.1l0.1,0.1
			c-0.2,0.8-0.5,1.9-0.7,2.9h1.7L906.3,195z"/>
		<path d="M907.5,190c0.7-0.1,1.9-0.3,2.4-0.5c0.3-0.1,0.5-0.2,0.6-0.2s0.1,0.2,0,0.7c-0.5,2.4-1,4.9-1.5,7.3c1.1-1.8,2.8-3,3.9-3
			c0.6,0,1.2,0.3,0.7,2.5c-0.3,1.2-0.5,2.3-0.8,3.5c-0.1,0.5-0.1,0.6,0.1,0.6c0.1,0,0.5-0.1,1-0.7l0.1,0.2c-1,1.3-2.2,1.9-2.8,1.9
			s-0.8-0.4-0.5-1.7s0.6-2.6,0.9-3.9c0.2-0.9,0.1-1.2-0.3-1.2c-0.5,0-1.3,0.5-2.2,2.1c-0.3,0.6-0.5,1.3-0.7,1.8
			c-0.2,0.8-0.4,1.9-0.5,2.6c-0.7,0.1-1.3,0.2-1.9,0.4l-0.1-0.1c0.7-3.3,1.5-7,2.2-10.8c0.2-1,0.1-1.1-0.7-1.2c-0.1,0-0.1,0-0.3,0
			L907.5,190z"/>
		<path d="M923.8,200.4c-1.2,1.4-2.4,1.9-3.4,1.9c-1.2,0-2-0.8-2-2.6c0-1.4,0.6-3,1.8-4.1c0.8-0.7,1.9-1.3,2.9-1.3
			c0.7,0,1.3,0.3,1.3,0.8c0,0.3-0.2,0.8-0.8,1.1c-0.1,0.1-0.2,0-0.3-0.1c-0.5-0.8-0.9-1.1-1.3-1.1c-0.7,0-1.5,1.8-1.5,4.4
			c0,1.3,0.6,1.8,1.2,1.8c0.8,0,1.5-0.5,2.1-1.1V200.4z"/>
		<path d="M931.9,196.9c0,1.9-0.9,3.9-2.6,4.8c-0.6,0.4-1.3,0.6-2.1,0.6c-1.9,0-2.4-1.3-2.4-2.6c0-2.3,1.3-4.2,2.9-5
			c0.6-0.3,1.2-0.5,1.9-0.5C931.1,194.3,931.9,195.4,931.9,196.9z M926.8,199.7c0,1.5,0.5,2.1,1.1,2.1c1.6,0,2-3.7,2-4.9
			c0-1.5-0.5-2.1-1-2.1C927.3,194.8,926.8,198.4,926.8,199.7z"/>
		<path d="M940.8,200.5c-1,1.3-2.1,1.9-2.7,1.9c-0.5,0-0.8-0.4-0.5-1.7c0.1-0.5,0.2-0.9,0.3-1.4c-1,1.4-1.9,2.3-2.5,2.7
			c-0.4,0.3-0.8,0.4-1.2,0.4c-0.7,0-1.3-0.4-0.8-2.6c0.2-1,0.6-2.3,0.8-3.3c0.1-0.6,0.2-0.8-0.1-0.8c-0.2,0-0.7,0.4-1,0.7l-0.2-0.3
			c0.8-1,2-1.8,2.7-1.8c0.6,0,0.7,0.6,0.4,2.1c-0.3,1.3-0.6,2.3-0.8,3.5c-0.2,0.9,0.1,1,0.2,1c0.5,0,1.2-0.7,1.8-1.7
			c0.4-0.5,0.8-1.2,1-2.1c0.2-0.8,0.3-1.5,0.6-2.4c0.6-0.1,1.2-0.3,1.9-0.5h0.1c-0.4,1.9-0.9,3.9-1.3,6c-0.1,0.5-0.1,0.7,0.1,0.7
			c0.1,0,0.5-0.2,1-0.7L940.8,200.5z"/>
		<path d="M949.8,200.6c-1,1.3-2,1.8-2.7,1.8c-0.6,0-0.8-0.4-0.5-1.7s0.6-2.6,0.9-3.9c0.2-0.9,0.1-1.2-0.2-1.2
			c-0.7,0-1.7,1.3-2.2,2.2c-0.4,0.7-0.5,1.2-0.6,1.7c-0.2,0.8-0.4,1.9-0.5,2.6c-0.6,0.1-1.4,0.2-1.9,0.4l-0.1-0.1
			c0.3-1.5,0.9-3.7,1.3-5.8c0.1-0.6,0.1-0.8-0.1-0.8c-0.3,0-0.7,0.4-1,0.7l-0.2-0.3c0.8-1.1,2-1.8,2.6-1.8c0.7,0,0.7,0.6,0.4,2.1
			l-0.2,0.9c1.1-1.7,2.7-3,3.8-3c0.6,0,1.1,0.3,0.6,2.5c-0.3,1.2-0.5,2.3-0.8,3.5c-0.1,0.5-0.1,0.7,0.1,0.7c0.1,0,0.5-0.1,1-0.7
			L949.8,200.6z"/>
		<path d="M956,195c-0.6,0-1.1,0-1.6,0c-0.4,1.9-1,4.7-1,4.9c-0.1,0.8-0.1,1.1,0.1,1.1c0.4,0,0.8-0.3,1.4-0.9l0.2,0.2
			c-0.6,0.9-1.8,2-2.9,2c-0.7,0-1.1-0.6-0.6-2.7l1-4.6h-1.3v-0.1l0.4-0.5h1l0.4-1.9c0.6-0.2,1.4-0.7,2-1.1l0.1,0.1
			c-0.2,0.8-0.5,1.9-0.7,2.9h1.7L956,195z"/>
		<path d="M962.8,200.5c-1,1.3-2.2,1.9-2.8,1.9s-0.8-0.6-0.4-1.9c0.4-1.6,0.6-2.6,1-4c0.1-0.6,0.1-0.8-0.1-0.8c-0.3,0-0.7,0.3-1,0.7
			l-0.2-0.3c0.8-1,2.1-1.8,2.8-1.8c0.6,0,0.6,0.6,0.3,2.1c-0.3,1.3-0.6,2.6-0.9,3.9c-0.1,0.5,0,0.7,0.1,0.7s0.5-0.2,1-0.7
			L962.8,200.5z M963.2,191.5c0,0.6-0.4,1.2-1,1.2c-0.5,0-0.8-0.3-0.8-0.9c0-0.5,0.4-1.2,1.1-1.2C962.9,190.6,963.2,191,963.2,191.5
			z"/>
		<path d="M971.8,200.6c-1,1.3-2,1.8-2.7,1.8c-0.6,0-0.8-0.4-0.5-1.7s0.6-2.6,0.9-3.9c0.2-0.9,0.1-1.2-0.2-1.2
			c-0.7,0-1.7,1.3-2.2,2.2c-0.4,0.7-0.5,1.2-0.6,1.7c-0.2,0.8-0.4,1.9-0.5,2.6c-0.6,0.1-1.4,0.2-1.9,0.4l-0.1-0.1
			c0.3-1.5,0.9-3.7,1.3-5.8c0.1-0.6,0.1-0.8-0.1-0.8c-0.3,0-0.7,0.4-1,0.7l-0.2-0.3c0.8-1.1,2-1.8,2.6-1.8c0.7,0,0.7,0.6,0.4,2.1
			l-0.2,0.9c1.1-1.7,2.7-3,3.8-3c0.6,0,1.1,0.3,0.6,2.5c-0.3,1.2-0.5,2.3-0.8,3.5c-0.1,0.5-0.1,0.7,0.1,0.7c0.1,0,0.5-0.1,1-0.7
			L971.8,200.6z"/>
		<path d="M981.1,195c-0.6,0-1.1,0-1.6,0c-0.4,1.9-1,4.7-1,4.9c-0.1,0.8-0.1,1.1,0.1,1.1c0.4,0,0.8-0.3,1.4-0.9l0.2,0.2
			c-0.6,0.9-1.8,2-2.9,2c-0.7,0-1.1-0.6-0.6-2.7l1-4.6h-1.3v-0.1l0.4-0.5h1l0.4-1.9c0.6-0.2,1.4-0.7,2-1.1l0.1,0.1
			c-0.2,0.8-0.5,1.9-0.7,2.9h1.7L981.1,195z"/>
		<path d="M982.3,190c0.7-0.1,1.9-0.3,2.4-0.5c0.3-0.1,0.5-0.2,0.6-0.2s0.1,0.2,0,0.7c-0.5,2.4-1,4.9-1.5,7.3c1.1-1.8,2.8-3,3.9-3
			c0.6,0,1.2,0.3,0.7,2.5c-0.3,1.2-0.5,2.3-0.8,3.5c-0.1,0.5-0.1,0.6,0.1,0.6c0.1,0,0.5-0.1,1-0.7l0.1,0.2c-1,1.3-2.2,1.9-2.8,1.9
			s-0.8-0.4-0.5-1.7s0.6-2.6,0.9-3.9c0.2-0.9,0.1-1.2-0.3-1.2c-0.5,0-1.3,0.5-2.2,2.1c-0.3,0.6-0.5,1.3-0.7,1.8
			c-0.2,0.8-0.5,1.9-0.5,2.6c-0.7,0.1-1.3,0.2-1.9,0.4l-0.1-0.1c0.7-3.3,1.5-7,2.2-10.8c0.2-1,0.1-1.1-0.7-1.2c-0.1,0-0.1,0-0.3,0
			L982.3,190z"/>
		<path d="M992,202.4c-0.9,0-2-0.5-2-2.5c0-1.7,0.7-3.4,1.9-4.4c0.7-0.6,1.8-1.1,2.6-1.1c1,0,1.4,0.6,1.4,1.4c0,1.6-2.5,2.4-4,2.7
			c0,0.3,0,0.5,0,0.6c0,1.2,0.3,2.1,1.3,2.1c0.7,0,1.4-0.3,2.2-1.2l0.2,0.3C994.2,201.9,992.9,202.4,992,202.4z M992,198
			c1.8-0.3,2.3-1.3,2.3-2.2c0-0.5-0.2-0.9-0.6-0.9C993,194.9,992.3,195.7,992,198z"/>
		<path d="M1005.3,200.4c-1.2,1.4-2.4,1.9-3.4,1.9c-1.2,0-2-0.8-2-2.6c0-1.4,0.6-3,1.8-4.1c0.8-0.7,1.9-1.3,2.9-1.3
			c0.7,0,1.3,0.3,1.3,0.8c0,0.3-0.2,0.8-0.8,1.1c-0.1,0.1-0.2,0-0.3-0.1c-0.5-0.8-0.9-1.1-1.3-1.1c-0.7,0-1.5,1.8-1.5,4.4
			c0,1.3,0.6,1.8,1.2,1.8c0.8,0,1.5-0.5,2.1-1.1V200.4z"/>
		<path d="M1013.4,196.9c0,1.9-0.9,3.9-2.6,4.8c-0.6,0.4-1.3,0.6-2.1,0.6c-1.9,0-2.4-1.3-2.4-2.6c0-2.3,1.3-4.2,2.9-5
			c0.6-0.3,1.2-0.5,1.9-0.5C1012.6,194.3,1013.4,195.4,1013.4,196.9z M1008.3,199.7c0,1.5,0.5,2.1,1.1,2.1c1.6,0,2-3.7,2-4.9
			c0-1.5-0.5-2.1-1-2.1C1008.8,194.8,1008.3,198.4,1008.3,199.7z"/>
		<path d="M1022.3,200.5c-1,1.3-2.1,1.9-2.7,1.9c-0.5,0-0.8-0.4-0.5-1.7c0.1-0.5,0.2-0.9,0.3-1.4c-1,1.4-1.9,2.3-2.5,2.7
			c-0.4,0.3-0.8,0.4-1.2,0.4c-0.7,0-1.3-0.4-0.8-2.6c0.2-1,0.6-2.3,0.8-3.3c0.1-0.6,0.2-0.8-0.1-0.8c-0.2,0-0.7,0.4-1,0.7l-0.2-0.3
			c0.8-1,2-1.8,2.7-1.8c0.6,0,0.7,0.6,0.4,2.1c-0.3,1.3-0.6,2.3-0.8,3.5c-0.2,0.9,0.1,1,0.2,1c0.5,0,1.2-0.7,1.8-1.7
			c0.4-0.5,0.8-1.2,1-2.1c0.2-0.8,0.3-1.5,0.6-2.4c0.6-0.1,1.2-0.3,1.9-0.5h0.1c-0.4,1.9-0.9,3.9-1.3,6c-0.1,0.5-0.1,0.7,0.1,0.7
			c0.1,0,0.5-0.2,1-0.7L1022.3,200.5z"/>
		<path d="M1031.3,200.6c-1,1.3-2,1.8-2.7,1.8c-0.6,0-0.8-0.4-0.5-1.7s0.6-2.6,0.9-3.9c0.2-0.9,0.1-1.2-0.2-1.2
			c-0.7,0-1.7,1.3-2.2,2.2c-0.4,0.7-0.5,1.2-0.6,1.7c-0.2,0.8-0.4,1.9-0.5,2.6c-0.6,0.1-1.4,0.2-1.9,0.4l-0.1-0.1
			c0.3-1.5,0.9-3.7,1.3-5.8c0.1-0.6,0.1-0.8-0.1-0.8c-0.3,0-0.7,0.4-1,0.7l-0.2-0.3c0.8-1.1,2-1.8,2.6-1.8c0.7,0,0.7,0.6,0.4,2.1
			l-0.2,0.9c1.1-1.7,2.7-3,3.8-3c0.6,0,1.1,0.3,0.6,2.5c-0.3,1.2-0.5,2.3-0.8,3.5c-0.1,0.5-0.1,0.7,0.1,0.7c0.1,0,0.5-0.1,1-0.7
			L1031.3,200.6z"/>
		<path d="M1037.5,195c-0.6,0-1.1,0-1.6,0c-0.4,1.9-1,4.7-1,4.9c-0.1,0.8-0.1,1.1,0.1,1.1c0.4,0,0.8-0.3,1.4-0.9l0.2,0.2
			c-0.6,0.9-1.8,2-2.9,2c-0.7,0-1.1-0.6-0.6-2.7l1-4.6h-1.3v-0.1l0.4-0.5h1l0.4-1.9c0.6-0.2,1.4-0.7,2-1.1l0.1,0.1
			c-0.2,0.8-0.5,1.9-0.7,2.9h1.7L1037.5,195z"/>
		<path d="M1037.6,196.1c1-1.3,2.1-1.8,2.6-1.8c0.7,0,0.6,0.8,0.3,2.4l-0.1,0.6c0.6-1.3,1.7-3,2.7-3c0.5,0,0.8,0.4,0.8,0.9
			s-0.5,1.2-0.8,1.4c-0.1,0.1-0.3,0.1-0.3,0c-0.2-0.3-0.6-0.5-0.9-0.5c-0.4,0-1,1.3-1.3,1.9c-0.5,1.1-0.8,3-1.1,4.1
			c-0.6,0.1-1.4,0.2-1.8,0.4l-0.1-0.1c0.4-1.9,0.9-4,1.2-5.2c0.2-1,0.2-1.3,0-1.3c-0.3,0-0.7,0.5-1,0.7L1037.6,196.1z"/>
		<path d="M1043.8,196.2c0.6-1,1.7-1.9,2.4-1.9c0.7,0,1,0.9,1.1,2.4c0.1,1.1,0.2,3.1,0.3,4.3c0.6-0.9,2.1-3.3,2.1-4.4
			c0-0.6-0.4-1.1-0.4-1.2c-0.1-0.2,0-0.4,0.2-0.6c0.2-0.2,0.6-0.5,0.9-0.5c0.4,0,0.7,0.4,0.7,1c0,0.5-0.2,1.3-0.7,2.2
			c-1.7,2.8-3.6,5.7-6.3,8.9l-2.1,0.6l-0.1-0.3c1.6-1,3.3-2.7,4.1-3.8c0-0.6-0.2-3.8-0.4-5.6c-0.2-1.2-0.3-1.7-0.6-1.7
			c-0.2,0-0.5,0.2-0.9,0.7L1043.8,196.2z"/>
	</g>
</g>
<g>
	<g>
		<path d="M600.7,316.9h-9.3l3.7-4.9c0.4-0.6,0.8-1.1,1.1-1.5s0.5-0.8,0.7-1.2c0.3-0.6,0.5-1.3,0.5-2c0-0.4-0.1-0.7-0.2-0.9
			s-0.4-0.3-0.6-0.3c-0.6,0-0.9,0.6-0.9,1.7c0,0.1,0,0.1,0,0.2s0,0.2,0,0.3H592v-0.5c0-1.4,0.4-2.5,1.3-3.4c0.8-0.9,1.9-1.3,3.3-1.3
			c1.3,0,2.3,0.4,3.1,1.2c0.8,0.8,1.2,1.9,1.2,3.2c0,1.1-0.3,2.1-0.8,3.1c-0.3,0.5-0.6,1-1.1,1.6s-1,1.1-1.6,1.7
			c0.6,0,1.1-0.1,1.7-0.1s1.1,0,1.7,0v3.1H600.7z"/>
		<path d="M611.8,310.2c0,2.1-0.4,3.8-1.3,5.1c-0.8,1.2-2,1.9-3.4,1.9c-1.5,0-2.7-0.6-3.6-1.9c-0.9-1.3-1.3-3-1.3-5.3
			c0-2.1,0.4-3.8,1.3-5c0.9-1.2,2.1-1.9,3.5-1.9c1.5,0,2.7,0.6,3.5,1.9S611.8,308,611.8,310.2z M608.2,310.2c0-2.6-0.4-3.9-1.2-3.9
			s-1.2,1.2-1.2,3.5c0,2.8,0.4,4.2,1.2,4.2c0.4,0,0.7-0.3,0.9-0.9S608.2,311.5,608.2,310.2z"/>
		<path d="M617.6,313.7l-2.4,6.5h-2.9l1.7-6.5H617.6z"/>
		<path d="M618.8,316.1l0.4-3.2c1.1,0.6,2.1,0.9,2.9,0.9c0.6,0,1-0.1,1.4-0.4s0.5-0.6,0.5-1.1s-0.2-0.9-0.6-1.1s-0.9-0.4-1.6-0.4
			c-0.8,0-1.5,0.2-2.4,0.5l1.1-7.9h6.8v3.2h-3.9l-0.3,1.5c0.3,0,0.5,0,0.6,0c1.1,0,2.1,0.4,2.8,1.2c0.8,0.8,1.1,1.8,1.1,3
			c0,1.4-0.5,2.6-1.5,3.5s-2.2,1.4-3.7,1.4C621.3,317.1,620,316.8,618.8,316.1z"/>
		<path d="M636.6,309.8c1.4,0.6,2.1,1.7,2.1,3.2c0,1.2-0.4,2.2-1.3,2.9c-0.9,0.8-2,1.2-3.3,1.2s-2.4-0.4-3.3-1.2
			c-0.9-0.8-1.3-1.8-1.3-2.9c0-1.5,0.8-2.6,2.3-3.2c-1.4-0.5-2-1.4-2-2.8c0-1.1,0.4-2.1,1.2-2.8c0.8-0.7,1.8-1.1,3.1-1.1
			s2.3,0.4,3.2,1.1c0.8,0.7,1.3,1.6,1.3,2.7c0,0.7-0.1,1.3-0.4,1.8S637.3,309.5,636.6,309.8z M635,312.6c0-0.9-0.3-1.4-0.9-1.4
			c-0.1,0-0.2,0-0.4,0.1s-0.2,0.2-0.3,0.3s-0.1,0.3-0.2,0.4s-0.1,0.4-0.1,0.6c0,0.4,0.1,0.7,0.3,1s0.4,0.4,0.7,0.4
			c0.1,0,0.2,0,0.4-0.1s0.2-0.2,0.3-0.3s0.1-0.3,0.2-0.4S635,312.8,635,312.6z M634.9,307.2c0-0.4-0.1-0.6-0.2-0.9s-0.3-0.3-0.6-0.3
			c-0.2,0-0.4,0.1-0.5,0.3s-0.2,0.5-0.2,0.8c0,0.8,0.3,1.2,0.8,1.2C634.6,308.4,634.9,308,634.9,307.2z"/>
		<path d="M640.5,316.1l0.4-3.2c1.1,0.6,2.1,0.9,2.9,0.9c0.6,0,1-0.1,1.4-0.4s0.5-0.6,0.5-1.1s-0.2-0.9-0.6-1.1s-0.9-0.4-1.6-0.4
			c-0.8,0-1.5,0.2-2.4,0.5l1.1-7.9h6.8v3.2h-4l-0.3,1.5c0.3,0,0.5,0,0.6,0c1.1,0,2.1,0.4,2.8,1.2c0.8,0.8,1.1,1.8,1.1,3
			c0,1.4-0.5,2.6-1.5,3.5s-2.2,1.4-3.7,1.4C642.9,317.1,641.7,316.8,640.5,316.1z"/>
		<path d="M659.9,309.3c0.5-0.1,1.1-0.2,1.6-0.2c1.7,0,2.4,0.9,2.4,2.4c0,1.1-0.5,2.5-1.4,3.5c-0.8,1-2.4,2-3.3,2.1
			c-0.2,0-0.5,0-0.8-0.2l-0.5,3c-0.2,0.9-0.1,1.2,0.9,1.2h0.4l-0.1,0.3l-4.7,0.2v-0.3c1.3-0.2,1.3-0.4,1.6-1.6
			c0.5-2.3,1.3-6.5,1.9-9.5c-0.5,0.2-1,0.4-1.4,0.6l-0.1-0.3c0.5-0.4,1.1-0.6,1.6-0.9l0.2-0.8c0.3-0.3,1.3-1,2-1.3l0.1,0.1
			L659.9,309.3z M658.5,316c0.2,0.3,0.6,0.7,0.9,0.6c0.9,0,2.4-2.6,2.4-5.1c0-1.4-0.5-1.7-1.4-1.7c-0.3,0-0.5,0-0.7,0.1
			C659.3,311.8,658.9,313.9,658.5,316z"/>
		<path d="M666.8,317.1c-0.9,0-2-0.5-2-2.5c0-1.7,0.7-3.4,1.9-4.4c0.7-0.6,1.8-1.1,2.6-1.1c1,0,1.4,0.6,1.4,1.4c0,1.6-2.5,2.4-4,2.7
			c0,0.3,0,0.5,0,0.6c0,1.2,0.3,2.1,1.3,2.1c0.7,0,1.4-0.3,2.2-1.2l0.2,0.3C669.1,316.7,667.7,317.1,666.8,317.1z M666.9,312.7
			c1.8-0.3,2.3-1.3,2.3-2.2c0-0.5-0.2-0.9-0.6-0.9C667.9,309.7,667.2,310.4,666.9,312.7z"/>
		<path d="M678.6,311.7c0,1.9-0.9,3.9-2.6,4.8c-0.6,0.4-1.3,0.6-2.1,0.6c-1.9,0-2.4-1.3-2.4-2.6c0-2.3,1.3-4.2,2.9-5
			c0.6-0.3,1.2-0.5,1.9-0.5C677.9,309.1,678.6,310.2,678.6,311.7z M673.5,314.5c0,1.5,0.5,2.1,1.1,2.1c1.6,0,2-3.7,2-4.9
			c0-1.5-0.5-2.1-1-2.1C674.1,309.6,673.5,313.2,673.5,314.5z"/>
		<path d="M683.2,309.3c0.5-0.1,1.1-0.2,1.6-0.2c1.7,0,2.4,0.9,2.4,2.4c0,1.1-0.5,2.5-1.4,3.5c-0.8,1-2.4,2-3.3,2.1
			c-0.2,0-0.5,0-0.8-0.2l-0.5,3c-0.2,0.9-0.1,1.2,0.9,1.2h0.4l-0.1,0.3l-4.7,0.2v-0.3c1.3-0.2,1.3-0.4,1.6-1.6
			c0.5-2.3,1.3-6.5,1.9-9.5c-0.5,0.2-1,0.4-1.4,0.6l-0.1-0.3c0.5-0.4,1.1-0.6,1.6-0.9l0.2-0.8c0.3-0.3,1.3-1,2-1.3l0.1,0.1
			L683.2,309.3z M681.8,316c0.2,0.3,0.6,0.7,0.9,0.6c0.9,0,2.4-2.6,2.4-5.1c0-1.4-0.5-1.7-1.4-1.7c-0.3,0-0.5,0-0.7,0.1
			C682.7,311.8,682.2,313.9,681.8,316z"/>
		<path d="M691.7,315.2c-1,1.3-2.1,1.9-2.7,1.9c-0.6,0-0.8-0.5-0.5-1.8c0.6-3,1.3-6.4,1.8-9.3c0.2-0.8,0.1-0.8-0.7-1
			c-0.1,0-0.2,0-0.3-0.1l0.1-0.2c0.9-0.1,1.9-0.3,2.4-0.5c0.3-0.1,0.5-0.2,0.6-0.2s0.1,0.2,0,0.7c-0.7,3.3-1.4,6.8-2.1,10.2
			c-0.1,0.5-0.1,0.6,0.1,0.6c0.1,0,0.5-0.2,1.1-0.8L691.7,315.2z"/>
		<path d="M694.6,317.1c-0.9,0-2-0.5-2-2.5c0-1.7,0.7-3.4,1.9-4.4c0.7-0.6,1.8-1.1,2.6-1.1c1,0,1.4,0.6,1.4,1.4c0,1.6-2.5,2.4-4,2.7
			c0,0.3,0,0.5,0,0.6c0,1.2,0.3,2.1,1.3,2.1c0.7,0,1.4-0.3,2.2-1.2l0.2,0.3C696.8,316.7,695.5,317.1,694.6,317.1z M694.6,312.7
			c1.8-0.3,2.3-1.3,2.3-2.2c0-0.5-0.2-0.9-0.6-0.9C695.6,309.7,694.9,310.4,694.6,312.7z"/>
		<path d="M703.6,304.7c0.7-0.1,1.9-0.3,2.4-0.5c0.3-0.1,0.5-0.2,0.6-0.2s0.1,0.2,0,0.7c-0.5,2.4-1,4.9-1.5,7.3c1.1-1.8,2.8-3,3.9-3
			c0.6,0,1.2,0.3,0.7,2.5c-0.3,1.2-0.5,2.3-0.8,3.5c-0.1,0.5-0.1,0.6,0.1,0.6c0.1,0,0.5-0.1,1-0.7l0.1,0.2c-1,1.3-2.2,1.9-2.8,1.9
			s-0.8-0.4-0.5-1.7c0.3-1.3,0.6-2.6,0.9-3.9c0.2-0.9,0.1-1.2-0.3-1.2c-0.5,0-1.3,0.5-2.2,2.1c-0.3,0.6-0.5,1.3-0.7,1.8
			c-0.2,0.8-0.5,1.9-0.5,2.6c-0.7,0.1-1.3,0.2-1.9,0.4L702,317c0.7-3.3,1.5-7,2.2-10.8c0.2-1,0.1-1.1-0.7-1.2c-0.1,0-0.1,0-0.3,0
			L703.6,304.7z"/>
		<path d="M718.9,315.2c-1,1.3-2.1,1.9-2.7,1.9c-0.5,0-0.7-0.4-0.5-2l0.1-0.8c-0.6,0.9-1.1,1.4-1.7,2c-0.6,0.6-1.2,0.9-1.8,0.9
			c-0.7,0-1.2-0.9-1.2-2.1c0-1.7,0.8-3.4,1.9-4.5c0.7-0.7,2.1-1.5,3.5-1.5c0.8,0,1.7,0.2,2.1,0.3c-0.4,1.5-0.8,3.6-1.2,5.7
			c-0.1,0.5,0,0.6,0.1,0.6s0.5-0.1,1-0.7L718.9,315.2z M715.5,314.2c0.4-0.5,0.5-1,0.7-1.6c0.2-0.8,0.5-2.1,0.6-2.7
			c-0.3-0.1-0.6-0.3-1.2-0.3c-1.5,0-2.3,3.2-2.3,5c0,0.8,0.2,1.1,0.5,1.1C714.2,315.8,714.7,315.4,715.5,314.2z"/>
		<path d="M719.6,310.9c0.7-0.9,1.8-1.9,2.5-1.9c0.5,0,0.7,0.7,0.8,2.4c0.1,1.4,0.1,2.4,0.2,3.6c0.7-0.8,2.2-2.6,2.2-3.6
			c0-0.5-0.1-0.8-0.3-1.1c-0.1-0.1-0.1-0.2,0-0.3c0.1-0.3,0.7-0.9,1.2-0.9c0.4,0,0.7,0.4,0.7,1c0,0.5-0.1,1.2-1,2.4
			c-1.1,1.5-3.3,3.9-4.1,4.6h-0.3c-0.1-1.5-0.1-3.3-0.3-5.1c-0.1-1-0.2-1.5-0.4-1.5c-0.1,0-0.4,0.1-0.9,0.7L719.6,310.9z"/>
		<path d="M729.3,317.1c-0.9,0-2-0.5-2-2.5c0-1.7,0.7-3.4,1.9-4.4c0.7-0.6,1.8-1.1,2.6-1.1c1,0,1.4,0.6,1.4,1.4c0,1.6-2.5,2.4-4,2.7
			c0,0.3,0,0.5,0,0.6c0,1.2,0.3,2.1,1.3,2.1c0.7,0,1.4-0.3,2.2-1.2l0.2,0.3C731.5,316.7,730.2,317.1,729.3,317.1z M729.3,312.7
			c1.8-0.3,2.3-1.3,2.3-2.2c0-0.5-0.2-0.9-0.6-0.9C730.4,309.7,729.6,310.4,729.3,312.7z"/>
		<path d="M745,315.2c-1,1.3-2.2,1.9-2.8,1.9s-0.8-0.4-0.5-1.9l0.2-0.9c-1.1,1.6-2.5,2.8-3.5,2.8c-0.7,0-1.3-0.6-1.3-2.1
			c0-1.7,0.7-3.6,1.9-4.6c0.9-0.8,2.4-1.3,3-1.3c0.2,0,0.5,0,0.9,0.1l0.6-3.1c0.1-0.8,0-0.8-0.7-0.9c-0.1,0-0.2,0-0.3-0.1l0.1-0.2
			c0.8-0.1,2-0.3,2.6-0.5c0.3-0.1,0.5-0.2,0.6-0.2s0.2,0.1,0.1,0.5c-0.7,3.3-1.6,7.4-2.2,10.4c-0.1,0.5,0,0.6,0.1,0.6
			s0.5-0.2,1.1-0.8L745,315.2z M741.8,313.9c0.3-0.4,0.4-0.9,0.5-1.5l0.5-2.3c-0.3-0.4-1-0.5-1.3-0.5c-1.5,0-2.2,3.5-2.2,5.1
			c0,0.8,0.2,1.1,0.5,1.1C740.2,315.8,741,315.1,741.8,313.9z"/>
		<path d="M749.5,315.2c-1,1.3-2.2,1.9-2.8,1.9s-0.8-0.6-0.4-1.9c0.4-1.6,0.6-2.6,1-4c0.1-0.6,0.1-0.8-0.1-0.8c-0.3,0-0.7,0.3-1,0.7
			l-0.2-0.3c0.8-1,2.1-1.8,2.8-1.8c0.6,0,0.6,0.6,0.3,2.1c-0.3,1.3-0.6,2.6-0.9,3.9c-0.1,0.5,0,0.7,0.1,0.7s0.5-0.2,1-0.7
			L749.5,315.2z M749.9,306.3c0,0.6-0.4,1.2-1,1.2c-0.5,0-0.8-0.3-0.8-0.9c0-0.5,0.4-1.2,1.1-1.2
			C749.7,305.4,749.9,305.8,749.9,306.3z"/>
		<path d="M752.5,317.1c-0.9,0-2-0.5-2-2.5c0-1.7,0.7-3.4,1.9-4.4c0.7-0.6,1.8-1.1,2.6-1.1c1,0,1.4,0.6,1.4,1.4c0,1.6-2.5,2.4-4,2.7
			c0,0.3,0,0.5,0,0.6c0,1.2,0.3,2.1,1.3,2.1c0.7,0,1.4-0.3,2.2-1.2l0.2,0.3C754.8,316.7,753.4,317.1,752.5,317.1z M752.6,312.7
			c1.8-0.3,2.3-1.3,2.3-2.2c0-0.5-0.2-0.9-0.6-0.9C753.6,309.7,752.9,310.4,752.6,312.7z"/>
		<path d="M765.1,315.2c-1,1.3-2.2,1.9-2.8,1.9s-0.8-0.4-0.5-1.9l0.2-0.9c-1.1,1.6-2.5,2.8-3.5,2.8c-0.7,0-1.3-0.6-1.3-2.1
			c0-1.7,0.7-3.6,1.9-4.6c0.9-0.8,2.4-1.3,3-1.3c0.2,0,0.5,0,0.9,0.1l0.6-3.1c0.1-0.8,0-0.8-0.7-0.9c-0.1,0-0.2,0-0.3-0.1l0.1-0.2
			c0.8-0.1,2-0.3,2.6-0.5c0.3-0.1,0.5-0.2,0.6-0.2s0.2,0.1,0.1,0.5c-0.7,3.3-1.6,7.4-2.2,10.4c-0.1,0.5,0,0.6,0.1,0.6
			s0.5-0.2,1.1-0.8L765.1,315.2z M761.9,313.9c0.3-0.4,0.4-0.9,0.5-1.5l0.5-2.3c-0.3-0.4-1-0.5-1.3-0.5c-1.5,0-2.2,3.5-2.2,5.1
			c0,0.8,0.2,1.1,0.5,1.1C760.3,315.8,761.1,315.1,761.9,313.9z"/>
	</g>
</g>
<g>
	<path class="st18" d="M307.4,698.7l76.1-9.7l75.7-11.3l76.1,39.5l76.1-43.8l76.1-17l76.1-13.9l76.1-10.4l76.1-31.3l76.1-43.3
		l76.1-76.9"/>
</g>
</svg>
