<?xml version="1.0" encoding="utf-8"?>
<!-- Generator: Adobe Illustrator 22.1.0, SVG Export Plug-In . SVG Version: 6.00 Build 0)  -->
<svg version="1.1" id="Layer_1" xmlns="http://www.w3.org/2000/svg" xmlns:xlink="http://www.w3.org/1999/xlink" x="0px" y="0px"
	 viewBox="0 0 1357.9 905.3" style="enable-background:new 0 0 1357.9 905.3;" xml:space="preserve">
<style type="text/css">
	.st0{fill:#EEE8D5;}
	.st1{fill:#657B83;}
	.st2{clip-path:url(#SVGID_2_);fill:none;stroke:#FFFFFF;stroke-linejoin:round;stroke-dasharray:1,1.65;}
	.st3{clip-path:url(#SVGID_4_);fill:none;stroke:#FFFFFF;stroke-linejoin:round;stroke-dasharray:1,1.65;}
	.st4{clip-path:url(#SVGID_6_);fill:none;stroke:#FFFFFF;stroke-linejoin:round;stroke-dasharray:1,1.65;}
	.st5{clip-path:url(#SVGID_8_);fill:none;stroke:#FFFFFF;stroke-linejoin:round;stroke-dasharray:1,1.65;}
	.st6{clip-path:url(#SVGID_10_);fill:none;stroke:#FFFFFF;stroke-linejoin:round;stroke-dasharray:1,1.65;}
	.st7{clip-path:url(#SVGID_12_);fill:none;stroke:#FFFFFF;stroke-linejoin:round;stroke-dasharray:1,1.65;}
	.st8{clip-path:url(#SVGID_14_);fill:none;stroke:#FFFFFF;stroke-linejoin:round;stroke-dasharray:1,1.65;}
	.st9{clip-path:url(#SVGID_16_);fill:none;stroke:#D26C3D;stroke-width:2;stroke-linejoin:round;}
	.st10{clip-path:url(#SVGID_18_);fill:none;stroke:#DBD7AD;stroke-width:2;stroke-linejoin:round;}
	.st11{fill:none;stroke:#EEE8D5;stroke-width:0.8;stroke-linecap:square;}
	.st12{fill:none;}
	.st13{font-family:'Futura-CondensedMedium';}
	.st14{font-size:16px;}
	.st15{letter-spacing:2;}
	.st16{font-family:'Futura-CondensedExtraBold';}
	.st17{font-size:56px;}
	.st18{fill:none;stroke:#DBD7AD;stroke-width:2;stroke-linejoin:round;}
	.st19{font-family:'MinionPro-SemiboldIt';}
	.st20{font-size:18px;}
</style>
<path class="st0" d="M269,824.6h837V270.2H269V824.6z"/>
<path id="FuturaStd-CondensedBold-32" class="st1" d="M299.1,831.2v-0.5c0-0.4,0-1.2,0.6-1.2c0.5,0,0.6,0.5,0.6,0.9
	c0,0.8-0.6,1.9-1,2.6l-1.7,3.1h4v-1.3h-1.8l1.3-2.4c0.4-0.7,0.6-1.3,0.6-2c0-1.3-0.8-1.9-2-1.9c-1.6,0-2,0.9-2,2.3v0.4L299.1,831.2
	L299.1,831.2z"/>
<path id="FuturaStd-CondensedBold-30" class="st1" d="M304.6,828.5c-1.8,0-2.1,2.6-2.1,3.9c0,1.3,0.3,3.9,2.1,3.9
	c1.8,0,2.1-2.6,2.1-3.9C306.7,831,306.4,828.5,304.6,828.5z M304.6,829.8c0.7,0,0.7,2,0.7,2.5s0.1,2.5-0.7,2.5s-0.7-2-0.7-2.5
	C303.9,831.9,303.8,829.8,304.6,829.8z"/>
<path id="FuturaStd-CondensedBold-30_1_" class="st1" d="M309.5,828.5c-1.8,0-2.1,2.6-2.1,3.9c0,1.3,0.3,3.9,2.1,3.9
	c1.8,0,2.1-2.6,2.1-3.9C311.6,831,311.3,828.5,309.5,828.5z M309.5,829.8c0.7,0,0.7,2,0.7,2.5s0.1,2.5-0.7,2.5c-0.7,0-0.7-2-0.7-2.5
	C308.8,831.9,308.7,829.8,309.5,829.8z"/>
<path id="FuturaStd-CondensedBold-36" class="st1" d="M314,828.6l-0.6,1.3c-0.6,1.2-1.1,2.4-1.1,3.7s0.6,2.7,2.1,2.7
	c1.6,0,2.1-1.4,2.1-2.8c0-0.9-0.4-2.3-1.5-2.3c-0.4,0-0.7,0.2-0.9,0.4l0,0l1.4-2.9H314V828.6z M314.4,832.5c0.5,0,0.6,0.8,0.6,1.2
	s-0.1,1.3-0.6,1.3s-0.6-0.9-0.6-1.2C313.7,833.4,313.8,832.5,314.4,832.5z"/>
<path id="FuturaStd-CondensedBold-32_1_" class="st1" d="M375.2,831.2v-0.5c0-0.4,0-1.2,0.6-1.2c0.5,0,0.6,0.5,0.6,0.9
	c0,0.8-0.6,1.9-1,2.6l-1.7,3.1h4v-1.3h-1.8l1.3-2.4c0.4-0.7,0.6-1.3,0.6-2c0-1.3-0.8-1.9-2-1.9c-1.6,0-2,0.9-2,2.3v0.4L375.2,831.2
	L375.2,831.2z"/>
<path id="FuturaStd-CondensedBold-30_2_" class="st1" d="M380.6,828.5c-1.8,0-2.1,2.6-2.1,3.9c0,1.3,0.3,3.9,2.1,3.9
	c1.8,0,2.1-2.6,2.1-3.9C382.8,831,382.5,828.5,380.6,828.5z M380.6,829.8c0.7,0,0.7,2,0.7,2.5s0.1,2.5-0.7,2.5s-0.7-2-0.7-2.5
	C380,831.9,379.9,829.8,380.6,829.8z"/>
<path id="FuturaStd-CondensedBold-30_3_" class="st1" d="M385.5,828.5c-1.8,0-2.1,2.6-2.1,3.9c0,1.3,0.3,3.9,2.1,3.9
	c1.8,0,2.1-2.6,2.1-3.9C387.7,831,387.4,828.5,385.5,828.5z M385.5,829.8c0.7,0,0.7,2,0.7,2.5s0.1,2.5-0.7,2.5c-0.7,0-0.7-2-0.7-2.5
	C384.9,831.9,384.8,829.8,385.5,829.8z"/>
<path id="FuturaStd-CondensedBold-37" class="st1" d="M388.7,828.6v1.3h2l-2.4,6.2h1.6l2.8-7.5H388.7z"/>
<path id="FuturaStd-CondensedBold-32_2_" class="st1" d="M451.3,831.2v-0.5c0-0.4,0-1.2,0.6-1.2c0.5,0,0.6,0.5,0.6,0.9
	c0,0.8-0.6,1.9-1,2.6l-1.7,3.1h4v-1.3H452l1.3-2.4c0.4-0.7,0.6-1.3,0.6-2c0-1.3-0.8-1.9-2-1.9c-1.6,0-2,0.9-2,2.3v0.4L451.3,831.2
	L451.3,831.2z"/>
<path id="FuturaStd-CondensedBold-30_4_" class="st1" d="M456.7,828.5c-1.8,0-2.1,2.6-2.1,3.9c0,1.3,0.3,3.9,2.1,3.9
	c1.8,0,2.1-2.6,2.1-3.9C458.9,831,458.5,828.5,456.7,828.5z M456.7,829.8c0.7,0,0.7,2,0.7,2.5s0.1,2.5-0.7,2.5s-0.7-2-0.7-2.5
	C456.1,831.9,456,829.8,456.7,829.8z"/>
<path id="FuturaStd-CondensedBold-30_5_" class="st1" d="M461.6,828.5c-1.8,0-2.1,2.6-2.1,3.9c0,1.3,0.3,3.9,2.1,3.9
	c1.8,0,2.1-2.6,2.1-3.9C463.8,831,463.4,828.5,461.6,828.5z M461.6,829.8c0.7,0,0.7,2,0.7,2.5s0.1,2.5-0.7,2.5c-0.7,0-0.7-2-0.7-2.5
	C461,831.9,460.9,829.8,461.6,829.8z"/>
<path id="FuturaStd-CondensedBold-38" class="st1" d="M465.7,832.1c-0.9,0.3-1.3,1-1.3,2c0,1.2,0.9,2.2,2.2,2.2
	c1.3,0,2.2-0.9,2.2-2.2c0-1-0.4-1.7-1.3-2l0,0c0.7-0.2,1-0.9,1-1.6c0-1.1-0.7-2-1.9-2c-1.2,0-1.9,0.9-1.9,2
	C464.7,831.2,465,831.8,465.7,832.1L465.7,832.1z M466.1,830.4c0-0.3,0.1-0.8,0.4-0.8c0.4,0,0.5,0.5,0.5,0.8s0,0.9-0.5,0.9
	C466.1,831.3,466.1,830.7,466.1,830.4z M466.5,832.8c0.5,0,0.6,0.7,0.6,1.1c0,0.4-0.1,1.1-0.6,1.1s-0.6-0.7-0.6-1.1
	S466,832.8,466.5,832.8z"/>
<path id="FuturaStd-CondensedBold-32_3_" class="st1" d="M527.4,831.2v-0.5c0-0.4,0-1.2,0.6-1.2c0.5,0,0.6,0.5,0.6,0.9
	c0,0.8-0.6,1.9-1,2.6l-1.7,3.1h4v-1.3h-1.8l1.3-2.4c0.3-0.7,0.6-1.3,0.6-2c0-1.3-0.8-1.9-2-1.9c-1.6,0-2,0.9-2,2.3v0.4L527.4,831.2
	L527.4,831.2z"/>
<path id="FuturaStd-CondensedBold-30_6_" class="st1" d="M532.8,828.5c-1.8,0-2.1,2.6-2.1,3.9c0,1.3,0.3,3.9,2.1,3.9
	s2.1-2.6,2.1-3.9C534.9,831,534.6,828.5,532.8,828.5z M532.8,829.8c0.7,0,0.7,2,0.7,2.5s0.1,2.5-0.7,2.5c-0.7,0-0.7-2-0.7-2.5
	C532.2,831.9,532.1,829.8,532.8,829.8z"/>
<path id="FuturaStd-CondensedBold-30_7_" class="st1" d="M537.7,828.5c-1.8,0-2.1,2.6-2.1,3.9c0,1.3,0.3,3.9,2.1,3.9
	s2.1-2.6,2.1-3.9C539.8,831,539.5,828.5,537.7,828.5z M537.7,829.8c0.7,0,0.7,2,0.7,2.5s0.1,2.5-0.7,2.5c-0.7,0-0.7-2-0.7-2.5
	C537.1,831.9,537,829.8,537.7,829.8z"/>
<path id="FuturaStd-CondensedBold-39" class="st1" d="M543,836.1l0.6-1.3c0.6-1.2,1.1-2.4,1.1-3.7s-0.6-2.7-2.1-2.7
	c-1.6,0-2.1,1.4-2.1,2.8c0,0.9,0.4,2.3,1.5,2.3c0.4,0,0.7-0.2,0.9-0.4l0,0l-1.4,3L543,836.1L543,836.1z M542.6,829.8
	c0.5,0,0.6,0.8,0.6,1.2s-0.1,1.3-0.7,1.3c-0.5,0-0.6-0.8-0.6-1.2C542,830.7,542.1,829.8,542.6,829.8z"/>
<path id="FuturaStd-CondensedBold-32_4_" class="st1" d="M603.5,831.2v-0.5c0-0.4,0-1.2,0.6-1.2c0.5,0,0.6,0.5,0.6,0.9
	c0,0.8-0.6,1.9-1,2.6l-1.7,3.1h4v-1.3h-1.8l1.3-2.4c0.4-0.7,0.6-1.3,0.6-2c0-1.3-0.8-1.9-2-1.9c-1.6,0-2,0.9-2,2.3v0.4L603.5,831.2
	L603.5,831.2z"/>
<path id="FuturaStd-CondensedBold-30_8_" class="st1" d="M608.9,828.5c-1.8,0-2.1,2.6-2.1,3.9c0,1.3,0.3,3.9,2.1,3.9
	s2.1-2.6,2.1-3.9C611,831,610.7,828.5,608.9,828.5z M608.9,829.8c0.7,0,0.7,2,0.7,2.5s0.1,2.5-0.7,2.5s-0.7-2-0.7-2.5
	C608.2,831.9,608.2,829.8,608.9,829.8z"/>
<path id="FuturaStd-CondensedBold-31" class="st1" d="M612.5,828.6v1.3h0.7v6.2h1.5v-7.5H612.5z"/>
<path id="FuturaStd-CondensedBold-30_9_" class="st1" d="M618.7,828.5c-1.8,0-2.1,2.6-2.1,3.9c0,1.3,0.3,3.9,2.1,3.9
	s2.1-2.6,2.1-3.9C620.8,831,620.5,828.5,618.7,828.5z M618.7,829.8c0.7,0,0.7,2,0.7,2.5s0.1,2.5-0.7,2.5c-0.7,0-0.7-2-0.7-2.5
	C618,831.9,618,829.8,618.7,829.8z"/>
<path id="FuturaStd-CondensedBold-32_5_" class="st1" d="M679.6,831.2v-0.5c0-0.4,0-1.2,0.6-1.2c0.5,0,0.6,0.5,0.6,0.9
	c0,0.8-0.6,1.9-1,2.6l-1.7,3.1h4v-1.3h-1.8l1.3-2.4c0.3-0.7,0.6-1.3,0.6-2c0-1.3-0.8-1.9-2-1.9c-1.6,0-2,0.9-2,2.3v0.4L679.6,831.2
	L679.6,831.2z"/>
<path id="FuturaStd-CondensedBold-30_10_" class="st1" d="M685,828.5c-1.8,0-2.1,2.6-2.1,3.9c0,1.3,0.3,3.9,2.1,3.9s2.1-2.6,2.1-3.9
	C687.1,831,686.8,828.5,685,828.5z M685,829.8c0.7,0,0.7,2,0.7,2.5s0.1,2.5-0.7,2.5c-0.7,0-0.7-2-0.7-2.5
	C684.3,831.9,684.3,829.8,685,829.8z"/>
<path id="FuturaStd-CondensedBold-31_1_" class="st1" d="M688.6,828.6v1.3h0.7v6.2h1.5v-7.5H688.6z"/>
<path id="FuturaStd-CondensedBold-31_2_" class="st1" d="M693.5,828.6v1.3h0.7v6.2h1.5v-7.5H693.5z"/>
<path id="FuturaStd-CondensedBold-32_6_" class="st1" d="M755.7,831.2v-0.5c0-0.4,0-1.2,0.6-1.2c0.5,0,0.6,0.5,0.6,0.9
	c0,0.8-0.6,1.9-1,2.6l-1.7,3.1h4v-1.3h-1.8l1.3-2.4c0.3-0.7,0.6-1.3,0.6-2c0-1.3-0.8-1.9-2-1.9c-1.6,0-2,0.9-2,2.3v0.4L755.7,831.2
	L755.7,831.2z"/>
<path id="FuturaStd-CondensedBold-30_11_" class="st1" d="M761.1,828.5c-1.8,0-2.1,2.6-2.1,3.9c0,1.3,0.3,3.9,2.1,3.9
	s2.1-2.6,2.1-3.9C763.2,831,762.9,828.5,761.1,828.5z M761.1,829.8c0.7,0,0.7,2,0.7,2.5s0.1,2.5-0.7,2.5c-0.7,0-0.7-2-0.7-2.5
	C760.4,831.9,760.4,829.8,761.1,829.8z"/>
<path id="FuturaStd-CondensedBold-31_3_" class="st1" d="M764.7,828.6v1.3h0.7v6.2h1.5v-7.5H764.7z"/>
<path id="FuturaStd-CondensedBold-32_7_" class="st1" d="M770.4,831.2v-0.5c0-0.4,0-1.2,0.6-1.2c0.5,0,0.6,0.5,0.6,0.9
	c0,0.8-0.6,1.9-1,2.6l-1.7,3.1h4v-1.3h-1.8l1.3-2.4c0.3-0.7,0.6-1.3,0.6-2c0-1.3-0.8-1.9-2-1.9c-1.6,0-2,0.9-2,2.3v0.4L770.4,831.2
	L770.4,831.2z"/>
<path id="FuturaStd-CondensedBold-32_8_" class="st1" d="M831.7,831.2v-0.5c0-0.4,0-1.2,0.6-1.2c0.5,0,0.6,0.5,0.6,0.9
	c0,0.8-0.6,1.9-1,2.6l-1.7,3.1h4v-1.3h-1.8l1.3-2.4c0.3-0.7,0.6-1.3,0.6-2c0-1.3-0.8-1.9-2-1.9c-1.6,0-2,0.9-2,2.3v0.4L831.7,831.2
	L831.7,831.2z"/>
<path id="FuturaStd-CondensedBold-30_12_" class="st1" d="M837.2,828.5c-1.8,0-2.1,2.6-2.1,3.9c0,1.3,0.3,3.9,2.1,3.9
	s2.1-2.6,2.1-3.9C839.3,831,839,828.5,837.2,828.5z M837.2,829.8c0.7,0,0.7,2,0.7,2.5s0.1,2.5-0.7,2.5c-0.7,0-0.7-2-0.7-2.5
	C836.5,831.9,836.5,829.8,837.2,829.8z"/>
<path id="FuturaStd-CondensedBold-31_4_" class="st1" d="M840.7,828.6v1.3h0.7v6.2h1.5v-7.5H840.7z"/>
<path id="FuturaStd-CondensedBold-33" class="st1" d="M846.3,834.2h-1.4c-0.1,1.3,0.7,2.1,2,2.1c1.4,0,2.2-0.8,2.2-2.2
	c0-0.8-0.3-1.6-1.2-1.8l0,0c0.7-0.3,0.9-1.1,0.9-1.8c0-1.2-0.7-2-1.9-2c-1.4,0-1.8,1-1.8,2.2h1.3v-0.2c0-0.3,0.1-0.8,0.5-0.8
	s0.5,0.4,0.5,0.8c0,0.8-0.3,1-1.1,1v1.3c0.8,0,1.1,0.2,1.1,1.1c0,0.4,0,1.1-0.7,1.1c-0.4,0-0.6-0.3-0.6-0.6L846.3,834.2z"/>
<path id="FuturaStd-CondensedBold-32_9_" class="st1" d="M907.8,831.2v-0.5c0-0.4,0-1.2,0.6-1.2c0.5,0,0.6,0.5,0.6,0.9
	c0,0.8-0.6,1.9-1,2.6l-1.7,3.1h4v-1.3h-1.8l1.3-2.4c0.3-0.7,0.6-1.3,0.6-2c0-1.3-0.8-1.9-2-1.9c-1.6,0-2,0.9-2,2.3v0.4L907.8,831.2
	L907.8,831.2z"/>
<path id="FuturaStd-CondensedBold-30_13_" class="st1" d="M913.3,828.5c-1.8,0-2.1,2.6-2.1,3.9c0,1.3,0.3,3.9,2.1,3.9
	s2.1-2.6,2.1-3.9C915.4,831,915.1,828.5,913.3,828.5z M913.3,829.8c0.7,0,0.7,2,0.7,2.5s0.1,2.5-0.7,2.5c-0.7,0-0.7-2-0.7-2.5
	C912.6,831.9,912.5,829.8,913.3,829.8z"/>
<path id="FuturaStd-CondensedBold-31_5_" class="st1" d="M916.8,828.6v1.3h0.7v6.2h1.5v-7.5H916.8z"/>
<path id="FuturaStd-CondensedBold-34" class="st1" d="M922.9,828.6l-2,4.6v1.1h2.2v1.8h1.4v-1.8h0.6v-1.1h-0.6v-4.6H922.9z
	 M923.1,833.2H922l1.1-2.9l0,0V833.2z"/>
<path id="FuturaStd-CondensedBold-32_10_" class="st1" d="M983.9,831.2v-0.5c0-0.4,0-1.2,0.6-1.2c0.5,0,0.6,0.5,0.6,0.9
	c0,0.8-0.6,1.9-1,2.6l-1.7,3.1h4v-1.3h-1.8l1.3-2.4c0.3-0.7,0.6-1.3,0.6-2c0-1.3-0.8-1.9-2-1.9c-1.6,0-2,0.9-2,2.3v0.4L983.9,831.2
	L983.9,831.2z"/>
<path id="FuturaStd-CondensedBold-30_14_" class="st1" d="M989.4,828.5c-1.8,0-2.1,2.6-2.1,3.9c0,1.3,0.3,3.9,2.1,3.9
	s2.1-2.6,2.1-3.9C991.5,831,991.2,828.5,989.4,828.5z M989.4,829.8c0.7,0,0.7,2,0.7,2.5s0.1,2.5-0.7,2.5c-0.7,0-0.7-2-0.7-2.5
	C988.7,831.9,988.6,829.8,989.4,829.8z"/>
<path id="FuturaStd-CondensedBold-31_6_" class="st1" d="M992.9,828.6v1.3h0.7v6.2h1.5v-7.5H992.9z"/>
<path id="FuturaStd-CondensedBold-35" class="st1" d="M997.5,832.3c0.2,0,0.4-0.1,0.6-0.1c0.9,0,1.5,0.4,1.5,1.3
	c0,0.7-0.4,1.4-1.2,1.4c-0.3,0-0.7-0.1-0.9-0.4l-0.2,1.3c0.5,0.2,0.9,0.3,1.5,0.3c1.7,0,2.5-1,2.5-2.7c0-1.5-0.7-2.4-2.2-2.5
	l0.2-1.2h1.8v-1.3h-2.9L997.5,832.3z"/>
<path id="FuturaStd-CondensedBold-32_11_" class="st1" d="M1060,831.2v-0.5c0-0.4,0-1.2,0.6-1.2c0.5,0,0.6,0.5,0.6,0.9
	c0,0.8-0.6,1.9-1,2.6l-1.7,3.1h4v-1.3h-1.8l1.3-2.4c0.3-0.7,0.6-1.3,0.6-2c0-1.3-0.8-1.9-2-1.9c-1.6,0-2,0.9-2,2.3v0.4L1060,831.2
	L1060,831.2z"/>
<path id="FuturaStd-CondensedBold-30_15_" class="st1" d="M1065.5,828.5c-1.8,0-2.1,2.6-2.1,3.9c0,1.3,0.3,3.9,2.1,3.9
	c1.8,0,2.1-2.6,2.1-3.9C1067.6,831,1067.3,828.5,1065.5,828.5z M1065.5,829.8c0.7,0,0.7,2,0.7,2.5s0.1,2.5-0.7,2.5s-0.7-2-0.7-2.5
	C1064.8,831.9,1064.7,829.8,1065.5,829.8z"/>
<path id="FuturaStd-CondensedBold-31_7_" class="st1" d="M1069,828.6v1.3h0.7v6.2h1.5v-7.5H1069z"/>
<path id="FuturaStd-CondensedBold-36_1_" class="st1" d="M1074.9,828.6l-0.6,1.3c-0.6,1.2-1.1,2.4-1.1,3.7s0.6,2.7,2.1,2.7
	c1.6,0,2.1-1.4,2.1-2.8c0-0.9-0.4-2.3-1.5-2.3c-0.4,0-0.7,0.2-0.9,0.4l0,0l1.4-2.9h-1.5V828.6z M1075.3,832.5c0.5,0,0.6,0.8,0.6,1.2
	s-0.1,1.3-0.6,1.3s-0.6-0.9-0.6-1.2C1074.6,833.4,1074.7,832.5,1075.3,832.5z"/>
<g>
	<g>
		<defs>
			<rect id="SVGID_1_" x="269" y="270.2" width="837" height="554.4"/>
		</defs>
		<clipPath id="SVGID_2_">
			<use xlink:href="#SVGID_1_"  style="overflow:visible;"/>
		</clipPath>
		<path class="st2" d="M269,824.6h837"/>
	</g>
</g>
<path id="FuturaStd-CondensedBold-30_16_" class="st1" d="M263,820.9c-1.8,0-2.1,2.6-2.1,3.9c0,1.3,0.3,3.9,2.1,3.9
	c1.8,0,2.1-2.6,2.1-3.9S264.8,820.9,263,820.9z M263,822.3c0.7,0,0.7,2,0.7,2.5s0.1,2.5-0.7,2.5s-0.7-2-0.7-2.5
	S262.3,822.3,263,822.3z"/>
<g>
	<g>
		<defs>
			<rect id="SVGID_3_" x="269" y="270.2" width="837" height="554.4"/>
		</defs>
		<clipPath id="SVGID_4_">
			<use xlink:href="#SVGID_3_"  style="overflow:visible;"/>
		</clipPath>
		<path class="st3" d="M269,743.7h837"/>
	</g>
</g>
<path id="FuturaStd-CondensedBold-31_8_" class="st1" d="M256.8,740.2v1.3h0.7v6.2h1.4v-7.5H256.8z"/>
<path id="FuturaStd-CondensedBold-30_17_" class="st1" d="M263,740.1c-1.8,0-2.1,2.6-2.1,3.9c0,1.3,0.3,3.9,2.1,3.9
	c1.8,0,2.1-2.6,2.1-3.9C265.1,742.6,264.8,740.1,263,740.1z M263,741.4c0.7,0,0.7,2,0.7,2.5s0.1,2.5-0.7,2.5c-0.7,0-0.7-2-0.7-2.5
	C262.3,743.5,262.3,741.4,263,741.4z"/>
<g>
	<g>
		<defs>
			<rect id="SVGID_5_" x="269" y="270.2" width="837" height="554.4"/>
		</defs>
		<clipPath id="SVGID_6_">
			<use xlink:href="#SVGID_5_"  style="overflow:visible;"/>
		</clipPath>
		<path class="st4" d="M269,662.8h837"/>
	</g>
</g>
<path id="FuturaStd-CondensedBold-32_12_" class="st1" d="M257.6,661.9v-0.5c0-0.4,0-1.2,0.6-1.2c0.5,0,0.6,0.5,0.6,0.9
	c0,0.8-0.6,1.8-1,2.6l-1.7,3.1h4v-1.3h-1.8l1.3-2.4c0.4-0.7,0.6-1.3,0.6-2c0-1.3-0.8-1.9-2-1.9c-1.6,0-2,0.9-2,2.3v0.4L257.6,661.9
	L257.6,661.9z"/>
<path id="FuturaStd-CondensedBold-30_18_" class="st1" d="M263,659.2c-1.8,0-2.1,2.6-2.1,3.9c0,1.3,0.3,3.9,2.1,3.9
	c1.8,0,2.1-2.6,2.1-3.9C265.1,661.7,264.8,659.2,263,659.2z M263,660.5c0.7,0,0.7,2,0.7,2.5s0.1,2.5-0.7,2.5c-0.7,0-0.7-2-0.7-2.5
	C262.3,662.6,262.3,660.5,263,660.5z"/>
<path id="FuturaStd-CondensedBold-33_1_" class="st1" d="M257.4,584H256c-0.1,1.3,0.7,2.1,2,2.1c1.4,0,2.2-0.8,2.2-2.2
	c0-0.8-0.3-1.6-1.2-1.8l0,0c0.7-0.3,0.9-1.1,0.9-1.8c0-1.2-0.7-2-1.9-2c-1.4,0-1.8,1-1.8,2.2h1.3v-0.2c0-0.3,0.1-0.8,0.5-0.8
	s0.5,0.4,0.5,0.8c0,0.8-0.3,1-1.1,1v1.3c0.8,0,1.1,0.2,1.1,1c0,0.5,0,1.1-0.6,1.1c-0.4,0-0.6-0.3-0.6-0.6L257.4,584z"/>
<path id="FuturaStd-CondensedBold-30_19_" class="st1" d="M263,578.3c-1.8,0-2.1,2.6-2.1,3.9c0,1.3,0.3,3.9,2.1,3.9
	c1.8,0,2.1-2.6,2.1-3.9C265.1,580.9,264.8,578.3,263,578.3z M263,579.7c0.7,0,0.7,2,0.7,2.5s0.1,2.5-0.7,2.5c-0.7,0-0.7-2-0.7-2.5
	S262.3,579.7,263,579.7z"/>
<g>
	<g>
		<defs>
			<rect id="SVGID_7_" x="269" y="270.2" width="837" height="554.4"/>
		</defs>
		<clipPath id="SVGID_8_">
			<use xlink:href="#SVGID_7_"  style="overflow:visible;"/>
		</clipPath>
		<path class="st5" d="M269,501h837"/>
	</g>
</g>
<path id="FuturaStd-CondensedBold-34_1_" class="st1" d="M257.9,497.5l-2,4.6v1.1h2.2v1.8h1.5v-1.8h0.6v-1.1h-0.6v-4.6H257.9z
	 M258.1,502.1H257l1.1-2.9l0,0V502.1z"/>
<path id="FuturaStd-CondensedBold-30_20_" class="st1" d="M263,497.4c-1.8,0-2.1,2.6-2.1,3.9s0.3,3.9,2.1,3.9c1.8,0,2.1-2.6,2.1-3.9
	S264.8,497.4,263,497.4z M263,498.8c0.7,0,0.7,2,0.7,2.5s0.1,2.5-0.7,2.5c-0.7,0-0.7-2-0.7-2.5S262.3,498.8,263,498.8z"/>
<g>
	<g>
		<defs>
			<rect id="SVGID_9_" x="269" y="270.2" width="837" height="554.4"/>
		</defs>
		<clipPath id="SVGID_10_">
			<use xlink:href="#SVGID_9_"  style="overflow:visible;"/>
		</clipPath>
		<path class="st6" d="M269,420.2h837"/>
	</g>
</g>
<g>
	<g>
		<defs>
			<rect id="SVGID_11_" x="268.6" y="432.7" width="837" height="554.4"/>
		</defs>
		<clipPath id="SVGID_12_">
			<use xlink:href="#SVGID_11_"  style="overflow:visible;"/>
		</clipPath>
		<path class="st7" d="M268.6,582.7h837"/>
	</g>
</g>
<path id="FuturaStd-CondensedBold-35_1_" class="st1" d="M256.4,420.4c0.2,0,0.4-0.1,0.6-0.1c0.9,0,1.5,0.4,1.5,1.3
	c0,0.7-0.4,1.4-1.2,1.4c-0.3,0-0.7-0.1-0.9-0.4l-0.2,1.3c0.5,0.2,0.9,0.3,1.4,0.3c1.7,0,2.5-1,2.5-2.6c0-1.5-0.7-2.4-2.2-2.5
	l0.2-1.2h1.8v-1.3H257L256.4,420.4z"/>
<path id="FuturaStd-CondensedBold-30_21_" class="st1" d="M263,416.5c-1.8,0-2.1,2.6-2.1,3.9s0.3,3.9,2.1,3.9c1.8,0,2.1-2.6,2.1-3.9
	S264.8,416.5,263,416.5z M263,417.9c0.7,0,0.7,2,0.7,2.5s0.1,2.5-0.7,2.5c-0.7,0-0.7-2-0.7-2.5S262.3,417.9,263,417.9z"/>
<g>
	<g>
		<defs>
			<rect id="SVGID_13_" x="269" y="270.2" width="837" height="554.4"/>
		</defs>
		<clipPath id="SVGID_14_">
			<use xlink:href="#SVGID_13_"  style="overflow:visible;"/>
		</clipPath>
		<path class="st8" d="M269,339.3h837"/>
	</g>
</g>
<path id="FuturaStd-CondensedBold-36_2_" class="st1" d="M257.7,335.8l-0.6,1.3c-0.6,1.2-1.1,2.4-1.1,3.7c0,1.3,0.6,2.6,2.1,2.6
	c1.6,0,2.1-1.4,2.1-2.8c0-0.9-0.4-2.3-1.5-2.3c-0.4,0-0.7,0.2-0.9,0.4l0,0l1.4-2.9L257.7,335.8L257.7,335.8z M258.2,339.7
	c0.5,0,0.6,0.8,0.6,1.2c0,0.4-0.1,1.3-0.6,1.3s-0.6-0.9-0.6-1.2C257.5,340.6,257.6,339.7,258.2,339.7z"/>
<path id="FuturaStd-CondensedBold-30_22_" class="st1" d="M263,335.7c-1.8,0-2.1,2.6-2.1,3.9s0.3,3.9,2.1,3.9c1.8,0,2.1-2.6,2.1-3.9
	S264.8,335.7,263,335.7z M263,337c0.7,0,0.7,2,0.7,2.5s0.1,2.5-0.7,2.5c-0.7,0-0.7-2-0.7-2.5C262.3,339.1,262.3,337,263,337z"/>
<g>
	<g>
		<defs>
			<rect id="SVGID_15_" x="269" y="270.2" width="837" height="554.4"/>
		</defs>
		<clipPath id="SVGID_16_">
			<use xlink:href="#SVGID_15_"  style="overflow:visible;"/>
		</clipPath>
		<path class="st9" d="M307,576.9l76.1,28.1l76.1-97.4l76.1,224.9l76.1-238l76.1-102.3l76.1,98.9l76.1-18.8l76.1-45l76.1-92.8
			l76.1-42.2"/>
	</g>
</g>
<g>
	<g>
		<defs>
			<rect id="SVGID_17_" x="269" y="270.2" width="837" height="554.4"/>
		</defs>
		<clipPath id="SVGID_18_">
			<use xlink:href="#SVGID_17_"  style="overflow:visible;"/>
		</clipPath>
		<path class="st10" d="M307,625.9l76.1-9.3l76.1,54l76.1-21.8l76.1-21.1l76.1,23l76.1,18.6l76.1-33l76.1,28.4l76.1,8.4l76.1-12.6"
			/>
	</g>
</g>
<path class="st11" d="M269,824.6V270.2"/>
<path class="st11" d="M1106,824.6V270.2"/>
<path class="st11" d="M269,824.6h837"/>
<path class="st11" d="M269,270.2h837"/>
<rect x="157.9" y="555.1" class="st12" width="68.7" height="59.3"/>
<text transform="matrix(1 0 0 1 157.89 568.3425)" class="st1 st13 st14 st15">Overdose</text>
<text transform="matrix(1 0 0 1 221.89 568.3425)" class="st1 st13 st14">s </text>
<text transform="matrix(1 0 0 1 169.29 587.5425)" class="st1 st13 st14">per 100k </text>
<text transform="matrix(1 0 0 1 165.19 606.7426)" class="st1 st13 st14">population</text>
<polygon class="st12" points="267.2,124.9 1104.2,124.9 1102.2,189.4 267.2,189.4 "/>
<text transform="matrix(1 0 0 1 282.6618 171.116)" class="st16 st17">Drug overdoses in West Virginia</text>
<path d="M246.9,198.4c0.8,0,1.8,0,2.4,0c-0.1,0.4-0.4,1.7-0.5,2.6h-0.3c-0.1-0.6-0.1-1.2-0.3-1.6c-0.2-0.4-0.5-0.6-1.7-0.6h-1.2
	c-0.6,0-0.7,0.1-0.8,0.6l-0.8,4.3h1.7c1.5,0,1.7-0.3,2.3-1.5h0.3l-0.8,3.6H247c-0.1-1.4-0.2-1.6-1.7-1.6h-1.7l-0.6,3.5
	c-0.3,1.7-0.2,1.8,1.4,2l-0.1,0.3H239l0.1-0.3c1.3-0.2,1.4-0.3,1.8-2l1.4-7.1c0.3-1.7,0.3-1.8-1.2-2.1l0.1-0.3h5.7V198.4z"/>
<path d="M255.9,204.9c0,1.9-0.9,3.9-2.6,4.8c-0.6,0.4-1.3,0.6-2.1,0.6c-1.9,0-2.4-1.3-2.4-2.6c0-2.3,1.3-4.2,2.9-5
	c0.6-0.3,1.2-0.5,1.9-0.5C255.2,202.3,255.9,203.4,255.9,204.9z M250.8,207.7c0,1.5,0.5,2.1,1.1,2.1c1.6,0,2-3.7,2-4.9
	c0-1.5-0.5-2.1-1-2.1C251.4,202.8,250.8,206.4,250.8,207.7z"/>
<path d="M257.1,204.1c1-1.3,2.1-1.8,2.6-1.8c0.7,0,0.6,0.8,0.3,2.4l-0.1,0.6c0.6-1.3,1.7-3,2.7-3c0.5,0,0.8,0.4,0.8,0.9
	s-0.5,1.2-0.8,1.4c-0.1,0.1-0.3,0.1-0.3,0c-0.2-0.3-0.6-0.5-0.9-0.5c-0.4,0-1,1.3-1.3,1.9c-0.5,1.1-0.8,3-1.1,4.1
	c-0.6,0.1-1.4,0.2-1.8,0.4l-0.1-0.1c0.5-1.9,0.9-4,1.2-5.2c0.2-1,0.2-1.3,0-1.3c-0.3,0-0.7,0.5-1,0.7L257.1,204.1z"/>
<path d="M274.2,208.5c-1,1.3-2.1,1.9-2.7,1.9c-0.5,0-0.7-0.5-0.4-2l0.1-0.8c-0.6,0.9-1.1,1.4-1.7,2s-1.2,0.9-1.8,0.9
	c-0.7,0-1.2-0.9-1.2-2.1c0-1.7,0.8-3.4,1.9-4.5c0.7-0.7,2.1-1.5,3.5-1.5c0.8,0,1.7,0.2,2.1,0.3c-0.4,1.5-0.8,3.6-1.2,5.7
	c-0.1,0.5,0,0.6,0.1,0.6s0.5-0.1,1-0.7L274.2,208.5z M270.8,207.5c0.4-0.5,0.5-1,0.7-1.6c0.2-0.8,0.5-2.1,0.6-2.7
	c-0.3-0.1-0.6-0.3-1.2-0.3c-1.5,0-2.3,3.2-2.3,5c0,0.8,0.2,1.1,0.5,1.1C269.5,209,269.9,208.7,270.8,207.5z"/>
<path d="M278.7,208.4c-1,1.3-2.1,1.9-2.7,1.9s-0.8-0.5-0.5-1.8c0.6-3,1.3-6.4,1.8-9.3c0.2-0.8,0.1-0.8-0.7-1c-0.1,0-0.2,0-0.3-0.1
	l0.1-0.2c0.9-0.1,1.9-0.3,2.4-0.5c0.3-0.1,0.5-0.2,0.6-0.2s0.1,0.2,0,0.7c-0.7,3.3-1.4,6.8-2.1,10.2c-0.1,0.5-0.1,0.6,0.1,0.6
	c0.1,0,0.5-0.2,1.1-0.8L278.7,208.4z"/>
<path d="M283.1,208.4c-1,1.3-2.1,1.9-2.7,1.9s-0.8-0.5-0.5-1.8c0.6-3,1.3-6.4,1.8-9.3c0.2-0.8,0.1-0.8-0.7-1c-0.1,0-0.2,0-0.3-0.1
	l0.1-0.2c0.9-0.1,1.9-0.3,2.4-0.5c0.3-0.1,0.5-0.2,0.6-0.2s0.1,0.2,0,0.7c-0.7,3.3-1.4,6.8-2.1,10.2c-0.1,0.5-0.1,0.6,0.1,0.6
	c0.1,0,0.5-0.2,1.1-0.8L283.1,208.4z"/>
<path d="M288.3,198c0.9-0.1,2-0.3,2.5-0.5c0.3-0.1,0.5-0.2,0.6-0.2s0.1,0.2,0,0.7c-0.5,2.1-1,4.4-1.5,6.7c1.2-1.5,2.5-2.4,3.4-2.4
	s1.3,0.8,1.3,2c0,1.8-1.1,3.9-2.6,5c-1,0.7-2.1,1.1-2.8,1.1s-1.3-0.3-1.6-0.8s-0.3-1.2-0.1-2.2c0.5-2.7,1.1-5.2,1.6-7.9
	c0.2-1.1,0-1.2-0.7-1.3c-0.1,0-0.1,0-0.2,0L288.3,198z M292.6,204.7c0-0.7-0.2-1.2-0.6-1.2c-0.3,0-1,0.3-1.7,1.3
	c-0.6,0.8-0.8,1.7-1,2.6c-0.3,1.8,0.2,2.3,0.8,2.3C292,209.7,292.6,206.1,292.6,204.7z"/>
<path d="M303.5,208.5c-1,1.3-2.1,1.9-2.7,1.9c-0.5,0-0.8-0.4-0.5-1.7c0.1-0.5,0.2-0.9,0.3-1.4c-1,1.4-1.9,2.3-2.5,2.7
	c-0.4,0.3-0.8,0.4-1.2,0.4c-0.7,0-1.3-0.4-0.8-2.6c0.2-1,0.6-2.3,0.8-3.3c0.1-0.6,0.2-0.8-0.1-0.8c-0.2,0-0.7,0.4-1,0.7l-0.2-0.3
	c0.8-1,2-1.8,2.7-1.8c0.6,0,0.7,0.6,0.4,2.1c-0.3,1.3-0.6,2.3-0.8,3.5c-0.2,0.9,0.1,1,0.2,1c0.5,0,1.2-0.7,1.8-1.7
	c0.4-0.5,0.8-1.2,1-2.1c0.2-0.8,0.3-1.5,0.6-2.4c0.6-0.1,1.2-0.3,1.9-0.5h0.1c-0.4,1.9-0.9,3.9-1.3,6c-0.1,0.5-0.1,0.7,0.1,0.7
	c0.1,0,0.5-0.2,1-0.7L303.5,208.5z"/>
<path d="M309.7,203c-0.6,0-1.1,0-1.6,0c-0.4,1.9-1,4.7-1,4.9c-0.1,0.8-0.1,1.1,0.1,1.1c0.4,0,0.8-0.3,1.4-0.9l0.2,0.2
	c-0.6,0.9-1.8,2-2.9,2c-0.7,0-1.1-0.6-0.6-2.7l1-4.6H305v-0.1l0.4-0.5h1l0.4-1.9c0.6-0.2,1.4-0.7,2-1.1l0.1,0.1
	c-0.2,0.8-0.5,1.9-0.7,2.9h1.7L309.7,203z"/>
<path d="M318,203c-0.6,0-1.1,0-1.6,0c-0.4,1.9-1,4.7-1,4.9c-0.1,0.8-0.1,1.1,0.1,1.1c0.4,0,0.8-0.3,1.4-0.9l0.2,0.2
	c-0.6,0.9-1.8,2-2.9,2c-0.7,0-1.1-0.6-0.6-2.7l1-4.6h-1.3v-0.1l0.4-0.5h1l0.4-1.9c0.6-0.2,1.4-0.7,2-1.1l0.1,0.1
	c-0.2,0.8-0.5,1.9-0.7,2.9h1.7L318,203z"/>
<path d="M317.8,204.2c0.7-1,1.9-1.9,2.5-1.9s0.8,0.6,0.8,2.2c0,1.2,0.1,2.4,0.1,3.1c1-1.4,2-3.2,3-5h0.3c0.3,2.1,0.5,3.9,0.8,5.6
	c1.1-1.5,1.8-2.6,1.8-3.6c0-0.4-0.1-0.6-0.3-1.1c-0.1-0.1-0.1-0.2-0.1-0.3c0.1-0.4,0.7-0.9,1.2-0.9s0.7,0.4,0.7,1.1
	c0,0.5-0.2,1-0.6,1.7c-0.7,1.1-3.1,4.3-3.9,5.2h-0.4c-0.2-1.5-0.5-3.3-0.7-4.9c-0.9,1.5-2.3,3.5-3.2,4.9h-0.3
	c-0.1-1.2-0.1-3.7-0.3-5.3c-0.1-0.8-0.2-1.4-0.4-1.4c-0.2,0-0.5,0.3-0.9,0.7L317.8,204.2z"/>
<path d="M336.2,204.9c0,1.9-0.9,3.9-2.6,4.8c-0.6,0.4-1.3,0.6-2.1,0.6c-1.9,0-2.4-1.3-2.4-2.6c0-2.3,1.3-4.2,2.9-5
	c0.6-0.3,1.2-0.5,1.9-0.5C335.4,202.3,336.2,203.4,336.2,204.9z M331.1,207.7c0,1.5,0.5,2.1,1.1,2.1c1.6,0,2-3.7,2-4.9
	c0-1.5-0.5-2.1-1-2.1C331.6,202.8,331.1,206.4,331.1,207.7z"/>
<path d="M340.3,204.2c0.6-1,1.7-1.9,2.4-1.9c0.7,0,1,0.9,1.1,2.4c0.1,1.1,0.2,3.1,0.3,4.3c0.6-0.9,2.1-3.3,2.1-4.4
	c0-0.6-0.4-1.1-0.4-1.2c-0.1-0.2,0-0.4,0.2-0.6c0.2-0.2,0.6-0.5,0.9-0.5c0.4,0,0.7,0.4,0.7,1c0,0.5-0.2,1.3-0.7,2.2
	c-1.7,2.8-3.6,5.7-6.3,8.9l-2.1,0.6l-0.1-0.3c1.6-1,3.3-2.7,4.1-3.8c0-0.6-0.2-3.8-0.4-5.6c-0.2-1.2-0.3-1.7-0.6-1.7
	c-0.2,0-0.5,0.2-0.9,0.7L340.3,204.2z"/>
<path d="M350,210.4c-0.9,0-2-0.5-2-2.5c0-1.7,0.7-3.4,1.9-4.4c0.7-0.6,1.8-1.1,2.6-1.1c1,0,1.4,0.6,1.4,1.4c0,1.6-2.5,2.4-4,2.7
	c0,0.3,0,0.5,0,0.6c0,1.2,0.3,2.1,1.3,2.1c0.7,0,1.4-0.3,2.2-1.2l0.2,0.3C352.3,209.9,350.9,210.4,350,210.4z M350.1,206
	c1.8-0.3,2.3-1.3,2.3-2.2c0-0.5-0.2-0.9-0.6-0.9C351.1,202.9,350.4,203.7,350.1,206z"/>
<path d="M362.3,208.5c-1,1.3-2.1,1.9-2.7,1.9c-0.5,0-0.7-0.5-0.4-2l0.1-0.8c-0.6,0.9-1.1,1.4-1.7,2s-1.2,0.9-1.8,0.9
	c-0.7,0-1.2-0.9-1.2-2.1c0-1.7,0.8-3.4,1.9-4.5c0.7-0.7,2.1-1.5,3.5-1.5c0.8,0,1.7,0.2,2.1,0.3c-0.4,1.5-0.8,3.6-1.2,5.7
	c-0.1,0.5,0,0.6,0.1,0.6s0.5-0.1,1-0.7L362.3,208.5z M358.9,207.5c0.4-0.5,0.5-1,0.7-1.6c0.2-0.8,0.5-2.1,0.6-2.7
	c-0.3-0.1-0.6-0.3-1.2-0.3c-1.5,0-2.3,3.2-2.3,5c0,0.8,0.2,1.1,0.5,1.1C357.6,209,358.1,208.7,358.9,207.5z"/>
<path d="M363.4,204.1c1-1.3,2.1-1.8,2.6-1.8c0.7,0,0.6,0.8,0.3,2.4l-0.1,0.6c0.6-1.3,1.7-3,2.7-3c0.5,0,0.8,0.4,0.8,0.9
	s-0.5,1.2-0.8,1.4c-0.1,0.1-0.3,0.1-0.3,0c-0.2-0.3-0.6-0.5-0.9-0.5c-0.4,0-1,1.3-1.3,1.9c-0.5,1.1-0.8,3-1.1,4.1
	c-0.6,0.1-1.4,0.2-1.8,0.4l-0.1-0.1c0.5-1.9,0.9-4,1.2-5.2c0.2-1,0.2-1.3,0-1.3c-0.3,0-0.7,0.5-1,0.7L363.4,204.1z"/>
<path d="M374.7,203.3c0,0.3-0.4,0.8-0.7,1c-0.1,0.1-0.2,0.1-0.3-0.1c-0.4-0.5-0.9-1-1.5-1c-0.5,0-0.8,0.4-0.8,0.8
	c0,0.5,0.4,0.8,1.2,1.5c1.4,1.1,1.6,1.5,1.6,2.2c0,1.5-2.3,2.8-3.3,2.8c-0.8,0-1.8-0.6-1.8-1.3c0-0.3,0.4-0.9,0.8-0.9
	c0.1,0,0.2,0,0.3,0.1c0.7,0.8,1.3,1.2,1.9,1.2s0.9-0.4,0.9-0.8c0-0.4-0.3-0.7-1.1-1.4c-0.7-0.6-1.6-1.2-1.6-2.2c0-0.6,0.2-1.2,1.1-2
	c0.6-0.5,1.3-0.8,1.9-0.8C374,202.3,374.7,202.7,374.7,203.3z"/>
<path d="M374.4,211.8c0.8-0.3,1.8-0.9,1.8-1.8c0-0.5-0.4-0.8-0.8-0.9c-0.2-0.1-0.2-0.2-0.2-0.3c0-0.6,0.6-1.1,1.1-1.1
	c0.7,0,1.3,0.6,1.3,1.5c0,1.5-1.7,2.6-3.1,2.9L374.4,211.8z"/>
<path d="M389.8,208.4c-1,1.3-2.2,1.9-2.8,1.9c-0.6,0-0.8-0.4-0.5-1.9l0.2-0.9c-1.1,1.6-2.5,2.8-3.5,2.8c-0.7,0-1.3-0.6-1.3-2.1
	c0-1.7,0.7-3.6,1.9-4.6c0.9-0.8,2.4-1.3,3-1.3c0.2,0,0.5,0,0.9,0.1l0.6-3.1c0.1-0.8,0-0.8-0.7-0.9c-0.1,0-0.2,0-0.3-0.1l0.1-0.2
	c0.8-0.1,2-0.3,2.6-0.5c0.3-0.1,0.5-0.2,0.6-0.2s0.2,0.1,0.1,0.5c-0.7,3.3-1.6,7.4-2.2,10.4c-0.1,0.5,0,0.6,0.1,0.6s0.5-0.2,1.1-0.8
	L389.8,208.4z M386.6,207.1c0.3-0.4,0.4-0.9,0.5-1.5l0.5-2.3c-0.3-0.4-1-0.5-1.3-0.5c-1.5,0-2.3,3.5-2.3,5.1c0,0.8,0.2,1.1,0.5,1.1
	C385.1,209.1,385.9,208.3,386.6,207.1z"/>
<path d="M390.9,204.1c1-1.3,2.1-1.8,2.6-1.8c0.7,0,0.6,0.8,0.3,2.4l-0.1,0.6c0.6-1.3,1.7-3,2.7-3c0.5,0,0.8,0.4,0.8,0.9
	s-0.5,1.2-0.8,1.4c-0.1,0.1-0.3,0.1-0.3,0c-0.2-0.3-0.6-0.5-0.9-0.5c-0.4,0-1,1.3-1.3,1.9c-0.5,1.1-0.8,3-1.1,4.1
	c-0.6,0.1-1.4,0.2-1.8,0.4l-0.1-0.1c0.5-1.9,0.9-4,1.2-5.2c0.2-1,0.2-1.3,0-1.3c-0.3,0-0.7,0.5-1,0.7L390.9,204.1z"/>
<path d="M405.1,208.5c-1,1.3-2.1,1.9-2.7,1.9c-0.5,0-0.8-0.4-0.5-1.7c0.1-0.5,0.2-0.9,0.3-1.4c-1,1.4-1.9,2.3-2.5,2.7
	c-0.4,0.3-0.8,0.4-1.2,0.4c-0.7,0-1.3-0.4-0.8-2.6c0.2-1,0.6-2.3,0.8-3.3c0.1-0.6,0.2-0.8-0.1-0.8c-0.2,0-0.7,0.4-1,0.7l-0.2-0.3
	c0.8-1,2-1.8,2.7-1.8c0.6,0,0.7,0.6,0.4,2.1c-0.3,1.3-0.6,2.3-0.8,3.5c-0.2,0.9,0.1,1,0.2,1c0.5,0,1.2-0.7,1.8-1.7
	c0.4-0.5,0.8-1.2,1-2.1c0.2-0.8,0.3-1.5,0.6-2.4c0.6-0.1,1.2-0.3,1.9-0.5h0.1c-0.4,1.9-0.9,3.9-1.3,6c-0.1,0.5-0.1,0.7,0.1,0.7
	c0.1,0,0.5-0.2,1-0.7L405.1,208.5z"/>
<path d="M408.6,208.3c-0.1,0.1-0.2,0.3-0.2,0.5c0,0.3,0.4,0.5,1.5,1.1c1.7,0.9,2.4,1.5,2.4,2.3c0,1.7-2.7,2.9-4.6,2.9
	c-1.8,0-3.2-0.9-3.2-1.9c0-0.9,1.3-1.7,3-2.5c-0.4-0.3-0.7-0.6-0.7-0.9c0-0.4,0.6-0.9,1.4-1.5L408.6,208.3L408.6,208.3z
	 M410.6,213.2c0-0.5-0.3-0.8-0.8-1.2c-0.6-0.4-1.3-0.8-2.1-1.1c-0.9,0.6-1.5,1.2-1.5,1.9c0,1.1,1.2,1.6,2.3,1.6
	C409.8,214.4,410.6,213.9,410.6,213.2z M406.5,206.3c0-1.3,0.7-2.6,1.9-3.4c0.6-0.4,1.3-0.6,2-0.6c0.6,0,1.1,0.2,1.6,0.5
	c1,0,1.6-0.2,1.9-0.4l0.1,0.2c-0.6,0.9-1.3,1-1.6,1c0.1,0.2,0.1,0.5,0.1,0.8c0,1.4-0.8,2.4-1.4,2.9c-0.8,0.6-1.9,1-2.6,1
	C407.2,208.3,406.5,207.5,406.5,206.3z M410.7,204c0-0.7-0.2-1.2-0.7-1.2c-0.9,0-1.6,2.1-1.6,3.8c0,0.8,0.2,1.3,0.8,1.3
	C409.9,207.8,410.7,206.1,410.7,204z"/>
<path d="M423.8,204.9c0,1.9-0.9,3.9-2.6,4.8c-0.6,0.4-1.3,0.6-2.1,0.6c-1.9,0-2.4-1.3-2.4-2.6c0-2.3,1.3-4.2,2.9-5
	c0.6-0.3,1.2-0.5,1.9-0.5C423,202.3,423.8,203.4,423.8,204.9z M418.7,207.7c0,1.5,0.5,2.1,1.1,2.1c1.6,0,2-3.7,2-4.9
	c0-1.5-0.5-2.1-1-2.1C419.2,202.8,418.7,206.4,418.7,207.7z"/>
<path d="M424.5,204.2c0.7-0.9,1.8-1.9,2.5-1.9c0.5,0,0.7,0.7,0.8,2.4c0.1,1.4,0.1,2.4,0.2,3.6c0.7-0.8,2.2-2.6,2.2-3.6
	c0-0.5-0.1-0.8-0.3-1.1c-0.1-0.1-0.1-0.2,0-0.3c0.1-0.3,0.7-0.9,1.2-0.9c0.4,0,0.7,0.4,0.7,1c0,0.5-0.1,1.2-1,2.4
	c-1.1,1.5-3.3,3.9-4.1,4.6h-0.3c-0.1-1.5-0.1-3.3-0.3-5.1c-0.1-1-0.2-1.5-0.4-1.5c-0.1,0-0.4,0.1-0.9,0.7L424.5,204.2z"/>
<path d="M434.2,210.4c-0.9,0-2-0.5-2-2.5c0-1.7,0.7-3.4,1.9-4.4c0.7-0.6,1.8-1.1,2.6-1.1c1,0,1.4,0.6,1.4,1.4c0,1.6-2.5,2.4-4,2.7
	c0,0.3,0,0.5,0,0.6c0,1.2,0.3,2.1,1.3,2.1c0.7,0,1.4-0.3,2.2-1.2l0.2,0.3C436.5,209.9,435.1,210.4,434.2,210.4z M434.2,206
	c1.8-0.3,2.3-1.3,2.3-2.2c0-0.5-0.2-0.9-0.6-0.9C435.3,202.9,434.5,203.7,434.2,206z"/>
<path d="M439,204.1c1-1.3,2.1-1.8,2.6-1.8c0.7,0,0.6,0.8,0.3,2.4l-0.1,0.6c0.6-1.3,1.7-3,2.7-3c0.5,0,0.8,0.4,0.8,0.9
	s-0.5,1.2-0.8,1.4c-0.1,0.1-0.3,0.1-0.3,0c-0.2-0.3-0.6-0.5-0.9-0.5c-0.4,0-1,1.3-1.3,1.9c-0.5,1.1-0.8,3-1.1,4.1
	c-0.6,0.1-1.4,0.2-1.8,0.4l-0.1-0.1c0.5-1.9,0.9-4,1.2-5.2c0.2-1,0.2-1.3,0-1.3c-0.3,0-0.7,0.5-1,0.7L439,204.1z"/>
<path d="M453.1,208.4c-1,1.3-2.2,1.9-2.8,1.9s-0.8-0.4-0.5-1.9l0.2-0.9c-1.1,1.6-2.5,2.8-3.5,2.8c-0.7,0-1.3-0.6-1.3-2.1
	c0-1.7,0.7-3.6,1.9-4.6c0.9-0.8,2.4-1.3,3-1.3c0.2,0,0.5,0,0.9,0.1l0.6-3.1c0.1-0.8,0-0.8-0.7-0.9c-0.1,0-0.2,0-0.3-0.1l0.1-0.2
	c0.8-0.1,2-0.3,2.6-0.5c0.3-0.1,0.5-0.2,0.6-0.2s0.2,0.1,0.1,0.5c-0.7,3.3-1.6,7.4-2.2,10.4c-0.1,0.5,0,0.6,0.1,0.6s0.5-0.2,1.1-0.8
	L453.1,208.4z M449.9,207.1c0.3-0.4,0.4-0.9,0.5-1.5l0.5-2.3c-0.3-0.4-1-0.5-1.3-0.5c-1.5,0-2.3,3.5-2.3,5.1c0,0.8,0.2,1.1,0.5,1.1
	C448.4,209.1,449.2,208.3,449.9,207.1z"/>
<path d="M461.2,204.9c0,1.9-0.9,3.9-2.6,4.8c-0.6,0.4-1.3,0.6-2.1,0.6c-1.9,0-2.4-1.3-2.4-2.6c0-2.3,1.3-4.2,2.9-5
	c0.6-0.3,1.2-0.5,1.9-0.5C460.4,202.3,461.2,203.4,461.2,204.9z M456.1,207.7c0,1.5,0.5,2.1,1.1,2.1c1.6,0,2-3.7,2-4.9
	c0-1.5-0.5-2.1-1-2.1C456.6,202.8,456.1,206.4,456.1,207.7z"/>
<path d="M467.2,203.3c0,0.3-0.4,0.8-0.7,1c-0.1,0.1-0.2,0.1-0.3-0.1c-0.4-0.5-0.9-1-1.5-1c-0.5,0-0.8,0.4-0.8,0.8
	c0,0.5,0.4,0.8,1.2,1.5c1.4,1.1,1.6,1.5,1.6,2.2c0,1.5-2.3,2.8-3.3,2.8c-0.8,0-1.8-0.6-1.8-1.3c0-0.3,0.4-0.9,0.8-0.9
	c0.1,0,0.2,0,0.3,0.1c0.7,0.8,1.3,1.2,1.9,1.2c0.6,0,0.9-0.4,0.9-0.8c0-0.4-0.3-0.7-1.1-1.4c-0.7-0.6-1.6-1.2-1.6-2.2
	c0-0.6,0.2-1.2,1.1-2c0.6-0.5,1.3-0.8,1.9-0.8C466.5,202.3,467.2,202.7,467.2,203.3z"/>
<path d="M469.9,210.4c-0.9,0-2-0.5-2-2.5c0-1.7,0.7-3.4,1.9-4.4c0.7-0.6,1.8-1.1,2.6-1.1c1,0,1.4,0.6,1.4,1.4c0,1.6-2.5,2.4-4,2.7
	c0,0.3,0,0.5,0,0.6c0,1.2,0.3,2.1,1.3,2.1c0.7,0,1.4-0.3,2.2-1.2l0.2,0.3C472.2,209.9,470.8,210.4,469.9,210.4z M470,206
	c1.8-0.3,2.3-1.3,2.3-2.2c0-0.5-0.2-0.9-0.6-0.9C471,202.9,470.3,203.7,470,206z"/>
<path d="M479.6,203.3c0,0.3-0.4,0.8-0.7,1c-0.1,0.1-0.2,0.1-0.3-0.1c-0.4-0.5-0.9-1-1.5-1c-0.4,0-0.8,0.4-0.8,0.8
	c0,0.5,0.4,0.8,1.2,1.5c1.4,1.1,1.6,1.5,1.6,2.2c0,1.5-2.3,2.8-3.3,2.8c-0.8,0-1.8-0.6-1.8-1.3c0-0.3,0.4-0.9,0.8-0.9
	c0.1,0,0.2,0,0.3,0.1c0.7,0.8,1.3,1.2,1.9,1.2c0.6,0,0.9-0.4,0.9-0.8c0-0.4-0.3-0.7-1.1-1.4c-0.7-0.6-1.6-1.2-1.6-2.2
	c0-0.6,0.2-1.2,1.1-2c0.6-0.5,1.3-0.8,1.9-0.8C478.9,202.3,479.6,202.7,479.6,203.3z"/>
<path d="M487.1,208.5c-1,1.3-2.2,1.9-2.8,1.9s-0.8-0.6-0.4-1.9c0.4-1.6,0.6-2.6,1-4c0.1-0.6,0.1-0.8-0.1-0.8c-0.3,0-0.7,0.3-1,0.7
	l-0.2-0.3c0.8-1,2.1-1.8,2.8-1.8c0.6,0,0.6,0.6,0.3,2.1c-0.3,1.3-0.6,2.6-0.9,3.9c-0.1,0.5,0,0.7,0.1,0.7s0.5-0.2,1-0.7L487.1,208.5
	z M487.5,199.5c0,0.6-0.4,1.2-1,1.2c-0.5,0-0.8-0.3-0.8-0.9c0-0.5,0.4-1.2,1.1-1.2C487.3,198.6,487.5,199,487.5,199.5z"/>
<path d="M496.1,208.6c-1,1.3-2,1.8-2.7,1.8c-0.6,0-0.8-0.4-0.5-1.7s0.6-2.6,0.9-3.9c0.2-0.9,0.1-1.2-0.2-1.2c-0.7,0-1.7,1.3-2.3,2.2
	c-0.4,0.7-0.5,1.2-0.6,1.7c-0.2,0.8-0.4,1.9-0.5,2.6c-0.6,0.1-1.4,0.2-1.9,0.4l-0.1-0.1c0.3-1.5,0.9-3.7,1.3-5.8
	c0.1-0.6,0.1-0.8-0.1-0.8c-0.3,0-0.7,0.4-1,0.7l-0.2-0.3c0.8-1.1,2-1.8,2.6-1.8c0.7,0,0.7,0.6,0.4,2.1l-0.2,0.9c1.1-1.7,2.7-3,3.8-3
	c0.6,0,1.1,0.3,0.6,2.5c-0.3,1.2-0.5,2.3-0.8,3.5c-0.1,0.5-0.1,0.7,0.1,0.7c0.1,0,0.5-0.1,1-0.7L496.1,208.6z"/>
<path d="M516.5,198.7c-1.1,0.2-1.4,0.4-2.3,2.1c-1,1.9-2.4,4.8-4.8,9.6h-0.5l-1.3-8.4l-4.5,8.4h-0.4l-0.8-9.6
	c-0.1-1.8-0.3-1.9-1.5-2.1l0.1-0.3h4.8l-0.1,0.3l-0.5,0.1c-0.6,0.1-0.7,0.3-0.7,1.4l0.5,6.5l4.3-8.2h0.3l1.3,8.5
	c1.1-2.2,2.5-5.1,3.2-6.6c0.6-1.4,0.3-1.5-0.8-1.7l-0.3-0.1l0.1-0.3h4L516.5,198.7z"/>
<path d="M516.9,210.4c-0.9,0-2-0.5-2-2.5c0-1.7,0.7-3.4,1.9-4.4c0.7-0.6,1.8-1.1,2.6-1.1c1,0,1.4,0.6,1.4,1.4c0,1.6-2.5,2.4-4,2.7
	c0,0.3,0,0.5,0,0.6c0,1.2,0.3,2.1,1.3,2.1c0.7,0,1.4-0.3,2.2-1.2l0.2,0.3C519.1,209.9,517.8,210.4,516.9,210.4z M516.9,206
	c1.8-0.3,2.3-1.3,2.3-2.2c0-0.5-0.2-0.9-0.6-0.9C517.9,202.9,517.2,203.7,516.9,206z"/>
<path d="M526.5,203.3c0,0.3-0.4,0.8-0.7,1c-0.1,0.1-0.2,0.1-0.3-0.1c-0.4-0.5-0.9-1-1.5-1c-0.4,0-0.8,0.4-0.8,0.8
	c0,0.5,0.4,0.8,1.2,1.5c1.4,1.1,1.6,1.5,1.6,2.2c0,1.5-2.3,2.8-3.3,2.8c-0.8,0-1.8-0.6-1.8-1.3c0-0.3,0.4-0.9,0.8-0.9
	c0.1,0,0.2,0,0.3,0.1c0.7,0.8,1.3,1.2,1.9,1.2c0.6,0,0.9-0.4,0.9-0.8c0-0.4-0.3-0.7-1.1-1.4c-0.7-0.6-1.6-1.2-1.6-2.2
	c0-0.6,0.2-1.2,1.1-2c0.6-0.5,1.3-0.8,1.9-0.8C525.8,202.3,526.5,202.7,526.5,203.3z"/>
<path d="M532.4,203c-0.6,0-1.1,0-1.6,0c-0.4,1.9-1,4.7-1,4.9c-0.1,0.8-0.1,1.1,0.1,1.1c0.4,0,0.8-0.3,1.4-0.9l0.2,0.2
	c-0.6,0.9-1.8,2-2.9,2c-0.7,0-1.1-0.6-0.6-2.7l1-4.6h-1.3v-0.1l0.4-0.5h1l0.4-1.9c0.6-0.2,1.4-0.7,2-1.1l0.1,0.1
	c-0.2,0.8-0.5,1.9-0.7,2.9h1.7L532.4,203z"/>
<path d="M547.3,198.7c-1.1,0.1-1.5,0.2-2.6,2.1c-1.3,2.1-3.5,5.8-5.7,9.5h-0.4c-0.4-3.3-1.1-7.8-1.4-9.5c-0.3-1.9-0.4-2.1-1.5-2.2
	l0.1-0.3h4.7l-0.1,0.3l-0.4,0.1c-0.7,0.1-0.9,0.3-0.8,1.3c0.2,1.1,0.6,4.5,1,7.1c1.3-2,2.9-4.9,3.9-6.7c0.8-1.4,0.5-1.6-0.5-1.7
	l-0.3-0.1l0.1-0.3h4L547.3,198.7z"/>
<path d="M549.2,208.5c-1,1.3-2.2,1.9-2.8,1.9s-0.8-0.6-0.4-1.9c0.4-1.6,0.6-2.6,1-4c0.1-0.6,0.1-0.8-0.1-0.8c-0.3,0-0.7,0.3-1,0.7
	l-0.2-0.3c0.8-1,2.1-1.8,2.8-1.8c0.6,0,0.6,0.6,0.3,2.1c-0.3,1.3-0.6,2.6-0.9,3.9c-0.1,0.5,0,0.7,0.1,0.7s0.5-0.2,1-0.7L549.2,208.5
	z M549.6,199.5c0,0.6-0.4,1.2-1,1.2c-0.5,0-0.8-0.3-0.8-0.9c0-0.5,0.4-1.2,1.1-1.2C549.3,198.6,549.6,199,549.6,199.5z"/>
<path d="M550.3,204.1c1-1.3,2.1-1.8,2.6-1.8c0.7,0,0.6,0.8,0.3,2.4l-0.1,0.6c0.6-1.3,1.7-3,2.7-3c0.5,0,0.8,0.4,0.8,0.9
	s-0.5,1.2-0.8,1.4c-0.1,0.1-0.3,0.1-0.3,0c-0.2-0.3-0.6-0.5-0.9-0.5c-0.4,0-1,1.3-1.3,1.9c-0.5,1.1-0.8,3-1.1,4.1
	c-0.6,0.1-1.4,0.2-1.8,0.4l-0.1-0.1c0.5-1.9,0.9-4,1.2-5.2c0.2-1,0.2-1.3,0-1.3c-0.3,0-0.7,0.5-1,0.7L550.3,204.1z"/>
<path d="M559,208.3c-0.1,0.1-0.2,0.3-0.2,0.5c0,0.3,0.4,0.5,1.5,1.1c1.7,0.9,2.4,1.5,2.4,2.3c0,1.7-2.7,2.9-4.6,2.9
	c-1.8,0-3.2-0.9-3.2-1.9c0-0.9,1.3-1.7,3-2.5c-0.4-0.3-0.7-0.6-0.7-0.9c0-0.4,0.6-0.9,1.4-1.5L559,208.3L559,208.3z M561,213.2
	c0-0.5-0.3-0.8-0.8-1.2c-0.6-0.4-1.3-0.8-2.1-1.1c-0.9,0.6-1.5,1.2-1.5,1.9c0,1.1,1.2,1.6,2.3,1.6C560.3,214.4,561,213.9,561,213.2z
	 M556.9,206.3c0-1.3,0.7-2.6,1.9-3.4c0.6-0.4,1.3-0.6,2-0.6c0.6,0,1.1,0.2,1.6,0.5c1,0,1.6-0.2,1.9-0.4l0.1,0.2
	c-0.6,0.9-1.3,1-1.6,1c0.1,0.2,0.1,0.5,0.1,0.8c0,1.4-0.8,2.4-1.4,2.9c-0.8,0.6-1.9,1-2.6,1C557.7,208.3,556.9,207.5,556.9,206.3z
	 M561.1,204c0-0.7-0.2-1.2-0.7-1.2c-0.9,0-1.6,2.1-1.6,3.8c0,0.8,0.2,1.3,0.8,1.3C560.4,207.8,561.1,206.1,561.1,204z"/>
<path d="M567.5,208.5c-1,1.3-2.2,1.9-2.8,1.9s-0.8-0.6-0.4-1.9c0.4-1.6,0.6-2.6,1-4c0.1-0.6,0.1-0.8-0.1-0.8c-0.3,0-0.7,0.3-1,0.7
	l-0.2-0.3c0.8-1,2.1-1.8,2.8-1.8c0.6,0,0.6,0.6,0.3,2.1c-0.3,1.3-0.6,2.6-0.9,3.9c-0.1,0.5,0,0.7,0.1,0.7s0.5-0.2,1-0.7L567.5,208.5
	z M567.9,199.5c0,0.6-0.4,1.2-1,1.2c-0.5,0-0.8-0.3-0.8-0.9c0-0.5,0.4-1.2,1.1-1.2C567.7,198.6,567.9,199,567.9,199.5z"/>
<path d="M576.5,208.6c-1,1.3-2,1.8-2.7,1.8c-0.6,0-0.8-0.4-0.5-1.7s0.6-2.6,0.9-3.9c0.2-0.9,0.1-1.2-0.2-1.2c-0.7,0-1.7,1.3-2.3,2.2
	c-0.4,0.7-0.5,1.2-0.6,1.7c-0.2,0.8-0.4,1.9-0.5,2.6c-0.6,0.1-1.4,0.2-1.9,0.4l-0.1-0.1c0.3-1.5,0.9-3.7,1.3-5.8
	c0.1-0.6,0.1-0.8-0.1-0.8c-0.3,0-0.7,0.4-1,0.7l-0.2-0.3c0.8-1.1,2-1.8,2.6-1.8c0.7,0,0.7,0.6,0.4,2.1l-0.2,0.9c1.1-1.7,2.7-3,3.8-3
	c0.6,0,1.1,0.3,0.6,2.5c-0.3,1.2-0.5,2.3-0.8,3.5c-0.1,0.5-0.1,0.7,0.1,0.7c0.1,0,0.5-0.1,1-0.7L576.5,208.6z"/>
<path d="M585.2,208.5c-1,1.3-2.1,1.9-2.7,1.9c-0.5,0-0.7-0.5-0.5-2l0.1-0.8c-0.6,0.9-1.1,1.4-1.7,2c-0.6,0.6-1.2,0.9-1.8,0.9
	c-0.7,0-1.2-0.9-1.2-2.1c0-1.7,0.8-3.4,1.9-4.5c0.7-0.7,2.1-1.5,3.5-1.5c0.8,0,1.7,0.2,2.1,0.3c-0.4,1.5-0.8,3.6-1.2,5.7
	c-0.1,0.5,0,0.6,0.1,0.6s0.5-0.1,1-0.7L585.2,208.5z M581.8,207.5c0.4-0.5,0.5-1,0.7-1.6c0.2-0.8,0.5-2.1,0.6-2.7
	c-0.3-0.1-0.6-0.3-1.2-0.3c-1.5,0-2.3,3.2-2.3,5c0,0.8,0.2,1.1,0.5,1.1C580.5,209,580.9,208.7,581.8,207.5z"/>
<path d="M590.5,198c0.7-0.1,1.9-0.3,2.4-0.5c0.3-0.1,0.5-0.2,0.6-0.2s0.1,0.2,0,0.7c-0.5,2.4-1,4.9-1.5,7.3c1.1-1.8,2.8-3,3.9-3
	c0.6,0,1.2,0.3,0.7,2.5c-0.3,1.2-0.5,2.3-0.8,3.5c-0.1,0.5-0.1,0.6,0.1,0.6c0.1,0,0.5-0.1,1-0.7l0.1,0.2c-1,1.3-2.2,1.9-2.8,1.9
	s-0.8-0.4-0.5-1.7s0.6-2.6,0.9-3.9c0.2-0.9,0.1-1.2-0.3-1.2c-0.5,0-1.3,0.5-2.2,2.1c-0.3,0.6-0.5,1.3-0.7,1.8
	c-0.2,0.8-0.4,1.9-0.5,2.6c-0.7,0.1-1.3,0.2-1.9,0.4l-0.1-0.1c0.7-3.3,1.5-7,2.2-10.8c0.2-1,0.1-1.1-0.7-1.2c-0.1,0-0.1,0-0.3,0
	L590.5,198z"/>
<path d="M605.8,208.5c-1,1.3-2.1,1.9-2.7,1.9c-0.5,0-0.7-0.5-0.5-2l0.1-0.8c-0.6,0.9-1.1,1.4-1.7,2c-0.6,0.6-1.2,0.9-1.8,0.9
	c-0.7,0-1.2-0.9-1.2-2.1c0-1.7,0.8-3.4,1.9-4.5c0.7-0.7,2.1-1.5,3.5-1.5c0.8,0,1.7,0.2,2.1,0.3c-0.4,1.5-0.8,3.6-1.2,5.7
	c-0.1,0.5,0,0.6,0.1,0.6s0.5-0.1,1-0.7L605.8,208.5z M602.4,207.5c0.4-0.5,0.5-1,0.7-1.6c0.2-0.8,0.5-2.1,0.6-2.7
	c-0.3-0.1-0.6-0.3-1.2-0.3c-1.5,0-2.3,3.2-2.3,5c0,0.8,0.2,1.1,0.5,1.1C601.1,209,601.6,208.7,602.4,207.5z"/>
<path d="M606.5,204.2c0.7-0.9,1.8-1.9,2.5-1.9c0.5,0,0.7,0.7,0.8,2.4c0.1,1.4,0.1,2.4,0.2,3.6c0.7-0.8,2.2-2.6,2.2-3.6
	c0-0.5-0.1-0.8-0.3-1.1c-0.1-0.1-0.1-0.2,0-0.3c0.1-0.3,0.7-0.9,1.2-0.9c0.4,0,0.7,0.4,0.7,1c0,0.5-0.1,1.2-1,2.4
	c-1.1,1.5-3.3,3.9-4.1,4.6h-0.3c-0.1-1.5-0.1-3.3-0.3-5.1c-0.1-1-0.2-1.5-0.4-1.5c-0.1,0-0.4,0.1-0.9,0.7L606.5,204.2z"/>
<path d="M616.2,210.4c-0.9,0-2-0.5-2-2.5c0-1.7,0.7-3.4,1.9-4.4c0.7-0.6,1.8-1.1,2.6-1.1c1,0,1.4,0.6,1.4,1.4c0,1.6-2.5,2.4-4,2.7
	c0,0.3,0,0.5,0,0.6c0,1.2,0.3,2.1,1.3,2.1c0.7,0,1.4-0.3,2.2-1.2l0.2,0.3C618.4,209.9,617.1,210.4,616.2,210.4z M616.2,206
	c1.8-0.3,2.3-1.3,2.3-2.2c0-0.5-0.2-0.9-0.6-0.9C617.2,202.9,616.5,203.7,616.2,206z"/>
<path d="M627.7,208.5c-1,1.3-2.2,1.9-2.8,1.9s-0.8-0.6-0.4-1.9c0.4-1.6,0.6-2.6,1-4c0.1-0.6,0.1-0.8-0.1-0.8c-0.3,0-0.7,0.3-1,0.7
	l-0.2-0.3c0.8-1,2.1-1.8,2.8-1.8c0.6,0,0.6,0.6,0.3,2.1c-0.3,1.3-0.6,2.6-0.9,3.9c-0.1,0.5,0,0.7,0.1,0.7s0.5-0.2,1-0.7L627.7,208.5
	z M628,199.5c0,0.6-0.4,1.2-1,1.2c-0.5,0-0.8-0.3-0.8-0.9c0-0.5,0.4-1.2,1.1-1.2C627.8,198.6,628,199,628,199.5z"/>
<path d="M636.6,208.6c-1,1.3-2,1.8-2.7,1.8c-0.6,0-0.8-0.4-0.5-1.7s0.6-2.6,0.9-3.9c0.2-0.9,0.1-1.2-0.2-1.2c-0.7,0-1.7,1.3-2.2,2.2
	c-0.4,0.7-0.5,1.2-0.6,1.7c-0.2,0.8-0.4,1.9-0.5,2.6c-0.6,0.1-1.4,0.2-1.9,0.4l-0.1-0.1c0.3-1.5,0.9-3.7,1.3-5.8
	c0.1-0.6,0.1-0.8-0.1-0.8c-0.3,0-0.7,0.4-1,0.7l-0.2-0.3c0.8-1.1,2-1.8,2.6-1.8c0.7,0,0.7,0.6,0.4,2.1l-0.2,0.9c1.1-1.7,2.7-3,3.8-3
	c0.6,0,1.1,0.3,0.6,2.5c-0.3,1.2-0.5,2.3-0.8,3.5c-0.1,0.5-0.1,0.7,0.1,0.7c0.1,0,0.5-0.1,1-0.7L636.6,208.6z"/>
<path d="M643.2,208.4c-1.2,1.4-2.4,1.9-3.4,1.9c-1.2,0-2-0.8-2-2.6c0-1.4,0.6-3,1.8-4.1c0.8-0.7,1.9-1.3,2.9-1.3
	c0.7,0,1.3,0.3,1.3,0.8c0,0.3-0.2,0.8-0.8,1.1c-0.1,0.1-0.2,0-0.3-0.1c-0.5-0.8-0.9-1.1-1.3-1.1c-0.7,0-1.5,1.8-1.5,4.4
	c0,1.3,0.6,1.8,1.2,1.8c0.8,0,1.5-0.5,2.1-1.1V208.4z"/>
<path d="M644.2,204.1c1-1.3,2.1-1.8,2.6-1.8c0.7,0,0.6,0.8,0.3,2.4l-0.1,0.6c0.6-1.3,1.7-3,2.7-3c0.5,0,0.8,0.4,0.8,0.9
	s-0.5,1.2-0.8,1.4c-0.1,0.1-0.3,0.1-0.3,0c-0.2-0.3-0.6-0.5-0.9-0.5c-0.4,0-1,1.3-1.3,1.9c-0.5,1.1-0.8,3-1.1,4.1
	c-0.6,0.1-1.4,0.2-1.8,0.4l-0.1-0.1c0.5-1.9,0.9-4,1.2-5.2c0.2-1,0.2-1.3,0-1.3c-0.3,0-0.7,0.5-1,0.7L644.2,204.1z"/>
<path d="M652.5,210.4c-0.9,0-2-0.5-2-2.5c0-1.7,0.7-3.4,1.9-4.4c0.7-0.6,1.8-1.1,2.6-1.1c1,0,1.4,0.6,1.4,1.4c0,1.6-2.5,2.4-4,2.7
	c0,0.3,0,0.5,0,0.6c0,1.2,0.3,2.1,1.3,2.1c0.7,0,1.4-0.3,2.2-1.2l0.2,0.3C654.8,209.9,653.4,210.4,652.5,210.4z M652.5,206
	c1.8-0.3,2.3-1.3,2.3-2.2c0-0.5-0.2-0.9-0.6-0.9C653.6,202.9,652.9,203.7,652.5,206z"/>
<path d="M664.8,208.5c-1,1.3-2.1,1.9-2.7,1.9c-0.5,0-0.7-0.5-0.5-2l0.1-0.8c-0.6,0.9-1.1,1.4-1.7,2c-0.6,0.6-1.2,0.9-1.8,0.9
	c-0.7,0-1.2-0.9-1.2-2.1c0-1.7,0.8-3.4,1.9-4.5c0.7-0.7,2.1-1.5,3.5-1.5c0.8,0,1.7,0.2,2.1,0.3c-0.4,1.5-0.8,3.6-1.2,5.7
	c-0.1,0.5,0,0.6,0.1,0.6s0.5-0.1,1-0.7L664.8,208.5z M661.4,207.5c0.4-0.5,0.5-1,0.7-1.6c0.2-0.8,0.5-2.1,0.6-2.7
	c-0.3-0.1-0.6-0.3-1.2-0.3c-1.5,0-2.3,3.2-2.3,5c0,0.8,0.2,1.1,0.5,1.1C660.1,209,660.6,208.7,661.4,207.5z"/>
<path d="M670.8,203.3c0,0.3-0.4,0.8-0.7,1c-0.1,0.1-0.2,0.1-0.3-0.1c-0.4-0.5-0.9-1-1.5-1c-0.5,0-0.8,0.4-0.8,0.8
	c0,0.5,0.4,0.8,1.2,1.5c1.4,1.1,1.6,1.5,1.6,2.2c0,1.5-2.3,2.8-3.3,2.8c-0.8,0-1.8-0.6-1.8-1.3c0-0.3,0.4-0.9,0.8-0.9
	c0.1,0,0.2,0,0.3,0.1c0.7,0.8,1.3,1.2,1.9,1.2c0.6,0,0.9-0.4,0.9-0.8c0-0.4-0.3-0.7-1.1-1.4c-0.7-0.6-1.6-1.2-1.6-2.2
	c0-0.6,0.2-1.2,1.1-2c0.6-0.5,1.3-0.8,1.9-0.8C670,202.3,670.8,202.7,670.8,203.3z"/>
<path d="M673.5,210.4c-0.9,0-2-0.5-2-2.5c0-1.7,0.7-3.4,1.9-4.4c0.7-0.6,1.8-1.1,2.6-1.1c1,0,1.4,0.6,1.4,1.4c0,1.6-2.5,2.4-4,2.7
	c0,0.3,0,0.5,0,0.6c0,1.2,0.3,2.1,1.3,2.1c0.7,0,1.4-0.3,2.2-1.2l0.2,0.3C675.8,209.9,674.4,210.4,673.5,210.4z M673.5,206
	c1.8-0.3,2.3-1.3,2.3-2.2c0-0.5-0.2-0.9-0.6-0.9C674.6,202.9,673.8,203.7,673.5,206z"/>
<path d="M686,208.4c-1,1.3-2.2,1.9-2.8,1.9s-0.8-0.4-0.5-1.9l0.2-0.9c-1.1,1.6-2.5,2.8-3.5,2.8c-0.7,0-1.3-0.6-1.3-2.1
	c0-1.7,0.7-3.6,1.9-4.6c0.9-0.8,2.4-1.3,3-1.3c0.2,0,0.5,0,0.9,0.1l0.6-3.1c0.1-0.8,0-0.8-0.7-0.9c-0.1,0-0.2,0-0.3-0.1l0.1-0.2
	c0.8-0.1,2-0.3,2.6-0.5c0.3-0.1,0.5-0.2,0.6-0.2s0.2,0.1,0.1,0.5c-0.7,3.3-1.6,7.4-2.2,10.4c-0.1,0.5,0,0.6,0.1,0.6s0.5-0.2,1.1-0.8
	L686,208.4z M682.8,207.1c0.3-0.4,0.4-0.9,0.5-1.5l0.5-2.3c-0.3-0.4-1-0.5-1.3-0.5c-1.5,0-2.2,3.5-2.2,5.1c0,0.8,0.2,1.1,0.5,1.1
	C681.3,209.1,682,208.3,682.8,207.1z"/>
<path d="M693.6,208.4c-1,1.3-2.1,1.9-2.7,1.9c-0.6,0-0.8-0.5-0.5-1.8c0.6-3,1.3-6.4,1.8-9.3c0.2-0.8,0.1-0.8-0.7-1
	c-0.1,0-0.2,0-0.3-0.1l0.1-0.2c0.9-0.1,1.9-0.3,2.4-0.5c0.3-0.1,0.5-0.2,0.6-0.2s0.1,0.2,0,0.7c-0.7,3.3-1.4,6.8-2.1,10.2
	c-0.1,0.5-0.1,0.6,0.1,0.6c0.1,0,0.5-0.2,1.1-0.8L693.6,208.4z"/>
<path d="M696.5,210.4c-0.9,0-2-0.5-2-2.5c0-1.7,0.7-3.4,1.9-4.4c0.7-0.6,1.8-1.1,2.6-1.1c1,0,1.4,0.6,1.4,1.4c0,1.6-2.5,2.4-4,2.7
	c0,0.3,0,0.5,0,0.6c0,1.2,0.3,2.1,1.3,2.1c0.7,0,1.4-0.3,2.2-1.2l0.2,0.3C698.8,209.9,697.4,210.4,696.5,210.4z M696.6,206
	c1.8-0.3,2.3-1.3,2.3-2.2c0-0.5-0.2-0.9-0.6-0.9C697.6,202.9,696.9,203.7,696.6,206z"/>
<path d="M708.8,208.5c-1,1.3-2.1,1.9-2.7,1.9c-0.5,0-0.7-0.5-0.5-2l0.1-0.8c-0.6,0.9-1.1,1.4-1.7,2c-0.6,0.6-1.2,0.9-1.8,0.9
	c-0.7,0-1.2-0.9-1.2-2.1c0-1.7,0.8-3.4,1.9-4.5c0.7-0.7,2.1-1.5,3.5-1.5c0.8,0,1.7,0.2,2.1,0.3c-0.4,1.5-0.8,3.6-1.2,5.7
	c-0.1,0.5,0,0.6,0.1,0.6s0.4-0.1,1-0.7L708.8,208.5z M705.4,207.5c0.4-0.5,0.5-1,0.7-1.6c0.2-0.8,0.5-2.1,0.6-2.7
	c-0.3-0.1-0.6-0.3-1.2-0.3c-1.5,0-2.3,3.2-2.3,5c0,0.8,0.2,1.1,0.5,1.1C704.1,209,704.6,208.7,705.4,207.5z"/>
<path d="M709.6,204.2c0.7-0.9,1.8-1.9,2.5-1.9c0.5,0,0.7,0.7,0.8,2.4c0.1,1.4,0.1,2.4,0.2,3.6c0.7-0.8,2.2-2.6,2.2-3.6
	c0-0.5-0.1-0.8-0.3-1.1c-0.1-0.1-0.1-0.2,0-0.3c0.1-0.3,0.7-0.9,1.2-0.9c0.4,0,0.7,0.4,0.7,1c0,0.5-0.1,1.2-1,2.4
	c-1.1,1.5-3.3,3.9-4.1,4.6h-0.3c-0.1-1.5-0.1-3.3-0.3-5.1c-0.1-1-0.2-1.5-0.4-1.5c-0.1,0-0.4,0.1-0.9,0.7L709.6,204.2z"/>
<path d="M720.9,208.5c-1,1.3-2.2,1.9-2.8,1.9s-0.8-0.6-0.4-1.9c0.4-1.6,0.6-2.6,1-4c0.1-0.6,0.1-0.8-0.1-0.8c-0.3,0-0.7,0.3-1,0.7
	l-0.2-0.3c0.8-1,2.1-1.8,2.8-1.8c0.6,0,0.6,0.6,0.3,2.1c-0.3,1.3-0.6,2.6-0.9,3.9c-0.1,0.5,0,0.7,0.1,0.7s0.5-0.2,1-0.7L720.9,208.5
	z M721.3,199.5c0,0.6-0.4,1.2-1,1.2c-0.5,0-0.8-0.3-0.8-0.9c0-0.5,0.4-1.2,1.1-1.2C721,198.6,721.3,199,721.3,199.5z"/>
<path d="M729.9,208.6c-1,1.3-2,1.8-2.7,1.8c-0.6,0-0.8-0.4-0.5-1.7s0.6-2.6,0.9-3.9c0.2-0.9,0.1-1.2-0.2-1.2c-0.7,0-1.7,1.3-2.2,2.2
	c-0.4,0.7-0.5,1.2-0.6,1.7c-0.2,0.8-0.4,1.9-0.5,2.6c-0.6,0.1-1.4,0.2-1.9,0.4l-0.1-0.1c0.3-1.5,0.9-3.7,1.3-5.8
	c0.1-0.6,0.1-0.8-0.1-0.8c-0.3,0-0.7,0.4-1,0.7l-0.2-0.3c0.8-1.1,2-1.8,2.6-1.8c0.7,0,0.7,0.6,0.4,2.1l-0.2,0.9c1.1-1.7,2.7-3,3.8-3
	c0.6,0,1.1,0.3,0.6,2.5c-0.3,1.2-0.5,2.3-0.8,3.5c-0.1,0.5-0.1,0.7,0.1,0.7c0.1,0,0.5-0.1,1-0.7L729.9,208.6z"/>
<path d="M733.3,208.3c-0.1,0.1-0.2,0.3-0.2,0.5c0,0.3,0.4,0.5,1.5,1.1c1.7,0.9,2.4,1.5,2.4,2.3c0,1.7-2.7,2.9-4.6,2.9
	c-1.8,0-3.2-0.9-3.2-1.9c0-0.9,1.3-1.7,3-2.5c-0.4-0.3-0.7-0.6-0.7-0.9c0-0.4,0.6-0.9,1.4-1.5L733.3,208.3L733.3,208.3z
	 M735.3,213.2c0-0.5-0.3-0.8-0.8-1.2c-0.6-0.4-1.3-0.8-2.1-1.1c-0.9,0.6-1.5,1.2-1.5,1.9c0,1.1,1.2,1.6,2.3,1.6
	C734.5,214.4,735.3,213.9,735.3,213.2z M731.2,206.3c0-1.3,0.7-2.6,1.9-3.4c0.6-0.4,1.3-0.6,2-0.6c0.6,0,1.1,0.2,1.6,0.5
	c1,0,1.6-0.2,1.9-0.4l0.1,0.2c-0.6,0.9-1.3,1-1.6,1c0.1,0.2,0.1,0.5,0.1,0.8c0,1.4-0.8,2.4-1.4,2.9c-0.8,0.6-1.9,1-2.6,1
	C731.9,208.3,731.2,207.5,731.2,206.3z M735.4,204c0-0.7-0.2-1.2-0.7-1.2c-0.9,0-1.6,2.1-1.6,3.8c0,0.8,0.2,1.3,0.8,1.3
	C734.6,207.8,735.4,206.1,735.4,204z"/>
<path d="M746.4,203c-0.6,0-1.1,0-1.6,0c-0.4,1.9-1,4.7-1,4.9c-0.1,0.8-0.1,1.1,0.1,1.1c0.4,0,0.8-0.3,1.4-0.9l0.2,0.2
	c-0.6,0.9-1.8,2-2.9,2c-0.7,0-1.1-0.6-0.6-2.7l1-4.6h-1.3v-0.1l0.4-0.5h1l0.4-1.9c0.6-0.2,1.4-0.7,2-1.1l0.1,0.1
	c-0.2,0.8-0.5,1.9-0.7,2.9h1.7L746.4,203z"/>
<path d="M747.6,198c0.7-0.1,1.9-0.3,2.4-0.5c0.3-0.1,0.5-0.2,0.6-0.2s0.1,0.2,0,0.7c-0.5,2.4-1,4.9-1.5,7.3c1.1-1.8,2.8-3,3.9-3
	c0.6,0,1.2,0.3,0.7,2.5c-0.3,1.2-0.5,2.3-0.8,3.5c-0.1,0.5-0.1,0.6,0.1,0.6c0.1,0,0.5-0.1,1-0.7l0.1,0.2c-1,1.3-2.2,1.9-2.8,1.9
	s-0.8-0.4-0.5-1.7s0.6-2.6,0.9-3.9c0.2-0.9,0.1-1.2-0.3-1.2c-0.5,0-1.3,0.5-2.2,2.1c-0.3,0.6-0.5,1.3-0.7,1.8
	c-0.2,0.8-0.4,1.9-0.5,2.6c-0.7,0.1-1.3,0.2-1.9,0.4l-0.1-0.1c0.7-3.3,1.5-7,2.2-10.8c0.2-1,0.1-1.1-0.7-1.2c-0.1,0-0.1,0-0.3,0
	L747.6,198z"/>
<path d="M757.3,210.4c-0.9,0-2-0.5-2-2.5c0-1.7,0.7-3.4,1.9-4.4c0.7-0.6,1.8-1.1,2.6-1.1c1,0,1.4,0.6,1.4,1.4c0,1.6-2.5,2.4-4,2.7
	c0,0.3,0,0.5,0,0.6c0,1.2,0.3,2.1,1.3,2.1c0.7,0,1.4-0.3,2.2-1.2l0.2,0.3C759.5,209.9,758.2,210.4,757.3,210.4z M757.3,206
	c1.8-0.3,2.3-1.3,2.3-2.2c0-0.5-0.2-0.9-0.6-0.9C758.3,202.9,757.6,203.7,757.3,206z"/>
<path d="M770.1,203.3c0,0.3-0.4,0.8-0.7,1c-0.1,0.1-0.2,0.1-0.3-0.1c-0.4-0.5-0.9-1-1.5-1c-0.5,0-0.8,0.4-0.8,0.8
	c0,0.5,0.4,0.8,1.2,1.5c1.4,1.1,1.6,1.5,1.6,2.2c0,1.5-2.3,2.8-3.3,2.8c-0.8,0-1.8-0.6-1.8-1.3c0-0.3,0.4-0.9,0.8-0.9
	c0.1,0,0.2,0,0.3,0.1c0.7,0.8,1.3,1.2,1.9,1.2c0.6,0,0.9-0.4,0.9-0.8c0-0.4-0.3-0.7-1.1-1.4c-0.7-0.6-1.6-1.2-1.6-2.2
	c0-0.6,0.2-1.2,1.1-2c0.6-0.5,1.3-0.8,1.9-0.8C769.4,202.3,770.1,202.7,770.1,203.3z"/>
<path d="M776,203c-0.6,0-1.1,0-1.6,0c-0.4,1.9-1,4.7-1,4.9c-0.1,0.8-0.1,1.1,0.1,1.1c0.4,0,0.8-0.3,1.4-0.9l0.2,0.2
	c-0.6,0.9-1.8,2-2.9,2c-0.7,0-1.1-0.6-0.6-2.7l1-4.6h-1.3v-0.1l0.4-0.5h1l0.4-1.9c0.6-0.2,1.4-0.7,2-1.1l0.1,0.1
	c-0.2,0.8-0.5,1.9-0.7,2.9h1.7L776,203z"/>
<path d="M783.6,208.5c-1,1.3-2.1,1.9-2.7,1.9c-0.5,0-0.7-0.5-0.5-2l0.1-0.8c-0.6,0.9-1.1,1.4-1.7,2c-0.6,0.6-1.2,0.9-1.8,0.9
	c-0.7,0-1.2-0.9-1.2-2.1c0-1.7,0.8-3.4,1.9-4.5c0.7-0.7,2.1-1.5,3.5-1.5c0.8,0,1.7,0.2,2.1,0.3c-0.4,1.5-0.8,3.6-1.2,5.7
	c-0.1,0.5,0,0.6,0.1,0.6s0.5-0.1,1-0.7L783.6,208.5z M780.2,207.5c0.4-0.5,0.5-1,0.7-1.6c0.2-0.8,0.5-2.1,0.6-2.7
	c-0.3-0.1-0.6-0.3-1.2-0.3c-1.5,0-2.3,3.2-2.3,5c0,0.8,0.2,1.1,0.5,1.1C778.9,209,779.4,208.7,780.2,207.5z"/>
<path d="M789.6,203c-0.6,0-1.1,0-1.6,0c-0.4,1.9-1,4.7-1,4.9c-0.1,0.8-0.1,1.1,0.1,1.1c0.4,0,0.8-0.3,1.4-0.9l0.2,0.2
	c-0.6,0.9-1.8,2-2.9,2c-0.7,0-1.1-0.6-0.6-2.7l1-4.6h-1.3v-0.1l0.4-0.5h1l0.4-1.9c0.6-0.2,1.4-0.7,2-1.1l0.1,0.1
	c-0.2,0.8-0.5,1.9-0.7,2.9h1.7L789.6,203z"/>
<path d="M791.6,210.4c-0.9,0-2-0.5-2-2.5c0-1.7,0.7-3.4,1.9-4.4c0.7-0.6,1.8-1.1,2.6-1.1c1,0,1.4,0.6,1.4,1.4c0,1.6-2.5,2.4-4,2.7
	c0,0.3,0,0.5,0,0.6c0,1.2,0.3,2.1,1.3,2.1c0.7,0,1.4-0.3,2.2-1.2l0.2,0.3C793.9,209.9,792.5,210.4,791.6,210.4z M791.7,206
	c1.8-0.3,2.3-1.3,2.3-2.2c0-0.5-0.2-0.9-0.6-0.9C792.7,202.9,792,203.7,791.7,206z"/>
<path d="M799.3,204.2c0.7-1,1.9-1.9,2.5-1.9s0.8,0.6,0.8,2.2c0,1.2,0.1,2.4,0.1,3.1c1-1.4,2-3.2,3-5h0.3c0.3,2.1,0.5,3.9,0.8,5.6
	c1.1-1.5,1.8-2.6,1.8-3.6c0-0.4-0.1-0.6-0.3-1.1c-0.1-0.1-0.1-0.2-0.1-0.3c0.1-0.4,0.7-0.9,1.2-0.9s0.7,0.4,0.7,1.1
	c0,0.5-0.2,1-0.6,1.7c-0.7,1.1-3.1,4.3-3.9,5.2h-0.4c-0.2-1.5-0.5-3.3-0.7-4.9c-0.9,1.5-2.3,3.5-3.2,4.9H801
	c-0.1-1.2-0.1-3.7-0.3-5.3c-0.1-0.8-0.2-1.4-0.4-1.4s-0.5,0.3-0.9,0.7L799.3,204.2z"/>
<path d="M814.2,208.5c-1,1.3-2.2,1.9-2.8,1.9s-0.8-0.6-0.4-1.9c0.4-1.6,0.6-2.6,1-4c0.1-0.6,0.1-0.8-0.1-0.8c-0.3,0-0.7,0.3-1,0.7
	l-0.2-0.3c0.8-1,2.1-1.8,2.8-1.8c0.6,0,0.6,0.6,0.3,2.1c-0.3,1.3-0.6,2.6-0.9,3.9c-0.1,0.5,0,0.7,0.1,0.7s0.5-0.2,1-0.7L814.2,208.5
	z M814.6,199.5c0,0.6-0.4,1.2-1,1.2c-0.5,0-0.8-0.3-0.8-0.9c0-0.5,0.4-1.2,1.1-1.2C814.4,198.6,814.6,199,814.6,199.5z"/>
<path d="M820.4,203c-0.6,0-1.1,0-1.6,0c-0.4,1.9-1,4.7-1,4.9c-0.1,0.8-0.1,1.1,0.1,1.1c0.4,0,0.8-0.3,1.4-0.9l0.2,0.2
	c-0.6,0.9-1.8,2-2.9,2c-0.7,0-1.1-0.6-0.6-2.7l1-4.6h-1.3v-0.1l0.4-0.5h1l0.4-1.9c0.6-0.2,1.4-0.7,2-1.1l0.1,0.1
	c-0.2,0.8-0.5,1.9-0.7,2.9h1.7L820.4,203z"/>
<path d="M821.5,198c0.7-0.1,1.9-0.3,2.4-0.5c0.3-0.1,0.5-0.2,0.6-0.2s0.1,0.2,0,0.7c-0.5,2.4-1,4.9-1.5,7.3c1.1-1.8,2.8-3,3.9-3
	c0.6,0,1.2,0.3,0.7,2.5c-0.3,1.2-0.5,2.3-0.8,3.5c-0.1,0.5-0.1,0.6,0.1,0.6c0.1,0,0.5-0.1,1-0.7l0.1,0.2c-1,1.3-2.2,1.9-2.8,1.9
	s-0.8-0.4-0.5-1.7s0.6-2.6,0.9-3.9c0.2-0.9,0.1-1.2-0.3-1.2c-0.5,0-1.3,0.5-2.2,2.1c-0.3,0.6-0.5,1.3-0.7,1.8
	c-0.2,0.8-0.4,1.9-0.5,2.6c-0.7,0.1-1.3,0.2-1.9,0.4l-0.1-0.1c0.7-3.3,1.5-7,2.2-10.8c0.2-1,0.1-1.1-0.7-1.2c-0.1,0-0.1,0-0.3,0
	L821.5,198z"/>
<path d="M837.5,203c-0.6,0-1.1,0-1.6,0c-0.4,1.9-1,4.7-1,4.9c-0.1,0.8-0.1,1.1,0.1,1.1c0.4,0,0.8-0.3,1.4-0.9l0.2,0.2
	c-0.6,0.9-1.8,2-2.9,2c-0.7,0-1.1-0.6-0.6-2.7l1-4.6h-1.3v-0.1l0.4-0.5h1l0.4-1.9c0.6-0.2,1.4-0.7,2-1.1l0.1,0.1
	c-0.2,0.8-0.5,1.9-0.7,2.9h1.7L837.5,203z"/>
<path d="M838.7,198c0.7-0.1,1.9-0.3,2.4-0.5c0.3-0.1,0.5-0.2,0.6-0.2s0.1,0.2,0,0.7c-0.5,2.4-1,4.9-1.5,7.3c1.1-1.8,2.8-3,3.9-3
	c0.6,0,1.2,0.3,0.7,2.5c-0.3,1.2-0.5,2.3-0.8,3.5c-0.1,0.5-0.1,0.6,0.1,0.6c0.1,0,0.5-0.1,1-0.7l0.1,0.2c-1,1.3-2.2,1.9-2.8,1.9
	s-0.8-0.4-0.5-1.7s0.6-2.6,0.9-3.9c0.2-0.9,0.1-1.2-0.3-1.2c-0.5,0-1.3,0.5-2.2,2.1c-0.3,0.6-0.5,1.3-0.7,1.8
	c-0.2,0.8-0.5,1.9-0.5,2.6c-0.7,0.1-1.3,0.2-1.9,0.4l-0.1-0.1c0.7-3.3,1.5-7,2.2-10.8c0.2-1,0.1-1.1-0.7-1.2c-0.1,0-0.1,0-0.3,0
	L838.7,198z"/>
<path d="M848.3,210.4c-0.9,0-2-0.5-2-2.5c0-1.7,0.7-3.4,1.9-4.4c0.7-0.6,1.8-1.1,2.6-1.1c1,0,1.4,0.6,1.4,1.4c0,1.6-2.5,2.4-4,2.7
	c0,0.3,0,0.5,0,0.6c0,1.2,0.3,2.1,1.3,2.1c0.7,0,1.4-0.3,2.2-1.2l0.2,0.3C850.6,209.9,849.2,210.4,848.3,210.4z M848.4,206
	c1.8-0.3,2.3-1.3,2.3-2.2c0-0.5-0.2-0.9-0.6-0.9C849.4,202.9,848.7,203.7,848.4,206z"/>
<path d="M867.4,202.3c0.6,0,1.1,0.3,0.6,2.5c-0.3,1.2-0.5,2.3-0.8,3.5c-0.1,0.5-0.1,0.7,0.1,0.7c0.1,0,0.5-0.1,1-0.7l0.2,0.2
	c-1,1.3-2.1,1.8-2.7,1.8c-0.6,0-0.8-0.4-0.5-1.7s0.6-2.6,0.9-3.9c0.2-0.9,0.1-1.2-0.2-1.2c-0.6,0-1.7,1.3-2.2,2.2s-0.6,1.3-0.7,1.8
	c-0.2,0.8-0.4,1.7-0.5,2.4c-0.7,0.1-1.4,0.2-1.9,0.4l-0.1-0.1c0.4-1.7,0.8-3.5,1.1-4.9s0.3-1.8-0.1-1.8c-0.6,0-1.7,1.2-2.2,2.1
	c-0.5,0.9-0.6,1.4-0.7,1.9c-0.2,0.8-0.4,1.7-0.5,2.4c-0.6,0.1-1.4,0.2-1.9,0.4l-0.1-0.1c0.4-1.9,0.9-3.7,1.3-5.8
	c0.1-0.6,0.1-0.8-0.1-0.8c-0.3,0-0.7,0.4-1,0.7l-0.2-0.3c0.8-1,1.8-1.8,2.5-1.8c0.6,0,0.9,0.6,0.6,2.1l-0.2,0.9c1.4-2,2.8-3,3.8-3
	c0.6,0,1.1,0.3,0.6,2.8l-0.1,0.5C864.9,203.4,866.5,202.3,867.4,202.3z"/>
<path d="M876.8,204.9c0,1.9-0.9,3.9-2.6,4.8c-0.6,0.4-1.3,0.6-2.1,0.6c-1.9,0-2.4-1.3-2.4-2.6c0-2.3,1.3-4.2,2.9-5
	c0.6-0.3,1.2-0.5,1.9-0.5C876,202.3,876.8,203.4,876.8,204.9z M871.7,207.7c0,1.5,0.5,2.1,1.1,2.1c1.6,0,2-3.7,2-4.9
	c0-1.5-0.5-2.1-1-2.1C872.2,202.8,871.7,206.4,871.7,207.7z"/>
<path d="M882.8,203.3c0,0.3-0.4,0.8-0.7,1c-0.1,0.1-0.2,0.1-0.3-0.1c-0.4-0.5-0.9-1-1.5-1c-0.5,0-0.8,0.4-0.8,0.8
	c0,0.5,0.4,0.8,1.2,1.5c1.4,1.1,1.6,1.5,1.6,2.2c0,1.5-2.3,2.8-3.3,2.8c-0.8,0-1.8-0.6-1.8-1.3c0-0.3,0.4-0.9,0.8-0.9
	c0.1,0,0.2,0,0.3,0.1c0.7,0.8,1.3,1.2,1.9,1.2c0.6,0,0.9-0.4,0.9-0.8c0-0.4-0.3-0.7-1.1-1.4c-0.7-0.6-1.6-1.2-1.6-2.2
	c0-0.6,0.2-1.2,1.1-2c0.6-0.5,1.3-0.8,1.9-0.8C882,202.3,882.8,202.7,882.8,203.3z"/>
<path d="M888.6,203c-0.6,0-1.1,0-1.6,0c-0.4,1.9-1,4.7-1,4.9c-0.1,0.8-0.1,1.1,0.1,1.1c0.4,0,0.8-0.3,1.4-0.9l0.2,0.2
	c-0.6,0.9-1.8,2-2.9,2c-0.7,0-1.1-0.6-0.6-2.7l1-4.6h-1.3v-0.1l0.4-0.5h1l0.4-1.9c0.6-0.2,1.4-0.7,2-1.1l0.1,0.1
	c-0.2,0.8-0.5,1.9-0.7,2.9h1.7L888.6,203z"/>
<path d="M903.4,203.2c0,3.7-2.6,7.2-6.5,7.2c-2.8,0-4.7-1.9-4.7-4.9c0-3.8,2.8-7.3,6.7-7.3C901.7,198.2,903.4,200.1,903.4,203.2z
	 M894.6,206.4c0,2.2,0.8,3.6,2.4,3.6c2.6,0,4-4.3,4-7.9c0-1.7-0.4-3.5-2.3-3.5C896.2,198.6,894.6,202.6,894.6,206.4z"/>
<path d="M910.1,198.4c4.1,0,5.9,2,5.9,5c0,2.1-1.1,4.3-2.9,5.5c-1.6,1-3.1,1.2-4.5,1.2h-5.1l0.1-0.3c1.4-0.2,1.5-0.5,1.7-1.9
	l1.4-7.2c0.3-1.7,0.2-1.8-1.2-2l0.1-0.3H910.1z M907.5,208.3c-0.2,1,0.3,1.4,1.3,1.4c2.9,0,4.9-3,4.9-6.6c0-3-1.4-4.2-3.4-4.2
	c-0.6,0-1,0.1-1.2,1L907.5,208.3z"/>
<path d="M921.9,203.3c0,0.3-0.4,0.8-0.7,1c-0.1,0.1-0.2,0.1-0.3-0.1c-0.4-0.5-0.9-1-1.5-1c-0.5,0-0.8,0.4-0.8,0.8
	c0,0.5,0.4,0.8,1.2,1.5c1.4,1.1,1.6,1.5,1.6,2.2c0,1.5-2.3,2.8-3.3,2.8c-0.8,0-1.8-0.6-1.8-1.3c0-0.3,0.4-0.9,0.8-0.9
	c0.1,0,0.2,0,0.3,0.1c0.7,0.8,1.3,1.2,1.9,1.2c0.6,0,0.9-0.4,0.9-0.8c0-0.4-0.3-0.7-1.1-1.4c-0.7-0.6-1.6-1.2-1.6-2.2
	c0-0.6,0.2-1.2,1.1-2c0.6-0.5,1.3-0.8,1.9-0.8C921.2,202.3,921.9,202.7,921.9,203.3z"/>
<path d="M1045.5,208.5c-1,1.3-2.2,1.9-2.8,1.9c-0.6,0-0.8-0.6-0.4-1.9c0.4-1.6,0.6-2.6,1-4c0.1-0.6,0.1-0.8-0.1-0.8
	c-0.3,0-0.7,0.3-1,0.7l-0.2-0.3c0.8-1,2.1-1.8,2.8-1.8c0.6,0,0.6,0.6,0.3,2.1c-0.3,1.3-0.6,2.6-0.9,3.9c-0.1,0.5,0,0.7,0.1,0.7
	s0.5-0.2,1-0.7L1045.5,208.5z M1045.8,199.5c0,0.6-0.4,1.2-1,1.2c-0.5,0-0.8-0.3-0.8-0.9c0-0.5,0.4-1.2,1.1-1.2
	C1045.6,198.6,1045.8,199,1045.8,199.5z"/>
<path d="M1054.4,208.6c-1,1.3-2,1.8-2.7,1.8c-0.6,0-0.8-0.4-0.5-1.7c0.3-1.3,0.6-2.6,0.9-3.9c0.2-0.9,0.1-1.2-0.2-1.2
	c-0.7,0-1.7,1.3-2.2,2.2c-0.4,0.7-0.5,1.2-0.6,1.7c-0.2,0.8-0.4,1.9-0.5,2.6c-0.6,0.1-1.4,0.2-1.9,0.4l-0.1-0.1
	c0.3-1.5,0.9-3.7,1.3-5.8c0.1-0.6,0.1-0.8-0.1-0.8c-0.3,0-0.7,0.4-1,0.7l-0.2-0.3c0.8-1.1,2-1.8,2.6-1.8c0.7,0,0.7,0.6,0.4,2.1
	l-0.2,0.9c1.1-1.7,2.7-3,3.8-3c0.6,0,1.1,0.3,0.6,2.5c-0.3,1.2-0.5,2.3-0.8,3.5c-0.1,0.5-0.1,0.7,0.1,0.7c0.1,0,0.5-0.1,1-0.7
	L1054.4,208.6z"/>
<path d="M1063.8,203c-0.6,0-1.1,0-1.6,0c-0.4,1.9-1,4.7-1,4.9c-0.1,0.8-0.1,1.1,0.1,1.1c0.4,0,0.8-0.3,1.4-0.9l0.2,0.2
	c-0.6,0.9-1.8,2-2.9,2c-0.7,0-1.1-0.6-0.6-2.7l1-4.6h-1.4v-0.1l0.4-0.5h1l0.4-1.9c0.6-0.2,1.4-0.7,2-1.1l0.1,0.1
	c-0.2,0.8-0.5,1.9-0.7,2.9h1.7L1063.8,203z"/>
<path d="M1064.9,198c0.7-0.1,1.9-0.3,2.4-0.5c0.3-0.1,0.5-0.2,0.6-0.2s0.1,0.2,0,0.7c-0.5,2.4-1,4.9-1.5,7.3c1.1-1.8,2.8-3,3.9-3
	c0.6,0,1.2,0.3,0.7,2.5c-0.3,1.2-0.5,2.3-0.8,3.5c-0.1,0.5-0.1,0.6,0.1,0.6c0.1,0,0.5-0.1,1-0.7l0.1,0.2c-1,1.3-2.2,1.9-2.8,1.9
	c-0.6,0-0.8-0.4-0.5-1.7c0.3-1.3,0.6-2.6,0.9-3.9c0.2-0.9,0.1-1.2-0.3-1.2c-0.5,0-1.3,0.5-2.2,2.1c-0.3,0.6-0.5,1.3-0.7,1.8
	c-0.2,0.8-0.5,1.9-0.5,2.6c-0.7,0.1-1.3,0.2-1.9,0.4l-0.1-0.1c0.7-3.3,1.5-7,2.2-10.8c0.2-1,0.1-1.1-0.7-1.2c-0.1,0-0.1,0-0.3,0
	L1064.9,198z"/>
<path d="M1074.6,210.4c-0.9,0-2-0.5-2-2.5c0-1.7,0.7-3.4,1.9-4.4c0.7-0.6,1.8-1.1,2.6-1.1c1,0,1.4,0.6,1.4,1.4c0,1.6-2.5,2.4-4,2.7
	c0,0.3,0,0.5,0,0.6c0,1.2,0.3,2.1,1.3,2.1c0.7,0,1.4-0.3,2.2-1.2l0.2,0.3C1076.9,209.9,1075.5,210.4,1074.6,210.4z M1074.6,206
	c1.8-0.3,2.3-1.3,2.3-2.2c0-0.5-0.2-0.9-0.6-0.9C1075.7,202.9,1075,203.7,1074.6,206z"/>
<path d="M1088,208.4c-1.2,1.4-2.4,1.9-3.4,1.9c-1.2,0-2-0.8-2-2.6c0-1.4,0.6-3,1.8-4.1c0.8-0.7,1.9-1.3,2.9-1.3
	c0.7,0,1.3,0.3,1.3,0.8c0,0.3-0.2,0.8-0.8,1.1c-0.1,0.1-0.2,0-0.3-0.1c-0.5-0.8-0.9-1.1-1.3-1.1c-0.7,0-1.5,1.8-1.5,4.4
	c0,1.3,0.6,1.8,1.2,1.8c0.8,0,1.5-0.5,2.1-1.1V208.4z"/>
<path d="M1096,204.9c0,1.9-0.9,3.9-2.6,4.8c-0.6,0.4-1.3,0.6-2.1,0.6c-1.9,0-2.4-1.3-2.4-2.6c0-2.3,1.3-4.2,2.9-5
	c0.6-0.3,1.2-0.5,1.9-0.5C1095.2,202.3,1096,203.4,1096,204.9z M1090.9,207.7c0,1.5,0.5,2.1,1.1,2.1c1.6,0,2-3.7,2-4.9
	c0-1.5-0.5-2.1-1-2.1C1091.4,202.8,1090.9,206.4,1090.9,207.7z"/>
<path d="M1104.9,208.5c-1,1.3-2.1,1.9-2.7,1.9c-0.5,0-0.8-0.4-0.5-1.7c0.1-0.5,0.2-0.9,0.3-1.4c-1,1.4-1.9,2.3-2.5,2.7
	c-0.4,0.3-0.8,0.4-1.2,0.4c-0.7,0-1.3-0.4-0.8-2.6c0.2-1,0.6-2.3,0.8-3.3c0.1-0.6,0.2-0.8-0.1-0.8c-0.2,0-0.7,0.4-1,0.7l-0.2-0.3
	c0.8-1,2-1.8,2.7-1.8c0.6,0,0.7,0.6,0.4,2.1c-0.3,1.3-0.6,2.3-0.8,3.5c-0.2,0.9,0.1,1,0.2,1c0.5,0,1.2-0.7,1.8-1.7
	c0.4-0.5,0.8-1.2,1-2.1c0.2-0.8,0.3-1.5,0.6-2.4c0.6-0.1,1.2-0.3,1.9-0.5h0.1c-0.4,1.9-0.9,3.9-1.3,6c-0.1,0.5-0.1,0.7,0.1,0.7
	c0.1,0,0.5-0.2,1-0.7L1104.9,208.5z"/>
<path d="M1114,208.6c-1,1.3-2,1.8-2.7,1.8c-0.6,0-0.8-0.4-0.5-1.7s0.6-2.6,0.9-3.9c0.2-0.9,0.1-1.2-0.2-1.2c-0.7,0-1.7,1.3-2.2,2.2
	c-0.4,0.7-0.5,1.2-0.6,1.7c-0.2,0.8-0.4,1.9-0.5,2.6c-0.6,0.1-1.4,0.2-1.9,0.4l-0.1-0.1c0.3-1.5,0.9-3.7,1.3-5.8
	c0.1-0.6,0.1-0.8-0.1-0.8c-0.3,0-0.7,0.4-1,0.7l-0.2-0.3c0.8-1.1,2-1.8,2.6-1.8c0.7,0,0.7,0.6,0.4,2.1l-0.2,0.9c1.1-1.7,2.7-3,3.8-3
	c0.6,0,1.1,0.3,0.6,2.5c-0.3,1.2-0.5,2.3-0.8,3.5c-0.1,0.5-0.1,0.7,0.1,0.7c0.1,0,0.5-0.1,1-0.7L1114,208.6z"/>
<path d="M1120.2,203c-0.6,0-1.1,0-1.6,0c-0.4,1.9-1,4.7-1,4.9c-0.1,0.8-0.1,1.1,0.1,1.1c0.4,0,0.8-0.3,1.4-0.9l0.2,0.2
	c-0.6,0.9-1.8,2-2.9,2c-0.7,0-1.1-0.6-0.6-2.7l1-4.6h-1.3v-0.1l0.4-0.5h1l0.4-1.9c0.6-0.2,1.4-0.7,2-1.1l0.1,0.1
	c-0.2,0.8-0.5,1.9-0.7,2.9h1.7L1120.2,203z"/>
<path d="M1120.3,204.1c1-1.3,2.1-1.8,2.6-1.8c0.7,0,0.6,0.8,0.3,2.4l-0.1,0.6c0.6-1.3,1.7-3,2.7-3c0.5,0,0.8,0.4,0.8,0.9
	s-0.5,1.2-0.8,1.4c-0.1,0.1-0.3,0.1-0.3,0c-0.2-0.3-0.6-0.5-0.9-0.5c-0.4,0-1,1.3-1.3,1.9c-0.5,1.1-0.8,3-1.1,4.1
	c-0.6,0.1-1.4,0.2-1.8,0.4l-0.1-0.1c0.4-1.9,0.9-4,1.2-5.2c0.2-1,0.2-1.3,0-1.3c-0.3,0-0.7,0.5-1,0.7L1120.3,204.1z"/>
<path d="M1126.5,204.2c0.6-1,1.7-1.9,2.4-1.9c0.7,0,1,0.9,1.1,2.4c0.1,1.1,0.2,3.1,0.3,4.3c0.6-0.9,2.1-3.3,2.1-4.4
	c0-0.6-0.4-1.1-0.4-1.2c-0.1-0.2,0-0.4,0.2-0.6c0.2-0.2,0.6-0.5,0.9-0.5c0.4,0,0.7,0.4,0.7,1c0,0.5-0.2,1.3-0.7,2.2
	c-1.7,2.8-3.6,5.7-6.3,8.9l-2.1,0.6l-0.1-0.3c1.6-1,3.3-2.7,4.1-3.8c0-0.6-0.2-3.8-0.4-5.6c-0.2-1.2-0.3-1.7-0.6-1.7
	c-0.2,0-0.5,0.2-0.9,0.7L1126.5,204.2z"/>
<g>
	<g>
		<path d="M597,312.9h3.6c0,0.8,0.3,1.2,0.9,1.2c0.3,0,0.5-0.1,0.7-0.3s0.3-0.5,0.3-0.9c0-1-0.5-1.4-1.5-1.4c-0.1,0-0.2,0-0.3,0
			s-0.2,0-0.4,0v-2.9c0.1,0,0.2,0,0.3,0s0.1,0,0.2,0c1,0,1.5-0.5,1.5-1.4c0-0.8-0.3-1.1-0.8-1.1c-0.4,0-0.6,0.3-0.7,0.9v0.2h-3.5
			c0.1-1.3,0.5-2.3,1.3-3s1.8-1.1,3.1-1.1c1.2,0,2.2,0.4,3,1.1c0.8,0.8,1.2,1.7,1.2,2.8c0,1.2-0.5,2.2-1.6,2.9
			c1.2,0.7,1.8,1.7,1.8,3.1c0,1.2-0.4,2.2-1.3,3c-0.8,0.8-2,1.1-3.3,1.1s-2.4-0.4-3.2-1.1s-1.2-1.7-1.2-2.9L597,312.9L597,312.9z"/>
		<path d="M612.2,313.7l-2.4,6.5h-2.9l1.7-6.5H612.2z"/>
		<path d="M620.3,316.9h-3.7v-10.4h-1.5v-3.2h5.1v13.6H620.3z"/>
		<path d="M631.5,303.3l-2.2,3.9c-0.1,0.1-0.2,0.3-0.3,0.5s-0.2,0.4-0.4,0.6c0.5-0.3,0.9-0.4,1.3-0.4c0.9,0,1.7,0.4,2.4,1.3
			c0.7,0.8,1,1.9,1,3.1c0,1.4-0.4,2.6-1.3,3.6c-0.9,0.9-2,1.4-3.4,1.4c-1.3,0-2.4-0.4-3.2-1.3s-1.2-2.1-1.2-3.6
			c0-1.6,0.7-3.8,2.2-6.5l1.2-2.4h3.9V303.3z M629.7,312.3c0-1.2-0.3-1.8-1-1.8s-1,0.6-1,1.8c0,1.3,0.3,1.9,1,1.9
			C629.4,314.2,629.7,313.6,629.7,312.3z"/>
		<path d="M642,309.8c1.4,0.6,2.1,1.7,2.1,3.2c0,1.2-0.4,2.2-1.3,2.9c-0.9,0.8-2,1.2-3.3,1.2s-2.4-0.4-3.3-1.2
			c-0.9-0.8-1.3-1.8-1.3-2.9c0-1.5,0.8-2.6,2.3-3.2c-1.4-0.5-2-1.4-2-2.8c0-1.1,0.4-2.1,1.2-2.8c0.8-0.7,1.8-1.1,3.1-1.1
			s2.3,0.4,3.2,1.1c0.8,0.7,1.3,1.6,1.3,2.7c0,0.7-0.1,1.3-0.4,1.8S642.7,309.5,642,309.8z M640.4,312.6c0-0.9-0.3-1.4-0.9-1.4
			c-0.1,0-0.2,0-0.4,0.1s-0.2,0.2-0.3,0.3s-0.1,0.3-0.2,0.4s-0.1,0.4-0.1,0.6c0,0.4,0.1,0.7,0.3,1s0.4,0.4,0.7,0.4
			c0.1,0,0.2,0,0.4-0.1s0.2-0.2,0.3-0.3s0.1-0.3,0.2-0.4S640.4,312.8,640.4,312.6z M640.3,307.2c0-0.4-0.1-0.6-0.2-0.9
			s-0.3-0.3-0.6-0.3c-0.2,0-0.4,0.1-0.5,0.3s-0.2,0.5-0.2,0.8c0,0.8,0.3,1.2,0.8,1.2C640,308.4,640.3,308,640.3,307.2z"/>
		<path d="M654.5,309.3c0.5-0.1,1.1-0.2,1.6-0.2c1.7,0,2.4,0.9,2.4,2.4c0,1.1-0.5,2.5-1.4,3.5c-0.8,1-2.4,2-3.3,2.1
			c-0.2,0-0.5,0-0.8-0.2l-0.5,3c-0.2,0.9-0.1,1.2,0.9,1.2h0.4l-0.1,0.3l-4.7,0.2v-0.3c1.3-0.2,1.3-0.4,1.6-1.6
			c0.5-2.3,1.4-6.5,1.9-9.5c-0.5,0.2-1,0.4-1.4,0.6l-0.1-0.3c0.5-0.4,1.1-0.6,1.6-0.9l0.2-0.8c0.3-0.3,1.3-1,2-1.3l0.1,0.1
			L654.5,309.3z M653.1,316c0.2,0.3,0.6,0.7,0.9,0.6c0.9,0,2.4-2.6,2.4-5.1c0-1.4-0.5-1.7-1.4-1.7c-0.3,0-0.5,0-0.7,0.1
			C653.9,311.8,653.5,313.9,653.1,316z"/>
		<path d="M661.4,317.1c-0.9,0-2-0.5-2-2.5c0-1.7,0.7-3.4,1.9-4.4c0.7-0.6,1.8-1.1,2.6-1.1c1,0,1.4,0.6,1.4,1.4c0,1.6-2.5,2.4-4,2.7
			c0,0.3,0,0.5,0,0.6c0,1.2,0.3,2.1,1.3,2.1c0.7,0,1.4-0.3,2.2-1.2l0.2,0.3C663.7,316.7,662.3,317.1,661.4,317.1z M661.4,312.7
			c1.8-0.3,2.3-1.3,2.3-2.2c0-0.5-0.2-0.9-0.6-0.9C662.5,309.7,661.7,310.4,661.4,312.7z"/>
		<path d="M673.2,311.7c0,1.9-0.9,3.9-2.6,4.8c-0.6,0.4-1.3,0.6-2.1,0.6c-1.9,0-2.4-1.3-2.4-2.6c0-2.3,1.3-4.2,2.9-5
			c0.6-0.3,1.2-0.5,1.9-0.5C672.5,309.1,673.2,310.2,673.2,311.7z M668.1,314.5c0,1.5,0.5,2.1,1.1,2.1c1.6,0,2-3.7,2-4.9
			c0-1.5-0.5-2.1-1-2.1C668.6,309.6,668.1,313.2,668.1,314.5z"/>
		<path d="M677.8,309.3c0.5-0.1,1.1-0.2,1.6-0.2c1.7,0,2.4,0.9,2.4,2.4c0,1.1-0.5,2.5-1.4,3.5c-0.8,1-2.4,2-3.3,2.1
			c-0.2,0-0.5,0-0.8-0.2l-0.5,3c-0.2,0.9-0.1,1.2,0.9,1.2h0.4l-0.1,0.3l-4.7,0.2v-0.3c1.3-0.2,1.3-0.4,1.6-1.6
			c0.5-2.3,1.3-6.5,1.9-9.5c-0.5,0.2-1,0.4-1.4,0.6l-0.1-0.3c0.5-0.4,1.1-0.6,1.6-0.9l0.2-0.8c0.3-0.3,1.3-1,2-1.3l0.1,0.1
			L677.8,309.3z M676.4,316c0.2,0.3,0.6,0.7,0.9,0.6c0.9,0,2.4-2.6,2.4-5.1c0-1.4-0.5-1.7-1.4-1.7c-0.3,0-0.5,0-0.7,0.1
			C677.2,311.8,676.8,313.9,676.4,316z"/>
		<path d="M686.2,315.2c-1,1.3-2.1,1.9-2.7,1.9c-0.6,0-0.8-0.5-0.5-1.8c0.6-3,1.3-6.4,1.8-9.3c0.2-0.8,0.1-0.8-0.7-1
			c-0.1,0-0.2,0-0.3-0.1l0.1-0.2c0.9-0.1,1.9-0.3,2.4-0.5c0.3-0.1,0.5-0.2,0.6-0.2s0.1,0.2,0,0.7c-0.7,3.3-1.4,6.8-2.1,10.2
			c-0.1,0.5-0.1,0.6,0.1,0.6c0.1,0,0.5-0.2,1.1-0.8L686.2,315.2z"/>
		<path d="M689.1,317.1c-0.9,0-2-0.5-2-2.5c0-1.7,0.7-3.4,1.9-4.4c0.7-0.6,1.8-1.1,2.6-1.1c1,0,1.4,0.6,1.4,1.4c0,1.6-2.5,2.4-4,2.7
			c0,0.3,0,0.5,0,0.6c0,1.2,0.3,2.1,1.3,2.1c0.7,0,1.4-0.3,2.2-1.2l0.2,0.3C691.4,316.7,690,317.1,689.1,317.1z M689.2,312.7
			c1.8-0.3,2.3-1.3,2.3-2.2c0-0.5-0.2-0.9-0.6-0.9C690.2,309.7,689.5,310.4,689.2,312.7z"/>
		<path d="M698.2,304.7c0.7-0.1,1.9-0.3,2.4-0.5c0.3-0.1,0.5-0.2,0.6-0.2s0.1,0.2,0,0.7c-0.5,2.4-1,4.9-1.5,7.3c1.1-1.8,2.8-3,3.9-3
			c0.6,0,1.2,0.3,0.7,2.5c-0.3,1.2-0.5,2.3-0.8,3.5c-0.1,0.5-0.1,0.6,0.1,0.6c0.1,0,0.5-0.1,1-0.7l0.1,0.2c-1,1.3-2.2,1.9-2.8,1.9
			s-0.8-0.4-0.5-1.7c0.3-1.3,0.6-2.6,0.9-3.9c0.2-0.9,0.1-1.2-0.3-1.2c-0.5,0-1.3,0.5-2.2,2.1c-0.3,0.6-0.5,1.3-0.7,1.8
			c-0.2,0.8-0.5,1.9-0.5,2.6c-0.7,0.1-1.3,0.2-1.9,0.4l-0.1-0.1c0.7-3.3,1.5-7,2.2-10.8c0.2-1,0.1-1.1-0.7-1.2c-0.1,0-0.1,0-0.3,0
			L698.2,304.7z"/>
		<path d="M713.5,315.2c-1,1.3-2.1,1.9-2.7,1.9c-0.5,0-0.7-0.4-0.5-2l0.1-0.8c-0.6,0.9-1.1,1.4-1.7,2c-0.6,0.6-1.2,0.9-1.8,0.9
			c-0.7,0-1.2-0.9-1.2-2.1c0-1.7,0.8-3.4,1.9-4.5c0.7-0.7,2.1-1.5,3.5-1.5c0.8,0,1.7,0.2,2.1,0.3c-0.4,1.5-0.8,3.6-1.2,5.7
			c-0.1,0.5,0,0.6,0.1,0.6s0.5-0.1,1-0.7L713.5,315.2z M710.1,314.2c0.4-0.5,0.5-1,0.7-1.6c0.2-0.8,0.5-2.1,0.6-2.7
			c-0.3-0.1-0.6-0.3-1.2-0.3c-1.5,0-2.3,3.2-2.3,5c0,0.8,0.2,1.1,0.5,1.1C708.8,315.8,709.2,315.4,710.1,314.2z"/>
		<path d="M714.2,310.9c0.7-0.9,1.8-1.9,2.5-1.9c0.5,0,0.7,0.7,0.8,2.4c0.1,1.4,0.1,2.4,0.2,3.6c0.7-0.8,2.2-2.6,2.2-3.6
			c0-0.5-0.1-0.8-0.3-1.1c-0.1-0.1-0.1-0.2,0-0.3c0.1-0.3,0.7-0.9,1.2-0.9c0.4,0,0.7,0.4,0.7,1c0,0.5-0.1,1.2-1,2.4
			c-1.1,1.5-3.3,3.9-4.1,4.6H716c-0.1-1.5-0.1-3.3-0.3-5.1c-0.1-1-0.2-1.5-0.4-1.5c-0.1,0-0.4,0.1-0.9,0.7L714.2,310.9z"/>
		<path d="M723.9,317.1c-0.9,0-2-0.5-2-2.5c0-1.7,0.7-3.4,1.9-4.4c0.7-0.6,1.8-1.1,2.6-1.1c1,0,1.4,0.6,1.4,1.4c0,1.6-2.5,2.4-4,2.7
			c0,0.3,0,0.5,0,0.6c0,1.2,0.3,2.1,1.3,2.1c0.7,0,1.4-0.3,2.2-1.2l0.2,0.3C726.1,316.7,724.8,317.1,723.9,317.1z M723.9,312.7
			c1.8-0.3,2.3-1.3,2.3-2.2c0-0.5-0.2-0.9-0.6-0.9C724.9,309.7,724.2,310.4,723.9,312.7z"/>
		<path d="M739.6,315.2c-1,1.3-2.2,1.9-2.8,1.9s-0.8-0.4-0.5-1.9l0.2-0.9c-1.1,1.6-2.5,2.8-3.5,2.8c-0.7,0-1.3-0.6-1.3-2.1
			c0-1.7,0.7-3.6,1.9-4.6c0.9-0.8,2.4-1.3,3-1.3c0.2,0,0.5,0,0.9,0.1l0.6-3.1c0.1-0.8,0-0.8-0.7-0.9c-0.1,0-0.2,0-0.3-0.1l0.1-0.2
			c0.8-0.1,2-0.3,2.6-0.5c0.3-0.1,0.5-0.2,0.6-0.2s0.2,0.1,0.1,0.5c-0.7,3.3-1.6,7.4-2.2,10.4c-0.1,0.5,0,0.6,0.1,0.6
			s0.5-0.2,1.1-0.8L739.6,315.2z M736.4,313.9c0.3-0.4,0.4-0.9,0.5-1.5l0.5-2.3c-0.3-0.4-1-0.5-1.3-0.5c-1.5,0-2.2,3.5-2.2,5.1
			c0,0.8,0.2,1.1,0.5,1.1C734.8,315.8,735.6,315.1,736.4,313.9z"/>
		<path d="M744.1,315.2c-1,1.3-2.2,1.9-2.8,1.9s-0.8-0.6-0.4-1.9c0.4-1.6,0.6-2.6,1-4c0.1-0.6,0.1-0.8-0.1-0.8c-0.3,0-0.7,0.3-1,0.7
			l-0.2-0.3c0.8-1,2.1-1.8,2.8-1.8c0.6,0,0.6,0.6,0.3,2.1c-0.3,1.3-0.6,2.6-0.9,3.9c-0.1,0.5,0,0.7,0.1,0.7s0.5-0.2,1-0.7
			L744.1,315.2z M744.5,306.3c0,0.6-0.4,1.2-1,1.2c-0.5,0-0.8-0.3-0.8-0.9c0-0.5,0.4-1.2,1.1-1.2
			C744.3,305.4,744.5,305.8,744.5,306.3z"/>
		<path d="M747.1,317.1c-0.9,0-2-0.5-2-2.5c0-1.7,0.7-3.4,1.9-4.4c0.7-0.6,1.8-1.1,2.6-1.1c1,0,1.4,0.6,1.4,1.4c0,1.6-2.5,2.4-4,2.7
			c0,0.3,0,0.5,0,0.6c0,1.2,0.3,2.1,1.3,2.1c0.7,0,1.4-0.3,2.2-1.2l0.2,0.3C749.4,316.7,748,317.1,747.1,317.1z M747.2,312.7
			c1.8-0.3,2.3-1.3,2.3-2.2c0-0.5-0.2-0.9-0.6-0.9C748.2,309.7,747.5,310.4,747.2,312.7z"/>
		<path d="M759.7,315.2c-1,1.3-2.2,1.9-2.8,1.9s-0.8-0.4-0.5-1.9l0.2-0.9c-1.1,1.6-2.5,2.8-3.5,2.8c-0.7,0-1.3-0.6-1.3-2.1
			c0-1.7,0.7-3.6,1.9-4.6c0.9-0.8,2.4-1.3,3-1.3c0.2,0,0.5,0,0.9,0.1l0.6-3.1c0.1-0.8,0-0.8-0.7-0.9c-0.1,0-0.2,0-0.3-0.1l0.1-0.2
			c0.8-0.1,2-0.3,2.6-0.5c0.3-0.1,0.5-0.2,0.6-0.2s0.2,0.1,0.1,0.5c-0.7,3.3-1.6,7.4-2.2,10.4c-0.1,0.5,0,0.6,0.1,0.6
			s0.5-0.2,1.1-0.8L759.7,315.2z M756.5,313.9c0.3-0.4,0.4-0.9,0.5-1.5l0.5-2.3c-0.3-0.4-1-0.5-1.3-0.5c-1.5,0-2.2,3.5-2.2,5.1
			c0,0.8,0.2,1.1,0.5,1.1C754.9,315.8,755.7,315.1,756.5,313.9z"/>
	</g>
</g>
<g>
	<path class="st18" d="M307.4,698.7l76.1-9.7l75.7-11.3l76.1,39.5l76.1-43.8l76.1-17l76.1-13.9l76.1-10.4l76.1-31.3l76.1-43.3
		l76.1-76.9"/>
</g>
<rect x="925" y="196.7" class="st12" width="126.5" height="23"/>
<text transform="matrix(1 0 0 1 924.975 209.408)" class="st19 st20">per 100k people</text>
</svg>
