<?xml version="1.0" encoding="utf-8"?>
<!-- Generator: Adobe Illustrator 22.1.0, SVG Export Plug-In . SVG Version: 6.00 Build 0)  -->
<svg version="1.1" id="Layer_1" xmlns="http://www.w3.org/2000/svg" xmlns:xlink="http://www.w3.org/1999/xlink" x="0px" y="0px"
	 viewBox="0 0 723.7 723.9" style="enable-background:new 0 0 723.7 723.9;" xml:space="preserve">
<style type="text/css">
	.st0{fill:#EEE8D5;}
	.st1{clip-path:url(#SVGID_2_);fill:none;stroke:#FFFFFF;stroke-linejoin:round;stroke-dasharray:1,1.65;}
	.st2{fill:#657B83;stroke:#657B83;stroke-width:0.8;stroke-linejoin:round;}
	.st3{fill:#657B83;}
	.st4{clip-path:url(#SVGID_4_);fill:none;stroke:#FFFFFF;stroke-linejoin:round;stroke-dasharray:1,1.65;}
	.st5{clip-path:url(#SVGID_6_);fill:none;stroke:#FFFFFF;stroke-linejoin:round;stroke-dasharray:1,1.65;}
	.st6{clip-path:url(#SVGID_8_);fill:none;stroke:#FFFFFF;stroke-linejoin:round;stroke-dasharray:1,1.65;}
	.st7{clip-path:url(#SVGID_10_);fill:none;stroke:#FFFFFF;stroke-linejoin:round;stroke-dasharray:1,1.65;}
	.st8{clip-path:url(#SVGID_12_);fill:none;stroke:#FFFFFF;stroke-linejoin:round;stroke-dasharray:1,1.65;}
	.st9{clip-path:url(#SVGID_14_);fill:none;stroke:#FFFFFF;stroke-linejoin:round;stroke-dasharray:1,1.65;}
	.st10{clip-path:url(#SVGID_16_);fill:none;stroke:#FFFFFF;stroke-linejoin:round;stroke-dasharray:1,1.65;}
	.st11{clip-path:url(#SVGID_18_);fill:#268BD2;}
	.st12{clip-path:url(#SVGID_20_);fill:#268BD2;}
	.st13{clip-path:url(#SVGID_22_);fill:#268BD2;}
	.st14{clip-path:url(#SVGID_24_);fill:#268BD2;}
	.st15{clip-path:url(#SVGID_26_);fill:#268BD2;}
	.st16{clip-path:url(#SVGID_28_);fill:#268BD2;}
	.st17{fill:#D7DA00;}
	.st18{fill:none;}
	.st19{font-family:'FuturaStd-CondensedBold';}
	.st20{font-size:10px;}
	.st21{fill:none;stroke:#D26C3D;stroke-width:2;}
	.st22{font-family:'MinionPro-BoldCn';}
	.st23{font-size:30px;}
	.st24{font-family:'MinionPro-SemiboldIt';}
	.st25{font-size:12px;}
	.st26{fill:#FFFFFF;stroke:#FFFFFF;}
	.st27{fill:none;stroke:#000000;}
</style>
<path class="st0" d="M105.9,577.6h538.5V300.4H105.9V577.6z"/>
<g>
	<defs>
		<rect id="SVGID_1_" x="80.4" y="299.1" width="558" height="277.2"/>
	</defs>
	<clipPath id="SVGID_2_">
		<use xlink:href="#SVGID_1_"  style="overflow:visible;"/>
	</clipPath>
	<path class="st1" d="M80.4,576.3h558"/>
</g>
<path id="m53f430ce09" class="st2" d="M105,576.3h-3.5"/>
<path id="FuturaStd-CondensedBold-30_6_" class="st3" d="M95.5,572.7c-1.8,0-2.1,2.6-2.1,3.9c0,1.3,0.3,3.9,2.1,3.9
	c1.8,0,2.1-2.6,2.1-3.9C97.7,575.2,97.4,572.7,95.5,572.7z M95.5,574c0.7,0,0.7,2,0.7,2.5c0,0.5,0.1,2.5-0.7,2.5
	c-0.7,0-0.7-2-0.7-2.5C94.9,576.1,94.8,574,95.5,574z"/>
<g>
	<defs>
		<rect id="SVGID_3_" x="80.4" y="299.1" width="558" height="277.2"/>
	</defs>
	<clipPath id="SVGID_4_">
		<use xlink:href="#SVGID_3_"  style="overflow:visible;"/>
	</clipPath>
	<path class="st4" d="M80.4,540.1h558"/>
</g>
<path id="m53f430ce09_1_" class="st2" d="M105,540.1h-3.5"/>
<path id="FuturaStd-CondensedBold-31_2_" class="st3" d="M89.3,536.6v1.3H90v6.2h1.4v-7.5H89.3z"/>
<path id="FuturaStd-CondensedBold-30_7_" class="st3" d="M95.5,536.5c-1.8,0-2.1,2.6-2.1,3.9c0,1.3,0.3,3.9,2.1,3.9s2.1-2.6,2.1-3.9
	C97.7,539.1,97.4,536.5,95.5,536.5z M95.5,537.9c0.7,0,0.7,2,0.7,2.5c0,0.5,0.1,2.5-0.7,2.5s-0.7-2-0.7-2.5
	C94.9,539.9,94.8,537.9,95.5,537.9z"/>
<g>
	<defs>
		<rect id="SVGID_5_" x="80.4" y="299.1" width="558" height="277.2"/>
	</defs>
	<clipPath id="SVGID_6_">
		<use xlink:href="#SVGID_5_"  style="overflow:visible;"/>
	</clipPath>
	<path class="st5" d="M80.4,504h558"/>
</g>
<path id="m53f430ce09_2_" class="st2" d="M105,504h-3.5"/>
<path id="FuturaStd-CondensedBold-32_2_" class="st3" d="M90.1,503.1l0-0.5c0-0.4,0-1.2,0.6-1.2c0.5,0,0.6,0.5,0.6,0.9
	c0,0.8-0.6,1.9-1,2.6l-1.7,3.1h4v-1.3h-1.8l1.3-2.4c0.4-0.7,0.6-1.3,0.6-2.1c0-1.3-0.8-1.9-2-1.9c-1.6,0-2,0.9-2,2.3l0,0.4H90.1z"/>
<path id="FuturaStd-CondensedBold-30_8_" class="st3" d="M95.5,500.4c-1.8,0-2.1,2.6-2.1,3.9c0,1.3,0.3,3.9,2.1,3.9s2.1-2.6,2.1-3.9
	C97.7,502.9,97.4,500.4,95.5,500.4z M95.5,501.7c0.7,0,0.7,2,0.7,2.5c0,0.5,0.1,2.5-0.7,2.5s-0.7-2-0.7-2.5
	C94.9,503.8,94.8,501.7,95.5,501.7z"/>
<g>
	<defs>
		<rect id="SVGID_7_" x="80.4" y="299.1" width="558" height="277.2"/>
	</defs>
	<clipPath id="SVGID_8_">
		<use xlink:href="#SVGID_7_"  style="overflow:visible;"/>
	</clipPath>
	<path class="st6" d="M80.4,467.8h558"/>
</g>
<path id="m53f430ce09_3_" class="st2" d="M105,467.8h-3.5"/>
<path id="FuturaStd-CondensedBold-33_1_" class="st3" d="M89.9,469.9h-1.4c-0.1,1.3,0.7,2.1,2,2.1c1.4,0,2.2-0.8,2.2-2.2
	c0-0.8-0.3-1.6-1.2-1.8v0c0.7-0.3,0.9-1.1,0.9-1.8c0-1.2-0.7-2-1.9-2c-1.4,0-1.8,1-1.8,2.2h1.3v-0.2c0-0.3,0.1-0.8,0.5-0.8
	c0.4,0,0.5,0.4,0.5,0.8c0,0.8-0.3,1-1.1,1v1.3c0.8,0,1.1,0.2,1.1,1.1c0,0.4,0,1.1-0.6,1.1c-0.4,0-0.6-0.3-0.6-0.6L89.9,469.9z"/>
<path id="FuturaStd-CondensedBold-30_9_" class="st3" d="M95.5,464.2c-1.8,0-2.1,2.6-2.1,3.9s0.3,3.9,2.1,3.9s2.1-2.6,2.1-3.9
	S97.4,464.2,95.5,464.2z M95.5,465.5c0.7,0,0.7,2,0.7,2.5c0,0.5,0.1,2.5-0.7,2.5s-0.7-2-0.7-2.5C94.9,467.6,94.8,465.5,95.5,465.5z"
	/>
<g>
	<defs>
		<rect id="SVGID_9_" x="80.4" y="299.1" width="558" height="277.2"/>
	</defs>
	<clipPath id="SVGID_10_">
		<use xlink:href="#SVGID_9_"  style="overflow:visible;"/>
	</clipPath>
	<path class="st7" d="M80.4,431.6h558"/>
</g>
<path id="m53f430ce09_4_" class="st2" d="M105,431.6h-3.5"/>
<path id="FuturaStd-CondensedBold-34" class="st3" d="M90.5,428.1l-2,4.6v1.1h2.2v1.8h1.4v-1.8h0.6v-1.1h-0.6v-4.6H90.5z
	 M90.7,432.7h-1.1l1.1-2.9h0V432.7z"/>
<path id="FuturaStd-CondensedBold-30_10_" class="st3" d="M95.5,428c-1.8,0-2.1,2.6-2.1,3.9c0,1.3,0.3,3.9,2.1,3.9s2.1-2.6,2.1-3.9
	C97.7,430.6,97.4,428,95.5,428z M95.5,429.4c0.7,0,0.7,2,0.7,2.5c0,0.5,0.1,2.5-0.7,2.5s-0.7-2-0.7-2.5
	C94.9,431.4,94.8,429.4,95.5,429.4z"/>
<g>
	<defs>
		<rect id="SVGID_11_" x="80.4" y="299.1" width="558" height="277.2"/>
	</defs>
	<clipPath id="SVGID_12_">
		<use xlink:href="#SVGID_11_"  style="overflow:visible;"/>
	</clipPath>
	<path class="st8" d="M80.4,395.5h558"/>
</g>
<path id="m53f430ce09_5_" class="st2" d="M105,395.5h-3.5"/>
<path id="FuturaStd-CondensedBold-35_3_" class="st3" d="M88.9,395.7c0.2,0,0.4-0.1,0.6-0.1c0.9,0,1.5,0.4,1.5,1.3
	c0,0.7-0.4,1.4-1.2,1.4c-0.3,0-0.7-0.1-0.9-0.4l-0.2,1.3c0.5,0.2,0.9,0.3,1.5,0.3c1.7,0,2.5-1,2.5-2.6c0-1.5-0.7-2.4-2.2-2.5
	l0.2-1.2h1.8V392h-2.9L88.9,395.7z"/>
<path id="FuturaStd-CondensedBold-30_11_" class="st3" d="M95.5,391.9c-1.8,0-2.1,2.6-2.1,3.9s0.3,3.9,2.1,3.9s2.1-2.6,2.1-3.9
	S97.4,391.9,95.5,391.9z M95.5,393.2c0.7,0,0.7,2,0.7,2.5c0,0.5,0.1,2.5-0.7,2.5s-0.7-2-0.7-2.5C94.9,395.3,94.8,393.2,95.5,393.2z"
	/>
<g>
	<defs>
		<rect id="SVGID_13_" x="80.4" y="299.1" width="558" height="277.2"/>
	</defs>
	<clipPath id="SVGID_14_">
		<use xlink:href="#SVGID_13_"  style="overflow:visible;"/>
	</clipPath>
	<path class="st9" d="M80.4,359.3h558"/>
</g>
<path id="m53f430ce09_6_" class="st2" d="M105,359.3h-3.5"/>
<path id="FuturaStd-CondensedBold-36" class="st3" d="M90.3,355.8l-0.6,1.3c-0.6,1.2-1.1,2.4-1.1,3.7c0,1.3,0.6,2.7,2.1,2.7
	c1.6,0,2.1-1.4,2.1-2.8c0-0.9-0.4-2.3-1.5-2.3c-0.4,0-0.7,0.2-0.9,0.4l0,0l1.4-2.9H90.3z M90.7,359.7c0.5,0,0.6,0.8,0.6,1.2
	c0,0.4-0.1,1.3-0.6,1.3c-0.5,0-0.6-0.9-0.6-1.2C90,360.6,90.1,359.7,90.7,359.7z"/>
<path id="FuturaStd-CondensedBold-30_12_" class="st3" d="M95.5,355.7c-1.8,0-2.1,2.6-2.1,3.9c0,1.3,0.3,3.9,2.1,3.9
	s2.1-2.6,2.1-3.9C97.7,358.3,97.4,355.7,95.5,355.7z M95.5,357.1c0.7,0,0.7,2,0.7,2.5c0,0.5,0.1,2.5-0.7,2.5s-0.7-2-0.7-2.5
	C94.9,359.1,94.8,357.1,95.5,357.1z"/>
<g>
	<defs>
		<rect id="SVGID_15_" x="80.4" y="299.1" width="558" height="277.2"/>
	</defs>
	<clipPath id="SVGID_16_">
		<use xlink:href="#SVGID_15_"  style="overflow:visible;"/>
	</clipPath>
	<path class="st10" d="M80.4,323.2h558"/>
</g>
<path id="m53f430ce09_7_" class="st2" d="M105,323.2h-3.5"/>
<path id="FuturaStd-CondensedBold-37" class="st3" d="M82.3,318.6v1.3h2l-2.3,6.2h1.6l2.8-7.5H82.3z"/>
<path id="FuturaStd-CondensedBold-30_13_" class="st3" d="M88.9,318.5c-1.8,0-2.1,2.6-2.1,3.9s0.3,3.9,2.1,3.9
	c1.8,0,2.1-2.6,2.1-3.9S90.7,318.5,88.9,318.5z M88.9,319.9c0.7,0,0.7,2,0.7,2.5c0,0.5,0.1,2.5-0.7,2.5c-0.7,0-0.7-2-0.7-2.5
	C88.2,321.9,88.2,319.9,88.9,319.9z"/>
<path id="FuturaStd-CondensedBold-46" class="st3" d="M83.2,439.4H84v-0.1h-0.3v-0.1h-0.1v0.1h-0.2v-0.2h-0.1V439.4z"/>
<path id="FuturaStd-CondensedBold-72" class="st3" d="M83.4,439.1H84v-0.1h-0.3c-0.1,0-0.1,0-0.1-0.1c0,0,0,0,0,0h-0.1
	c0,0.1,0,0.1,0.1,0.1v0h-0.1V439.1z"/>
<path id="FuturaStd-CondensedBold-65" class="st3" d="M83.6,438.5v0.1h0c0,0-0.1,0-0.1-0.1C83.5,438.5,83.6,438.5,83.6,438.5
	L83.6,438.5z M83.7,438.4c-0.2,0-0.2,0.1-0.2,0.2c0,0.1,0.2,0.2,0.3,0.2c0.1,0,0.3-0.1,0.3-0.2c0-0.1,0-0.1,0-0.1c0,0-0.1,0-0.1,0
	v0.1c0,0,0.1,0,0.1,0c0,0.1-0.1,0.1-0.1,0.1L83.7,438.4L83.7,438.4z"/>
<path id="FuturaStd-CondensedBold-71" class="st3" d="M83.4,438v0.1h0.1v0c0,0-0.1,0-0.1,0.1c0,0.1,0.2,0.1,0.3,0.1
	c0.1,0,0.3,0,0.3-0.1c0,0,0-0.1-0.1-0.1v0h0.3V438H83.4z M83.8,438.2c0,0.1-0.1,0.1-0.1,0.1c0,0-0.1,0-0.1,0c0,0,0.1-0.1,0.1-0.1
	C83.7,438.1,83.8,438.1,83.8,438.2z"/>
<path id="FuturaStd-CondensedBold-75" class="st3" d="M83.4,437.9h0.3c0.1,0,0.2,0,0.2-0.2c0-0.1-0.1-0.2-0.2-0.2h-0.3v0.1l0.3,0
	c0,0,0.1,0,0.1,0c0,0-0.1,0-0.1,0h-0.3V437.9z"/>
<path id="FuturaStd-CondensedBold-65_1_" class="st3" d="M83.6,437.3v0.1h0c0,0-0.1,0-0.1-0.1C83.5,437.3,83.6,437.3,83.6,437.3
	L83.6,437.3z M83.7,437.1c-0.2,0-0.2,0.1-0.2,0.2c0,0.1,0.2,0.2,0.3,0.2c0.1,0,0.3-0.1,0.3-0.2c0-0.1,0-0.1,0-0.1c0,0-0.1,0-0.1,0
	v0.1c0,0,0.1,0,0.1,0c0,0.1-0.1,0.1-0.1,0.1L83.7,437.1L83.7,437.1z"/>
<path id="FuturaStd-CondensedBold-6e" class="st3" d="M83.4,436.9v0.1H84v-0.1h-0.3c0,0-0.1,0-0.1,0c0,0,0.1,0,0.1,0H84v-0.1h-0.3
	c-0.1,0-0.2,0-0.2,0.1C83.4,436.9,83.5,436.9,83.4,436.9L83.4,436.9L83.4,436.9z"/>
<path id="FuturaStd-CondensedBold-63" class="st3" d="M83.8,436.4C83.8,436.4,83.8,436.4,83.8,436.4c0,0.1-0.1,0.1-0.1,0.1
	c-0.1,0-0.1,0-0.1-0.1c0,0,0,0,0,0h-0.1c0,0,0,0,0,0.1c0,0.1,0.1,0.2,0.3,0.2c0.1,0,0.3,0,0.3-0.2c0,0,0-0.1,0-0.1H83.8z"/>
<path id="FuturaStd-CondensedBold-79" class="st3" d="M83.4,436.3l0.5-0.1l0.3,0.1v-0.1l-0.8-0.2v0.1l0.3,0.1v0l-0.1,0l-0.2,0.1
	V436.3z"/>
<g>
	<defs>
		<rect id="SVGID_17_" x="80.4" y="299.1" width="558" height="277.2"/>
	</defs>
	<clipPath id="SVGID_18_">
		<use xlink:href="#SVGID_17_"  style="overflow:visible;"/>
	</clipPath>
	<path class="st11" d="M105.8,576.3h84.5v-264h-84.5V576.3z"/>
</g>
<g>
	<defs>
		<rect id="SVGID_19_" x="80.4" y="299.1" width="558" height="277.2"/>
	</defs>
	<clipPath id="SVGID_20_">
		<use xlink:href="#SVGID_19_"  style="overflow:visible;"/>
	</clipPath>
	<path class="st12" d="M190.3,576.3h84.5v-65.1h-84.5V576.3z"/>
</g>
<g>
	<defs>
		<rect id="SVGID_21_" x="80.4" y="299.1" width="558" height="277.2"/>
	</defs>
	<clipPath id="SVGID_22_">
		<use xlink:href="#SVGID_21_"  style="overflow:visible;"/>
	</clipPath>
	<path class="st13" d="M274.9,576.3h84.5v-21.7h-84.5V576.3z"/>
</g>
<g>
	<defs>
		<rect id="SVGID_23_" x="80.4" y="299.1" width="558" height="277.2"/>
	</defs>
	<clipPath id="SVGID_24_">
		<use xlink:href="#SVGID_23_"  style="overflow:visible;"/>
	</clipPath>
	<path class="st14" d="M359.4,576.3H444v-10.8h-84.5V576.3z"/>
</g>
<g>
	<defs>
		<rect id="SVGID_25_" x="80.4" y="299.1" width="558" height="277.2"/>
	</defs>
	<clipPath id="SVGID_26_">
		<use xlink:href="#SVGID_25_"  style="overflow:visible;"/>
	</clipPath>
	<path class="st15" d="M444,576.3h84.5v-14.5H444V576.3z"/>
</g>
<g>
	<defs>
		<rect id="SVGID_27_" x="80.4" y="299.1" width="558" height="277.2"/>
	</defs>
	<clipPath id="SVGID_28_">
		<use xlink:href="#SVGID_27_"  style="overflow:visible;"/>
	</clipPath>
	<path class="st16" d="M528.5,576.3H613v-3.6h-84.5V576.3z"/>
</g>
<rect x="105.9" y="312.3" class="st17" width="84.4" height="263.8"/>
<rect x="178.8" y="583.7" class="st18" width="47" height="28.6"/>
<text transform="matrix(1 0 0 1 178.8477 591.7839)" class="st3 st19 st20">$0.50</text>
<rect x="262.7" y="583.5" class="st18" width="47" height="10.2"/>
<text transform="matrix(1 0 0 1 262.7007 591.6151)" class="st3 st19 st20">$1.00</text>
<rect x="348.3" y="584" class="st18" width="47" height="10.2"/>
<text transform="matrix(1 0 0 1 348.2853 592.0969)" class="st3 st19 st20">$1.50</text>
<rect x="429.2" y="584" class="st18" width="47" height="10.2"/>
<text transform="matrix(1 0 0 1 429.2011 592.0969)" class="st3 st19 st20">$2.00</text>
<rect x="517.3" y="584" class="st18" width="47" height="10.2"/>
<text transform="matrix(1 0 0 1 517.3308 592.0969)" class="st3 st19 st20">$2.50</text>
<rect x="588.9" y="583.8" class="st18" width="47" height="22"/>
<text transform="matrix(1 0 0 1 601.3172 591.8425)"><tspan x="0" y="0" class="st3 st19 st20">$3.00</tspan><tspan x="-5.4" y="12" class="st3 st19 st20">per word</tspan></text>
<path class="st21" d="M175.9,312.3c0-24.4,28.4-44.1,63.4-44.1"/>
<line class="st21" x1="176.3" y1="312.8" x2="171.1" y2="306.7"/>
<line class="st21" x1="175.3" y1="313" x2="181.2" y2="307.6"/>
<rect x="242.7" y="258.5" class="st18" width="134.3" height="48"/>
<text transform="matrix(1 0 0 1 242.73 265.4303)"><tspan x="0" y="0" class="st22 st20">More than 70% of writers gets </tspan><tspan x="0" y="12" class="st22 st20">paid $0.50 per wor</tspan><tspan x="72.4" y="12" class="st22 st20">d</tspan><tspan x="76.7" y="12" class="st22 st20"> or less.</tspan></text>
<rect x="92.1" y="318.1" class="st18" width="11.5" height="9.3"/>
<text transform="matrix(1 0 0 1 92.1205 326.1646)" class="st3 st19 st20">%</text>
<rect x="105.9" y="112.9" class="st18" width="538.5" height="31.3"/>
<text transform="matrix(1 0 0 1 111.2863 137.073)" class="st19 st23">How Much Does a Freelance Journalist Get Paid?</text>
<rect x="190.3" y="159.6" class="st18" width="382.2" height="38.9"/>
<text transform="matrix(1 0 0 1 204.4313 168.1204)"><tspan x="0" y="0" class="st24 st25">Not much! A 3,000 word story in a magazine can take weeks or months to </tspan><tspan x="4.6" y="14.4" class="st24 st25">produce, but most journalists would only take home $1,500 before taxes</tspan></text>
<line class="st26" x1="465.7" y1="169.5" x2="493.1" y2="169.5"/>
<line class="st27" x1="509.1" y1="170" x2="545" y2="170"/>
<line class="st27" x1="465.2" y1="169.6" x2="494.4" y2="169.6"/>
</svg>
