<?xml version="1.0" encoding="utf-8"?>
<!-- Generator: Adobe Illustrator 22.1.0, SVG Export Plug-In . SVG Version: 6.00 Build 0)  -->
<svg version="1.1" id="Layer_1" xmlns="http://www.w3.org/2000/svg" xmlns:xlink="http://www.w3.org/1999/xlink" x="0px" y="0px"
	 viewBox="0 0 624.5 389.4" style="enable-background:new 0 0 624.5 389.4;" xml:space="preserve">
<style type="text/css">
	.st0{fill:#EEE8D5;}
	.st1{clip-path:url(#SVGID_2_);fill:none;stroke:#FFFFFF;stroke-linejoin:round;stroke-dasharray:1,1.65;}
	.st2{fill:#657B83;stroke:#657B83;stroke-width:0.8;stroke-linejoin:round;}
	.st3{fill:#657B83;}
	.st4{clip-path:url(#SVGID_4_);fill:none;stroke:#FFFFFF;stroke-linejoin:round;stroke-dasharray:1,1.65;}
	.st5{clip-path:url(#SVGID_6_);fill:none;stroke:#FFFFFF;stroke-linejoin:round;stroke-dasharray:1,1.65;}
	.st6{clip-path:url(#SVGID_8_);fill:none;stroke:#FFFFFF;stroke-linejoin:round;stroke-dasharray:1,1.65;}
	.st7{clip-path:url(#SVGID_10_);fill:none;stroke:#FFFFFF;stroke-linejoin:round;stroke-dasharray:1,1.65;}
	.st8{clip-path:url(#SVGID_12_);fill:none;stroke:#FFFFFF;stroke-linejoin:round;stroke-dasharray:1,1.65;}
	.st9{clip-path:url(#SVGID_14_);fill:none;stroke:#FFFFFF;stroke-linejoin:round;stroke-dasharray:1,1.65;}
	.st10{clip-path:url(#SVGID_16_);fill:#268BD2;}
	.st11{clip-path:url(#SVGID_18_);fill:#268BD2;}
	.st12{clip-path:url(#SVGID_20_);fill:#268BD2;}
	.st13{clip-path:url(#SVGID_22_);fill:#268BD2;}
	.st14{clip-path:url(#SVGID_24_);fill:#268BD2;}
	.st15{clip-path:url(#SVGID_26_);fill:#268BD2;}
	.st16{clip-path:url(#SVGID_28_);fill:#268BD2;}
	.st17{clip-path:url(#SVGID_30_);fill:#268BD2;}
	.st18{clip-path:url(#SVGID_32_);fill:#268BD2;}
	.st19{clip-path:url(#SVGID_34_);fill:#268BD2;}
	.st20{fill:none;stroke:#EEE8D5;stroke-width:0.8;stroke-linecap:square;}
	.st21{fill:none;}
	.st22{font-family:'Futura-CondensedMedium';}
	.st23{font-size:12px;}
	.st24{font-size:23px;}
</style>
<path class="st0" d="M145.9,324.7h357.1V58.6H145.9V324.7z"/>
<g>
	<defs>
		<rect id="SVGID_1_" x="145.9" y="58.6" width="357.1" height="266.1"/>
	</defs>
	<clipPath id="SVGID_2_">
		<use xlink:href="#SVGID_1_"  style="overflow:visible;"/>
	</clipPath>
	<path class="st1" d="M145.9,324.7V58.6"/>
</g>
<path id="m93ff611988" class="st2" d="M145.9,324.7v3.5"/>
<path id="FuturaStd-CondensedBold-30" class="st3" d="M145.9,332.1c-1.8,0-2.1,2.6-2.1,3.9c0,1.3,0.3,3.9,2.1,3.9s2.1-2.6,2.1-3.9
	C148.1,334.6,147.7,332.1,145.9,332.1z M145.9,333.4c0.7,0,0.7,2,0.7,2.5c0,0.5,0.1,2.5-0.7,2.5c-0.7,0-0.7-2-0.7-2.5
	C145.3,335.5,145.2,333.4,145.9,333.4z"/>
<g>
	<defs>
		<rect id="SVGID_3_" x="145.9" y="58.6" width="357.1" height="266.1"/>
	</defs>
	<clipPath id="SVGID_4_">
		<use xlink:href="#SVGID_3_"  style="overflow:visible;"/>
	</clipPath>
	<path class="st4" d="M202.6,324.7V58.6"/>
</g>
<path id="m93ff611988_1_" class="st2" d="M202.6,324.7v3.5"/>
<path id="FuturaStd-CondensedBold-31" class="st3" d="M201.3,332.2v1.3h0.7v6.2h1.4v-7.5H201.3z"/>
<g>
	<defs>
		<rect id="SVGID_5_" x="145.9" y="58.6" width="357.1" height="266.1"/>
	</defs>
	<clipPath id="SVGID_6_">
		<use xlink:href="#SVGID_5_"  style="overflow:visible;"/>
	</clipPath>
	<path class="st5" d="M259.3,324.7V58.6"/>
</g>
<path id="m93ff611988_2_" class="st2" d="M259.3,324.7v3.5"/>
<path id="FuturaStd-CondensedBold-32" class="st3" d="M258.8,334.8l0-0.5c0-0.4,0-1.2,0.6-1.2c0.5,0,0.6,0.5,0.6,0.9
	c0,0.8-0.6,1.8-1,2.6l-1.7,3.1h4v-1.3h-1.8l1.3-2.4c0.4-0.7,0.6-1.3,0.6-2.1c0-1.3-0.8-1.9-2-1.9c-1.6,0-2,0.9-2,2.3l0,0.4H258.8z"
	/>
<g>
	<defs>
		<rect id="SVGID_7_" x="145.9" y="58.6" width="357.1" height="266.1"/>
	</defs>
	<clipPath id="SVGID_8_">
		<use xlink:href="#SVGID_7_"  style="overflow:visible;"/>
	</clipPath>
	<path class="st6" d="M316,324.7V58.6"/>
</g>
<path id="m93ff611988_3_" class="st2" d="M316,324.7v3.5"/>
<path id="FuturaStd-CondensedBold-33" class="st3" d="M315.3,337.8h-1.4c-0.1,1.3,0.7,2.1,2,2.1c1.4,0,2.2-0.8,2.2-2.2
	c0-0.8-0.3-1.6-1.2-1.8v0c0.7-0.3,0.9-1.1,0.9-1.8c0-1.2-0.7-2-1.9-2c-1.4,0-1.8,1-1.8,2.2h1.3v-0.1c0-0.3,0.1-0.8,0.5-0.8
	c0.4,0,0.5,0.4,0.5,0.8c0,0.8-0.3,1-1.1,1v1.3c0.8,0,1.1,0.2,1.1,1c0,0.5,0,1.1-0.7,1.1c-0.4,0-0.6-0.3-0.6-0.6L315.3,337.8z"/>
<g>
	<defs>
		<rect id="SVGID_9_" x="145.9" y="58.6" width="357.1" height="266.1"/>
	</defs>
	<clipPath id="SVGID_10_">
		<use xlink:href="#SVGID_9_"  style="overflow:visible;"/>
	</clipPath>
	<path class="st7" d="M372.7,324.7V58.6"/>
</g>
<path id="m93ff611988_4_" class="st2" d="M372.7,324.7v3.5"/>
<path id="FuturaStd-CondensedBold-34" class="st3" d="M372.5,332.2l-2,4.6v1.1h2.2v1.8h1.4v-1.8h0.6v-1.1h-0.6v-4.6H372.5z
	 M372.7,336.8h-1.1l1.1-2.9h0V336.8z"/>
<g>
	<defs>
		<rect id="SVGID_11_" x="145.9" y="58.6" width="357.1" height="266.1"/>
	</defs>
	<clipPath id="SVGID_12_">
		<use xlink:href="#SVGID_11_"  style="overflow:visible;"/>
	</clipPath>
	<path class="st8" d="M429.4,324.7V58.6"/>
</g>
<path id="m93ff611988_5_" class="st2" d="M429.4,324.7v3.5"/>
<path id="FuturaStd-CondensedBold-35" class="st3" d="M427.7,335.9c0.2,0,0.4-0.1,0.6-0.1c0.9,0,1.5,0.4,1.5,1.3
	c0,0.7-0.4,1.4-1.2,1.4c-0.3,0-0.7-0.1-0.9-0.4l-0.2,1.3c0.5,0.2,0.9,0.3,1.5,0.3c1.7,0,2.5-1,2.5-2.6c0-1.5-0.7-2.4-2.2-2.5
	l0.2-1.2h1.8v-1.3h-2.9L427.7,335.9z"/>
<g>
	<defs>
		<rect id="SVGID_13_" x="145.9" y="58.6" width="357.1" height="266.1"/>
	</defs>
	<clipPath id="SVGID_14_">
		<use xlink:href="#SVGID_13_"  style="overflow:visible;"/>
	</clipPath>
	<path class="st9" d="M486.1,324.7V58.6"/>
</g>
<path id="m93ff611988_6_" class="st2" d="M486.1,324.7v3.5"/>
<path id="FuturaStd-CondensedBold-36" class="st3" d="M485.7,332.2l-0.6,1.3c-0.6,1.2-1.1,2.4-1.1,3.7c0,1.3,0.6,2.6,2.1,2.6
	c1.6,0,2.1-1.4,2.1-2.8c0-0.9-0.4-2.3-1.5-2.3c-0.4,0-0.7,0.2-0.9,0.4l0,0l1.4-2.9H485.7z M486.1,336.1c0.5,0,0.6,0.8,0.6,1.2
	c0,0.4-0.1,1.3-0.6,1.3c-0.5,0-0.6-0.9-0.6-1.2C485.4,337,485.5,336.1,486.1,336.1z"/>
<path id="mbba5cc7a13" class="st2" d="M145.9,311.4h-3.5"/>
<path id="FuturaStd-CondensedBold-73" class="st3" d="M81.4,310.7c-0.4-0.3-0.8-0.4-1.3-0.4c-0.9,0-1.7,0.5-1.7,1.5
	c0,1.6,1.6,1.4,1.6,2.1c0,0.3-0.2,0.4-0.4,0.4c-0.3,0-0.5-0.1-0.7-0.3l-0.6,1c0.4,0.3,1,0.6,1.5,0.6c1,0,1.6-0.8,1.6-1.8
	c0-1.5-1.6-1.4-1.6-2c0-0.2,0.1-0.4,0.4-0.4c0.3,0,0.5,0.2,0.7,0.3L81.4,310.7z"/>
<path id="FuturaStd-CondensedBold-63" class="st3" d="M84.6,314c-0.1,0.1-0.3,0.1-0.4,0.1c-0.7,0-0.8-0.8-0.8-1.4
	c0-0.5,0.2-1.4,0.8-1.4c0.2,0,0.3,0,0.4,0.2v-1.2c-0.2-0.1-0.4-0.1-0.7-0.1c-1.5,0-2,1.4-2,2.7c0,1.1,0.5,2.6,1.8,2.6
	c0.3,0,0.6-0.1,0.8-0.2V314z"/>
<path id="FuturaStd-CondensedBold-69" class="st3" d="M85.2,310.3v5h1.4v-5H85.2z M85.9,309.7c0.5,0,0.9-0.4,0.9-0.9
	c0-0.5-0.4-0.9-0.9-0.9c-0.5,0-0.9,0.4-0.9,0.9C85,309.3,85.4,309.7,85.9,309.7z"/>
<path id="FuturaStd-CondensedBold-65" class="st3" d="M89.6,312.4h-1v-0.1c0-0.3,0.1-0.9,0.5-0.9c0.4,0,0.5,0.6,0.5,0.9V312.4z
	 M90.8,312.7c0.1-1.6-0.8-2.4-1.7-2.4c-1.5,0-1.9,1.5-1.9,2.7c0,1.2,0.5,2.5,1.9,2.5c0.5,0,0.9-0.2,1.1-0.5c0.3-0.3,0.4-0.7,0.5-1.2
	h-1.2c0,0.3-0.1,0.6-0.4,0.6c-0.5,0-0.5-0.8-0.5-1.2h2.2L90.8,312.7z"/>
<path id="FuturaStd-CondensedBold-6e" class="st3" d="M92.8,310.3h-1.4v5h1.4v-3.1c0-0.2,0.1-0.6,0.4-0.6c0.5,0,0.3,0.7,0.3,1v2.8
	H95v-3.3c0-0.7,0.1-1.9-0.9-1.9c-0.6,0-1,0.4-1.2,0.9h0V310.3z"/>
<path id="FuturaStd-CondensedBold-63_1_" class="st3" d="M98.2,314c-0.1,0.1-0.3,0.1-0.4,0.1c-0.7,0-0.8-0.8-0.8-1.4
	c0-0.5,0.1-1.4,0.8-1.4c0.2,0,0.3,0,0.4,0.2v-1.2c-0.2-0.1-0.5-0.1-0.7-0.1c-1.5,0-2,1.4-2,2.7c0,1.1,0.5,2.6,1.8,2.6
	c0.3,0,0.6-0.1,0.8-0.2V314z"/>
<path id="FuturaStd-CondensedBold-65_1_" class="st3" d="M101.1,312.4h-1v-0.1c0-0.3,0.1-0.9,0.5-0.9c0.4,0,0.5,0.6,0.5,0.9V312.4z
	 M102.3,312.7c0.1-1.6-0.8-2.4-1.7-2.4c-1.5,0-1.9,1.5-1.9,2.7c0,1.2,0.5,2.5,1.9,2.5c0.5,0,0.9-0.2,1.1-0.5
	c0.3-0.3,0.4-0.7,0.5-1.2H101c0,0.3-0.1,0.6-0.4,0.6c-0.5,0-0.5-0.8-0.5-1.2h2.2L102.3,312.7z"/>
<path id="FuturaStd-CondensedBold-20" class="st3" d="M102.6,315.4"/>
<path id="FuturaStd-CondensedBold-6d" class="st3" d="M106.8,310.3h-1.4v5h1.4v-3.1c0-0.3,0.1-0.6,0.4-0.6c0.4,0,0.3,0.6,0.3,0.9
	v2.8h1.4v-3.2c0-0.2,0.1-0.6,0.4-0.6c0.4,0,0.4,0.7,0.4,1v2.7h1.4v-3.5c0-0.6,0-1.7-0.9-1.7c-0.5,0-1,0.4-1.2,0.9h0
	c-0.1-0.5-0.3-0.9-0.9-0.9c-0.6,0-1,0.4-1.2,0.9h0L106.8,310.3z"/>
<path id="FuturaStd-CondensedBold-61" class="st3" d="M113.6,314.2c-0.5,0-0.5-1-0.5-1.4c0-0.3,0-1.4,0.5-1.4c0.5,0,0.5,1.1,0.5,1.4
	C114.1,313.1,114.1,314.2,113.6,314.2z M114,315.4h1.4v-5H114v0.6h0c-0.2-0.4-0.5-0.7-1-0.7c-1.2,0-1.3,1.8-1.3,2.6
	c0,0.8,0.2,2.6,1.4,2.6c0.4,0,0.7-0.3,0.9-0.7h0V315.4z"/>
<path id="FuturaStd-CondensedBold-67" class="st3" d="M118,314.2c-0.5,0-0.5-1-0.5-1.4c0-0.3,0-1.4,0.5-1.4c0.5,0,0.5,1.1,0.5,1.4
	C118.4,313.1,118.4,314.2,118,314.2z M116.1,316.1c0.1,1.1,0.6,1.8,1.8,1.8c1.2,0,1.9-0.6,1.9-2.1v-5.5h-1.4v0.6h0
	c-0.2-0.4-0.5-0.7-1-0.7c-1.2,0-1.4,1.8-1.4,2.7c0,0.6,0.1,1.2,0.3,1.7c0.2,0.4,0.6,0.8,1.1,0.8c0.2,0,0.4-0.1,0.6-0.2
	c0.1-0.1,0.2-0.3,0.3-0.5h0v0.6c0,0.4,0.1,1.4-0.5,1.4c-0.4,0-0.5-0.4-0.5-0.7H116.1z"/>
<path id="FuturaStd-CondensedBold-61_1_" class="st3" d="M122.3,314.2c-0.5,0-0.5-1-0.5-1.4c0-0.3,0-1.4,0.5-1.4
	c0.5,0,0.5,1.1,0.5,1.4C122.8,313.1,122.8,314.2,122.3,314.2z M122.7,315.4h1.4v-5h-1.4v0.6h0c-0.2-0.4-0.5-0.7-1-0.7
	c-1.2,0-1.3,1.8-1.3,2.6c0,0.8,0.2,2.6,1.4,2.6c0.4,0,0.7-0.3,0.9-0.7h0V315.4z"/>
<path id="FuturaStd-CondensedBold-7a" class="st3" d="M124.8,310.3v1.2h1.4l-1.6,3.9h3.4v-1.2h-1.4l1.6-3.9H124.8z"/>
<path id="FuturaStd-CondensedBold-69_1_" class="st3" d="M128.8,310.3v5h1.4v-5H128.8z M129.5,309.7c0.5,0,0.9-0.4,0.9-0.9
	c0-0.5-0.4-0.9-0.9-0.9c-0.5,0-0.9,0.4-0.9,0.9C128.6,309.3,129,309.7,129.5,309.7z"/>
<path id="FuturaStd-CondensedBold-6e_1_" class="st3" d="M132.3,310.3h-1.4v5h1.4v-3.1c0-0.2,0.1-0.6,0.4-0.6c0.4,0,0.4,0.7,0.4,1
	v2.8h1.4v-3.3c0-0.7,0.1-1.9-1-1.9c-0.5,0-1,0.4-1.2,0.9h0V310.3z"/>
<path id="FuturaStd-CondensedBold-65_2_" class="st3" d="M137.5,312.4h-1v-0.1c0-0.3,0.1-0.9,0.5-0.9c0.4,0,0.5,0.6,0.5,0.9V312.4z
	 M138.7,312.7c0.1-1.6-0.8-2.4-1.7-2.4c-1.5,0-1.9,1.5-1.9,2.7c0,1.2,0.5,2.5,1.9,2.5c0.5,0,0.9-0.2,1.1-0.5
	c0.3-0.3,0.4-0.7,0.5-1.2h-1.2c0,0.3-0.1,0.6-0.4,0.6c-0.5,0-0.5-0.8-0.5-1.2h2.2L138.7,312.7z"/>
<path id="mbba5cc7a13_1_" class="st2" d="M145.9,284.8h-3.5"/>
<path id="FuturaStd-CondensedBold-77" class="st3" d="M118.4,283.7l1.4,5h1.2l0.4-1.6l0.3-1.6h0l0.3,1.5l0.5,1.7h1.2l1.4-5h-1.3
	l-0.6,2.4l-0.1,0.5h0l-0.6-3h-1.2l-0.7,3h0l-0.7-3H118.4z"/>
<path id="FuturaStd-CondensedBold-69_2_" class="st3" d="M125.6,283.7v5h1.4v-5H125.6z M126.3,283.1c0.5,0,0.9-0.4,0.9-0.9
	c0-0.5-0.4-0.9-0.9-0.9c-0.5,0-0.9,0.4-0.9,0.9C125.4,282.7,125.8,283.1,126.3,283.1z"/>
<path id="FuturaStd-CondensedBold-72" class="st3" d="M127.7,283.7v5h1.4v-2.5c0-0.8,0-1.4,1-1.4c0.1,0,0.1,0,0.2,0v-1.4
	c-0.6,0.1-0.9,0.4-1.1,0.8h0v-0.6H127.7z"/>
<path id="FuturaStd-CondensedBold-65_3_" class="st3" d="M133.1,285.8h-1v-0.1c0-0.3,0.1-0.9,0.5-0.9c0.4,0,0.5,0.6,0.5,0.9V285.8z
	 M134.3,286.1c0.1-1.6-0.8-2.4-1.7-2.4c-1.5,0-1.9,1.5-1.9,2.7c0,1.2,0.5,2.5,1.9,2.5c0.5,0,0.9-0.2,1.1-0.5
	c0.3-0.3,0.4-0.7,0.5-1.2h-1.2c0,0.3-0.1,0.6-0.4,0.6c-0.5,0-0.5-0.8-0.5-1.2h2.2L134.3,286.1z"/>
<path id="FuturaStd-CondensedBold-64" class="st3" d="M137.2,288.8h1.4v-8.1h-1.4v3.6h0c-0.2-0.4-0.5-0.7-1-0.7
	c-1.2,0-1.3,1.8-1.3,2.6c0,0.8,0.2,2.6,1.4,2.6c0.4,0,0.7-0.3,0.9-0.7h0V288.8z M136.8,287.6c-0.5,0-0.5-1-0.5-1.4
	c0-0.3,0-1.4,0.5-1.4c0.5,0,0.5,1.1,0.5,1.4C137.3,286.5,137.2,287.6,136.8,287.6z"/>
<path id="mbba5cc7a13_2_" class="st2" d="M145.9,258.1h-3.5"/>
<path id="FuturaStd-CondensedBold-70" class="st3" d="M112.6,261c-0.5,0-0.5-1.1-0.5-1.4c0-0.3,0-1.4,0.5-1.4c0.5,0,0.5,1.1,0.5,1.4
	C113.1,259.9,113.1,261,112.6,261z M112.2,257.1h-1.4v7.5h1.4v-3.1h0c0.2,0.4,0.5,0.7,0.9,0.7c1.2,0,1.4-1.8,1.4-2.6
	c0-0.9-0.2-2.6-1.3-2.6c-0.5,0-0.8,0.3-0.9,0.7h0V257.1z"/>
<path id="FuturaStd-CondensedBold-6c" class="st3" d="M115.1,254.1v8.1h1.4v-8.1H115.1z"/>
<path id="FuturaStd-CondensedBold-61_2_" class="st3" d="M119.1,261c-0.5,0-0.5-1-0.5-1.4c0-0.3,0-1.4,0.5-1.4
	c0.5,0,0.5,1.1,0.5,1.4C119.6,259.9,119.5,261,119.1,261z M119.5,262.2h1.4v-5h-1.4v0.6h0c-0.2-0.4-0.5-0.7-0.9-0.7
	c-1.2,0-1.4,1.8-1.4,2.6c0,0.8,0.2,2.6,1.4,2.6c0.4,0,0.7-0.3,0.9-0.7h0V262.2z"/>
<path id="FuturaStd-CondensedBold-79" class="st3" d="M121.4,257.1l1.5,4.9l-0.8,2.6h1.4l2.2-7.5h-1.4l-0.7,2.9h0l-0.2-0.8l-0.5-2
	H121.4z"/>
<path id="FuturaStd-CondensedBold-62" class="st3" d="M126.1,262.2h1.4v-0.6h0c0.2,0.4,0.5,0.7,0.9,0.7c1.1,0,1.4-1.8,1.4-2.6
	c0-0.9-0.2-2.6-1.3-2.6c-0.5,0-0.8,0.3-0.9,0.7h0v-3.6h-1.4V262.2z M127.9,261c-0.5,0-0.5-1.1-0.5-1.4c0-0.3,0-1.4,0.5-1.4
	c0.5,0,0.5,1.1,0.5,1.4C128.4,259.9,128.4,261,127.9,261z"/>
<path id="FuturaStd-CondensedBold-6f" class="st3" d="M132.2,257c-1.5,0-1.9,1.3-1.9,2.6c0,1.3,0.4,2.6,1.9,2.6
	c1.5,0,1.9-1.3,1.9-2.6C134.2,258.4,133.8,257,132.2,257z M132.2,258.3c0.5,0,0.5,1.1,0.5,1.4c0,0.3,0,1.4-0.5,1.4
	c-0.5,0-0.5-1.1-0.5-1.4C131.7,259.4,131.8,258.3,132.2,258.3z"/>
<path id="FuturaStd-CondensedBold-79_1_" class="st3" d="M134.6,257.1l1.5,4.9l-0.8,2.6h1.4l2.2-7.5h-1.4l-0.7,2.9h0l-0.2-0.8
	l-0.5-2H134.6z"/>
<path id="mbba5cc7a13_3_" class="st2" d="M145.9,231.5h-3.5"/>
<path id="FuturaStd-CondensedBold-70_1_" class="st3" d="M112.6,234.4c-0.5,0-0.5-1.1-0.5-1.4c0-0.3,0-1.4,0.5-1.4
	c0.5,0,0.5,1.1,0.5,1.4C113.1,233.3,113.1,234.4,112.6,234.4z M112.2,230.5h-1.4v7.5h1.4V235h0c0.2,0.4,0.5,0.7,0.9,0.7
	c1.2,0,1.4-1.8,1.4-2.6c0-0.9-0.2-2.6-1.3-2.6c-0.5,0-0.8,0.3-0.9,0.7h0V230.5z"/>
<path id="FuturaStd-CondensedBold-6c_1_" class="st3" d="M115.1,227.5v8.1h1.4v-8.1H115.1z"/>
<path id="FuturaStd-CondensedBold-61_3_" class="st3" d="M119.1,234.4c-0.5,0-0.5-1-0.5-1.4c0-0.3,0-1.4,0.5-1.4
	c0.5,0,0.5,1.1,0.5,1.4C119.6,233.3,119.5,234.4,119.1,234.4z M119.5,235.6h1.4v-5.1h-1.4v0.6h0c-0.2-0.4-0.5-0.7-0.9-0.7
	c-1.2,0-1.4,1.8-1.4,2.6c0,0.8,0.2,2.6,1.4,2.6c0.4,0,0.7-0.3,0.9-0.7h0V235.6z"/>
<path id="FuturaStd-CondensedBold-79_2_" class="st3" d="M121.4,230.5l1.5,4.9l-0.8,2.6h1.4l2.2-7.5h-1.4l-0.7,2.9h0l-0.2-0.8
	l-0.5-2H121.4z"/>
<path id="FuturaStd-CondensedBold-62_1_" class="st3" d="M126.1,235.6h1.4V235h0c0.2,0.4,0.5,0.7,0.9,0.7c1.1,0,1.4-1.8,1.4-2.6
	c0-0.9-0.2-2.6-1.3-2.6c-0.5,0-0.8,0.3-0.9,0.7h0v-3.6h-1.4V235.6z M127.9,234.4c-0.5,0-0.5-1.1-0.5-1.4c0-0.3,0-1.4,0.5-1.4
	c0.5,0,0.5,1.1,0.5,1.4C128.4,233.3,128.4,234.4,127.9,234.4z"/>
<path id="FuturaStd-CondensedBold-6f_1_" class="st3" d="M132.2,230.4c-1.5,0-1.9,1.3-1.9,2.6c0,1.3,0.4,2.6,1.9,2.6
	c1.5,0,1.9-1.3,1.9-2.6C134.2,231.8,133.8,230.4,132.2,230.4z M132.2,231.7c0.5,0,0.5,1.1,0.5,1.4c0,0.3,0,1.4-0.5,1.4
	c-0.5,0-0.5-1.1-0.5-1.4C131.7,232.8,131.8,231.7,132.2,231.7z"/>
<path id="FuturaStd-CondensedBold-79_3_" class="st3" d="M134.6,230.5l1.5,4.9l-0.8,2.6h1.4l2.2-7.5h-1.4l-0.7,2.9h0l-0.2-0.8
	l-0.5-2H134.6z"/>
<path id="mbba5cc7a13_4_" class="st2" d="M145.9,204.9h-3.5"/>
<path id="FuturaStd-CondensedBold-74" class="st3" d="M73.3,202.5v1.4h-0.5v1.2h0.5v3.9h1.4v-3.9h0.6v-1.2h-0.6v-1.4H73.3z"/>
<path id="FuturaStd-CondensedBold-69_3_" class="st3" d="M75.9,203.9v5.1h1.4v-5.1H75.9z M76.6,203.3c0.5,0,0.9-0.4,0.9-0.9
	c0-0.5-0.4-0.9-0.9-0.9c-0.5,0-0.9,0.4-0.9,0.9C75.7,202.9,76.1,203.3,76.6,203.3z"/>
<path id="FuturaStd-CondensedBold-6d_1_" class="st3" d="M79.4,203.9H78v5.1h1.4v-3.1c0-0.3,0-0.6,0.4-0.6c0.4,0,0.3,0.6,0.3,0.9
	v2.8h1.4v-3.2c0-0.2,0-0.6,0.4-0.6c0.4,0,0.3,0.7,0.3,1v2.7h1.4v-3.5c0-0.6,0-1.7-0.9-1.7c-0.5,0-1,0.4-1.2,0.9h0
	c-0.1-0.5-0.3-0.9-0.9-0.9c-0.6,0-1,0.4-1.2,0.9h0L79.4,203.9z"/>
<path id="FuturaStd-CondensedBold-65_4_" class="st3" d="M86.7,205.9h-1v-0.2c0-0.3,0.1-0.9,0.5-0.9c0.4,0,0.5,0.6,0.5,0.9V205.9z
	 M87.9,206.2c0.1-1.6-0.8-2.4-1.7-2.4c-1.5,0-1.9,1.5-1.9,2.7c0,1.2,0.5,2.5,1.9,2.5c0.5,0,0.9-0.2,1.1-0.5c0.3-0.3,0.4-0.7,0.5-1.2
	h-1.2c0,0.3-0.1,0.6-0.4,0.6c-0.5,0-0.5-0.8-0.5-1.2h2.2L87.9,206.2z"/>
<path id="FuturaStd-CondensedBold-20_1_" class="st3" d="M88.2,209"/>
<path id="FuturaStd-CondensedBold-6f_2_" class="st3" d="M92.8,203.8c-1.5,0-1.9,1.3-1.9,2.6c0,1.3,0.4,2.6,1.9,2.6
	c1.5,0,1.9-1.3,1.9-2.6C94.7,205.1,94.3,203.8,92.8,203.8z M92.8,205.1c0.5,0,0.5,1.1,0.5,1.4c0,0.3,0,1.4-0.5,1.4
	c-0.5,0-0.5-1.1-0.5-1.4C92.3,206.1,92.3,205.1,92.8,205.1z"/>
<path id="FuturaStd-CondensedBold-75" class="st3" d="M95.3,203.9v3c0,0.9,0.1,2.1,1.7,2.1c1.2,0,1.8-0.8,1.8-1.9v-3.2h-1.4l0,3.1
	c0,0.2,0,0.8-0.3,0.8c-0.5,0-0.4-0.8-0.4-1.1v-2.8H95.3z"/>
<path id="FuturaStd-CondensedBold-74_1_" class="st3" d="M100,202.5v1.4h-0.5v1.2h0.5v3.9h1.4v-3.9h0.6v-1.2h-0.6v-1.4H100z"/>
<path id="FuturaStd-CondensedBold-20_2_" class="st3" d="M102.3,209"/>
<path id="FuturaStd-CondensedBold-6e_2_" class="st3" d="M106.5,203.9h-1.4v5.1h1.4v-3.2c0-0.2,0.1-0.6,0.4-0.6c0.4,0,0.3,0.7,0.3,1
	v2.8h1.4v-3.3c0-0.7,0.1-1.9-1-1.9c-0.5,0-1,0.4-1.2,0.9h0V203.9z"/>
<path id="FuturaStd-CondensedBold-65_5_" class="st3" d="M111.6,205.9h-1v-0.2c0-0.3,0.1-0.9,0.5-0.9c0.4,0,0.5,0.6,0.5,0.9V205.9z
	 M112.9,206.2c0.1-1.6-0.8-2.4-1.7-2.4c-1.5,0-1.9,1.5-1.9,2.7c0,1.2,0.5,2.5,1.9,2.5c0.5,0,0.9-0.2,1.1-0.5
	c0.3-0.3,0.4-0.7,0.5-1.2h-1.2c0,0.3-0.1,0.6-0.4,0.6c-0.5,0-0.5-0.8-0.5-1.2h2.2L112.9,206.2z"/>
<path id="FuturaStd-CondensedBold-77_1_" class="st3" d="M113.3,203.9l1.4,5.1h1.2l0.4-1.6l0.3-1.6h0l0.3,1.5l0.5,1.7h1.2l1.4-5.1
	h-1.3l-0.6,2.4l-0.1,0.5h0l-0.6-3H116l-0.7,3h0l-0.7-3H113.3z"/>
<path id="FuturaStd-CondensedBold-20_3_" class="st3" d="M120.1,209"/>
<path id="FuturaStd-CondensedBold-79_4_" class="st3" d="M122.7,203.9l1.5,4.9l-0.8,2.6h1.4l2.2-7.5h-1.4l-0.7,2.9h0l-0.2-0.8
	l-0.5-2H122.7z"/>
<path id="FuturaStd-CondensedBold-6f_3_" class="st3" d="M129.2,203.8c-1.5,0-1.9,1.3-1.9,2.6c0,1.3,0.4,2.6,1.9,2.6
	c1.5,0,1.9-1.3,1.9-2.6C131.1,205.1,130.7,203.8,129.2,203.8z M129.2,205.1c0.5,0,0.5,1.1,0.5,1.4c0,0.3,0,1.4-0.5,1.4
	c-0.5,0-0.5-1.1-0.5-1.4C128.7,206.1,128.7,205.1,129.2,205.1z"/>
<path id="FuturaStd-CondensedBold-72_1_" class="st3" d="M131.7,203.9v5.1h1.4v-2.5c0-0.8,0-1.4,0.9-1.4c0.1,0,0.1,0,0.2,0v-1.4
	c-0.5,0.1-0.9,0.4-1.1,0.8h0v-0.6H131.7z"/>
<path id="FuturaStd-CondensedBold-6b" class="st3" d="M134.9,200.9v8.1h1.4v-2.3h0l1,2.3h1.6l-1.4-3l1.1-2.1h-1.5l-0.8,1.8h0v-4.8
	H134.9z"/>
<path id="mbba5cc7a13_5_" class="st2" d="M145.9,178.3h-3.5"/>
<path id="FuturaStd-CondensedBold-70_2_" class="st3" d="M116.5,181.1c-0.5,0-0.5-1.1-0.5-1.4c0-0.3,0-1.4,0.5-1.4
	c0.5,0,0.5,1.1,0.5,1.4C117,180.1,117,181.1,116.5,181.1z M116.1,177.3h-1.4v7.5h1.4v-3.1h0c0.2,0.4,0.5,0.7,0.9,0.7
	c1.2,0,1.4-1.8,1.4-2.6c0-0.9-0.2-2.6-1.4-2.6c-0.5,0-0.8,0.3-0.9,0.7h0V177.3z"/>
<path id="FuturaStd-CondensedBold-61_4_" class="st3" d="M120.8,181.1c-0.5,0-0.5-1-0.5-1.4c0-0.3,0-1.4,0.5-1.4
	c0.5,0,0.5,1.1,0.5,1.4C121.3,180.1,121.3,181.1,120.8,181.1z M121.2,182.3h1.4v-5.1h-1.4v0.6h0c-0.2-0.4-0.5-0.7-1-0.7
	c-1.2,0-1.3,1.8-1.3,2.6c0,0.8,0.2,2.6,1.4,2.6c0.4,0,0.7-0.3,0.9-0.7h0V182.3z"/>
<path id="FuturaStd-CondensedBold-72_2_" class="st3" d="M123.3,177.3v5.1h1.4v-2.5c0-0.8,0-1.4,0.9-1.4c0.1,0,0.2,0,0.2,0v-1.4
	c-0.6,0.1-0.9,0.4-1.2,0.8h0v-0.6H123.3z"/>
<path id="FuturaStd-CondensedBold-61_5_" class="st3" d="M128.3,181.1c-0.5,0-0.5-1-0.5-1.4c0-0.3,0-1.4,0.5-1.4
	c0.5,0,0.5,1.1,0.5,1.4C128.8,180.1,128.8,181.1,128.3,181.1z M128.7,182.3h1.4v-5.1h-1.4v0.6h0c-0.2-0.4-0.5-0.7-1-0.7
	c-1.2,0-1.3,1.8-1.3,2.6c0,0.8,0.2,2.6,1.4,2.6c0.4,0,0.7-0.3,0.9-0.7h0V182.3z"/>
<path id="FuturaStd-CondensedBold-64_1_" class="st3" d="M133,182.3h1.4v-8.1H133v3.6h0c-0.2-0.4-0.5-0.7-1-0.7
	c-1.2,0-1.3,1.8-1.3,2.6c0,0.8,0.2,2.6,1.4,2.6c0.4,0,0.7-0.3,0.9-0.7h0V182.3z M132.7,181.1c-0.5,0-0.5-1-0.5-1.4
	c0-0.3,0-1.4,0.5-1.4c0.5,0,0.5,1.1,0.5,1.4C133.1,180.1,133.1,181.1,132.7,181.1z"/>
<path id="FuturaStd-CondensedBold-65_6_" class="st3" d="M137.5,179.3h-1v-0.2c0-0.3,0.1-0.9,0.5-0.9c0.4,0,0.5,0.6,0.5,0.9V179.3z
	 M138.7,179.6c0.1-1.6-0.8-2.4-1.7-2.4c-1.5,0-1.9,1.5-1.9,2.7c0,1.2,0.5,2.5,1.9,2.5c0.5,0,0.9-0.2,1.1-0.5
	c0.3-0.3,0.4-0.7,0.5-1.2h-1.2c0,0.3-0.1,0.6-0.4,0.6c-0.5,0-0.5-0.8-0.5-1.2h2.2L138.7,179.6z"/>
<path id="mbba5cc7a13_6_" class="st2" d="M145.9,151.7h-3.5"/>
<path id="FuturaStd-CondensedBold-76" class="st3" d="M117.5,150.7l1.4,5.1h1.3l1.5-5.1h-1.5l-0.6,2.3l-0.1,0.5h0l0-0.1l-0.7-2.8
	H117.5z"/>
<path id="FuturaStd-CondensedBold-6f_4_" class="st3" d="M124,150.6c-1.5,0-1.9,1.3-1.9,2.6c0,1.3,0.4,2.6,1.9,2.6
	c1.5,0,1.9-1.3,1.9-2.6C125.9,151.9,125.5,150.6,124,150.6z M124,151.8c0.5,0,0.5,1.1,0.5,1.4c0,0.3,0,1.4-0.5,1.4
	c-0.5,0-0.5-1.1-0.5-1.4C123.5,152.9,123.5,151.8,124,151.8z"/>
<path id="FuturaStd-CondensedBold-67_1_" class="st3" d="M128.4,154.5c-0.5,0-0.5-1-0.5-1.4c0-0.3,0-1.4,0.5-1.4
	c0.5,0,0.5,1.1,0.5,1.4C128.9,153.4,128.8,154.5,128.4,154.5z M126.5,156.4c0.1,1.2,0.6,1.8,1.8,1.8c1.2,0,1.9-0.6,1.9-2.1v-5.5
	h-1.4v0.6h0c-0.2-0.4-0.5-0.7-1-0.7c-1.2,0-1.4,1.8-1.4,2.7c0,0.6,0.1,1.2,0.3,1.7c0.2,0.4,0.6,0.8,1.1,0.8c0.3,0,0.4-0.1,0.6-0.2
	c0.1-0.1,0.2-0.3,0.3-0.5h0v0.6c0,0.4,0.1,1.4-0.5,1.4c-0.4,0-0.5-0.4-0.5-0.7H126.5z"/>
<path id="FuturaStd-CondensedBold-75_1_" class="st3" d="M130.9,150.7v3c0,0.9,0.1,2.1,1.7,2.1c1.2,0,1.8-0.8,1.8-1.9v-3.2H133
	l0,3.1c0,0.2,0,0.8-0.3,0.8c-0.5,0-0.4-0.8-0.4-1.1v-2.8H130.9z"/>
<path id="FuturaStd-CondensedBold-65_7_" class="st3" d="M137.5,152.7h-1v-0.2c0-0.3,0.1-0.9,0.5-0.9c0.4,0,0.5,0.6,0.5,0.9V152.7z
	 M138.7,153c0.1-1.6-0.8-2.4-1.7-2.4c-1.5,0-1.9,1.5-1.9,2.7c0,1.2,0.5,2.5,1.9,2.5c0.5,0,0.9-0.2,1.1-0.5c0.3-0.3,0.4-0.7,0.5-1.2
	h-1.2c0,0.3-0.1,0.6-0.4,0.6c-0.5,0-0.5-0.8-0.5-1.2h2.2L138.7,153z"/>
<path id="mbba5cc7a13_7_" class="st2" d="M145.9,125.1h-3.5"/>
<path id="FuturaStd-CondensedBold-74_2_" class="st3" d="M16.3,122.7v1.4h-0.5v1.2h0.5v3.9h1.4v-3.9h0.6v-1.2h-0.6v-1.4H16.3z"/>
<path id="FuturaStd-CondensedBold-68" class="st3" d="M18.9,121v8.1h1.4V126c0-0.2,0.1-0.6,0.4-0.6c0.4,0,0.3,0.7,0.3,1v2.8h1.4
	v-3.3c0-0.7,0.1-1.9-1-1.9c-0.5,0-1,0.4-1.2,0.9h0V121H18.9z"/>
<path id="FuturaStd-CondensedBold-65_8_" class="st3" d="M25.5,126.1h-1v-0.1c0-0.3,0.1-0.9,0.5-0.9c0.4,0,0.5,0.6,0.5,0.9V126.1z
	 M26.7,126.4c0.1-1.6-0.8-2.4-1.7-2.4c-1.5,0-1.9,1.5-1.9,2.7c0,1.2,0.5,2.5,1.9,2.5c0.5,0,0.9-0.2,1.1-0.5c0.3-0.3,0.4-0.7,0.5-1.2
	h-1.2c0,0.3-0.1,0.6-0.4,0.6c-0.5,0-0.5-0.8-0.5-1.2h2.2L26.7,126.4z"/>
<path id="FuturaStd-CondensedBold-20_4_" class="st3" d="M26.9,129.1"/>
<path id="FuturaStd-CondensedBold-77_2_" class="st3" d="M29.5,124.1l1.4,5.1h1.2l0.4-1.6l0.3-1.6h0l0.3,1.5l0.5,1.7h1.2l1.4-5.1
	h-1.3l-0.6,2.4l-0.1,0.5h0l-0.6-3h-1.2l-0.7,3h0l-0.7-3H29.5z"/>
<path id="FuturaStd-CondensedBold-61_6_" class="st3" d="M38.5,127.9c-0.5,0-0.5-1-0.5-1.4c0-0.3,0-1.3,0.5-1.3
	c0.5,0,0.5,1.1,0.5,1.3C39,126.8,39,127.9,38.5,127.9z M38.9,129.1h1.4v-5.1h-1.4v0.6h0c-0.2-0.4-0.5-0.7-1-0.7
	c-1.2,0-1.4,1.8-1.4,2.6c0,0.8,0.2,2.6,1.4,2.6c0.4,0,0.7-0.3,0.9-0.7h0V129.1z"/>
<path id="FuturaStd-CondensedBold-73_1_" class="st3" d="M44.1,124.4c-0.4-0.3-0.8-0.4-1.3-0.4c-0.9,0-1.7,0.5-1.7,1.5
	c0,1.6,1.6,1.4,1.6,2.1c0,0.3-0.2,0.4-0.4,0.4c-0.3,0-0.5-0.2-0.7-0.3l-0.6,1c0.4,0.4,1,0.6,1.5,0.6c1,0,1.6-0.8,1.6-1.8
	c0-1.5-1.6-1.4-1.6-2c0-0.2,0.1-0.4,0.4-0.4c0.3,0,0.5,0.2,0.7,0.3L44.1,124.4z"/>
<path id="FuturaStd-CondensedBold-68_1_" class="st3" d="M44.8,121v8.1h1.4V126c0-0.2,0.1-0.6,0.4-0.6c0.5,0,0.4,0.7,0.4,1v2.8h1.4
	v-3.3c0-0.7,0.1-1.9-1-1.9c-0.5,0-1,0.4-1.2,0.9h0V121H44.8z"/>
<path id="FuturaStd-CondensedBold-69_4_" class="st3" d="M49,124.1v5.1h1.4v-5.1H49z M49.7,123.5c0.5,0,0.9-0.4,0.9-0.9
	c0-0.5-0.4-0.9-0.9-0.9c-0.5,0-0.9,0.4-0.9,0.9C48.8,123.1,49.2,123.5,49.7,123.5z"/>
<path id="FuturaStd-CondensedBold-6e_3_" class="st3" d="M52.5,124.1h-1.4v5.1h1.4V126c0-0.2,0.1-0.6,0.4-0.6c0.4,0,0.3,0.7,0.3,1
	v2.8h1.4v-3.3c0-0.7,0.1-1.9-1-1.9c-0.5,0-1,0.4-1.2,0.9h0V124.1z"/>
<path id="FuturaStd-CondensedBold-67_2_" class="st3" d="M57.2,127.9c-0.5,0-0.5-1-0.5-1.4c0-0.3,0-1.3,0.5-1.3s0.5,1.1,0.5,1.3
	C57.7,126.8,57.6,127.9,57.2,127.9z M55.3,129.8c0.1,1.2,0.6,1.8,1.8,1.8c1.2,0,1.9-0.6,1.9-2.1v-5.5h-1.4v0.6h0
	c-0.2-0.4-0.5-0.7-1-0.7c-1.2,0-1.4,1.8-1.4,2.7c0,0.6,0.1,1.2,0.3,1.7c0.2,0.4,0.6,0.8,1.1,0.8c0.2,0,0.4-0.1,0.6-0.2
	c0.1-0.1,0.2-0.3,0.3-0.5h0v0.6c0,0.4,0.1,1.4-0.5,1.4c-0.4,0-0.5-0.4-0.5-0.7H55.3z"/>
<path id="FuturaStd-CondensedBold-74_3_" class="st3" d="M60.1,122.7v1.4h-0.5v1.2h0.5v3.9h1.4v-3.9h0.6v-1.2h-0.6v-1.4H60.1z"/>
<path id="FuturaStd-CondensedBold-6f_5_" class="st3" d="M64.6,124c-1.5,0-1.9,1.3-1.9,2.6c0,1.3,0.4,2.6,1.9,2.6
	c1.5,0,1.9-1.3,1.9-2.6C66.5,125.3,66.1,124,64.6,124z M64.6,125.2c0.5,0,0.5,1.1,0.5,1.4c0,0.3,0,1.4-0.5,1.4
	c-0.5,0-0.5-1.1-0.5-1.4C64.1,126.3,64.1,125.2,64.6,125.2z"/>
<path id="FuturaStd-CondensedBold-6e_4_" class="st3" d="M68.6,124.1h-1.4v5.1h1.4V126c0-0.2,0.1-0.6,0.4-0.6c0.4,0,0.3,0.7,0.3,1
	v2.8h1.4v-3.3c0-0.7,0.1-1.9-1-1.9c-0.5,0-1,0.4-1.2,0.9h0V124.1z"/>
<path id="FuturaStd-CondensedBold-20_5_" class="st3" d="M71,129.1"/>
<path id="FuturaStd-CondensedBold-70_3_" class="st3" d="M75.6,127.9c-0.5,0-0.5-1.1-0.5-1.4c0-0.3,0-1.3,0.5-1.3
	c0.5,0,0.5,1.1,0.5,1.3C76.1,126.9,76.1,127.9,75.6,127.9z M75.2,124.1h-1.4v7.5h1.4v-3.1h0c0.2,0.4,0.5,0.7,0.9,0.7
	c1.2,0,1.4-1.8,1.4-2.6c0-0.9-0.2-2.6-1.3-2.6c-0.5,0-0.8,0.3-0.9,0.7h0V124.1z"/>
<path id="FuturaStd-CondensedBold-6f_6_" class="st3" d="M80,124c-1.5,0-1.9,1.3-1.9,2.6c0,1.3,0.4,2.6,1.9,2.6
	c1.5,0,1.9-1.3,1.9-2.6C81.9,125.3,81.5,124,80,124z M80,125.2c0.5,0,0.5,1.1,0.5,1.4c0,0.3,0,1.4-0.5,1.4c-0.5,0-0.5-1.1-0.5-1.4
	C79.5,126.3,79.5,125.2,80,125.2z"/>
<path id="FuturaStd-CondensedBold-73_2_" class="st3" d="M85.6,124.4c-0.4-0.3-0.8-0.4-1.4-0.4c-0.9,0-1.7,0.5-1.7,1.5
	c0,1.6,1.6,1.4,1.6,2.1c0,0.3-0.2,0.4-0.4,0.4c-0.3,0-0.5-0.2-0.7-0.3l-0.6,1c0.4,0.4,1,0.6,1.5,0.6c1,0,1.6-0.8,1.6-1.8
	c0-1.5-1.6-1.4-1.6-2c0-0.2,0.1-0.4,0.4-0.4c0.3,0,0.5,0.2,0.7,0.3L85.6,124.4z"/>
<path id="FuturaStd-CondensedBold-74_4_" class="st3" d="M86.7,122.7v1.4h-0.5v1.2h0.5v3.9h1.4v-3.9h0.6v-1.2h-0.6v-1.4H86.7z"/>
<path id="FuturaStd-CondensedBold-20_6_" class="st3" d="M89,129.1"/>
<path id="FuturaStd-CondensedBold-20_7_" class="st3" d="M91.5,129.1"/>
<path id="FuturaStd-CondensedBold-6f_7_" class="st3" d="M96.1,124c-1.5,0-1.9,1.3-1.9,2.6c0,1.3,0.4,2.6,1.9,2.6
	c1.5,0,1.9-1.3,1.9-2.6C98,125.3,97.6,124,96.1,124z M96.1,125.2c0.5,0,0.5,1.1,0.5,1.4c0,0.3,0,1.4-0.5,1.4c-0.5,0-0.5-1.1-0.5-1.4
	C95.6,126.3,95.6,125.2,96.1,125.2z"/>
<path id="FuturaStd-CondensedBold-6e_5_" class="st3" d="M100,124.1h-1.4v5.1h1.4V126c0-0.2,0.1-0.6,0.4-0.6c0.4,0,0.3,0.7,0.3,1
	v2.8h1.4v-3.3c0-0.7,0.1-1.9-1-1.9c-0.5,0-1,0.4-1.2,0.9h0V124.1z"/>
<path id="FuturaStd-CondensedBold-20_8_" class="st3" d="M102.5,129.1"/>
<path id="FuturaStd-CondensedBold-70_4_" class="st3" d="M107.1,127.9c-0.5,0-0.5-1.1-0.5-1.4c0-0.3,0-1.3,0.5-1.3
	c0.5,0,0.5,1.1,0.5,1.3C107.6,126.9,107.6,127.9,107.1,127.9z M106.7,124.1h-1.4v7.5h1.4v-3.1h0c0.2,0.4,0.5,0.7,0.9,0.7
	c1.2,0,1.4-1.8,1.4-2.6c0-0.9-0.2-2.6-1.3-2.6c-0.5,0-0.8,0.3-0.9,0.7h0V124.1z"/>
<path id="FuturaStd-CondensedBold-61_7_" class="st3" d="M111.5,127.9c-0.5,0-0.5-1-0.5-1.4c0-0.3,0-1.3,0.5-1.3
	c0.5,0,0.5,1.1,0.5,1.3C112,126.8,111.9,127.9,111.5,127.9z M111.9,129.1h1.4v-5.1h-1.4v0.6h0c-0.2-0.4-0.5-0.7-1-0.7
	c-1.2,0-1.3,1.8-1.3,2.6c0,0.8,0.2,2.6,1.4,2.6c0.4,0,0.7-0.3,0.9-0.7h0V129.1z"/>
<path id="FuturaStd-CondensedBold-72_3_" class="st3" d="M114,124.1v5.1h1.4v-2.5c0-0.8,0-1.4,0.9-1.4c0.1,0,0.2,0,0.2,0v-1.4
	c-0.6,0-0.9,0.4-1.2,0.8h0v-0.6H114z"/>
<path id="FuturaStd-CondensedBold-65_9_" class="st3" d="M119.4,126.1h-1v-0.1c0-0.3,0.1-0.9,0.5-0.9c0.4,0,0.5,0.6,0.5,0.9V126.1z
	 M120.7,126.4c0.1-1.6-0.8-2.4-1.7-2.4c-1.5,0-1.9,1.5-1.9,2.7c0,1.2,0.5,2.5,1.9,2.5c0.5,0,0.9-0.2,1.1-0.5
	c0.3-0.3,0.4-0.7,0.5-1.2h-1.2c0,0.3-0.1,0.6-0.4,0.6c-0.5,0-0.5-0.8-0.5-1.2h2.2L120.7,126.4z"/>
<path id="FuturaStd-CondensedBold-6e_6_" class="st3" d="M122.7,124.1h-1.4v5.1h1.4V126c0-0.2,0.1-0.6,0.4-0.6c0.4,0,0.3,0.7,0.3,1
	v2.8h1.4v-3.3c0-0.7,0.1-1.9-1-1.9c-0.6,0-1,0.4-1.2,0.9h0V124.1z"/>
<path id="FuturaStd-CondensedBold-74_5_" class="st3" d="M125.9,122.7v1.4h-0.5v1.2h0.5v3.9h1.4v-3.9h0.6v-1.2h-0.6v-1.4H125.9z"/>
<path id="FuturaStd-CondensedBold-69_5_" class="st3" d="M128.6,124.1v5.1h1.4v-5.1H128.6z M129.3,123.5c0.5,0,0.9-0.4,0.9-0.9
	c0-0.5-0.4-0.9-0.9-0.9c-0.5,0-0.9,0.4-0.9,0.9C128.4,123.1,128.8,123.5,129.3,123.5z"/>
<path id="FuturaStd-CondensedBold-6e_7_" class="st3" d="M132.1,124.1h-1.4v5.1h1.4V126c0-0.2,0.1-0.6,0.4-0.6c0.4,0,0.4,0.7,0.4,1
	v2.8h1.4v-3.3c0-0.7,0.1-1.9-1-1.9c-0.5,0-1,0.4-1.2,0.9h0V124.1z"/>
<path id="FuturaStd-CondensedBold-67_3_" class="st3" d="M136.8,127.9c-0.5,0-0.5-1-0.5-1.4c0-0.3,0-1.3,0.5-1.3s0.5,1.1,0.5,1.3
	C137.2,126.8,137.2,127.9,136.8,127.9z M134.9,129.8c0.1,1.2,0.6,1.8,1.8,1.8c1.2,0,1.9-0.6,1.9-2.1v-5.5h-1.4v0.6h0
	c-0.2-0.4-0.5-0.7-1-0.7c-1.2,0-1.4,1.8-1.4,2.7c0,0.6,0.1,1.2,0.3,1.7c0.2,0.4,0.6,0.8,1.1,0.8c0.2,0,0.4-0.1,0.6-0.2
	c0.1-0.1,0.2-0.3,0.3-0.5h0v0.6c0,0.4,0.1,1.4-0.5,1.4c-0.4,0-0.5-0.4-0.5-0.7H134.9z"/>
<path id="mbba5cc7a13_8_" class="st2" d="M145.9,98.5h-3.5"/>
<path id="FuturaStd-CondensedBold-77_3_" class="st3" d="M118.4,97.5l1.4,5.1h1.2l0.4-1.6l0.3-1.6h0l0.3,1.5l0.5,1.7h1.2l1.4-5.1
	h-1.3l-0.6,2.4l-0.1,0.5h0l-0.6-3h-1.2l-0.7,3h0l-0.7-3H118.4z"/>
<path id="FuturaStd-CondensedBold-69_6_" class="st3" d="M125.6,97.5v5.1h1.4v-5.1H125.6z M126.3,96.9c0.5,0,0.9-0.4,0.9-0.9
	c0-0.5-0.4-0.9-0.9-0.9c-0.5,0-0.9,0.4-0.9,0.9C125.4,96.4,125.8,96.9,126.3,96.9z"/>
<path id="FuturaStd-CondensedBold-72_4_" class="st3" d="M127.7,97.5v5.1h1.4V100c0-0.8,0-1.4,1-1.4c0.1,0,0.1,0,0.2,0v-1.4
	c-0.6,0-0.9,0.4-1.1,0.8h0v-0.6H127.7z"/>
<path id="FuturaStd-CondensedBold-65_10_" class="st3" d="M133.1,99.5h-1v-0.1c0-0.3,0.1-0.9,0.5-0.9c0.4,0,0.5,0.6,0.5,0.9V99.5z
	 M134.3,99.8c0.1-1.6-0.8-2.4-1.7-2.4c-1.5,0-1.9,1.5-1.9,2.7c0,1.2,0.5,2.5,1.9,2.5c0.5,0,0.9-0.2,1.1-0.5c0.3-0.3,0.4-0.7,0.5-1.2
	h-1.2c0,0.3-0.1,0.6-0.4,0.6c-0.5,0-0.5-0.8-0.5-1.2h2.2L134.3,99.8z"/>
<path id="FuturaStd-CondensedBold-64_2_" class="st3" d="M137.2,102.5h1.4v-8.1h-1.4v3.6h0c-0.2-0.4-0.5-0.7-1-0.7
	c-1.2,0-1.3,1.8-1.3,2.6c0,0.8,0.2,2.6,1.4,2.6c0.4,0,0.7-0.3,0.9-0.7h0V102.5z M136.8,101.3c-0.5,0-0.5-1-0.5-1.4
	c0-0.3,0-1.3,0.5-1.3c0.5,0,0.5,1.1,0.5,1.3C137.3,100.2,137.2,101.3,136.8,101.3z"/>
<path id="mbba5cc7a13_9_" class="st2" d="M145.9,71.9h-3.5"/>
<path id="FuturaStd-CondensedBold-67_4_" class="st3" d="M112.2,74.7c-0.5,0-0.5-1-0.5-1.4c0-0.3,0-1.4,0.5-1.4
	c0.5,0,0.5,1.1,0.5,1.4C112.7,73.6,112.7,74.7,112.2,74.7z M110.3,76.6c0.1,1.2,0.6,1.8,1.8,1.8c1.2,0,1.9-0.6,1.9-2.1v-5.5h-1.4
	v0.6h0c-0.2-0.4-0.5-0.7-1-0.7c-1.2,0-1.4,1.8-1.4,2.7c0,0.6,0.1,1.2,0.3,1.7c0.2,0.4,0.6,0.8,1.1,0.8c0.2,0,0.4-0.1,0.6-0.2
	c0.1-0.1,0.2-0.3,0.3-0.5h0v0.6c0,0.4,0.1,1.4-0.5,1.4c-0.4,0-0.5-0.4-0.5-0.7H110.3z"/>
<path id="FuturaStd-CondensedBold-6c_2_" class="st3" d="M114.7,67.8v8.1h1.4v-8.1H114.7z"/>
<path id="FuturaStd-CondensedBold-61_8_" class="st3" d="M118.7,74.7c-0.5,0-0.5-1-0.5-1.4c0-0.3,0-1.4,0.5-1.4
	c0.5,0,0.5,1.1,0.5,1.4C119.2,73.6,119.1,74.7,118.7,74.7z M119.1,75.9h1.4v-5h-1.4v0.6h0c-0.2-0.4-0.5-0.7-1-0.7
	c-1.2,0-1.3,1.8-1.3,2.6c0,0.8,0.2,2.6,1.4,2.6c0.4,0,0.7-0.3,0.9-0.7h0V75.9z"/>
<path id="FuturaStd-CondensedBold-6d_2_" class="st3" d="M122.6,70.8h-1.4v5h1.4v-3.1c0-0.3,0-0.6,0.4-0.6c0.4,0,0.3,0.6,0.3,0.9
	v2.8h1.4v-3.2c0-0.2,0-0.6,0.4-0.6c0.4,0,0.3,0.7,0.3,1v2.7h1.4v-3.5c0-0.7,0-1.7-0.9-1.7c-0.5,0-1,0.4-1.2,0.9h0
	c-0.1-0.5-0.4-0.9-0.9-0.9c-0.6,0-1,0.4-1.2,0.9h0L122.6,70.8z"/>
<path id="FuturaStd-CondensedBold-6f_8_" class="st3" d="M129.4,70.7c-1.5,0-1.9,1.3-1.9,2.6c0,1.3,0.4,2.6,1.9,2.6
	c1.5,0,1.9-1.3,1.9-2.6C131.3,72.1,130.9,70.7,129.4,70.7z M129.4,72c0.5,0,0.5,1.1,0.5,1.4c0,0.3,0,1.4-0.5,1.4
	c-0.5,0-0.5-1.1-0.5-1.4C128.9,73.1,128.9,72,129.4,72z"/>
<path id="FuturaStd-CondensedBold-75_2_" class="st3" d="M131.9,70.8v3c0,0.9,0.1,2.1,1.7,2.1c1.2,0,1.8-0.8,1.8-1.9v-3.2H134l0,3.1
	c0,0.2,0,0.8-0.4,0.8c-0.5,0-0.4-0.8-0.4-1.1v-2.8H131.9z"/>
<path id="FuturaStd-CondensedBold-72_5_" class="st3" d="M136.1,70.8v5h1.4v-2.5c0-0.8,0-1.4,0.9-1.4c0.1,0,0.1,0,0.2,0v-1.4
	c-0.5,0.1-0.9,0.4-1.1,0.8h0v-0.6H136.1z"/>
<g>
	<defs>
		<rect id="SVGID_15_" x="145.9" y="58.6" width="357.1" height="266.1"/>
	</defs>
	<clipPath id="SVGID_16_">
		<use xlink:href="#SVGID_15_"  style="overflow:visible;"/>
	</clipPath>
	<path class="st10" d="M145.9,318h340.1v-13.3H145.9V318z"/>
</g>
<g>
	<defs>
		<rect id="SVGID_17_" x="145.9" y="58.6" width="357.1" height="266.1"/>
	</defs>
	<clipPath id="SVGID_18_">
		<use xlink:href="#SVGID_17_"  style="overflow:visible;"/>
	</clipPath>
	<path class="st11" d="M145.9,291.4H384v-13.3H145.9V291.4z"/>
</g>
<g>
	<defs>
		<rect id="SVGID_19_" x="145.9" y="58.6" width="357.1" height="266.1"/>
	</defs>
	<clipPath id="SVGID_20_">
		<use xlink:href="#SVGID_19_"  style="overflow:visible;"/>
	</clipPath>
	<path class="st12" d="M145.9,264.8h208v-13.3h-208V264.8z"/>
</g>
<g>
	<defs>
		<rect id="SVGID_21_" x="145.9" y="58.6" width="357.1" height="266.1"/>
	</defs>
	<clipPath id="SVGID_22_">
		<use xlink:href="#SVGID_21_"  style="overflow:visible;"/>
	</clipPath>
	<path class="st13" d="M145.9,238.2h208v-13.3h-208V238.2z"/>
</g>
<g>
	<defs>
		<rect id="SVGID_23_" x="145.9" y="58.6" width="357.1" height="266.1"/>
	</defs>
	<clipPath id="SVGID_24_">
		<use xlink:href="#SVGID_23_"  style="overflow:visible;"/>
	</clipPath>
	<path class="st14" d="M145.9,211.6H316v-13.3H145.9V211.6z"/>
</g>
<g>
	<defs>
		<rect id="SVGID_25_" x="145.9" y="58.6" width="357.1" height="266.1"/>
	</defs>
	<clipPath id="SVGID_26_">
		<use xlink:href="#SVGID_25_"  style="overflow:visible;"/>
	</clipPath>
	<path class="st15" d="M145.9,185H316v-13.3H145.9V185z"/>
</g>
<g>
	<defs>
		<rect id="SVGID_27_" x="145.9" y="58.6" width="357.1" height="266.1"/>
	</defs>
	<clipPath id="SVGID_28_">
		<use xlink:href="#SVGID_27_"  style="overflow:visible;"/>
	</clipPath>
	<path class="st16" d="M145.9,158.3H316V145H145.9V158.3z"/>
</g>
<g>
	<defs>
		<rect id="SVGID_29_" x="145.9" y="58.6" width="357.1" height="266.1"/>
	</defs>
	<clipPath id="SVGID_30_">
		<use xlink:href="#SVGID_29_"  style="overflow:visible;"/>
	</clipPath>
	<path class="st17" d="M145.9,131.7h141.7v-13.3H145.9V131.7z"/>
</g>
<g>
	<defs>
		<rect id="SVGID_31_" x="145.9" y="58.6" width="357.1" height="266.1"/>
	</defs>
	<clipPath id="SVGID_32_">
		<use xlink:href="#SVGID_31_"  style="overflow:visible;"/>
	</clipPath>
	<path class="st18" d="M145.9,105.1h141.7V91.8H145.9V105.1z"/>
</g>
<g>
	<defs>
		<rect id="SVGID_33_" x="145.9" y="58.6" width="357.1" height="266.1"/>
	</defs>
	<clipPath id="SVGID_34_">
		<use xlink:href="#SVGID_33_"  style="overflow:visible;"/>
	</clipPath>
	<path class="st19" d="M145.9,78.5h141.7V65.2H145.9V78.5z"/>
</g>
<path class="st20" d="M145.9,324.7V58.6"/>
<path class="st20" d="M503.1,324.7V58.6"/>
<path class="st20" d="M145.9,324.7h357.1"/>
<path class="st20" d="M145.9,58.6h357.1"/>
<rect x="294.6" y="352.6" class="st21" width="63.8" height="19.7"/>
<text transform="matrix(1 0 0 1 294.6258 362.5208)" class="st3 st22 st23">Dollars per word</text>
<rect x="143.6" y="18.7" class="st21" width="372.4" height="66.5"/>
<text transform="matrix(1 0 0 1 143.5586 37.7758)" class="st22 st24">Top Paying Publications for Freelancer Journalists</text>
</svg>
