<?xml version="1.0" encoding="utf-8"?>
<!-- Generator: Adobe Illustrator 22.1.0, SVG Export Plug-In . SVG Version: 6.00 Build 0)  -->
<svg version="1.1" id="Layer_1" xmlns="http://www.w3.org/2000/svg" xmlns:xlink="http://www.w3.org/1999/xlink" x="0px" y="0px"
	 viewBox="0 0 822 462" style="enable-background:new 0 0 822 462;" xml:space="preserve">
<style type="text/css">
	.st0{fill:#EEE8D5;}
	.st1{fill:#657B83;stroke:#657B83;stroke-width:0.8;stroke-linejoin:round;}
	.st2{fill:#657B83;}
	.st3{clip-path:url(#SVGID_2_);fill:none;stroke:#FFFFFF;stroke-linejoin:round;stroke-dasharray:1,1.65;}
	.st4{clip-path:url(#SVGID_4_);fill:none;stroke:#FFFFFF;stroke-linejoin:round;stroke-dasharray:1,1.65;}
	.st5{clip-path:url(#SVGID_6_);fill:none;stroke:#FFFFFF;stroke-linejoin:round;stroke-dasharray:1,1.65;}
	.st6{clip-path:url(#SVGID_8_);fill:none;stroke:#FFFFFF;stroke-linejoin:round;stroke-dasharray:1,1.65;}
	.st7{clip-path:url(#SVGID_10_);fill:none;stroke:#FFFFFF;stroke-linejoin:round;stroke-dasharray:1,1.65;}
	.st8{clip-path:url(#SVGID_12_);fill:none;stroke:#FFFFFF;stroke-linejoin:round;stroke-dasharray:1,1.65;}
	.st9{clip-path:url(#SVGID_14_);fill:none;stroke:#FFFFFF;stroke-linejoin:round;stroke-dasharray:1,1.65;}
	.st10{clip-path:url(#SVGID_16_);fill:none;stroke:#FFFFFF;stroke-linejoin:round;stroke-dasharray:1,1.65;}
	.st11{clip-path:url(#SVGID_18_);fill:#268BD2;}
	.st12{clip-path:url(#SVGID_20_);fill:#268BD2;}
	.st13{clip-path:url(#SVGID_22_);fill:#268BD2;}
	.st14{clip-path:url(#SVGID_24_);fill:#268BD2;}
	.st15{clip-path:url(#SVGID_26_);fill:#268BD2;}
	.st16{clip-path:url(#SVGID_28_);fill:#268BD2;}
	.st17{clip-path:url(#SVGID_30_);fill:#268BD2;}
	.st18{clip-path:url(#SVGID_32_);fill:#268BD2;}
	.st19{clip-path:url(#SVGID_34_);fill:#268BD2;}
	.st20{clip-path:url(#SVGID_36_);fill:#268BD2;}
	.st21{fill:none;stroke:#EEE8D5;stroke-width:0.8;stroke-linecap:square;}
	.st22{fill:none;}
	.st23{font-family:'MyriadPro-Regular';}
	.st24{font-size:14px;}
	.st25{font-size:8px;}
	.st26{font-size:40px;}
</style>
<g id="figure_1">
	<g id="axes_1">
		<g id="patch_2">
			<path class="st0" d="M140,364.4h558V87.2H140V364.4z"/>
		</g>
		<g id="matplotlib.axis_1">
			<g id="xtick_1">
				<g id="line2d_1">
					<g>
						<g>
							<path id="mc8deffdf5c" class="st1" d="M162,364.4v3.5"/>
						</g>
					</g>
				</g>
				<g id="text_1">
					<g transform="translate(109.531818 335.470312)scale(0.1 -0.1)">
						<g>
							<path id="FuturaStd-CondensedBold-30" class="st2" d="M524.5-363.4c-18.1,0-21.2-25.6-21.2-38.9s3.1-38.9,21.2-38.9
								s21.2,25.6,21.2,38.9S542.6-363.4,524.5-363.4z M524.5-377c7.4,0,6.7-20.4,6.7-25.3c0-4.9,0.7-25.3-6.7-25.3
								s-6.7,20.4-6.7,25.3C517.8-397.4,517.1-377,524.5-377z"/>
						</g>
					</g>
				</g>
			</g>
			<g id="xtick_2">
				<g id="line2d_2">
					<g>
						<g>
							<path id="mc8deffdf5c_1_" class="st1" d="M250.8,364.4v3.5"/>
						</g>
					</g>
				</g>
				<g id="text_2">
					<g transform="translate(198.372182 335.470312)scale(0.1 -0.1)">
						<g>
							<path id="FuturaStd-CondensedBold-31" class="st2" d="M511-364.6v-13h7.2V-440h14.5v75.4H511z"/>
						</g>
					</g>
				</g>
			</g>
			<g id="xtick_3">
				<g id="line2d_3">
					<g>
						<g>
							<path id="mc8deffdf5c_2_" class="st1" d="M339.7,364.4v3.5"/>
						</g>
					</g>
				</g>
				<g id="text_3">
					<g transform="translate(287.212545 335.470312)scale(0.1 -0.1)">
						<g>
							<path id="FuturaStd-CondensedBold-32" class="st2" d="M519-390.8l-0.2,4.8c0,4.1,0.3,12.2,6,12.2c4.8,0,6-5.4,6-9.3
								c0-8.3-5.8-18.5-9.7-25.7l-17-31.2h39.6v13h-17.5l12.6,23.9c3.5,6.7,6.2,12.8,6.2,20.5c0,13-7.8,19.3-20.3,19.3
								c-15.7,0-19.7-9.4-19.7-23.4l0.2-4.1H519z"/>
						</g>
					</g>
				</g>
			</g>
			<g id="xtick_4">
				<g id="line2d_4">
					<g>
						<g>
							<path id="mc8deffdf5c_3_" class="st1" d="M428.5,364.4v3.5"/>
						</g>
					</g>
				</g>
				<g id="text_4">
					<g transform="translate(376.052909 335.470312)scale(0.1 -0.1)">
						<g>
							<path id="FuturaStd-CondensedBold-33" class="st2" d="M517.5-420.2h-14c-0.6-12.6,7.1-21,19.8-21c13.8,0,22.3,8.4,22.3,22.2
								c0,8.1-3.2,15.8-11.6,17.9v0.2c7.3,2.9,9.3,10.6,9.3,17.8c0,11.9-6.9,19.7-19.1,19.7c-13.9,0-18.2-10.2-17.6-22.3h12.9v1.5
								c0,3.3,0.7,7.8,5,7.8c4.4,0,5.1-4.3,5.1-7.7c0-8.3-3.3-9.9-11.4-9.9v-13c8.4,0.3,11.3-2.1,11.3-10.5c0-4.5-0.4-10.7-6.5-10.7
								c-4,0-5.6,3.4-5.6,5.9L517.5-420.2z"/>
						</g>
					</g>
				</g>
			</g>
			<g id="xtick_5">
				<g id="line2d_5">
					<g>
						<g>
							<path id="mc8deffdf5c_4_" class="st1" d="M517.3,364.4v3.5"/>
						</g>
					</g>
				</g>
				<g id="text_5">
					<g transform="translate(464.893273 335.470312)scale(0.1 -0.1)">
						<g>
							<path id="FuturaStd-CondensedBold-34" class="st2" d="M522.8-364.6l-20-46v-11.2h21.9V-440h14.5v18.2h6.1v11.4h-6.1v45.8
								H522.8z M524.7-410.4h-11.4l11.2,28.6h0.2V-410.4z"/>
						</g>
					</g>
				</g>
			</g>
			<g id="xtick_6">
				<g id="line2d_6">
					<g>
						<g>
							<path id="mc8deffdf5c_5_" class="st1" d="M606.2,364.4v3.5"/>
						</g>
					</g>
				</g>
				<g id="text_6">
					<g transform="translate(553.733636 335.470312)scale(0.1 -0.1)">
						<g>
							<path id="FuturaStd-CondensedBold-35" class="st2" d="M507.4-401.7c1.8,0.3,3.8,0.6,5.7,0.6c8.8,0,15.2-4,15.2-13.4
								c0-7.1-3.8-13.7-11.7-13.7c-3.4,0-6.6,1.4-9.2,3.5l-2.5-13.1c4.7-2.3,9.2-3.4,14.5-3.4c16.7,0,24.8,10.4,24.8,26.5
								c0,14.8-7.2,24.1-22.5,24.9l2,12.2h18.4v13h-28.8L507.4-401.7z"/>
						</g>
					</g>
				</g>
			</g>
			<g id="xtick_7">
				<g id="line2d_7">
					<g>
						<g>
							<path id="mc8deffdf5c_6_" class="st1" d="M695,364.4v3.5"/>
						</g>
					</g>
				</g>
				<g id="text_7">
					<g transform="translate(642.574 335.470312)scale(0.1 -0.1)">
						<g>
							<path id="FuturaStd-CondensedBold-36" class="st2" d="M520.6-364.6l-6.2-12.8c-5.7-12.1-10.7-23.6-10.7-37.3
								c0-13.2,5.6-26.5,20.6-26.5c15.8,0,21.1,14.2,21.1,27.7c0,9.1-3.8,23.4-15.2,23.4c-4,0-6.6-1.6-9.4-4.1l-0.2,0.2l14.4,29.4
								H520.6z M524.9-403.3c5.1,0,6-8.1,6-11.8c0-3.8-0.7-13.4-6.4-13.4c-5,0-6.3,8.6-6.3,12.2
								C518.2-412.5,519.3-403.3,524.9-403.3z"/>
						</g>
					</g>
				</g>
			</g>
		</g>
		<g id="matplotlib.axis_2">
			<g id="ytick_1">
				<g id="line2d_8">
					<g>
						<defs>
							<rect id="SVGID_1_" x="140" y="87.2" width="558" height="277.2"/>
						</defs>
						<clipPath id="SVGID_2_">
							<use xlink:href="#SVGID_1_"  style="overflow:visible;"/>
						</clipPath>
						<path class="st3" d="M140,364.4h558"/>
					</g>
				</g>
				<g id="line2d_9">
					<g>
						<g>
							<path id="m687290fe6d" class="st1" d="M140,364.4h-3.5"/>
						</g>
					</g>
				</g>
				<g id="text_8">
					<g transform="translate(78.1 324.435156)scale(0.1 -0.1)">
						<g>
							<path id="FuturaStd-CondensedBold-30_1_" class="st2" d="M524.5-363.4c-18.1,0-21.2-25.6-21.2-38.9s3.1-38.9,21.2-38.9
								s21.2,25.6,21.2,38.9S542.6-363.4,524.5-363.4z M524.5-377c7.4,0,6.7-20.4,6.7-25.3c0-4.9,0.7-25.3-6.7-25.3
								s-6.7,20.4-6.7,25.3C517.8-397.4,517.1-377,524.5-377z"/>
						</g>
					</g>
				</g>
			</g>
			<g id="ytick_2">
				<g id="line2d_10">
					<g>
						<defs>
							<rect id="SVGID_3_" x="140" y="87.2" width="558" height="277.2"/>
						</defs>
						<clipPath id="SVGID_4_">
							<use xlink:href="#SVGID_3_"  style="overflow:visible;"/>
						</clipPath>
						<path class="st4" d="M140,329.7h558"/>
					</g>
				</g>
				<g id="line2d_11">
					<g>
						<g>
							<path id="m687290fe6d_1_" class="st1" d="M140,329.7h-3.5"/>
						</g>
					</g>
				</g>
				<g id="text_9">
					<g transform="translate(73.2 289.698314)scale(0.1 -0.1)">
						<g>
							<path id="FuturaStd-CondensedBold-31_1_" class="st2" d="M511-364.6v-13h7.2V-440h14.5v75.4H511z"/>
						</g>
						<g>
							<path id="FuturaStd-CondensedBold-30_2_" class="st2" d="M573.5-363.4c-18.1,0-21.2-25.6-21.2-38.9s3.1-38.9,21.2-38.9
								s21.2,25.6,21.2,38.9S591.6-363.4,573.5-363.4z M573.5-377c7.4,0,6.7-20.4,6.7-25.3c0-4.9,0.7-25.3-6.7-25.3
								s-6.7,20.4-6.7,25.3C566.8-397.4,566.1-377,573.5-377z"/>
						</g>
					</g>
				</g>
			</g>
			<g id="ytick_3">
				<g id="line2d_12">
					<g>
						<defs>
							<rect id="SVGID_5_" x="140" y="87.2" width="558" height="277.2"/>
						</defs>
						<clipPath id="SVGID_6_">
							<use xlink:href="#SVGID_5_"  style="overflow:visible;"/>
						</clipPath>
						<path class="st5" d="M140,294.9h558"/>
					</g>
				</g>
				<g id="line2d_13">
					<g>
						<g>
							<path id="m687290fe6d_2_" class="st1" d="M140,294.9h-3.5"/>
						</g>
					</g>
				</g>
				<g id="text_10">
					<g transform="translate(73.2 254.961472)scale(0.1 -0.1)">
						<g>
							<path id="FuturaStd-CondensedBold-32_1_" class="st2" d="M519-390.8l-0.2,4.8c0,4.1,0.3,12.2,6,12.2c4.8,0,6-5.4,6-9.3
								c0-8.3-5.8-18.5-9.7-25.7l-17-31.2h39.6v13h-17.5l12.6,23.9c3.5,6.7,6.2,12.8,6.2,20.5c0,13-7.8,19.3-20.3,19.3
								c-15.7,0-19.7-9.4-19.7-23.4l0.2-4.1H519z"/>
						</g>
						<g>
							<path id="FuturaStd-CondensedBold-30_3_" class="st2" d="M573.5-363.4c-18.1,0-21.2-25.6-21.2-38.9s3.1-38.9,21.2-38.9
								s21.2,25.6,21.2,38.9S591.6-363.4,573.5-363.4z M573.5-377c7.4,0,6.7-20.4,6.7-25.3c0-4.9,0.7-25.3-6.7-25.3
								s-6.7,20.4-6.7,25.3C566.8-397.4,566.1-377,573.5-377z"/>
						</g>
					</g>
				</g>
			</g>
			<g id="ytick_4">
				<g id="line2d_14">
					<g>
						<defs>
							<rect id="SVGID_7_" x="140" y="87.2" width="558" height="277.2"/>
						</defs>
						<clipPath id="SVGID_8_">
							<use xlink:href="#SVGID_7_"  style="overflow:visible;"/>
						</clipPath>
						<path class="st6" d="M140,260.2h558"/>
					</g>
				</g>
				<g id="line2d_15">
					<g>
						<g>
							<path id="m687290fe6d_3_" class="st1" d="M140,260.2h-3.5"/>
						</g>
					</g>
				</g>
				<g id="text_11">
					<g transform="translate(73.2 220.22463)scale(0.1 -0.1)">
						<g>
							<path id="FuturaStd-CondensedBold-33_1_" class="st2" d="M517.5-420.2h-14c-0.6-12.6,7.1-21,19.8-21
								c13.8,0,22.3,8.4,22.3,22.2c0,8.1-3.2,15.8-11.6,17.9v0.2c7.3,2.9,9.3,10.6,9.3,17.8c0,11.9-6.9,19.7-19.1,19.7
								c-13.9,0-18.2-10.2-17.6-22.3h12.9v1.5c0,3.3,0.7,7.8,5,7.8c4.4,0,5.1-4.3,5.1-7.7c0-8.3-3.3-9.9-11.4-9.9v-13
								c8.4,0.3,11.3-2.1,11.3-10.5c0-4.5-0.4-10.7-6.5-10.7c-4,0-5.6,3.4-5.6,5.9L517.5-420.2z"/>
						</g>
						<g>
							<path id="FuturaStd-CondensedBold-30_4_" class="st2" d="M573.5-363.4c-18.1,0-21.2-25.6-21.2-38.9s3.1-38.9,21.2-38.9
								s21.2,25.6,21.2,38.9S591.6-363.4,573.5-363.4z M573.5-377c7.4,0,6.7-20.4,6.7-25.3c0-4.9,0.7-25.3-6.7-25.3
								s-6.7,20.4-6.7,25.3C566.8-397.4,566.1-377,573.5-377z"/>
						</g>
					</g>
				</g>
			</g>
			<g id="ytick_5">
				<g id="line2d_16">
					<g>
						<defs>
							<rect id="SVGID_9_" x="140" y="87.2" width="558" height="277.2"/>
						</defs>
						<clipPath id="SVGID_10_">
							<use xlink:href="#SVGID_9_"  style="overflow:visible;"/>
						</clipPath>
						<path class="st7" d="M140,225.5h558"/>
					</g>
				</g>
				<g id="line2d_17">
					<g>
						<g>
							<path id="m687290fe6d_4_" class="st1" d="M140,225.5h-3.5"/>
						</g>
					</g>
				</g>
				<g id="text_12">
					<g transform="translate(73.2 185.487788)scale(0.1 -0.1)">
						<g>
							<path id="FuturaStd-CondensedBold-34_1_" class="st2" d="M522.8-364.6l-20-46v-11.2h21.9V-440h14.5v18.2h6.1v11.4h-6.1v45.8
								H522.8z M524.7-410.4h-11.4l11.2,28.6h0.2V-410.4z"/>
						</g>
						<g>
							<path id="FuturaStd-CondensedBold-30_5_" class="st2" d="M573.5-363.4c-18.1,0-21.2-25.6-21.2-38.9s3.1-38.9,21.2-38.9
								s21.2,25.6,21.2,38.9S591.6-363.4,573.5-363.4z M573.5-377c7.4,0,6.7-20.4,6.7-25.3c0-4.9,0.7-25.3-6.7-25.3
								s-6.7,20.4-6.7,25.3C566.8-397.4,566.1-377,573.5-377z"/>
						</g>
					</g>
				</g>
			</g>
			<g id="ytick_6">
				<g id="line2d_18">
					<g>
						<defs>
							<rect id="SVGID_11_" x="140" y="87.2" width="558" height="277.2"/>
						</defs>
						<clipPath id="SVGID_12_">
							<use xlink:href="#SVGID_11_"  style="overflow:visible;"/>
						</clipPath>
						<path class="st8" d="M140,190.7h558"/>
					</g>
				</g>
				<g id="line2d_19">
					<g>
						<g>
							<path id="m687290fe6d_5_" class="st1" d="M140,190.7h-3.5"/>
						</g>
					</g>
				</g>
				<g id="text_13">
					<g transform="translate(73.2 150.750946)scale(0.1 -0.1)">
						<g>
							<path id="FuturaStd-CondensedBold-35_1_" class="st2" d="M507.4-401.7c1.8,0.3,3.8,0.6,5.7,0.6c8.8,0,15.2-4,15.2-13.4
								c0-7.1-3.8-13.7-11.7-13.7c-3.4,0-6.6,1.4-9.2,3.5l-2.5-13.1c4.7-2.3,9.2-3.4,14.5-3.4c16.7,0,24.8,10.4,24.8,26.5
								c0,14.8-7.2,24.1-22.5,24.9l2,12.2h18.4v13h-28.8L507.4-401.7z"/>
						</g>
						<g>
							<path id="FuturaStd-CondensedBold-30_6_" class="st2" d="M573.5-363.4c-18.1,0-21.2-25.6-21.2-38.9s3.1-38.9,21.2-38.9
								s21.2,25.6,21.2,38.9S591.6-363.4,573.5-363.4z M573.5-377c7.4,0,6.7-20.4,6.7-25.3c0-4.9,0.7-25.3-6.7-25.3
								s-6.7,20.4-6.7,25.3C566.8-397.4,566.1-377,573.5-377z"/>
						</g>
					</g>
				</g>
			</g>
			<g id="ytick_7">
				<g id="line2d_20">
					<g>
						<defs>
							<rect id="SVGID_13_" x="140" y="87.2" width="558" height="277.2"/>
						</defs>
						<clipPath id="SVGID_14_">
							<use xlink:href="#SVGID_13_"  style="overflow:visible;"/>
						</clipPath>
						<path class="st9" d="M140,156h558"/>
					</g>
				</g>
				<g id="line2d_21">
					<g>
						<g>
							<path id="m687290fe6d_6_" class="st1" d="M140,156h-3.5"/>
						</g>
					</g>
				</g>
				<g id="text_14">
					<g transform="translate(73.2 116.014104)scale(0.1 -0.1)">
						<g>
							<path id="FuturaStd-CondensedBold-36_1_" class="st2" d="M520.6-364.6l-6.2-12.8c-5.7-12.1-10.7-23.6-10.7-37.3
								c0-13.2,5.6-26.5,20.6-26.5c15.8,0,21.1,14.2,21.1,27.7c0,9.1-3.8,23.4-15.2,23.4c-4,0-6.6-1.6-9.4-4.1l-0.2,0.2l14.4,29.4
								H520.6z M524.9-403.3c5.1,0,6-8.1,6-11.8c0-3.8-0.7-13.4-6.4-13.4c-5,0-6.3,8.6-6.3,12.2
								C518.2-412.5,519.3-403.3,524.9-403.3z"/>
						</g>
						<g>
							<path id="FuturaStd-CondensedBold-30_7_" class="st2" d="M573.5-363.4c-18.1,0-21.2-25.6-21.2-38.9s3.1-38.9,21.2-38.9
								s21.2,25.6,21.2,38.9S591.6-363.4,573.5-363.4z M573.5-377c7.4,0,6.7-20.4,6.7-25.3c0-4.9,0.7-25.3-6.7-25.3
								s-6.7,20.4-6.7,25.3C566.8-397.4,566.1-377,573.5-377z"/>
						</g>
					</g>
				</g>
			</g>
			<g id="ytick_8">
				<g id="line2d_22">
					<g>
						<defs>
							<rect id="SVGID_15_" x="140" y="87.2" width="558" height="277.2"/>
						</defs>
						<clipPath id="SVGID_16_">
							<use xlink:href="#SVGID_15_"  style="overflow:visible;"/>
						</clipPath>
						<path class="st10" d="M140,121.2h558"/>
					</g>
				</g>
				<g id="line2d_23">
					<g>
						<g>
							<path id="m687290fe6d_7_" class="st1" d="M140,121.2h-3.5"/>
						</g>
					</g>
				</g>
				<g id="text_15">
					<g transform="translate(73.2 81.277262)scale(0.1 -0.1)">
						<g>
							<path id="FuturaStd-CondensedBold-37" class="st2" d="M507.3-364.6v-13h20.3L504.1-440h15.5l28.4,75.4H507.3z"/>
						</g>
						<g>
							<path id="FuturaStd-CondensedBold-30_8_" class="st2" d="M573.5-363.4c-18.1,0-21.2-25.6-21.2-38.9s3.1-38.9,21.2-38.9
								s21.2,25.6,21.2,38.9S591.6-363.4,573.5-363.4z M573.5-377c7.4,0,6.7-20.4,6.7-25.3c0-4.9,0.7-25.3-6.7-25.3
								s-6.7,20.4-6.7,25.3C566.8-397.4,566.1-377,573.5-377z"/>
						</g>
					</g>
				</g>
			</g>
		</g>
		<g id="patch_3">
			<g>
				<defs>
					<rect id="SVGID_17_" x="140" y="87.2" width="558" height="277.2"/>
				</defs>
				<clipPath id="SVGID_18_">
					<use xlink:href="#SVGID_17_"  style="overflow:visible;"/>
				</clipPath>
				<path class="st11" d="M165.4,364.4h50.7v-264h-50.7V364.4z"/>
			</g>
		</g>
		<g id="patch_4">
			<g>
				<defs>
					<rect id="SVGID_19_" x="140" y="87.2" width="558" height="277.2"/>
				</defs>
				<clipPath id="SVGID_20_">
					<use xlink:href="#SVGID_19_"  style="overflow:visible;"/>
				</clipPath>
				<path class="st12" d="M216.1,364.4h50.7v-66h-50.7V364.4z"/>
			</g>
		</g>
		<g id="patch_5">
			<g>
				<defs>
					<rect id="SVGID_21_" x="140" y="87.2" width="558" height="277.2"/>
				</defs>
				<clipPath id="SVGID_22_">
					<use xlink:href="#SVGID_21_"  style="overflow:visible;"/>
				</clipPath>
				<path class="st13" d="M266.8,364.4h50.7V347h-50.7V364.4z"/>
			</g>
		</g>
		<g id="patch_6">
			<g>
				<defs>
					<rect id="SVGID_23_" x="140" y="87.2" width="558" height="277.2"/>
				</defs>
				<clipPath id="SVGID_24_">
					<use xlink:href="#SVGID_23_"  style="overflow:visible;"/>
				</clipPath>
				<path class="st14" d="M317.5,364.4h50.7v-13.9h-50.7V364.4z"/>
			</g>
		</g>
		<g id="patch_7">
			<g>
				<defs>
					<rect id="SVGID_25_" x="140" y="87.2" width="558" height="277.2"/>
				</defs>
				<clipPath id="SVGID_26_">
					<use xlink:href="#SVGID_25_"  style="overflow:visible;"/>
				</clipPath>
				<path class="st15" d="M368.3,364.4H419v-6.9h-50.7V364.4z"/>
			</g>
		</g>
		<g id="patch_8">
			<g>
				<defs>
					<rect id="SVGID_27_" x="140" y="87.2" width="558" height="277.2"/>
				</defs>
				<clipPath id="SVGID_28_">
					<use xlink:href="#SVGID_27_"  style="overflow:visible;"/>
				</clipPath>
				<path class="st16" d="M419,364.4h50.7V354H419V364.4z"/>
			</g>
		</g>
		<g id="patch_9">
			<g>
				<defs>
					<rect id="SVGID_29_" x="140" y="87.2" width="558" height="277.2"/>
				</defs>
				<clipPath id="SVGID_30_">
					<use xlink:href="#SVGID_29_"  style="overflow:visible;"/>
				</clipPath>
				<path class="st17" d="M469.7,364.4h50.7v-3.5h-50.7V364.4z"/>
			</g>
		</g>
		<g id="patch_10">
			<g>
				<defs>
					<rect id="SVGID_31_" x="140" y="87.2" width="558" height="277.2"/>
				</defs>
				<clipPath id="SVGID_32_">
					<use xlink:href="#SVGID_31_"  style="overflow:visible;"/>
				</clipPath>
				<path class="st18" d="M520.5,364.4h50.7v-6.9h-50.7V364.4z"/>
			</g>
		</g>
		<g id="patch_11">
			<g>
				<defs>
					<rect id="SVGID_33_" x="140" y="87.2" width="558" height="277.2"/>
				</defs>
				<clipPath id="SVGID_34_">
					<use xlink:href="#SVGID_33_"  style="overflow:visible;"/>
				</clipPath>
				<path class="st19" d="M571.2,364.4h50.7v-13.9h-50.7V364.4z"/>
			</g>
		</g>
		<g id="patch_12">
			<g>
				<defs>
					<rect id="SVGID_35_" x="140" y="87.2" width="558" height="277.2"/>
				</defs>
				<clipPath id="SVGID_36_">
					<use xlink:href="#SVGID_35_"  style="overflow:visible;"/>
				</clipPath>
				<path class="st20" d="M621.9,364.4h50.7v-6.9h-50.7V364.4z"/>
			</g>
		</g>
		<g id="patch_13">
			<path class="st21" d="M140,364.4V87.2"/>
		</g>
		<g id="patch_14">
			<path class="st21" d="M698,364.4V87.2"/>
		</g>
		<g id="patch_15">
			<path class="st21" d="M140,364.4h558"/>
		</g>
		<g id="patch_16">
			<path class="st21" d="M140,87.2h558"/>
		</g>
	</g>
</g>
<rect x="401.8" y="402.9" class="st22" width="57" height="26.9"/>
<text transform="matrix(1 0 0 1 417.3814 412.8281)"><tspan x="0" y="0" class="st2 st23 st24">Rate</tspan><tspan x="-14.6" y="9.6" class="st2 st23 st25">Dollars per word</tspan></text>
<rect x="14.7" y="223" class="st22" width="90.7" height="34.9"/>
<text transform="matrix(1 0 0 1 29.1725 232.9398)"><tspan x="0" y="0" class="st2 st23 st24">Frequency</tspan><tspan x="27.7" y="9.6" class="st2 st23 st25">%</tspan></text>
<rect x="140" y="30.5" class="st22" width="558" height="50.8"/>
<text transform="matrix(1 0 0 1 157.104 58.9428)" class="st23 st26">Freelance Journalist Rate of Pay</text>
</svg>
