<?xml version="1.0" encoding="utf-8"?>
<!-- Generator: Adobe Illustrator 22.1.0, SVG Export Plug-In . SVG Version: 6.00 Build 0)  -->
<svg version="1.1" xmlns="http://www.w3.org/2000/svg" xmlns:xlink="http://www.w3.org/1999/xlink" x="0px" y="0px"
	 viewBox="0 0 792 792" style="enable-background:new 0 0 792 792;" xml:space="preserve">
<style type="text/css">
	.st0{fill:#657B83;stroke:#657B83;stroke-width:0.8;stroke-linejoin:round;}
	.st1{clip-path:url(#SVGID_2_);fill:none;stroke:#FFFFFF;stroke-linejoin:round;stroke-dasharray:1,1.65;}
	.st2{clip-path:url(#SVGID_4_);fill:none;stroke:#FFFFFF;stroke-linejoin:round;stroke-dasharray:1,1.65;}
	.st3{clip-path:url(#SVGID_8_);fill:none;stroke:#FFFFFF;stroke-linejoin:round;stroke-dasharray:1,1.65;}
	.st4{clip-path:url(#SVGID_10_);fill:none;stroke:#FFFFFF;stroke-linejoin:round;stroke-dasharray:1,1.65;}
	.st5{clip-path:url(#SVGID_12_);fill:#268BD2;}
	.st6{clip-path:url(#SVGID_14_);fill:#268BD2;}
	.st7{clip-path:url(#SVGID_16_);fill:#268BD2;}
	.st8{clip-path:url(#SVGID_18_);fill:#268BD2;}
	.st9{clip-path:url(#SVGID_20_);fill:#268BD2;}
	.st10{clip-path:url(#SVGID_22_);fill:#268BD2;}
	.st11{clip-path:url(#SVGID_24_);fill:#268BD2;}
	.st12{clip-path:url(#SVGID_26_);fill:#268BD2;}
	.st13{clip-path:url(#SVGID_28_);fill:#268BD2;}
	.st14{clip-path:url(#SVGID_30_);fill:#268BD2;}
	.st15{fill:none;stroke:#EEE8D5;stroke-width:0.8;stroke-linecap:square;}
	.st16{fill:none;}
	.st17{font-family:'MyriadPro-Regular';}
	.st18{font-size:12px;}
	.st19{font-family:'Futura-CondensedMedium';}
	.st20{font-size:16px;}
</style>
<g id="Layer_2">
</g>
<g id="Layer_1">
	<g>
		<g id="figure_1">
			<g id="axes_1">
				<g id="matplotlib.axis_1">
					<g id="xtick_2">
						<g id="line2d_2">
							<g>
								<g>
									<path id="m5575a5f262_6_" class="st0" d="M234,704.9"/>
								</g>
							</g>
						</g>
					</g>
					<g id="xtick_3">
						<g id="line2d_3">
							<g>
								<g>
									<path id="m5575a5f262_1_" class="st0" d="M346.7,704.9"/>
								</g>
							</g>
						</g>
					</g>
					<g id="xtick_4">
						<g id="line2d_4">
							<g>
								<g>
									<path id="m5575a5f262_2_" class="st0" d="M459.4,704.9"/>
								</g>
							</g>
						</g>
					</g>
				</g>
				<g id="matplotlib.axis_2">
					<g id="ytick_2">
						<g id="line2d_9">
							<g>
								<defs>
									<polyline id="SVGID_1_" points="99,95 712.8,95 712.8,704.9 99,704.9 									"/>
								</defs>
								<clipPath id="SVGID_2_">
									<use xlink:href="#SVGID_1_"  style="overflow:visible;"/>
								</clipPath>
								<path class="st1" d="M712.8,582.9"/>
								<path class="st1" d="M99,396h613.8"/>
								<path class="st1" d="M99,639.5h613.8"/>
							</g>
						</g>
					</g>
					<g id="ytick_3">
						<g id="line2d_11">
							<g>
								<defs>
									<polyline id="SVGID_3_" points="99,95 712.8,95 712.8,704.9 99,704.9 									"/>
								</defs>
								<clipPath id="SVGID_4_">
									<use xlink:href="#SVGID_3_"  style="overflow:visible;"/>
								</clipPath>
								<path class="st2" d="M712.8,460.9"/>
							</g>
						</g>
					</g>
					<g id="ytick_4">
						<g id="line2d_13">
							<g>
								<defs>
									<polyline id="SVGID_5_" points="99,95 712.8,95 712.8,704.9 99,704.9 									"/>
								</defs>
								<clipPath id="SVGID_6_">
									<use xlink:href="#SVGID_5_"  style="overflow:visible;"/>
								</clipPath>
							</g>
						</g>
					</g>
					<g id="ytick_5">
						<g id="line2d_15">
							<g>
								<defs>
									<polyline id="SVGID_7_" points="99,95 712.8,95 712.8,704.9 99,704.9 									"/>
								</defs>
								<clipPath id="SVGID_8_">
									<use xlink:href="#SVGID_7_"  style="overflow:visible;"/>
								</clipPath>
								<path class="st3" d="M712.8,217"/>
							</g>
						</g>
					</g>
					<g id="ytick_6">
						<g id="line2d_17">
							<g>
								<defs>
									<polyline id="SVGID_9_" points="99,95 712.8,95 712.8,704.9 99,704.9 									"/>
								</defs>
								<clipPath id="SVGID_10_">
									<use xlink:href="#SVGID_9_"  style="overflow:visible;"/>
								</clipPath>
								<path class="st4" d="M99,95h613.8"/>
							</g>
						</g>
					</g>
				</g>
				<g id="patch_3">
					<g>
						<defs>
							<polyline id="SVGID_11_" points="99,95 712.8,95 712.8,704.9 99,704.9 							"/>
						</defs>
						<clipPath id="SVGID_12_">
							<use xlink:href="#SVGID_11_"  style="overflow:visible;"/>
						</clipPath>
						<path class="st5" d="M126.9,704.9h55.8v-6.1h-55.8V704.9z"/>
					</g>
				</g>
				<g id="patch_4">
					<g>
						<defs>
							<polyline id="SVGID_13_" points="99,95 712.8,95 712.8,704.9 99,704.9 							"/>
						</defs>
						<clipPath id="SVGID_14_">
							<use xlink:href="#SVGID_13_"  style="overflow:visible;"/>
						</clipPath>
						<path class="st6" d="M182.7,704.9h55.8l0,0H182.7z"/>
					</g>
				</g>
				<g id="patch_5">
					<g>
						<defs>
							<polyline id="SVGID_15_" points="99,95 712.8,95 712.8,704.9 99,704.9 							"/>
						</defs>
						<clipPath id="SVGID_16_">
							<use xlink:href="#SVGID_15_"  style="overflow:visible;"/>
						</clipPath>
						<path class="st7" d="M238.5,704.9h55.8l0,0H238.5z"/>
					</g>
				</g>
				<g id="patch_6">
					<g>
						<defs>
							<polyline id="SVGID_17_" points="99,95 712.8,95 712.8,704.9 99,704.9 							"/>
						</defs>
						<clipPath id="SVGID_18_">
							<use xlink:href="#SVGID_17_"  style="overflow:visible;"/>
						</clipPath>
						<path class="st8" d="M294.3,704.9h55.8v-12.2h-55.8V704.9z"/>
					</g>
				</g>
				<g id="patch_7">
					<g>
						<defs>
							<polyline id="SVGID_19_" points="99,95 712.8,95 712.8,704.9 99,704.9 							"/>
						</defs>
						<clipPath id="SVGID_20_">
							<use xlink:href="#SVGID_19_"  style="overflow:visible;"/>
						</clipPath>
						<path class="st9" d="M350.1,704.9h55.8v-18.3h-55.8V704.9z"/>
					</g>
				</g>
				<g id="patch_8">
					<g>
						<defs>
							<polyline id="SVGID_21_" points="99,95 712.8,95 712.8,704.9 99,704.9 							"/>
						</defs>
						<clipPath id="SVGID_22_">
							<use xlink:href="#SVGID_21_"  style="overflow:visible;"/>
						</clipPath>
						<path class="st10" d="M405.9,704.9h55.8l0,0H405.9z"/>
					</g>
				</g>
				<g id="patch_9">
					<g>
						<defs>
							<polyline id="SVGID_23_" points="99,95 712.8,95 712.8,704.9 99,704.9 							"/>
						</defs>
						<clipPath id="SVGID_24_">
							<use xlink:href="#SVGID_23_"  style="overflow:visible;"/>
						</clipPath>
						<path class="st11" d="M461.7,704.9h55.8l0,0H461.7z"/>
					</g>
				</g>
				<g id="patch_10">
					<g>
						<defs>
							<polyline id="SVGID_25_" points="99,95 712.8,95 712.8,704.9 99,704.9 							"/>
						</defs>
						<clipPath id="SVGID_26_">
							<use xlink:href="#SVGID_25_"  style="overflow:visible;"/>
						</clipPath>
						<path class="st12" d="M517.5,704.9h55.8l0,0H517.5z"/>
					</g>
				</g>
				<g id="patch_11">
					<g>
						<defs>
							<polyline id="SVGID_27_" points="99,95 712.8,95 712.8,704.9 99,704.9 							"/>
						</defs>
						<clipPath id="SVGID_28_">
							<use xlink:href="#SVGID_27_"  style="overflow:visible;"/>
						</clipPath>
						<path class="st13" d="M573.3,704.9h55.8l0,0H573.3z"/>
					</g>
				</g>
				<g id="patch_12">
					<g>
						<defs>
							<polyline id="SVGID_29_" points="99,95 712.8,95 712.8,704.9 99,704.9 							"/>
						</defs>
						<clipPath id="SVGID_30_">
							<use xlink:href="#SVGID_29_"  style="overflow:visible;"/>
						</clipPath>
						<path class="st14" d="M629.1,704.9h55.8v-18.3h-55.8V704.9z"/>
					</g>
				</g>
				<g id="patch_13">
					<path class="st15" d="M99,95"/>
					<path class="st15" d="M99,704.9"/>
				</g>
				<g id="patch_14">
					<path class="st15" d="M712.8,95"/>
					<path class="st15" d="M712.8,704.9"/>
				</g>
				<g id="patch_15">
					<path class="st15" d="M716.3,756.6"/>
					<path class="st15" d="M102.5,756.6"/>
				</g>
				<g id="patch_16">
					<path class="st15" d="M712.7,58.9"/>
					<path class="st15" d="M98.9,58.9"/>
				</g>
			</g>
		</g>
		<rect x="79.6" y="635.1" class="st16" width="19.8" height="18.2"/>
		<text transform="matrix(1 0 0 1 79.6315 643.6644)" class="st17 st18">10</text>
		<rect x="79.6" y="391.2" class="st16" width="19.8" height="18.2"/>
		<text transform="matrix(1 0 0 1 79.6315 399.7322)" class="st17 st18">50</text>
		<rect x="72.6" y="90.7" class="st16" width="19.8" height="18.2"/>
		<text transform="matrix(1 0 0 1 72.6315 99.2684)" class="st17 st18">100</text>
		<g id="patch_15_1_">
			<path class="st15" d="M710.3,795.5"/>
			<path class="st15" d="M96.5,795.5"/>
		</g>
		<g>
			<text transform="matrix(1 0 0 1 106.5024 726.3521)" class="st19 st20">$2.01</text>
		</g>
		<g>
			<text transform="matrix(1 0 0 1 106.0024 739.8481)" class="st19 st20">per word</text>
		</g>
		<text transform="matrix(1 0 0 1 397.6588 726.3518)" class="st19 st20">2.50</text>
		<g>
			<text transform="matrix(1 0 0 1 677.3439 726.3516)" class="st19 st20">3.00</text>
		</g>
	</g>
</g>
</svg>
