<?xml version="1.0" encoding="utf-8"?>
<!-- Generator: Adobe Illustrator 22.1.0, SVG Export Plug-In . SVG Version: 6.00 Build 0)  -->
<svg version="1.1" id="Layer_1" xmlns="http://www.w3.org/2000/svg" xmlns:xlink="http://www.w3.org/1999/xlink" x="0px" y="0px"
	 viewBox="0 0 792 792" style="enable-background:new 0 0 792 792;" xml:space="preserve">
<style type="text/css">
	.st0{clip-path:url(#SVGID_2_);fill:none;stroke:#FFFFFF;stroke-linejoin:round;stroke-dasharray:1,1.65;}
	.st1{clip-path:url(#SVGID_4_);fill:none;stroke:#FFFFFF;stroke-linejoin:round;stroke-dasharray:1,1.65;}
	.st2{clip-path:url(#SVGID_6_);fill:none;stroke:#FFFFFF;stroke-linejoin:round;stroke-dasharray:1,1.65;}
	.st3{fill:none;stroke:#FFFFFF;stroke-linejoin:round;stroke-dasharray:1,1.65;}
	.st4{clip-path:url(#SVGID_12_);fill:none;stroke:#FFFFFF;stroke-linejoin:round;stroke-dasharray:1,1.65;}
	.st5{clip-path:url(#SVGID_14_);fill:#268BD2;}
	.st6{clip-path:url(#SVGID_16_);fill:#268BD2;}
	.st7{clip-path:url(#SVGID_18_);fill:#268BD2;}
	.st8{clip-path:url(#SVGID_20_);fill:#268BD2;}
	.st9{clip-path:url(#SVGID_22_);fill:#268BD2;}
	.st10{clip-path:url(#SVGID_24_);fill:#268BD2;}
	.st11{clip-path:url(#SVGID_26_);fill:#268BD2;}
	.st12{clip-path:url(#SVGID_28_);fill:#268BD2;}
	.st13{clip-path:url(#SVGID_30_);fill:#268BD2;}
	.st14{clip-path:url(#SVGID_32_);fill:#268BD2;}
	.st15{fill:none;stroke:#EEE8D5;stroke-width:0.8;stroke-linecap:square;}
	.st16{font-family:'Futura-CondensedMedium';}
	.st17{font-size:14.4193px;}
	.st18{font-size:16px;}
</style>
<g id="figure_1">
	<g id="axes_1">
		<g id="matplotlib.axis_2">
			<g id="ytick_1">
				<g id="line2d_7">
					<g>
						<defs>
							<polyline id="SVGID_1_" points="99,95 712.8,95 712.8,704.9 99,704.9 							"/>
						</defs>
						<clipPath id="SVGID_2_">
							<use xlink:href="#SVGID_1_"  style="overflow:visible;"/>
						</clipPath>
						<path class="st0" d="M99,704.9h613.8"/>
					</g>
				</g>
			</g>
			<g id="ytick_2">
				<g id="line2d_9">
					<g>
						<defs>
							<polyline id="SVGID_3_" points="99,95 712.8,95 712.8,704.9 99,704.9 							"/>
						</defs>
						<clipPath id="SVGID_4_">
							<use xlink:href="#SVGID_3_"  style="overflow:visible;"/>
						</clipPath>
						<path class="st1" d="M99,582.9h613.8"/>
						<path class="st1" d="M99,520.8h613.8"/>
						<path class="st1" d="M99,642.8h613.8"/>
					</g>
				</g>
			</g>
			<g id="ytick_3">
				<g id="line2d_11">
					<g>
						<defs>
							<polyline id="SVGID_5_" points="99,95 712.8,95 712.8,704.9 99,704.9 							"/>
						</defs>
						<clipPath id="SVGID_6_">
							<use xlink:href="#SVGID_5_"  style="overflow:visible;"/>
						</clipPath>
						<path class="st2" d="M712.8,460.9"/>
					</g>
				</g>
				<path class="st3" d="M99,401h613.8"/>
			</g>
			<g id="ytick_4">
				<g id="line2d_13">
					<g>
						<defs>
							<polyline id="SVGID_7_" points="99,95 712.8,95 712.8,704.9 99,704.9 							"/>
						</defs>
						<clipPath id="SVGID_8_">
							<use xlink:href="#SVGID_7_"  style="overflow:visible;"/>
						</clipPath>
					</g>
				</g>
			</g>
			<g id="ytick_5">
				<g id="line2d_15">
					<g>
						<defs>
							<polyline id="SVGID_9_" points="99,95 712.8,95 712.8,704.9 99,704.9 							"/>
						</defs>
						<clipPath id="SVGID_10_">
							<use xlink:href="#SVGID_9_"  style="overflow:visible;"/>
						</clipPath>
					</g>
				</g>
			</g>
			<g id="ytick_6">
				<g id="line2d_17">
					<g>
						<defs>
							<polyline id="SVGID_11_" points="99,95 712.8,95 712.8,704.9 99,704.9 							"/>
						</defs>
						<clipPath id="SVGID_12_">
							<use xlink:href="#SVGID_11_"  style="overflow:visible;"/>
						</clipPath>
						<path class="st4" d="M99,95h613.8"/>
					</g>
				</g>
			</g>
		</g>
		<g id="patch_3">
			<g>
				<defs>
					<polyline id="SVGID_13_" points="99,95 712.8,95 712.8,704.9 99,704.9 					"/>
				</defs>
				<clipPath id="SVGID_14_">
					<use xlink:href="#SVGID_13_"  style="overflow:visible;"/>
				</clipPath>
				<path class="st5" d="M126.9,704.9h55.8V650h-55.8V704.9z"/>
			</g>
		</g>
		<g id="patch_4">
			<g>
				<defs>
					<polyline id="SVGID_15_" points="99,95 712.8,95 712.8,704.9 99,704.9 					"/>
				</defs>
				<clipPath id="SVGID_16_">
					<use xlink:href="#SVGID_15_"  style="overflow:visible;"/>
				</clipPath>
				<path class="st6" d="M182.7,704.9h55.8v-36.6h-55.8V704.9z"/>
			</g>
		</g>
		<g id="patch_5">
			<g>
				<defs>
					<polyline id="SVGID_17_" points="99,95 712.8,95 712.8,704.9 99,704.9 					"/>
				</defs>
				<clipPath id="SVGID_18_">
					<use xlink:href="#SVGID_17_"  style="overflow:visible;"/>
				</clipPath>
				<path class="st7" d="M238.5,704.9h55.8V650h-55.8V704.9z"/>
			</g>
		</g>
		<g id="patch_6">
			<g>
				<defs>
					<polyline id="SVGID_19_" points="99,95 712.8,95 712.8,704.9 99,704.9 					"/>
				</defs>
				<clipPath id="SVGID_20_">
					<use xlink:href="#SVGID_19_"  style="overflow:visible;"/>
				</clipPath>
				<path class="st8" d="M294.3,704.9h55.8v-79.3h-55.8V704.9z"/>
			</g>
		</g>
		<g id="patch_7">
			<g>
				<defs>
					<polyline id="SVGID_21_" points="99,95 712.8,95 712.8,704.9 99,704.9 					"/>
				</defs>
				<clipPath id="SVGID_22_">
					<use xlink:href="#SVGID_21_"  style="overflow:visible;"/>
				</clipPath>
				<path class="st9" d="M350.1,704.9h55.8v-91.5h-55.8V704.9z"/>
			</g>
		</g>
		<g id="patch_8">
			<g>
				<defs>
					<polyline id="SVGID_23_" points="99,95 712.8,95 712.8,704.9 99,704.9 					"/>
				</defs>
				<clipPath id="SVGID_24_">
					<use xlink:href="#SVGID_23_"  style="overflow:visible;"/>
				</clipPath>
				<path class="st10" d="M405.9,704.9h55.8v-48.8h-55.8V704.9z"/>
			</g>
		</g>
		<g id="patch_9">
			<g>
				<defs>
					<polyline id="SVGID_25_" points="99,95 712.8,95 712.8,704.9 99,704.9 					"/>
				</defs>
				<clipPath id="SVGID_26_">
					<use xlink:href="#SVGID_25_"  style="overflow:visible;"/>
				</clipPath>
				<path class="st11" d="M461.7,704.9h55.8v-12.2h-55.8V704.9z"/>
			</g>
		</g>
		<g id="patch_10">
			<g>
				<defs>
					<polyline id="SVGID_27_" points="99,95 712.8,95 712.8,704.9 99,704.9 					"/>
				</defs>
				<clipPath id="SVGID_28_">
					<use xlink:href="#SVGID_27_"  style="overflow:visible;"/>
				</clipPath>
				<path class="st12" d="M517.5,704.9h55.8v-12.2h-55.8V704.9z"/>
			</g>
		</g>
		<g id="patch_11">
			<g>
				<defs>
					<polyline id="SVGID_29_" points="99,95 712.8,95 712.8,704.9 99,704.9 					"/>
				</defs>
				<clipPath id="SVGID_30_">
					<use xlink:href="#SVGID_29_"  style="overflow:visible;"/>
				</clipPath>
				<path class="st13" d="M573.3,704.9h55.8v-18.3h-55.8V704.9z"/>
			</g>
		</g>
		<g id="patch_12">
			<g>
				<defs>
					<polyline id="SVGID_31_" points="99,95 712.8,95 712.8,704.9 99,704.9 					"/>
				</defs>
				<clipPath id="SVGID_32_">
					<use xlink:href="#SVGID_31_"  style="overflow:visible;"/>
				</clipPath>
				<path class="st14" d="M629.1,704.9h55.8V540.2h-55.8V704.9z"/>
			</g>
		</g>
		<g id="patch_13">
			<path class="st15" d="M99,95"/>
			<path class="st15" d="M99,704.9"/>
		</g>
		<g id="patch_14">
			<path class="st15" d="M712.8,95"/>
			<path class="st15" d="M712.8,704.9"/>
		</g>
		<g id="patch_15">
			<path class="st15" d="M710.3,773.5"/>
			<path class="st15" d="M96.5,773.5"/>
		</g>
		<g id="patch_16">
			<path class="st15" d="M712.2,80.9"/>
			<path class="st15" d="M98.4,80.9"/>
		</g>
	</g>
</g>
<text transform="matrix(1 0 0 1 79.7633 406.6092)" class="st16 st17">50</text>
<text transform="matrix(1 0 0 1 74.7633 101.5078)" class="st16 st17">100</text>
<text transform="matrix(1 0 0 1 80.7633 648.57)" class="st16 st17">10</text>
<text transform="matrix(1 0 0 1 80.7633 589.0267)" class="st16 st17">20</text>
<text transform="matrix(1 0 0 1 80.7633 526.6019)" class="st16 st17">30</text>
<g>
	<text transform="matrix(1 0 0 1 107.5024 722.352)" class="st16 st18">$1.01</text>
</g>
<g>
	<text transform="matrix(1 0 0 1 107.0024 735.8481)" class="st16 st18">per word</text>
</g>
<text transform="matrix(1 0 0 1 397.6588 722.3519)" class="st16 st18">1.50</text>
<g>
	<text transform="matrix(1 0 0 1 677.3439 722.3516)" class="st16 st18">2.00</text>
</g>
</svg>
