<?xml version="1.0" encoding="utf-8"?>
<!-- Generator: Adobe Illustrator 22.1.0, SVG Export Plug-In . SVG Version: 6.00 Build 0)  -->
<svg version="1.1" xmlns="http://www.w3.org/2000/svg" xmlns:xlink="http://www.w3.org/1999/xlink" x="0px" y="0px"
	 viewBox="0 0 2733 16206.6" style="enable-background:new 0 0 2733 16206.6;" xml:space="preserve">
<style type="text/css">
	.st0{fill:#657B83;stroke:#657B83;stroke-width:0.8;stroke-linejoin:round;}
	.st1{fill:none;}
	.st2{fill:none;stroke:#FFFFFF;stroke-linejoin:round;stroke-dasharray:1,1.65;}
	.st3{fill:#268BD2;}
	.st4{fill:none;stroke:#EEE8D5;stroke-width:0.8;stroke-linecap:square;}
	.st5{font-family:'Futura-CondensedMedium';}
	.st6{font-size:54px;}
	.st7{font-size:53.5118px;}
	.st8{enable-background:new    ;}
	.st9{letter-spacing:-2;}
</style>
<g id="Layer_2">
</g>
<g id="Layer_1">
	<g id="figure_1">
		<g id="axes_1">
			<g id="matplotlib.axis_1">
				<g id="xtick_1">
					<g id="line2d_1">
						<g>
							<g>
								<path id="m8ecb837f29_6_" class="st0" d="M395.4,16084.9"/>
							</g>
						</g>
					</g>
				</g>
				<g id="xtick_5">
					<g id="line2d_5">
						<g>
							<g>
								<path id="m8ecb837f29_4_" class="st0" d="M2084.8,16084.9v13.2"/>
							</g>
						</g>
					</g>
				</g>
			</g>
			<g id="matplotlib.axis_2">
				<g id="ytick_2">
					<g id="line2d_9">
						<rect x="289.9" y="13777.1" class="st1" width="2322.8" height="2307.8"/>
						<path class="st2" d="M289.9,15842.7h2322.8"/>
						<path class="st2" d="M289.9,14924.3h2322.8"/>
						<path class="st2" d="M2542.3,10914.4"/>
						<path class="st2" d="M219.5,10914.4"/>
					</g>
					<g id="line2d_10">
						<g>
							<g>
								<path id="m41f3f32577_2_" class="st0" d="M289.9,15623.3"/>
							</g>
						</g>
					</g>
				</g>
				<g id="ytick_3">
					<g id="line2d_11">
						<rect x="289.9" y="13777.1" class="st1" width="2322.8" height="2307.8"/>
						<path class="st2" d="M290,11449.4h2322.8"/>
						<path class="st2" d="M290,9133.9h2322.8"/>
						<path class="st2" d="M290,6798.2h2322.8"/>
						<path class="st2" d="M290,4472.8h2322.8"/>
						<path class="st2" d="M290,2147.7h2322.8"/>
						<path class="st2" d="M289.9,185.6h2322.8"/>
					</g>
				</g>
				<g id="ytick_4">
					<g id="line2d_13">
						<rect x="289.9" y="13777.1" class="st1" width="2322.8" height="2307.8"/>
					</g>
				</g>
				<g id="ytick_5">
					<g id="line2d_15">
						<rect x="289.9" y="13777.1" class="st1" width="2322.8" height="2307.8"/>
					</g>
				</g>
				<g id="ytick_6">
					<g id="line2d_17">
						<rect x="289.9" y="13777.1" class="st1" width="2322.8" height="2307.8"/>
						<path class="st2" d="M289.9,13777.1h2322.8"/>
					</g>
				</g>
			</g>
			<g id="patch_3">
				<rect x="289.9" y="13777.1" class="st1" width="2322.8" height="2307.8"/>
				<path class="st3" d="M395.4,16084.9h211.2V230.1H395.4V16084.9z"/>
			</g>
			<g id="patch_4">
				<rect x="289.9" y="13777.1" class="st1" width="2322.8" height="2307.8"/>
				<path class="st3" d="M606.6,16084.9h211.2V2745.6H606.6V16084.9z"/>
			</g>
			<g id="patch_5">
				<rect x="289.9" y="13777.1" class="st1" width="2322.8" height="2307.8"/>
				<path class="st3" d="M817.8,16084.9h211.2V3807.2H817.8V16084.9z"/>
			</g>
			<g id="patch_6">
				<rect x="289.9" y="13777.1" class="st1" width="2322.8" height="2307.8"/>
				<path class="st3" d="M1028.9,16084.9h211.2v-4638.7h-211.2V16084.9z"/>
			</g>
			<g id="patch_7">
				<rect x="289.9" y="13777.1" class="st1" width="2322.8" height="2307.8"/>
				<path class="st3" d="M1240.1,16084.9h211.2v-3046.3h-211.2V16084.9z"/>
			</g>
			<g id="patch_8">
				<rect x="289.9" y="13777.1" class="st1" width="2322.8" height="2307.8"/>
				<path class="st3" d="M1451.3,16084.9h211.2V12300h-211.2V16084.9z"/>
			</g>
			<g id="patch_9">
				<rect x="289.9" y="13777.1" class="st1" width="2322.8" height="2307.8"/>
				<path class="st3" d="M1662.4,16084.9h211.2v-1130.8h-211.2V16084.9z"/>
			</g>
			<g id="patch_10">
				<rect x="289.9" y="13777.1" class="st1" width="2322.8" height="2307.8"/>
				<path class="st3" d="M1873.6,16084.9h211.2v-715.4h-211.2V16084.9z"/>
			</g>
			<g id="patch_11">
				<rect x="289.9" y="13777.1" class="st1" width="2322.8" height="2307.8"/>
				<path class="st3" d="M2084.8,16084.9h211.2v-877h-211.2V16084.9z"/>
			</g>
			<g id="patch_12">
				<rect x="289.9" y="13777.1" class="st1" width="2322.8" height="2307.8"/>
				<path class="st3" d="M2295.9,16084.9h211.2v-2492.5h-211.2V16084.9z"/>
				<path class="st1" d="M2612.7,13686.7"/>
				<path class="st1" d="M289.9,13686.7"/>
			</g>
			<g id="patch_13">
				<path class="st4" d="M289.9,13777.1"/>
				<path class="st4" d="M289.9,16084.9"/>
			</g>
			<g id="patch_14">
				<path class="st4" d="M2612.7,13777.1"/>
				<path class="st4" d="M2612.7,16084.9"/>
			</g>
			<g id="patch_15">
				<path class="st4" d="M2612.7,16084.9"/>
				<path class="st4" d="M289.9,16084.9"/>
			</g>
			<g id="patch_16">
				<path class="st4" d="M2612.7,13796.9"/>
				<path class="st4" d="M289.9,13796.9"/>
			</g>
		</g>
	</g>
	<rect x="203.5" y="15822.1" class="st1" width="54.5" height="71.4"/>
	<text transform="matrix(1 0 0 1 203.4697 15866.8604)" class="st5 st6">10</text>
	<rect x="203.5" y="14889.1" class="st1" width="54.5" height="71.4"/>
	<text transform="matrix(1 0 0 1 203.4697 14933.9092)" class="st5 st6">50</text>
	<rect x="183.5" y="13731.3" class="st1" width="73" height="71.4"/>
	<text transform="matrix(1 0 0 1 183.4697 13776.127)" class="st5 st6">100</text>
	<polyline class="st1" points="182.5,13158.1 255.5,13158.1 255.5,13204.1 	"/>
	<rect x="181.8" y="11383.6" class="st1" width="71.2" height="47.1"/>
	<text transform="matrix(1 0 0 1 181.8486 11428.3867)" class="st5 st6">200</text>
	<rect x="181.7" y="9036.3" class="st1" width="71.2" height="47.1"/>
	<text transform="matrix(1 0 0 1 181.7474 9081.0723)" class="st5 st6">300</text>
	<path class="st2" d="M138.4,8519.6"/>
	<rect x="182.4" y="6688.8" class="st1" width="71.2" height="47.1"/>
	<text transform="matrix(1 0 0 1 182.3859 6733.5518)" class="st5 st6">400</text>
	<path class="st2" d="M108.4,6172.1"/>
	<rect x="182.4" y="4341.3" class="st1" width="71.2" height="47.1"/>
	<text transform="matrix(1 0 0 1 182.3859 4386.0825)" class="st5 st6">500</text>
	<path class="st2" d="M68.4,3825.1"/>
	<rect x="182.4" y="1994.3" class="st1" width="71.2" height="47.1"/>
	<text transform="matrix(1 0 0 1 182.3859 2039.1145)" class="st5 st6">600</text>
	<rect x="192.9" y="160.3" class="st1" width="70.5" height="46.7"/>
	<text transform="matrix(1 0 0 1 192.8872 204.6539)" class="st5 st7">700</text>
	<g>
		<g>
			<g>
				<text transform="matrix(1 0 0 1 340.9561 16137.1836)" class="st8"><tspan x="0" y="0" class="st5 st6">$0.</tspan><tspan x="55.9" y="0" class="st5 st6 st9">0</tspan><tspan x="76" y="0" class="st5 st6">1</tspan></text>
			</g>
		</g>
		<g>
			<g>
				<text transform="matrix(1 0 0 1 340.4561 16180.0127)" class="st8"><tspan x="0" y="0" class="st5 st6">per </tspan><tspan x="66.8" y="0" class="st5 st6">w</tspan><tspan x="93.8" y="0" class="st5 st6">o</tspan><tspan x="114.6" y="0" class="st5 st6">r</tspan><tspan x="129.4" y="0" class="st5 st6">d</tspan></text>
			</g>
		</g>
	</g>
	<g>
		<text transform="matrix(1 0 0 1 1422.1976 16150.876)" class="st5 st6">0.50</text>
	</g>
	<g>
		<g>
			<text transform="matrix(1 0 0 1 2491.6689 16155.7139)" class="st8"><tspan x="0" y="0" class="st5 st6 st9">1</tspan><tspan x="19.7" y="0" class="st5 st6">.00</tspan></text>
		</g>
	</g>
	<g>
		<g>
			<g>
				<text transform="matrix(1 0 0 1 327.6265 130.3968)" class="st8"><tspan x="0" y="0" class="st5 st7">$0.</tspan><tspan x="55.4" y="0" class="st5 st7 st9">0</tspan><tspan x="75.3" y="0" class="st5 st7">1</tspan></text>
			</g>
		</g>
		<g>
			<g>
				<text transform="matrix(1 0 0 1 327.1309 172.8391)" class="st8"><tspan x="0" y="0" class="st5 st7">per </tspan><tspan x="66.2" y="0" class="st5 st7">w</tspan><tspan x="93" y="0" class="st5 st7">o</tspan><tspan x="113.6" y="0" class="st5 st7">r</tspan><tspan x="128.2" y="0" class="st5 st7">d</tspan></text>
			</g>
		</g>
	</g>
	<g>
		<text transform="matrix(1 0 0 1 1423.0928 143.9651)" class="st5 st7">0.50</text>
	</g>
	<g>
		<g>
			<text transform="matrix(1 0 0 1 2458.8955 148.761)" class="st8"><tspan x="0" y="0" class="st5 st7 st9">1</tspan><tspan x="19.5" y="0" class="st5 st7">.00</tspan></text>
		</g>
	</g>
	<path class="st2" d="M1451,16085.9V187.2"/>
</g>
</svg>
