<?xml version="1.0" encoding="utf-8"?>
<!-- Generator: Adobe Illustrator 22.1.0, SVG Export Plug-In . SVG Version: 6.00 Build 0)  -->
<svg version="1.1" xmlns="http://www.w3.org/2000/svg" xmlns:xlink="http://www.w3.org/1999/xlink" x="0px" y="0px"
	 viewBox="0 0 792 792" style="enable-background:new 0 0 792 792;" xml:space="preserve">
<style type="text/css">
	.st0{clip-path:url(#SVGID_2_);fill:none;stroke:#FFFFFF;stroke-linejoin:round;stroke-dasharray:1,1.65;}
	.st1{clip-path:url(#SVGID_4_);fill:none;stroke:#FFFFFF;stroke-linejoin:round;stroke-dasharray:1,1.65;}
	.st2{clip-path:url(#SVGID_6_);fill:none;stroke:#FFFFFF;stroke-linejoin:round;stroke-dasharray:1,1.65;}
	.st3{clip-path:url(#SVGID_8_);fill:none;stroke:#FFFFFF;stroke-linejoin:round;stroke-dasharray:1,1.65;}
	.st4{clip-path:url(#SVGID_10_);fill:#268BD2;}
	.st5{clip-path:url(#SVGID_12_);fill:#268BD2;}
	.st6{clip-path:url(#SVGID_14_);fill:#268BD2;}
	.st7{clip-path:url(#SVGID_16_);fill:#268BD2;}
	.st8{clip-path:url(#SVGID_18_);fill:#268BD2;}
	.st9{clip-path:url(#SVGID_20_);fill:#268BD2;}
	.st10{clip-path:url(#SVGID_22_);fill:#268BD2;}
	.st11{clip-path:url(#SVGID_24_);fill:#268BD2;}
	.st12{clip-path:url(#SVGID_26_);fill:#268BD2;}
	.st13{clip-path:url(#SVGID_28_);fill:#268BD2;}
	.st14{fill:none;}
	.st15{font-family:'Futura-CondensedMedium';}
	.st16{font-size:16px;}
	.st17{enable-background:new    ;}
</style>
<g id="Layer_2">
</g>
<g id="Layer_1">
	<g id="figure_1">
		<g id="axes_1">
			<g id="matplotlib.axis_2">
				<g id="ytick_2">
					<g id="line2d_9">
						<g>
							<g>
								<defs>
									<polyline id="SVGID_1_" points="712.8,95 712.8,704.8 99,704.8 99,95 									"/>
								</defs>
								<clipPath id="SVGID_2_">
									<use xlink:href="#SVGID_1_"  style="overflow:visible;"/>
								</clipPath>
								<path class="st0" d="M99,620.3h613.8"/>
							</g>
						</g>
					</g>
				</g>
				<g id="ytick_4">
					<g id="line2d_13">
						<g>
							<g>
								<defs>
									<polyline id="SVGID_3_" points="712.8,95 712.8,704.8 99,704.8 99,95 									"/>
								</defs>
								<clipPath id="SVGID_4_">
									<use xlink:href="#SVGID_3_"  style="overflow:visible;"/>
								</clipPath>
								<path class="st1" d="M99,451.3h613.8"/>
							</g>
						</g>
					</g>
				</g>
				<g id="ytick_6">
					<g id="line2d_17">
						<g>
							<g>
								<defs>
									<polyline id="SVGID_5_" points="712.8,95 712.8,704.8 99,704.8 99,95 									"/>
								</defs>
								<clipPath id="SVGID_6_">
									<use xlink:href="#SVGID_5_"  style="overflow:visible;"/>
								</clipPath>
								<path class="st2" d="M99,282.2h613.8"/>
							</g>
						</g>
					</g>
				</g>
				<g id="ytick_8">
					<g id="line2d_21">
						<g>
							<g>
								<defs>
									<polyline id="SVGID_7_" points="712.8,95 712.8,704.8 99,704.8 99,95 									"/>
								</defs>
								<clipPath id="SVGID_8_">
									<use xlink:href="#SVGID_7_"  style="overflow:visible;"/>
								</clipPath>
								<path class="st3" d="M712.8,113.1"/>
								<path class="st3" d="M99,113.1"/>
							</g>
						</g>
					</g>
				</g>
			</g>
			<g id="patch_3">
				<g>
					<g>
						<defs>
							<polyline id="SVGID_9_" points="712.8,95 712.8,704.8 99,704.8 99,95 							"/>
						</defs>
						<clipPath id="SVGID_10_">
							<use xlink:href="#SVGID_9_"  style="overflow:visible;"/>
						</clipPath>
						<path class="st4" d="M126.9,704.9h55.8V124.1h-55.8C126.9,124.1,126.9,704.9,126.9,704.9z"/>
					</g>
				</g>
			</g>
			<g id="patch_4">
				<g>
					<g>
						<defs>
							<polyline id="SVGID_11_" points="712.8,95 712.8,704.8 99,704.8 99,95 							"/>
						</defs>
						<clipPath id="SVGID_12_">
							<use xlink:href="#SVGID_11_"  style="overflow:visible;"/>
						</clipPath>
						<path class="st5" d="M182.7,704.9h55.8V216.2h-55.8V704.9z"/>
					</g>
				</g>
			</g>
			<g id="patch_5">
				<g>
					<g>
						<defs>
							<polyline id="SVGID_13_" points="712.8,95 712.8,704.8 99,704.8 99,95 							"/>
						</defs>
						<clipPath id="SVGID_14_">
							<use xlink:href="#SVGID_13_"  style="overflow:visible;"/>
						</clipPath>
						<path class="st6" d="M238.5,704.9h55.8V255.1h-55.8L238.5,704.9L238.5,704.9z"/>
					</g>
				</g>
			</g>
			<g id="patch_6">
				<g>
					<g>
						<defs>
							<polyline id="SVGID_15_" points="712.8,95 712.8,704.8 99,704.8 99,95 							"/>
						</defs>
						<clipPath id="SVGID_16_">
							<use xlink:href="#SVGID_15_"  style="overflow:visible;"/>
						</clipPath>
						<path class="st7" d="M294.3,704.9h55.8V535h-55.8V704.9z"/>
					</g>
				</g>
			</g>
			<g id="patch_7">
				<g>
					<g>
						<defs>
							<polyline id="SVGID_17_" points="712.8,95 712.8,704.8 99,704.8 99,95 							"/>
						</defs>
						<clipPath id="SVGID_18_">
							<use xlink:href="#SVGID_17_"  style="overflow:visible;"/>
						</clipPath>
						<path class="st8" d="M350.1,704.9h55.8V593.3h-55.8V704.9z"/>
					</g>
				</g>
			</g>
			<g id="patch_8">
				<g>
					<g>
						<defs>
							<polyline id="SVGID_19_" points="712.8,95 712.8,704.8 99,704.8 99,95 							"/>
						</defs>
						<clipPath id="SVGID_20_">
							<use xlink:href="#SVGID_19_"  style="overflow:visible;"/>
						</clipPath>
						<path class="st9" d="M405.9,704.9h55.8V566.2h-55.8V704.9z"/>
					</g>
				</g>
			</g>
			<g id="patch_9">
				<g>
					<g>
						<defs>
							<polyline id="SVGID_21_" points="712.8,95 712.8,704.8 99,704.8 99,95 							"/>
						</defs>
						<clipPath id="SVGID_22_">
							<use xlink:href="#SVGID_21_"  style="overflow:visible;"/>
						</clipPath>
						<path class="st10" d="M461.7,704.9h55.8v-41.4h-55.8V704.9z"/>
					</g>
				</g>
			</g>
			<g id="patch_10">
				<g>
					<g>
						<defs>
							<polyline id="SVGID_23_" points="712.8,95 712.8,704.8 99,704.8 99,95 							"/>
						</defs>
						<clipPath id="SVGID_24_">
							<use xlink:href="#SVGID_23_"  style="overflow:visible;"/>
						</clipPath>
						<path class="st11" d="M517.5,704.9h55.8v-26.2h-55.8V704.9z"/>
					</g>
				</g>
			</g>
			<g id="patch_11">
				<g>
					<g>
						<defs>
							<polyline id="SVGID_25_" points="712.8,95 712.8,704.8 99,704.8 99,95 							"/>
						</defs>
						<clipPath id="SVGID_26_">
							<use xlink:href="#SVGID_25_"  style="overflow:visible;"/>
						</clipPath>
						<path class="st12" d="M573.3,704.9h55.8v-32.1h-55.8V704.9z"/>
					</g>
				</g>
			</g>
			<g id="patch_12">
				<g>
					<g>
						<defs>
							<polyline id="SVGID_27_" points="712.8,95 712.8,704.8 99,704.8 99,95 							"/>
						</defs>
						<clipPath id="SVGID_28_">
							<use xlink:href="#SVGID_27_"  style="overflow:visible;"/>
						</clipPath>
						<path class="st13" d="M629.1,704.9h55.8v-91.3h-55.8V704.9z"/>
					</g>
				</g>
			</g>
		</g>
	</g>
	<g>
		<polygon class="st14" points="94.4,710 148.8,710 148.8,736.4 104.4,736.4 		"/>
		<g>
			<text transform="matrix(1 0 0 1 112.5024 728.0187)" class="st15 st16">$0.01</text>
		</g>
		<g>
			<text transform="matrix(1 0 0 1 112.0024 740.8481)" class="st15 st16">per word</text>
		</g>
	</g>
	<rect x="228.2" y="807.5" class="st14" width="31.1" height="11.7"/>
	<text transform="matrix(1 0 0 1 231.1609 815.9985)" class="st15" style="font-size:14px;">0.20</text>
	<text transform="matrix(1 0 0 1 285.855 816.6577)" class="st15" style="font-size:14px;">0.30</text>
	<text transform="matrix(1 0 0 1 176.1984 816.9324)" class="st15" style="font-size:14px;">0.10</text>
	<text transform="matrix(1 0 0 1 342.2543 815.9984)" class="st15" style="font-size:14px;">0.40</text>
	<text transform="matrix(1 0 0 1 399.0009 728.0183)" class="st15 st16">0.50</text>
	<text transform="matrix(1 0 0 1 454.3239 815.998)" class="st15" style="font-size:14px;">0.60</text>
	<text transform="matrix(1 0 0 1 510.474 815.998)" class="st15" style="font-size:14px;">0.70</text>
	<text transform="matrix(1 0 0 1 566.2555 815.9984)" class="st15" style="font-size:14px;">0.80</text>
	<text transform="matrix(1 0 0 1 621.4434 815.9984)" class="st15" style="font-size:14px;">0.90</text>
	<g>
		<text transform="matrix(1 0 0 1 679.0673 728.0182)" class="st15 st16">1.00</text>
	</g>
	<g>
		<rect x="70" y="274.5" class="st14" width="20.5" height="15.7"/>
		<text transform="matrix(1 0 0 1 69.9979 287.7328)" class="st15 st16">500</text>
	</g>
	<g>
		<rect x="70" y="105" class="st14" width="20.5" height="15.7"/>
		<text transform="matrix(1 0 0 1 69.9979 118.3231)" class="st15 st16">700</text>
	</g>
	<g>
		<rect x="69.7" y="443.5" class="st14" width="21.2" height="15.7"/>
		<text transform="matrix(1 0 0 1 69.656 456.7558)" class="st15 st16">300</text>
	</g>
	<g>
		<rect x="70.3" y="612.3" class="st14" width="19.8" height="15.7"/>
		<text transform="matrix(1 0 0 1 70.3402 625.5767)" class="st15 st16">10</text>
	</g>
</g>
</svg>
