<?xml version="1.0" encoding="utf-8"?>
<!-- Generator: Adobe Illustrator 22.1.0, SVG Export Plug-In . SVG Version: 6.00 Build 0)  -->
<svg version="1.1" id="Layer_1" xmlns="http://www.w3.org/2000/svg" xmlns:xlink="http://www.w3.org/1999/xlink" x="0px" y="0px"
	 viewBox="0 0 792 432" style="enable-background:new 0 0 792 432;" xml:space="preserve">
<style type="text/css">
	.st0{fill:#EEE8D5;}
	.st1{fill:#657B83;}
	.st2{clip-path:url(#SVGID_2_);fill:none;stroke:#FFFFFF;stroke-linejoin:round;stroke-dasharray:1,1.65;}
	.st3{clip-path:url(#SVGID_4_);fill:none;stroke:#FFFFFF;stroke-linejoin:round;stroke-dasharray:1,1.65;}
	.st4{clip-path:url(#SVGID_6_);fill:none;stroke:#FFFFFF;stroke-linejoin:round;stroke-dasharray:1,1.65;}
	.st5{clip-path:url(#SVGID_8_);fill:none;stroke:#FFFFFF;stroke-linejoin:round;stroke-dasharray:1,1.65;}
	.st6{clip-path:url(#SVGID_10_);fill:none;stroke:#FFFFFF;stroke-linejoin:round;stroke-dasharray:1,1.65;}
	.st7{clip-path:url(#SVGID_12_);fill:none;stroke:#FFFFFF;stroke-linejoin:round;stroke-dasharray:1,1.65;}
	.st8{clip-path:url(#SVGID_14_);fill:none;stroke:#DBD7AD;stroke-width:2;stroke-linejoin:round;}
	.st9{clip-path:url(#SVGID_16_);fill:none;stroke:#DBD7AD;stroke-width:2;stroke-linejoin:round;}
	.st10{clip-path:url(#SVGID_18_);fill:none;stroke:#D26C3D;stroke-width:2;stroke-linejoin:round;}
	.st11{fill:none;stroke:#EEE8D5;stroke-width:0.8;stroke-linecap:square;}
	.st12{fill:none;}
	.st13{font-family:'Futura-CondensedMedium';}
	.st14{font-size:12px;}
	.st15{font-family:'MinionPro-It';}
	.st16{font-size:14px;}
	.st17{font-family:'FuturaStd-CondensedBold';}
</style>
<path class="st0" d="M99.4,384.8h613.8V52.2H99.4V384.8z"/>
<path id="FuturaStd-CondensedBold-32" class="st1" d="M115.8,392.4l0-0.7c0-0.6,0-1.7,0.8-1.7c0.7,0,0.8,0.8,0.8,1.3
	c0,1.2-0.8,2.6-1.4,3.6l-2.4,4.4h5.5v-1.8h-2.5l1.8-3.3c0.5-0.9,0.9-1.8,0.9-2.9c0-1.8-1.1-2.7-2.8-2.7c-2.2,0-2.8,1.3-2.8,3.3
	l0,0.6H115.8z"/>
<path id="FuturaStd-CondensedBold-30" class="st1" d="M123.5,388.6c-2.5,0-3,3.6-3,5.4s0.4,5.4,3,5.4c2.5,0,3-3.6,3-5.4
	S126,388.6,123.5,388.6z M123.5,390.5c1,0,0.9,2.9,0.9,3.5c0,0.7,0.1,3.5-0.9,3.5c-1,0-0.9-2.9-0.9-3.5
	C122.5,393.3,122.4,390.5,123.5,390.5z"/>
<path id="FuturaStd-CondensedBold-30_1_" class="st1" d="M130.3,388.6c-2.5,0-3,3.6-3,5.4s0.4,5.4,3,5.4c2.5,0,3-3.6,3-5.4
	S132.9,388.6,130.3,388.6z M130.3,390.5c1,0,0.9,2.9,0.9,3.5c0,0.7,0.1,3.5-0.9,3.5c-1,0-0.9-2.9-0.9-3.5
	C129.4,393.3,129.3,390.5,130.3,390.5z"/>
<path id="FuturaStd-CondensedBold-36" class="st1" d="M136.6,388.7l-0.9,1.8c-0.8,1.7-1.5,3.3-1.5,5.2c0,1.8,0.8,3.7,2.9,3.7
	c2.2,0,3-2,3-3.9c0-1.3-0.5-3.3-2.1-3.3c-0.6,0-0.9,0.2-1.3,0.6l0,0l2-4.1H136.6z M137.2,394.1c0.7,0,0.8,1.1,0.8,1.7
	c0,0.5-0.1,1.9-0.9,1.9c-0.7,0-0.9-1.2-0.9-1.7C136.3,395.4,136.5,394.1,137.2,394.1z"/>
<path id="FuturaStd-CondensedBold-32_1_" class="st1" d="M171.6,392.4l0-0.7c0-0.6,0-1.7,0.8-1.7c0.7,0,0.8,0.8,0.8,1.3
	c0,1.2-0.8,2.6-1.4,3.6l-2.4,4.4h5.5v-1.8h-2.4l1.8-3.3c0.5-0.9,0.9-1.8,0.9-2.9c0-1.8-1.1-2.7-2.8-2.7c-2.2,0-2.8,1.3-2.8,3.3
	l0,0.6H171.6z"/>
<path id="FuturaStd-CondensedBold-30_2_" class="st1" d="M179.3,388.6c-2.5,0-3,3.6-3,5.4s0.4,5.4,3,5.4s3-3.6,3-5.4
	S181.8,388.6,179.3,388.6z M179.3,390.5c1,0,0.9,2.9,0.9,3.5c0,0.7,0.1,3.5-0.9,3.5c-1,0-0.9-2.9-0.9-3.5
	C178.3,393.3,178.2,390.5,179.3,390.5z"/>
<path id="FuturaStd-CondensedBold-30_3_" class="st1" d="M186.1,388.6c-2.5,0-3,3.6-3,5.4s0.4,5.4,3,5.4s3-3.6,3-5.4
	S188.7,388.6,186.1,388.6z M186.1,390.5c1,0,0.9,2.9,0.9,3.5c0,0.7,0.1,3.5-0.9,3.5s-0.9-2.9-0.9-3.5
	C185.2,393.3,185.1,390.5,186.1,390.5z"/>
<path id="FuturaStd-CondensedBold-37" class="st1" d="M190.6,388.7v1.8h2.8l-3.3,8.7h2.2l4-10.6H190.6z"/>
<path id="FuturaStd-CondensedBold-32_2_" class="st1" d="M227.4,392.4l0-0.7c0-0.6,0-1.7,0.8-1.7c0.7,0,0.8,0.8,0.8,1.3
	c0,1.2-0.8,2.6-1.4,3.6l-2.4,4.4h5.5v-1.8h-2.4l1.8-3.3c0.5-0.9,0.9-1.8,0.9-2.9c0-1.8-1.1-2.7-2.8-2.7c-2.2,0-2.8,1.3-2.8,3.3
	l0,0.6H227.4z"/>
<path id="FuturaStd-CondensedBold-30_4_" class="st1" d="M235.1,388.6c-2.5,0-3,3.6-3,5.4s0.4,5.4,3,5.4s3-3.6,3-5.4
	S237.6,388.6,235.1,388.6z M235.1,390.5c1,0,0.9,2.9,0.9,3.5c0,0.7,0.1,3.5-0.9,3.5c-1,0-0.9-2.9-0.9-3.5
	C234.1,393.3,234,390.5,235.1,390.5z"/>
<path id="FuturaStd-CondensedBold-30_5_" class="st1" d="M241.9,388.6c-2.5,0-3,3.6-3,5.4s0.4,5.4,3,5.4s3-3.6,3-5.4
	S244.5,388.6,241.9,388.6z M241.9,390.5c1,0,0.9,2.9,0.9,3.5c0,0.7,0.1,3.5-0.9,3.5s-0.9-2.9-0.9-3.5
	C241,393.3,240.9,390.5,241.9,390.5z"/>
<path id="FuturaStd-CondensedBold-38" class="st1" d="M247.6,393.6c-1.3,0.4-1.8,1.4-1.8,2.8c0,1.7,1.3,3.1,3,3.1c1.8,0,3-1.3,3-3.1
	c0-1.3-0.5-2.4-1.8-2.8v0c1-0.4,1.4-1.2,1.4-2.2c0-1.6-1-2.8-2.6-2.8c-1.6,0-2.6,1.2-2.6,2.8C246.2,392.3,246.6,393.2,247.6,393.6
	L247.6,393.6z M248.2,391.3c0-0.4,0.1-1.1,0.6-1.1c0.6,0,0.6,0.7,0.6,1.1c0,0.4,0,1.2-0.6,1.2C248.2,392.5,248.2,391.7,248.2,391.3z
	 M248.8,394.6c0.7,0,0.9,1,0.9,1.5s-0.2,1.5-0.9,1.5c-0.7,0-0.9-1-0.9-1.5S248.1,394.6,248.8,394.6z"/>
<path id="FuturaStd-CondensedBold-32_3_" class="st1" d="M283.2,392.4l0-0.7c0-0.6,0-1.7,0.8-1.7c0.7,0,0.8,0.8,0.8,1.3
	c0,1.2-0.8,2.6-1.4,3.6l-2.4,4.4h5.5v-1.8h-2.5l1.8-3.3c0.5-0.9,0.9-1.8,0.9-2.9c0-1.8-1.1-2.7-2.8-2.7c-2.2,0-2.8,1.3-2.8,3.3
	l0,0.6H283.2z"/>
<path id="FuturaStd-CondensedBold-30_6_" class="st1" d="M290.9,388.6c-2.5,0-3,3.6-3,5.4s0.4,5.4,3,5.4c2.5,0,3-3.6,3-5.4
	S293.4,388.6,290.9,388.6z M290.9,390.5c1,0,0.9,2.9,0.9,3.5c0,0.7,0.1,3.5-0.9,3.5c-1,0-0.9-2.9-0.9-3.5
	C289.9,393.3,289.8,390.5,290.9,390.5z"/>
<path id="FuturaStd-CondensedBold-30_7_" class="st1" d="M297.7,388.6c-2.5,0-3,3.6-3,5.4s0.4,5.4,3,5.4c2.5,0,3-3.6,3-5.4
	S300.3,388.6,297.7,388.6z M297.7,390.5c1,0,0.9,2.9,0.9,3.5c0,0.7,0.1,3.5-0.9,3.5s-0.9-2.9-0.9-3.5
	C296.8,393.3,296.7,390.5,297.7,390.5z"/>
<path id="FuturaStd-CondensedBold-39" class="st1" d="M305.1,399.3l0.9-1.8c0.8-1.7,1.5-3.3,1.5-5.2c0-1.9-0.8-3.7-2.9-3.7
	c-2.2,0-3,2-3,3.9c0,1.3,0.5,3.3,2.1,3.3c0.6,0,0.9-0.2,1.3-0.6l0,0l-2,4.1H305.1z M304.6,390.4c0.7,0,0.9,1.2,0.9,1.7
	c0,0.5-0.1,1.8-0.9,1.8c-0.7,0-0.8-1.1-0.8-1.7C303.7,391.7,303.8,390.4,304.6,390.4z"/>
<path id="FuturaStd-CondensedBold-32_4_" class="st1" d="M339,392.4l0-0.7c0-0.6,0-1.7,0.8-1.7c0.7,0,0.8,0.8,0.8,1.3
	c0,1.2-0.8,2.6-1.4,3.6l-2.4,4.4h5.5v-1.8H340l1.8-3.3c0.5-0.9,0.9-1.8,0.9-2.9c0-1.8-1.1-2.7-2.8-2.7c-2.2,0-2.8,1.3-2.8,3.3l0,0.6
	H339z"/>
<path id="FuturaStd-CondensedBold-30_8_" class="st1" d="M346.7,388.6c-2.5,0-3,3.6-3,5.4s0.4,5.4,3,5.4c2.5,0,3-3.6,3-5.4
	S349.2,388.6,346.7,388.6z M346.7,390.5c1,0,0.9,2.9,0.9,3.5c0,0.7,0.1,3.5-0.9,3.5c-1,0-0.9-2.9-0.9-3.5
	C345.7,393.3,345.6,390.5,346.7,390.5z"/>
<path id="FuturaStd-CondensedBold-31" class="st1" d="M351.6,388.7v1.8h1v8.7h2v-10.6H351.6z"/>
<path id="FuturaStd-CondensedBold-30_9_" class="st1" d="M360.4,388.6c-2.5,0-3,3.6-3,5.4s0.4,5.4,3,5.4c2.5,0,3-3.6,3-5.4
	S362.9,388.6,360.4,388.6z M360.4,390.5c1,0,0.9,2.9,0.9,3.5c0,0.7,0.1,3.5-0.9,3.5c-1,0-0.9-2.9-0.9-3.5
	C359.5,393.3,359.4,390.5,360.4,390.5z"/>
<path id="FuturaStd-CondensedBold-32_5_" class="st1" d="M394.8,392.4l0-0.7c0-0.6,0-1.7,0.8-1.7c0.7,0,0.8,0.8,0.8,1.3
	c0,1.2-0.8,2.6-1.4,3.6l-2.4,4.4h5.5v-1.8h-2.5l1.8-3.3c0.5-0.9,0.9-1.8,0.9-2.9c0-1.8-1.1-2.7-2.8-2.7c-2.2,0-2.8,1.3-2.8,3.3
	l0,0.6H394.8z"/>
<path id="FuturaStd-CondensedBold-30_10_" class="st1" d="M402.5,388.6c-2.5,0-3,3.6-3,5.4s0.4,5.4,3,5.4c2.5,0,3-3.6,3-5.4
	S405,388.6,402.5,388.6z M402.5,390.5c1,0,0.9,2.9,0.9,3.5c0,0.7,0.1,3.5-0.9,3.5c-1,0-0.9-2.9-0.9-3.5
	C401.5,393.3,401.4,390.5,402.5,390.5z"/>
<path id="FuturaStd-CondensedBold-31_1_" class="st1" d="M407.4,388.7v1.8h1v8.7h2v-10.6H407.4z"/>
<path id="FuturaStd-CondensedBold-31_2_" class="st1" d="M414.3,388.7v1.8h1v8.7h2v-10.6H414.3z"/>
<path id="FuturaStd-CondensedBold-32_6_" class="st1" d="M450.6,392.4l0-0.7c0-0.6,0-1.7,0.8-1.7c0.7,0,0.8,0.8,0.8,1.3
	c0,1.2-0.8,2.6-1.4,3.6l-2.4,4.4h5.5v-1.8h-2.5l1.8-3.3c0.5-0.9,0.9-1.8,0.9-2.9c0-1.8-1.1-2.7-2.8-2.7c-2.2,0-2.8,1.3-2.8,3.3
	l0,0.6H450.6z"/>
<path id="FuturaStd-CondensedBold-30_11_" class="st1" d="M458.3,388.6c-2.5,0-3,3.6-3,5.4s0.4,5.4,3,5.4c2.5,0,3-3.6,3-5.4
	S460.8,388.6,458.3,388.6z M458.3,390.5c1,0,0.9,2.9,0.9,3.5c0,0.7,0.1,3.5-0.9,3.5c-1,0-0.9-2.9-0.9-3.5
	C457.3,393.3,457.2,390.5,458.3,390.5z"/>
<path id="FuturaStd-CondensedBold-31_3_" class="st1" d="M463.2,388.7v1.8h1v8.7h2v-10.6H463.2z"/>
<path id="FuturaStd-CondensedBold-32_7_" class="st1" d="M471.2,392.4l0-0.7c0-0.6,0-1.7,0.8-1.7c0.7,0,0.8,0.8,0.8,1.3
	c0,1.2-0.8,2.6-1.4,3.6l-2.4,4.4h5.5v-1.8h-2.4l1.8-3.3c0.5-0.9,0.9-1.8,0.9-2.9c0-1.8-1.1-2.7-2.8-2.7c-2.2,0-2.8,1.3-2.8,3.3
	l0,0.6H471.2z"/>
<path id="FuturaStd-CondensedBold-32_8_" class="st1" d="M506.4,392.4l0-0.7c0-0.6,0-1.7,0.8-1.7c0.7,0,0.8,0.8,0.8,1.3
	c0,1.2-0.8,2.6-1.4,3.6l-2.4,4.4h5.5v-1.8h-2.5l1.8-3.3c0.5-0.9,0.9-1.8,0.9-2.9c0-1.8-1.1-2.7-2.8-2.7c-2.2,0-2.8,1.3-2.8,3.3
	l0,0.6H506.4z"/>
<path id="FuturaStd-CondensedBold-30_12_" class="st1" d="M514.1,388.6c-2.5,0-3,3.6-3,5.4s0.4,5.4,3,5.4s3-3.6,3-5.4
	S516.6,388.6,514.1,388.6z M514.1,390.5c1,0,0.9,2.9,0.9,3.5c0,0.7,0.1,3.5-0.9,3.5s-0.9-2.9-0.9-3.5
	C513.1,393.3,513,390.5,514.1,390.5z"/>
<path id="FuturaStd-CondensedBold-31_4_" class="st1" d="M519,388.7v1.8h1v8.7h2v-10.6H519z"/>
<path id="FuturaStd-CondensedBold-33" class="st1" d="M526.8,396.5h-2c-0.1,1.8,1,2.9,2.8,2.9c1.9,0,3.1-1.2,3.1-3.1
	c0-1.1-0.4-2.2-1.6-2.5v0c1-0.4,1.3-1.5,1.3-2.5c0-1.7-1-2.8-2.7-2.8c-1.9,0-2.5,1.4-2.5,3.1h1.8v-0.2c0-0.5,0.1-1.1,0.7-1.1
	c0.6,0,0.7,0.6,0.7,1.1c0,1.2-0.5,1.4-1.6,1.4v1.8c1.2,0,1.6,0.3,1.6,1.5c0,0.6-0.1,1.5-0.9,1.5c-0.6,0-0.8-0.5-0.8-0.8L526.8,396.5
	z"/>
<path id="FuturaStd-CondensedBold-32_9_" class="st1" d="M562.2,392.4l0-0.7c0-0.6,0-1.7,0.8-1.7c0.7,0,0.8,0.8,0.8,1.3
	c0,1.2-0.8,2.6-1.4,3.6l-2.4,4.4h5.5v-1.8h-2.4l1.8-3.3c0.5-0.9,0.9-1.8,0.9-2.9c0-1.8-1.1-2.7-2.8-2.7c-2.2,0-2.8,1.3-2.8,3.3
	l0,0.6H562.2z"/>
<path id="FuturaStd-CondensedBold-30_13_" class="st1" d="M569.9,388.6c-2.5,0-3,3.6-3,5.4s0.4,5.4,3,5.4c2.5,0,3-3.6,3-5.4
	S572.4,388.6,569.9,388.6z M569.9,390.5c1,0,0.9,2.9,0.9,3.5c0,0.7,0.1,3.5-0.9,3.5s-0.9-2.9-0.9-3.5
	C568.9,393.3,568.8,390.5,569.9,390.5z"/>
<path id="FuturaStd-CondensedBold-31_5_" class="st1" d="M574.8,388.7v1.8h1v8.7h2v-10.6H574.8z"/>
<path id="FuturaStd-CondensedBold-34" class="st1" d="M583.4,388.7l-2.8,6.4v1.6h3.1v2.5h2v-2.5h0.9v-1.6h-0.9v-6.4H583.4z
	 M583.6,395.1H582l1.6-4h0V395.1z"/>
<path id="FuturaStd-CondensedBold-32_10_" class="st1" d="M618,392.4l0-0.7c0-0.6,0-1.7,0.8-1.7c0.7,0,0.8,0.8,0.8,1.3
	c0,1.2-0.8,2.6-1.4,3.6l-2.4,4.4h5.5v-1.8H619l1.8-3.3c0.5-0.9,0.9-1.8,0.9-2.9c0-1.8-1.1-2.7-2.8-2.7c-2.2,0-2.8,1.3-2.8,3.3l0,0.6
	H618z"/>
<path id="FuturaStd-CondensedBold-30_14_" class="st1" d="M625.7,388.6c-2.5,0-3,3.6-3,5.4s0.4,5.4,3,5.4c2.5,0,3-3.6,3-5.4
	S628.2,388.6,625.7,388.6z M625.7,390.5c1,0,0.9,2.9,0.9,3.5c0,0.7,0.1,3.5-0.9,3.5s-0.9-2.9-0.9-3.5
	C624.7,393.3,624.6,390.5,625.7,390.5z"/>
<path id="FuturaStd-CondensedBold-31_6_" class="st1" d="M630.6,388.7v1.8h1v8.7h2v-10.6H630.6z"/>
<path id="FuturaStd-CondensedBold-35" class="st1" d="M637,393.9c0.3,0,0.5-0.1,0.8-0.1c1.2,0,2.1,0.6,2.1,1.9c0,1-0.5,1.9-1.6,1.9
	c-0.5,0-0.9-0.2-1.3-0.5l-0.4,1.8c0.7,0.3,1.3,0.5,2,0.5c2.3,0,3.5-1.5,3.5-3.7c0-2.1-1-3.4-3.2-3.5l0.3-1.7h2.6v-1.8h-4L637,393.9z
	"/>
<path id="FuturaStd-CondensedBold-32_11_" class="st1" d="M673.8,392.4l0-0.7c0-0.6,0-1.7,0.8-1.7c0.7,0,0.8,0.8,0.8,1.3
	c0,1.2-0.8,2.6-1.4,3.6l-2.4,4.4h5.5v-1.8h-2.4l1.8-3.3c0.5-0.9,0.9-1.8,0.9-2.9c0-1.8-1.1-2.7-2.8-2.7c-2.2,0-2.8,1.3-2.8,3.3
	l0,0.6H673.8z"/>
<path id="FuturaStd-CondensedBold-30_15_" class="st1" d="M681.5,388.6c-2.5,0-3,3.6-3,5.4s0.4,5.4,3,5.4c2.5,0,3-3.6,3-5.4
	S684,388.6,681.5,388.6z M681.5,390.5c1,0,0.9,2.9,0.9,3.5c0,0.7,0.1,3.5-0.9,3.5s-0.9-2.9-0.9-3.5
	C680.5,393.3,680.4,390.5,681.5,390.5z"/>
<path id="FuturaStd-CondensedBold-31_7_" class="st1" d="M686.4,388.7v1.8h1v8.7h2v-10.6H686.4z"/>
<path id="FuturaStd-CondensedBold-36_1_" class="st1" d="M694.6,388.7l-0.9,1.8c-0.8,1.7-1.5,3.3-1.5,5.2c0,1.8,0.8,3.7,2.9,3.7
	c2.2,0,3-2,3-3.9c0-1.3-0.5-3.3-2.1-3.3c-0.6,0-0.9,0.2-1.3,0.6l0,0l2-4.1H694.6z M695.2,394.1c0.7,0,0.8,1.1,0.8,1.7
	c0,0.5-0.1,1.9-0.9,1.9c-0.7,0-0.9-1.2-0.9-1.7C694.3,395.4,694.5,394.1,695.2,394.1z"/>
<g>
	<defs>
		<rect id="SVGID_1_" x="99" y="51.8" width="613.8" height="332.6"/>
	</defs>
	<clipPath id="SVGID_2_">
		<use xlink:href="#SVGID_1_"  style="overflow:visible;"/>
	</clipPath>
	<path class="st2" d="M99,384.5h613.8"/>
</g>
<path id="FuturaStd-CondensedBold-30_16_" class="st1" d="M92.1,379.4c-2.5,0-3,3.6-3,5.4s0.4,5.4,3,5.4s3-3.6,3-5.4
	S94.6,379.4,92.1,379.4z M92.1,381.3c1,0,0.9,2.9,0.9,3.5c0,0.7,0.1,3.5-0.9,3.5s-0.9-2.9-0.9-3.5C91.1,384.2,91,381.3,92.1,381.3z"
	/>
<g>
	<defs>
		<rect id="SVGID_3_" x="99" y="51.8" width="613.8" height="332.6"/>
	</defs>
	<clipPath id="SVGID_4_">
		<use xlink:href="#SVGID_3_"  style="overflow:visible;"/>
	</clipPath>
	<path class="st3" d="M99,336h613.8"/>
</g>
<path id="FuturaStd-CondensedBold-31_8_" class="st1" d="M83.3,331v1.8h1v8.7h2V331H83.3z"/>
<path id="FuturaStd-CondensedBold-30_17_" class="st1" d="M92.1,330.9c-2.5,0-3,3.6-3,5.4s0.4,5.4,3,5.4c2.5,0,3-3.6,3-5.4
	S94.6,330.9,92.1,330.9z M92.1,332.8c1,0,0.9,2.9,0.9,3.5c0,0.7,0.1,3.5-0.9,3.5c-1,0-0.9-2.9-0.9-3.5
	C91.1,335.6,91,332.8,92.1,332.8z"/>
<g>
	<defs>
		<rect id="SVGID_5_" x="99" y="51.8" width="613.8" height="332.6"/>
	</defs>
	<clipPath id="SVGID_6_">
		<use xlink:href="#SVGID_5_"  style="overflow:visible;"/>
	</clipPath>
	<path class="st4" d="M99,287.4h613.8"/>
</g>
<path id="FuturaStd-CondensedBold-32_12_" class="st1" d="M84.4,286.2l0-0.7c0-0.6,0-1.7,0.8-1.7c0.7,0,0.8,0.8,0.8,1.3
	c0,1.2-0.8,2.6-1.4,3.6l-2.4,4.4h5.5v-1.8h-2.5l1.8-3.3c0.5-0.9,0.9-1.8,0.9-2.9c0-1.8-1.1-2.7-2.8-2.7c-2.2,0-2.8,1.3-2.8,3.3
	l0,0.6H84.4z"/>
<path id="FuturaStd-CondensedBold-30_18_" class="st1" d="M92.1,282.4c-2.5,0-3,3.6-3,5.4s0.4,5.4,3,5.4c2.5,0,3-3.6,3-5.4
	S94.6,282.4,92.1,282.4z M92.1,284.3c1,0,0.9,2.9,0.9,3.5c0,0.7,0.1,3.5-0.9,3.5c-1,0-0.9-2.9-0.9-3.5
	C91.1,287.1,91,284.3,92.1,284.3z"/>
<g>
	<defs>
		<rect id="SVGID_7_" x="99" y="51.8" width="613.8" height="332.6"/>
	</defs>
	<clipPath id="SVGID_8_">
		<use xlink:href="#SVGID_7_"  style="overflow:visible;"/>
	</clipPath>
	<path class="st5" d="M99,238.9h613.8"/>
</g>
<path id="FuturaStd-CondensedBold-33_1_" class="st1" d="M84.2,241.8h-2c-0.1,1.8,1,2.9,2.8,2.9c1.9,0,3.1-1.2,3.1-3.1
	c0-1.1-0.4-2.2-1.6-2.5v0c1-0.4,1.3-1.5,1.3-2.5c0-1.7-1-2.8-2.7-2.8c-1.9,0-2.5,1.4-2.5,3.1h1.8v-0.2c0-0.5,0.1-1.1,0.7-1.1
	c0.6,0,0.7,0.6,0.7,1.1c0,1.2-0.5,1.4-1.6,1.4v1.8c1.2,0,1.6,0.3,1.6,1.5c0,0.6-0.1,1.5-0.9,1.5c-0.6,0-0.8-0.5-0.8-0.8L84.2,241.8z
	"/>
<path id="FuturaStd-CondensedBold-30_19_" class="st1" d="M92.1,233.8c-2.5,0-3,3.6-3,5.4c0,1.9,0.4,5.4,3,5.4c2.5,0,3-3.6,3-5.4
	C95,237.4,94.6,233.8,92.1,233.8z M92.1,235.7c1,0,0.9,2.9,0.9,3.5c0,0.7,0.1,3.5-0.9,3.5c-1,0-0.9-2.9-0.9-3.5
	C91.1,238.6,91,235.7,92.1,235.7z"/>
<g>
	<defs>
		<rect id="SVGID_9_" x="99" y="51.8" width="613.8" height="332.6"/>
	</defs>
	<clipPath id="SVGID_10_">
		<use xlink:href="#SVGID_9_"  style="overflow:visible;"/>
	</clipPath>
	<path class="st6" d="M99,190.4h613.8"/>
</g>
<path id="FuturaStd-CondensedBold-34_1_" class="st1" d="M85,185.5l-2.8,6.4v1.6h3.1v2.5h2v-2.5h0.9v-1.6h-0.9v-6.4H85z M85.2,191.9
	h-1.6l1.6-4h0V191.9z"/>
<path id="FuturaStd-CondensedBold-30_20_" class="st1" d="M92.1,185.3c-2.5,0-3,3.6-3,5.4c0,1.9,0.4,5.4,3,5.4c2.5,0,3-3.6,3-5.4
	C95,188.9,94.6,185.3,92.1,185.3z M92.1,187.2c1,0,0.9,2.9,0.9,3.5c0,0.7,0.1,3.5-0.9,3.5c-1,0-0.9-2.9-0.9-3.5
	C91.1,190.1,91,187.2,92.1,187.2z"/>
<g>
	<defs>
		<rect id="SVGID_11_" x="99" y="51.8" width="613.8" height="332.6"/>
	</defs>
	<clipPath id="SVGID_12_">
		<use xlink:href="#SVGID_11_"  style="overflow:visible;"/>
	</clipPath>
	<path class="st7" d="M99,141.8h613.8"/>
	<path class="st7" d="M98.6,94h613.8"/>
</g>
<path id="FuturaStd-CondensedBold-35_1_" class="st1" d="M82.8,142.1c0.3,0,0.5-0.1,0.8-0.1c1.2,0,2.1,0.6,2.1,1.9
	c0,1-0.5,1.9-1.6,1.9c-0.5,0-0.9-0.2-1.3-0.5l-0.3,1.8c0.7,0.3,1.3,0.5,2,0.5c2.3,0,3.5-1.5,3.5-3.7c0-2.1-1-3.4-3.2-3.5l0.3-1.7
	h2.6v-1.8h-4L82.8,142.1z"/>
<path id="FuturaStd-CondensedBold-30_21_" class="st1" d="M92.1,136.8c-2.5,0-3,3.6-3,5.4c0,1.9,0.4,5.4,3,5.4c2.5,0,3-3.6,3-5.4
	C95,140.4,94.6,136.8,92.1,136.8z M92.1,138.7c1,0,0.9,2.9,0.9,3.5c0,0.7,0.1,3.5-0.9,3.5c-1,0-0.9-2.9-0.9-3.5
	C91.1,141.5,91,138.7,92.1,138.7z"/>
<path id="FuturaStd-CondensedBold-36_2_" class="st1" d="M84.7,88.4l-0.9,1.8c-0.8,1.7-1.5,3.3-1.5,5.2c0,1.8,0.8,3.7,2.9,3.7
	c2.2,0,3-2,3-3.9c0-1.3-0.5-3.3-2.1-3.3c-0.6,0-0.9,0.2-1.3,0.6l0,0l2-4.1H84.7z M85.3,93.8c0.7,0,0.8,1.1,0.8,1.7
	c0,0.5-0.1,1.9-0.9,1.9c-0.7,0-0.9-1.2-0.9-1.7C84.3,95.1,84.5,93.8,85.3,93.8z"/>
<path id="FuturaStd-CondensedBold-30_22_" class="st1" d="M92.1,88.2c-2.5,0-3,3.6-3,5.4c0,1.9,0.4,5.4,3,5.4c2.5,0,3-3.6,3-5.4
	C95,91.8,94.6,88.2,92.1,88.2z M92.1,90.1c1,0,0.9,2.9,0.9,3.5c0,0.7,0.1,3.5-0.9,3.5c-1,0-0.9-2.9-0.9-3.5
	C91.1,93,91,90.1,92.1,90.1z"/>
<g>
	<defs>
		<rect id="SVGID_13_" x="99" y="51.8" width="613.8" height="332.6"/>
	</defs>
	<clipPath id="SVGID_14_">
		<use xlink:href="#SVGID_13_"  style="overflow:visible;"/>
	</clipPath>
	<path class="st8" d="M126.9,307.7l55.8-5.8l55.8-4.2l55.8,23.7l55.8-26.3l55.8-10.2l55.8-8.3l55.8-6.2l55.8-18.8l55.8-26l55.8-46.1
		"/>
</g>
<g>
	<defs>
		<rect id="SVGID_15_" x="99" y="51.8" width="613.8" height="332.6"/>
	</defs>
	<clipPath id="SVGID_16_">
		<use xlink:href="#SVGID_15_"  style="overflow:visible;"/>
	</clipPath>
	<path class="st9" d="M126.9,235.9l55.8,16.8l55.8-58.5l55.8,134.9l55.8-142.8l55.8-61.4l55.8,59.4l55.8-11.3l55.8-27l55.8-55.7
		L684.9,65"/>
</g>
<g>
	<defs>
		<rect id="SVGID_17_" x="99" y="51.8" width="613.8" height="332.6"/>
	</defs>
	<clipPath id="SVGID_18_">
		<use xlink:href="#SVGID_17_"  style="overflow:visible;"/>
	</clipPath>
	<path class="st10" d="M126.9,265.3l55.8-5.6l55.8,32.4l55.8-13.1l55.8-12.6l55.8,13.8l55.8,11.2l55.8-19.8l55.8,17l55.8,5l55.8-7.6
		"/>
</g>
<path class="st11" d="M99,384.5V51.8"/>
<path class="st11" d="M712.8,384.5V51.8"/>
<path class="st11" d="M99,384.5h613.8"/>
<path id="SVGID_x5F_19_x5F_" class="st12" d="M99,51.8h613.8"/>
<text><textPath  xlink:href="#SVGID_x5F_19_x5F_" startOffset="78.6621%">
</textPath>
</text>
<rect x="15.1" y="193.1" class="st12" width="64.8" height="41.8"/>
<text transform="matrix(1 0 0 1 28.3667 203.0854)"><tspan x="0" y="0" class="st1 st13 st14">Overdoses</tspan><tspan x="1.9" y="14.4" class="st1 st13 st14">per 100k</tspan><tspan x="-1.2" y="28.8" class="st1 st13 st14">population</tspan></text>
<rect x="333.6" y="59.6" class="st12" width="150.3" height="44.1"/>
<text transform="matrix(1 0 0 1 343.5195 69.5249)"><tspan x="0" y="0" class="st15 st16">Between 2006 and 2016</tspan><tspan x="-6.2" y="16.8" class="st17 st16">1,144</tspan><tspan x="24.6" y="16.8" class="st15 st16"> died from overdoses</tspan></text>
</svg>
