<?xml version="1.0" encoding="utf-8"?>
<!-- Generator: Adobe Illustrator 22.1.0, SVG Export Plug-In . SVG Version: 6.00 Build 0)  -->
<svg version="1.1" id="Layer_1" xmlns="http://www.w3.org/2000/svg" xmlns:xlink="http://www.w3.org/1999/xlink" x="0px" y="0px"
	 viewBox="0 0 737 402.9" style="enable-background:new 0 0 737 402.9;" xml:space="preserve">
<style type="text/css">
	.st0{fill:#EEE8D5;}
	.st1{fill:#657B83;stroke:#657B83;stroke-width:0.8;stroke-linejoin:round;}
	.st2{fill:#657B83;}
	.st3{clip-path:url(#SVGID_2_);fill:none;stroke:#FDF6E3;stroke-linejoin:round;}
	.st4{clip-path:url(#SVGID_4_);fill:none;stroke:#FDF6E3;stroke-linejoin:round;}
	.st5{clip-path:url(#SVGID_6_);fill:none;stroke:#FDF6E3;stroke-linejoin:round;}
	.st6{clip-path:url(#SVGID_8_);fill:none;stroke:#FDF6E3;stroke-linejoin:round;}
	.st7{clip-path:url(#SVGID_10_);fill:none;stroke:#FDF6E3;stroke-linejoin:round;}
	.st8{clip-path:url(#SVGID_12_);fill:none;stroke:#FDF6E3;stroke-linejoin:round;}
	.st9{clip-path:url(#SVGID_14_);fill:none;stroke:#FDF6E3;stroke-linejoin:round;}
	.st10{clip-path:url(#SVGID_16_);fill:none;stroke:#FDF6E3;stroke-linejoin:round;}
	.st11{clip-path:url(#SVGID_18_);fill:none;stroke:#FDF6E3;stroke-linejoin:round;}
	
		.st12{opacity:0.75;clip-path:url(#SVGID_20_);fill:none;stroke:#268BD2;stroke-width:4;stroke-linejoin:round;enable-background:new    ;}
	.st13{fill:none;stroke:#EEE8D5;stroke-width:0.8;stroke-linecap:square;}
</style>
<g id="figure_1">
	<g id="axes_1">
		<g id="patch_2">
			<path class="st0" d="M88.2,339.8h558V68h-558V339.8z"/>
		</g>
		<g id="matplotlib.axis_1">
			<g id="xtick_2">
				<g id="line2d_2">
					<g>
						<g>
							<path id="md71d0a6d42_1_" class="st1" d="M150.2,339.8v3.5"/>
						</g>
					</g>
				</g>
				<g id="text_2">
					<g transform="translate(133.264062 333.901563)scale(0.15 -0.15)">
						<g>
							<path id="Merriweather-32_1_" class="st2" d="M-5.9-161.4c4.3,2.7,8.4,5.5,12.3,8.6s7.4,6.3,10.3,9.5c3,3.3,5.4,6.6,7.2,9.9
								c1.8,3.3,2.7,6.5,2.7,9.7c0,1.6-0.2,3.1-0.7,4.8c-0.4,1.6-1.2,3.1-2.2,4.4c-1,1.3-2.3,2.4-4,3.2c-1.6,0.8-3.6,1.2-6,1.2
								c-1.7,0-3.3-0.2-5-0.7s-3.3-1.1-4.8-1.8s-2.9-1.5-4.1-2.3c-1.2-0.8-2.3-1.6-3.1-2.3l-2.3,3.7c0.9,1.1,2.1,2.3,3.7,3.5
								c1.5,1.2,3.3,2.2,5.3,3.2c2,1,4.1,1.7,6.4,2.3c2.3,0.6,4.7,0.9,7.1,0.9c3.4,0,6.3-0.5,8.7-1.4c2.5-1,4.5-2.2,6.1-3.8
								c1.6-1.6,2.8-3.4,3.5-5.4c0.8-2,1.2-4.1,1.2-6.2c0-3.4-0.8-6.8-2.3-10.4c-1.5-3.5-3.7-7-6.4-10.3c-2.7-3.4-5.9-6.6-9.6-9.8
								c-3.7-3.1-7.7-6-12-8.5l27.9,2l4.7,6.9l4.2-1.4l-3.2-13.4H-4.5L-5.9-161.4z"/>
						</g>
						<g>
							<path id="Merriweather-30_2_" class="st2" d="M53.7-134.4c0.1,4.7,0.8,8.9,2.3,12.7c1.5,3.8,3.5,6.9,5.9,9.5
								c2.5,2.6,5.3,4.6,8.5,6c3.2,1.4,6.6,2.1,10.1,2.1c4.8,0,8.8-0.7,12-2.3c3.2-1.6,5.8-3.7,7.8-6.5c2-2.8,3.4-6,4.2-9.8
								c0.8-3.8,1.2-7.8,1.2-12.1c0-4.7-0.7-9-2.1-12.9c-1.4-3.9-3.3-7.2-5.6-10s-5.2-5-8.4-6.5c-3.2-1.6-6.6-2.3-10.2-2.3
								c-3.1,0-5.9,0.4-8.4,1.2c-2.5,0.8-4.7,1.9-6.6,3.4c-1.9,1.4-3.5,3.2-4.9,5.2c-1.4,2-2.5,4.2-3.3,6.6
								c-0.9,2.4-1.5,4.9-1.9,7.6C53.9-140,53.7-137.2,53.7-134.4z M79.8-161.5c2.9-0.1,5.4,0.5,7.4,1.6c2,1.2,3.7,2.9,4.9,5.2
								c1.3,2.3,2.2,5,2.7,8.3c0.6,3.3,0.9,7,0.9,11.1c0,3.6-0.3,7-0.9,10.2c-0.6,3.1-1.5,5.9-2.8,8.2c-1.3,2.3-2.9,4.2-4.9,5.5
								c-2,1.3-4.4,2-7.1,2.1c-2.9,0-5.4-0.5-7.5-1.6c-2-1.1-3.7-2.7-5-4.8c-1.3-2.1-2.2-4.7-2.8-7.8c-0.6-3.1-0.9-6.5-0.9-10.4
								c0-3.5,0.3-6.9,1-10.1c0.6-3.3,1.6-6.2,2.9-8.8c1.3-2.6,3-4.6,5-6.2C74.6-160.7,77-161.5,79.8-161.5z"/>
						</g>
						<g>
							<path id="Merriweather-30_3_" class="st2" d="M118.5-134.4c0.1,4.7,0.8,8.9,2.3,12.7c1.5,3.8,3.5,6.9,5.9,9.5
								c2.5,2.6,5.3,4.6,8.5,6c3.2,1.4,6.6,2.1,10.1,2.1c4.8,0,8.8-0.7,12-2.3c3.2-1.6,5.8-3.7,7.8-6.5c2-2.8,3.4-6,4.2-9.8
								c0.8-3.8,1.2-7.8,1.2-12.1c0-4.7-0.7-9-2.1-12.9c-1.4-3.9-3.3-7.2-5.6-10s-5.2-5-8.4-6.5c-3.2-1.6-6.6-2.3-10.2-2.3
								c-3.1,0-5.9,0.4-8.4,1.2c-2.5,0.8-4.7,1.9-6.6,3.4c-1.9,1.4-3.5,3.2-4.9,5.2c-1.4,2-2.5,4.2-3.3,6.6
								c-0.9,2.4-1.5,4.9-1.9,7.6C118.7-140,118.5-137.2,118.5-134.4z M144.6-161.5c2.9-0.1,5.4,0.5,7.4,1.6c2,1.2,3.7,2.9,4.9,5.2
								c1.3,2.3,2.2,5,2.7,8.3c0.6,3.3,0.9,7,0.9,11.1c0,3.6-0.3,7-0.9,10.2c-0.6,3.1-1.5,5.9-2.8,8.2c-1.3,2.3-2.9,4.2-4.9,5.5
								c-2,1.3-4.4,2-7.1,2.1c-2.9,0-5.4-0.5-7.5-1.6c-2-1.1-3.7-2.7-5-4.8c-1.3-2.1-2.2-4.7-2.8-7.8c-0.6-3.1-0.9-6.5-0.9-10.4
								c0-3.5,0.3-6.9,1-10.1c0.6-3.3,1.6-6.2,2.9-8.8c1.3-2.6,3-4.6,5-6.2C139.4-160.7,141.8-161.5,144.6-161.5z"/>
						</g>
						<g>
							<path id="Merriweather-38" class="st2" d="M183.2-147.1c0,1.8,0.3,3.7,1,5.5c0.6,1.8,1.6,3.6,2.9,5.3c1.3,1.7,2.9,3.4,4.8,5
								c1.9,1.6,4.2,3,6.7,4.3c-1.6,1.1-3.1,2.3-4.5,3.6c-1.4,1.3-2.6,2.7-3.6,4.2c-1,1.5-1.8,3.2-2.4,5c-0.6,1.8-0.9,3.8-0.9,5.9
								c0,3.2,0.6,6,1.9,8.4c1.3,2.4,2.9,4.3,5,5.9s4.4,2.7,7,3.5c2.6,0.8,5.3,1.2,8,1.2c2.8,0,5.4-0.4,7.8-1.2
								c2.4-0.8,4.5-2,6.3-3.4c1.8-1.5,3.2-3.3,4.2-5.3c1-2.1,1.5-4.4,1.5-6.9c0-1.8-0.3-3.7-1-5.7s-1.5-3.9-2.7-5.8
								c-1.2-1.9-2.6-3.6-4.2-5.2c-1.7-1.6-3.5-2.9-5.6-3.9c2.1-1.3,4.2-2.6,6.2-4c2-1.4,3.8-2.8,5.3-4.3c1.5-1.5,2.8-3.1,3.7-4.8
								c0.9-1.7,1.4-3.6,1.5-5.5c0-2.4-0.3-4.7-0.9-6.6c-0.6-2-1.5-3.8-2.7-5.3s-2.5-2.9-4.1-4.1c-1.6-1.1-3.3-2.1-5.1-2.8
								c-1.8-0.8-3.7-1.3-5.7-1.7c-2-0.4-3.9-0.5-5.9-0.5c-1.9,0-3.8,0.2-5.8,0.5c-1.9,0.3-3.8,0.9-5.7,1.5
								c-1.8,0.7-3.5,1.6-5.1,2.6s-3,2.3-4.2,3.8c-1.2,1.5-2.1,3.1-2.8,5C183.5-151.4,183.2-149.4,183.2-147.1z M210.2-123.8
								c1.4,0.4,2.7,1.1,4,2c1.2,1,2.4,2.1,3.3,3.4c1,1.3,1.8,2.8,2.3,4.3s0.9,3,1,4.5c0.1,2.3-0.2,4.4-0.8,6.3
								c-0.6,1.9-1.5,3.5-2.6,4.9c-1.1,1.3-2.5,2.4-4,3.1c-1.6,0.8-3.3,1.1-5,1.1c-1.7,0-3.4-0.3-5-0.9c-1.6-0.6-3.1-1.4-4.4-2.5
								c-1.3-1.1-2.3-2.4-3.1-4s-1.2-3.3-1.2-5.2c0-1.7,0.4-3.4,1.3-4.9s2-3,3.4-4.3c1.4-1.4,3.1-2.7,5-4
								C206.2-121.3,208.2-122.6,210.2-123.8z M192.2-144.8c0-2.3,0.4-4.5,1.2-6.5c0.8-2.1,1.9-3.8,3.4-5.4c1.5-1.5,3.3-2.7,5.4-3.6
								c2.1-0.9,4.5-1.3,7.2-1.3c1.7,0,3.4,0.3,5.1,0.9c1.7,0.6,3.2,1.4,4.6,2.5c1.4,1.1,2.5,2.4,3.3,4c0.9,1.6,1.3,3.3,1.3,5.2
								c0,2.2-0.6,4.1-1.8,5.8c-1.2,1.7-2.8,3.3-4.8,4.8c-1.9,1.5-4.1,2.9-6.6,4.2c-2.4,1.3-4.9,2.7-7.4,4.2
								c-1.5-0.7-2.8-1.5-4.2-2.5c-1.3-1-2.5-2.1-3.5-3.4c-1-1.2-1.8-2.6-2.4-4.1C192.5-141.6,192.2-143.1,192.2-144.8z"/>
						</g>
					</g>
				</g>
			</g>
			<g id="xtick_4">
				<g id="line2d_4">
					<g>
						<g>
							<path id="md71d0a6d42_3_" class="st1" d="M274.2,339.8v3.5"/>
						</g>
					</g>
				</g>
				<g id="text_4">
					<g transform="translate(258.391406 333.901563)scale(0.15 -0.15)">
						<g>
							<path id="Merriweather-32_3_" class="st2" d="M-5.9-161.4c4.3,2.7,8.4,5.5,12.3,8.6s7.4,6.3,10.3,9.5c3,3.3,5.4,6.6,7.2,9.9
								c1.8,3.3,2.7,6.5,2.7,9.7c0,1.6-0.2,3.1-0.7,4.8c-0.4,1.6-1.2,3.1-2.2,4.4c-1,1.3-2.3,2.4-4,3.2c-1.6,0.8-3.6,1.2-6,1.2
								c-1.7,0-3.3-0.2-5-0.7s-3.3-1.1-4.8-1.8s-2.9-1.5-4.1-2.3c-1.2-0.8-2.3-1.6-3.1-2.3l-2.3,3.7c0.9,1.1,2.1,2.3,3.7,3.5
								c1.5,1.2,3.3,2.2,5.3,3.2c2,1,4.1,1.7,6.4,2.3c2.3,0.6,4.7,0.9,7.1,0.9c3.4,0,6.3-0.5,8.7-1.4c2.5-1,4.5-2.2,6.1-3.8
								c1.6-1.6,2.8-3.4,3.5-5.4c0.8-2,1.2-4.1,1.2-6.2c0-3.4-0.8-6.8-2.3-10.4c-1.5-3.5-3.7-7-6.4-10.3c-2.7-3.4-5.9-6.6-9.6-9.8
								c-3.7-3.1-7.7-6-12-8.5l27.9,2l4.7,6.9l4.2-1.4l-3.2-13.4H-4.5L-5.9-161.4z"/>
						</g>
						<g>
							<path id="Merriweather-30_6_" class="st2" d="M53.7-134.4c0.1,4.7,0.8,8.9,2.3,12.7c1.5,3.8,3.5,6.9,5.9,9.5
								c2.5,2.6,5.3,4.6,8.5,6c3.2,1.4,6.6,2.1,10.1,2.1c4.8,0,8.8-0.7,12-2.3c3.2-1.6,5.8-3.7,7.8-6.5c2-2.8,3.4-6,4.2-9.8
								c0.8-3.8,1.2-7.8,1.2-12.1c0-4.7-0.7-9-2.1-12.9c-1.4-3.9-3.3-7.2-5.6-10s-5.2-5-8.4-6.5c-3.2-1.6-6.6-2.3-10.2-2.3
								c-3.1,0-5.9,0.4-8.4,1.2c-2.5,0.8-4.7,1.9-6.6,3.4c-1.9,1.4-3.5,3.2-4.9,5.2c-1.4,2-2.5,4.2-3.3,6.6
								c-0.9,2.4-1.5,4.9-1.9,7.6C53.9-140,53.7-137.2,53.7-134.4z M79.8-161.5c2.9-0.1,5.4,0.5,7.4,1.6c2,1.2,3.7,2.9,4.9,5.2
								c1.3,2.3,2.2,5,2.7,8.3c0.6,3.3,0.9,7,0.9,11.1c0,3.6-0.3,7-0.9,10.2c-0.6,3.1-1.5,5.9-2.8,8.2c-1.3,2.3-2.9,4.2-4.9,5.5
								c-2,1.3-4.4,2-7.1,2.1c-2.9,0-5.4-0.5-7.5-1.6c-2-1.1-3.7-2.7-5-4.8c-1.3-2.1-2.2-4.7-2.8-7.8c-0.6-3.1-0.9-6.5-0.9-10.4
								c0-3.5,0.3-6.9,1-10.1c0.6-3.3,1.6-6.2,2.9-8.8c1.3-2.6,3-4.6,5-6.2C74.6-160.7,77-161.5,79.8-161.5z"/>
						</g>
						<g>
							<path id="Merriweather-31" class="st2" d="M117.8-161.1l14.2,1.3v44.5l-13.3-2.6l-1,4.8c1,0.3,2.1,0.7,3.5,1.2
								c1.3,0.5,2.7,1,4.2,1.6c1.5,0.6,2.9,1.2,4.4,1.9c1.5,0.7,2.8,1.3,4,1.9c1.2,0.6,2.3,1.2,3.2,1.7c0.9,0.5,1.6,0.9,2,1.2
								l2.5-0.7l-0.1-55.6l13.1-1.3v-4.2h-36.7V-161.1z"/>
						</g>
						<g>
							<path id="Merriweather-30_7_" class="st2" d="M164.1-134.4c0.1,4.7,0.8,8.9,2.3,12.7c1.5,3.8,3.5,6.9,5.9,9.5
								c2.5,2.6,5.3,4.6,8.5,6c3.2,1.4,6.6,2.1,10.1,2.1c4.8,0,8.8-0.7,12-2.3c3.2-1.6,5.8-3.7,7.8-6.5c2-2.8,3.4-6,4.2-9.8
								c0.8-3.8,1.2-7.8,1.2-12.1c0-4.7-0.7-9-2.1-12.9s-3.3-7.2-5.6-10s-5.2-5-8.4-6.5c-3.2-1.6-6.6-2.3-10.2-2.3
								c-3.1,0-5.9,0.4-8.4,1.2c-2.5,0.8-4.7,1.9-6.6,3.4c-1.9,1.4-3.5,3.2-4.9,5.2c-1.4,2-2.5,4.2-3.3,6.6
								c-0.9,2.4-1.5,4.9-1.9,7.6C164.2-140,164.1-137.2,164.1-134.4z M190.1-161.5c2.9-0.1,5.4,0.5,7.4,1.6c2,1.2,3.7,2.9,4.9,5.2
								c1.3,2.3,2.2,5,2.7,8.3c0.6,3.3,0.9,7,0.9,11.1c0,3.6-0.3,7-0.9,10.2c-0.6,3.1-1.5,5.9-2.8,8.2c-1.3,2.3-2.9,4.2-4.9,5.5
								c-2,1.3-4.4,2-7.1,2.1c-2.9,0-5.4-0.5-7.5-1.6c-2-1.1-3.7-2.7-5-4.8c-1.3-2.1-2.2-4.7-2.8-7.8c-0.6-3.1-0.9-6.5-0.9-10.4
								c0-3.5,0.3-6.9,1-10.1c0.6-3.3,1.6-6.2,2.9-8.8c1.3-2.6,3-4.6,5-6.2C185-160.7,187.4-161.5,190.1-161.5z"/>
						</g>
					</g>
				</g>
			</g>
			<g id="xtick_6">
				<g id="line2d_6">
					<g>
						<g>
							<path id="md71d0a6d42_5_" class="st1" d="M398.2,339.8v3.5"/>
						</g>
					</g>
				</g>
				<g id="text_6">
					<g transform="translate(382.779297 333.901563)scale(0.15 -0.15)">
						<g>
							<path id="Merriweather-32_5_" class="st2" d="M-5.9-161.4c4.3,2.7,8.4,5.5,12.3,8.6s7.4,6.3,10.3,9.5c3,3.3,5.4,6.6,7.2,9.9
								c1.8,3.3,2.7,6.5,2.7,9.7c0,1.6-0.2,3.1-0.7,4.8c-0.4,1.6-1.2,3.1-2.2,4.4c-1,1.3-2.3,2.4-4,3.2c-1.6,0.8-3.6,1.2-6,1.2
								c-1.7,0-3.3-0.2-5-0.7s-3.3-1.1-4.8-1.8s-2.9-1.5-4.1-2.3c-1.2-0.8-2.3-1.6-3.1-2.3l-2.3,3.7c0.9,1.1,2.1,2.3,3.7,3.5
								c1.5,1.2,3.3,2.2,5.3,3.2c2,1,4.1,1.7,6.4,2.3c2.3,0.6,4.7,0.9,7.1,0.9c3.4,0,6.3-0.5,8.7-1.4c2.5-1,4.5-2.2,6.1-3.8
								c1.6-1.6,2.8-3.4,3.5-5.4c0.8-2,1.2-4.1,1.2-6.2c0-3.4-0.8-6.8-2.3-10.4c-1.5-3.5-3.7-7-6.4-10.3c-2.7-3.4-5.9-6.6-9.6-9.8
								c-3.7-3.1-7.7-6-12-8.5l27.9,2l4.7,6.9l4.2-1.4l-3.2-13.4H-4.5L-5.9-161.4z"/>
						</g>
						<g>
							<path id="Merriweather-30_9_" class="st2" d="M53.7-134.4c0.1,4.7,0.8,8.9,2.3,12.7c1.5,3.8,3.5,6.9,5.9,9.5
								c2.5,2.6,5.3,4.6,8.5,6c3.2,1.4,6.6,2.1,10.1,2.1c4.8,0,8.8-0.7,12-2.3c3.2-1.6,5.8-3.7,7.8-6.5c2-2.8,3.4-6,4.2-9.8
								c0.8-3.8,1.2-7.8,1.2-12.1c0-4.7-0.7-9-2.1-12.9c-1.4-3.9-3.3-7.2-5.6-10s-5.2-5-8.4-6.5c-3.2-1.6-6.6-2.3-10.2-2.3
								c-3.1,0-5.9,0.4-8.4,1.2c-2.5,0.8-4.7,1.9-6.6,3.4c-1.9,1.4-3.5,3.2-4.9,5.2c-1.4,2-2.5,4.2-3.3,6.6
								c-0.9,2.4-1.5,4.9-1.9,7.6C53.9-140,53.7-137.2,53.7-134.4z M79.8-161.5c2.9-0.1,5.4,0.5,7.4,1.6c2,1.2,3.7,2.9,4.9,5.2
								c1.3,2.3,2.2,5,2.7,8.3c0.6,3.3,0.9,7,0.9,11.1c0,3.6-0.3,7-0.9,10.2c-0.6,3.1-1.5,5.9-2.8,8.2c-1.3,2.3-2.9,4.2-4.9,5.5
								c-2,1.3-4.4,2-7.1,2.1c-2.9,0-5.4-0.5-7.5-1.6c-2-1.1-3.7-2.7-5-4.8c-1.3-2.1-2.2-4.7-2.8-7.8c-0.6-3.1-0.9-6.5-0.9-10.4
								c0-3.5,0.3-6.9,1-10.1c0.6-3.3,1.6-6.2,2.9-8.8c1.3-2.6,3-4.6,5-6.2C74.6-160.7,77-161.5,79.8-161.5z"/>
						</g>
						<g>
							<path id="Merriweather-31_3_" class="st2" d="M117.8-161.1l14.2,1.3v44.5l-13.3-2.6l-1,4.8c1,0.3,2.1,0.7,3.5,1.2
								c1.3,0.5,2.7,1,4.2,1.6c1.5,0.6,2.9,1.2,4.4,1.9c1.5,0.7,2.8,1.3,4,1.9c1.2,0.6,2.3,1.2,3.2,1.7c0.9,0.5,1.6,0.9,2,1.2
								l2.5-0.7l-0.1-55.6l13.1-1.3v-4.2h-36.7V-161.1z"/>
						</g>
						<g>
							<path id="Merriweather-32_6_" class="st2" d="M164-161.4c4.3,2.7,8.4,5.5,12.3,8.6s7.4,6.3,10.3,9.5c3,3.3,5.4,6.6,7.2,9.9
								c1.8,3.3,2.7,6.5,2.7,9.7c0,1.6-0.2,3.1-0.7,4.8c-0.4,1.6-1.2,3.1-2.2,4.4c-1,1.3-2.3,2.4-4,3.2c-1.6,0.8-3.6,1.2-6,1.2
								c-1.7,0-3.3-0.2-5-0.7c-1.7-0.5-3.3-1.1-4.8-1.8c-1.5-0.7-2.9-1.5-4.1-2.3c-1.2-0.8-2.3-1.6-3.1-2.3l-2.3,3.7
								c0.9,1.1,2.1,2.3,3.7,3.5c1.5,1.2,3.3,2.2,5.3,3.2c2,1,4.1,1.7,6.4,2.3c2.3,0.6,4.7,0.9,7.1,0.9c3.4,0,6.3-0.5,8.7-1.4
								c2.5-1,4.5-2.2,6.1-3.8c1.6-1.6,2.8-3.4,3.5-5.4c0.8-2,1.2-4.1,1.2-6.2c0-3.4-0.8-6.8-2.3-10.4c-1.5-3.5-3.7-7-6.4-10.3
								c-2.7-3.4-5.9-6.6-9.6-9.8c-3.7-3.1-7.7-6-12-8.5l27.9,2l4.7,6.9l4.2-1.4l-3.2-13.4h-44.1L164-161.4z"/>
						</g>
					</g>
				</g>
			</g>
			<g id="xtick_8">
				<g id="line2d_8">
					<g>
						<g>
							<path id="md71d0a6d42_7_" class="st1" d="M522.2,339.8v3.5"/>
						</g>
					</g>
				</g>
				<g id="text_8">
					<g transform="translate(506.662109 333.901563)scale(0.15 -0.15)">
						<g>
							<path id="Merriweather-32_8_" class="st2" d="M-5.9-161.4c4.3,2.7,8.4,5.5,12.3,8.6s7.4,6.3,10.3,9.5c3,3.3,5.4,6.6,7.2,9.9
								c1.8,3.3,2.7,6.5,2.7,9.7c0,1.6-0.2,3.1-0.7,4.8c-0.4,1.6-1.2,3.1-2.2,4.4c-1,1.3-2.3,2.4-4,3.2c-1.6,0.8-3.6,1.2-6,1.2
								c-1.7,0-3.3-0.2-5-0.7s-3.3-1.1-4.8-1.8s-2.9-1.5-4.1-2.3c-1.2-0.8-2.3-1.6-3.1-2.3l-2.3,3.7c0.9,1.1,2.1,2.3,3.7,3.5
								c1.5,1.2,3.3,2.2,5.3,3.2c2,1,4.1,1.7,6.4,2.3c2.3,0.6,4.7,0.9,7.1,0.9c3.4,0,6.3-0.5,8.7-1.4c2.5-1,4.5-2.2,6.1-3.8
								c1.6-1.6,2.8-3.4,3.5-5.4c0.8-2,1.2-4.1,1.2-6.2c0-3.4-0.8-6.8-2.3-10.4c-1.5-3.5-3.7-7-6.4-10.3c-2.7-3.4-5.9-6.6-9.6-9.8
								c-3.7-3.1-7.7-6-12-8.5l27.9,2l4.7,6.9l4.2-1.4l-3.2-13.4H-4.5L-5.9-161.4z"/>
						</g>
						<g>
							<path id="Merriweather-30_11_" class="st2" d="M53.7-134.4c0.1,4.7,0.8,8.9,2.3,12.7c1.5,3.8,3.5,6.9,5.9,9.5
								c2.5,2.6,5.3,4.6,8.5,6c3.2,1.4,6.6,2.1,10.1,2.1c4.8,0,8.8-0.7,12-2.3c3.2-1.6,5.8-3.7,7.8-6.5c2-2.8,3.4-6,4.2-9.8
								c0.8-3.8,1.2-7.8,1.2-12.1c0-4.7-0.7-9-2.1-12.9c-1.4-3.9-3.3-7.2-5.6-10s-5.2-5-8.4-6.5c-3.2-1.6-6.6-2.3-10.2-2.3
								c-3.1,0-5.9,0.4-8.4,1.2c-2.5,0.8-4.7,1.9-6.6,3.4c-1.9,1.4-3.5,3.2-4.9,5.2c-1.4,2-2.5,4.2-3.3,6.6
								c-0.9,2.4-1.5,4.9-1.9,7.6C53.9-140,53.7-137.2,53.7-134.4z M79.8-161.5c2.9-0.1,5.4,0.5,7.4,1.6c2,1.2,3.7,2.9,4.9,5.2
								c1.3,2.3,2.2,5,2.7,8.3c0.6,3.3,0.9,7,0.9,11.1c0,3.6-0.3,7-0.9,10.2c-0.6,3.1-1.5,5.9-2.8,8.2c-1.3,2.3-2.9,4.2-4.9,5.5
								c-2,1.3-4.4,2-7.1,2.1c-2.9,0-5.4-0.5-7.5-1.6c-2-1.1-3.7-2.7-5-4.8c-1.3-2.1-2.2-4.7-2.8-7.8c-0.6-3.1-0.9-6.5-0.9-10.4
								c0-3.5,0.3-6.9,1-10.1c0.6-3.3,1.6-6.2,2.9-8.8c1.3-2.6,3-4.6,5-6.2C74.6-160.7,77-161.5,79.8-161.5z"/>
						</g>
						<g>
							<path id="Merriweather-31_5_" class="st2" d="M117.8-161.1l14.2,1.3v44.5l-13.3-2.6l-1,4.8c1,0.3,2.1,0.7,3.5,1.2
								c1.3,0.5,2.7,1,4.2,1.6c1.5,0.6,2.9,1.2,4.4,1.9c1.5,0.7,2.8,1.3,4,1.9c1.2,0.6,2.3,1.2,3.2,1.7c0.9,0.5,1.6,0.9,2,1.2
								l2.5-0.7l-0.1-55.6l13.1-1.3v-4.2h-36.7V-161.1z"/>
						</g>
						<g>
							<path id="Merriweather-34" class="st2" d="M161.3-160.7c2.5,4.6,5.1,9.2,7.6,13.6c2.6,4.5,5.1,9,7.7,13.7s5.1,9.5,7.7,14.4
								c2.6,5,5.1,10.2,7.7,15.8h3.1l5.8-4.3l-27.6-47.2l-3.5-5.1l25.4,1.5l0.1,22.9l8.6,2.4v-24.7l10.4,0.6v-8.3h-10.4v-18.4H195
								l0.1,18.4h-32.3L161.3-160.7z"/>
						</g>
					</g>
				</g>
			</g>
			<g id="xtick_10">
				<g id="line2d_10">
					<g>
						<g>
							<path id="md71d0a6d42_9_" class="st1" d="M646.2,339.8v3.5"/>
						</g>
					</g>
				</g>
				<g id="text_10">
					<g transform="translate(630.670313 333.901563)scale(0.15 -0.15)">
						<g>
							<path id="Merriweather-32_10_" class="st2" d="M-5.9-161.4c4.3,2.7,8.4,5.5,12.3,8.6s7.4,6.3,10.3,9.5c3,3.3,5.4,6.6,7.2,9.9
								c1.8,3.3,2.7,6.5,2.7,9.7c0,1.6-0.2,3.1-0.7,4.8c-0.4,1.6-1.2,3.1-2.2,4.4c-1,1.3-2.3,2.4-4,3.2c-1.6,0.8-3.6,1.2-6,1.2
								c-1.7,0-3.3-0.2-5-0.7s-3.3-1.1-4.8-1.8s-2.9-1.5-4.1-2.3c-1.2-0.8-2.3-1.6-3.1-2.3l-2.3,3.7c0.9,1.1,2.1,2.3,3.7,3.5
								c1.5,1.2,3.3,2.2,5.3,3.2c2,1,4.1,1.7,6.4,2.3c2.3,0.6,4.7,0.9,7.1,0.9c3.4,0,6.3-0.5,8.7-1.4c2.5-1,4.5-2.2,6.1-3.8
								c1.6-1.6,2.8-3.4,3.5-5.4c0.8-2,1.2-4.1,1.2-6.2c0-3.4-0.8-6.8-2.3-10.4c-1.5-3.5-3.7-7-6.4-10.3c-2.7-3.4-5.9-6.6-9.6-9.8
								c-3.7-3.1-7.7-6-12-8.5l27.9,2l4.7,6.9l4.2-1.4l-3.2-13.4H-4.5L-5.9-161.4z"/>
						</g>
						<g>
							<path id="Merriweather-30_13_" class="st2" d="M53.7-134.4c0.1,4.7,0.8,8.9,2.3,12.7c1.5,3.8,3.5,6.9,5.9,9.5
								c2.5,2.6,5.3,4.6,8.5,6c3.2,1.4,6.6,2.1,10.1,2.1c4.8,0,8.8-0.7,12-2.3c3.2-1.6,5.8-3.7,7.8-6.5c2-2.8,3.4-6,4.2-9.8
								c0.8-3.8,1.2-7.8,1.2-12.1c0-4.7-0.7-9-2.1-12.9c-1.4-3.9-3.3-7.2-5.6-10s-5.2-5-8.4-6.5c-3.2-1.6-6.6-2.3-10.2-2.3
								c-3.1,0-5.9,0.4-8.4,1.2c-2.5,0.8-4.7,1.9-6.6,3.4c-1.9,1.4-3.5,3.2-4.9,5.2c-1.4,2-2.5,4.2-3.3,6.6
								c-0.9,2.4-1.5,4.9-1.9,7.6C53.9-140,53.7-137.2,53.7-134.4z M79.8-161.5c2.9-0.1,5.4,0.5,7.4,1.6c2,1.2,3.7,2.9,4.9,5.2
								c1.3,2.3,2.2,5,2.7,8.3c0.6,3.3,0.9,7,0.9,11.1c0,3.6-0.3,7-0.9,10.2c-0.6,3.1-1.5,5.9-2.8,8.2c-1.3,2.3-2.9,4.2-4.9,5.5
								c-2,1.3-4.4,2-7.1,2.1c-2.9,0-5.4-0.5-7.5-1.6c-2-1.1-3.7-2.7-5-4.8c-1.3-2.1-2.2-4.7-2.8-7.8c-0.6-3.1-0.9-6.5-0.9-10.4
								c0-3.5,0.3-6.9,1-10.1c0.6-3.3,1.6-6.2,2.9-8.8c1.3-2.6,3-4.6,5-6.2C74.6-160.7,77-161.5,79.8-161.5z"/>
						</g>
						<g>
							<path id="Merriweather-31_7_" class="st2" d="M117.8-161.1l14.2,1.3v44.5l-13.3-2.6l-1,4.8c1,0.3,2.1,0.7,3.5,1.2
								c1.3,0.5,2.7,1,4.2,1.6c1.5,0.6,2.9,1.2,4.4,1.9c1.5,0.7,2.8,1.3,4,1.9c1.2,0.6,2.3,1.2,3.2,1.7c0.9,0.5,1.6,0.9,2,1.2
								l2.5-0.7l-0.1-55.6l13.1-1.3v-4.2h-36.7V-161.1z"/>
						</g>
						<g>
							<path id="Merriweather-36" class="st2" d="M163.8-137.8c0,4.2,0.6,8.2,1.7,12c1.2,3.8,2.7,7.3,4.8,10.6
								c2,3.3,4.4,6.3,7.1,9.1c2.7,2.8,5.6,5.2,8.7,7.3c3.1,2.1,6.3,3.9,9.7,5.3c3.4,1.4,6.7,2.4,10,3.1l2-4.1
								c-5.3-1.7-10-4-14.2-6.8c-4.1-2.8-7.7-5.9-10.5-9.4c-2.9-3.4-5.1-7-6.7-10.8c-1.6-3.8-2.4-7.5-2.5-11.3
								c-0.1-3.6,0-7.1,0.4-10.5c0.4-3.4,1.2-6.5,2.4-9.1c1.2-2.7,2.9-4.8,5.1-6.4c2.2-1.6,5-2.4,8.4-2.4c2.5,0,4.6,0.5,6.4,1.6
								s3.3,2.5,4.4,4.2c1.2,1.7,2,3.7,2.6,5.8c0.6,2.1,0.8,4.2,0.8,6.2c0,3.1-0.3,5.8-0.9,8.2c-0.6,2.4-1.5,4.4-2.5,6
								c-1.1,1.6-2.3,2.8-3.8,3.6s-3.1,1.2-4.8,1.2c-1.3,0-2.5-0.1-3.5-0.2c-1-0.2-1.9-0.4-2.6-0.6c-0.8-0.3-1.4-0.6-2-0.9
								c-0.6-0.4-1.1-0.7-1.7-1.1l-2.2,3.9c0.4,0.6,1.1,1.2,2,1.8c1,0.7,2.1,1.2,3.5,1.8c1.3,0.5,2.8,1,4.3,1.3
								c1.6,0.3,3.1,0.5,4.7,0.5c3.1,0,5.8-0.6,8.2-1.9c2.3-1.3,4.3-2.9,5.8-4.9c1.6-2,2.7-4.3,3.5-6.9c0.8-2.6,1.2-5.1,1.2-7.7
								c0-2.1-0.2-4.2-0.7-6.3c-0.5-2.1-1.2-4.2-2.2-6.2c-1-2-2.2-3.8-3.6-5.6c-1.4-1.7-3-3.3-4.9-4.6c-1.8-1.3-3.9-2.3-6.2-3.1
								c-2.3-0.8-4.7-1.1-7.3-1.1c-3.9,0-7.3,0.8-10.4,2.3c-3.1,1.5-5.6,3.6-7.8,6.2c-2.1,2.6-3.7,5.6-4.9,9.1
								C164.4-145.3,163.8-141.7,163.8-137.8z"/>
						</g>
					</g>
				</g>
			</g>
		</g>
		<g id="matplotlib.axis_2">
			<g id="ytick_1">
				<g id="line2d_11">
					<g>
						<defs>
							<rect id="SVGID_1_" x="88.2" y="68" width="558" height="271.8"/>
						</defs>
						<clipPath id="SVGID_2_">
							<use xlink:href="#SVGID_1_"  style="overflow:visible;"/>
						</clipPath>
						<path class="st3" d="M88.2,339.8h558"/>
					</g>
				</g>
				<g id="line2d_12">
					<g>
						<g>
							<path id="m9b4b39a14c_3_" class="st1" d="M88.2,339.8"/>
						</g>
					</g>
				</g>
				<g id="text_12">
					<g transform="translate(73.280469 320.950781)scale(0.15 -0.15)">
						<g>
							<path id="Merriweather-30_14_" class="st2" d="M-5.9-134.4c0.1,4.7,0.8,8.9,2.3,12.7c1.5,3.8,3.5,6.9,5.9,9.5
								c2.5,2.6,5.3,4.6,8.5,6c3.2,1.4,6.6,2.1,10.1,2.1c4.8,0,8.8-0.7,12-2.3c3.2-1.6,5.8-3.7,7.8-6.5c2-2.8,3.4-6,4.2-9.8
								c0.8-3.8,1.2-7.8,1.2-12.1c0-4.7-0.7-9-2.1-12.9s-3.3-7.2-5.6-10s-5.2-5-8.4-6.5c-3.2-1.6-6.6-2.3-10.2-2.3
								c-3.1,0-5.9,0.4-8.4,1.2c-2.5,0.8-4.7,1.9-6.6,3.4c-1.9,1.4-3.5,3.2-4.9,5.2c-1.4,2-2.5,4.2-3.3,6.6
								c-0.9,2.4-1.5,4.9-1.9,7.6C-5.7-140-5.9-137.2-5.9-134.4z M20.1-161.5c2.9-0.1,5.4,0.5,7.4,1.6c2,1.2,3.7,2.9,4.9,5.2
								c1.3,2.3,2.2,5,2.7,8.3c0.6,3.3,0.9,7,0.9,11.1c0,3.6-0.3,7-0.9,10.2c-0.6,3.1-1.5,5.9-2.8,8.2c-1.3,2.3-2.9,4.2-4.9,5.5
								c-2,1.3-4.4,2-7.1,2.1c-2.9,0-5.4-0.5-7.5-1.6c-2-1.1-3.7-2.7-5-4.8c-1.3-2.1-2.3-4.7-2.8-7.8c-0.6-3.1-0.9-6.5-0.9-10.4
								c0-3.5,0.3-6.9,1-10.1c0.6-3.3,1.6-6.2,2.9-8.8c1.3-2.6,3-4.6,5-6.2C15-160.7,17.4-161.5,20.1-161.5z"/>
						</g>
					</g>
				</g>
			</g>
			<g id="ytick_2">
				<g id="line2d_13">
					<g>
						<defs>
							<rect id="SVGID_3_" x="88.2" y="68" width="558" height="271.8"/>
						</defs>
						<clipPath id="SVGID_4_">
							<use xlink:href="#SVGID_3_"  style="overflow:visible;"/>
						</clipPath>
						<path class="st4" d="M88.2,305.8h558"/>
					</g>
				</g>
			</g>
			<g id="ytick_3">
				<g id="line2d_15">
					<g>
						<defs>
							<rect id="SVGID_5_" x="88.2" y="68" width="558" height="271.8"/>
						</defs>
						<clipPath id="SVGID_6_">
							<use xlink:href="#SVGID_5_"  style="overflow:visible;"/>
						</clipPath>
						<path class="st5" d="M88.2,271.8h558"/>
					</g>
				</g>
			</g>
			<g id="ytick_4">
				<g id="line2d_17">
					<g>
						<defs>
							<rect id="SVGID_7_" x="88.2" y="68" width="558" height="271.8"/>
						</defs>
						<clipPath id="SVGID_8_">
							<use xlink:href="#SVGID_7_"  style="overflow:visible;"/>
						</clipPath>
						<path class="st6" d="M88.2,237.9h558"/>
					</g>
				</g>
			</g>
			<g id="ytick_5">
				<g id="line2d_19">
					<g>
						<defs>
							<rect id="SVGID_9_" x="88.2" y="68" width="558" height="271.8"/>
						</defs>
						<clipPath id="SVGID_10_">
							<use xlink:href="#SVGID_9_"  style="overflow:visible;"/>
						</clipPath>
						<path class="st7" d="M88.2,203.9h558"/>
					</g>
				</g>
				<g id="line2d_20">
					<g>
						<g>
							<path id="m9b4b39a14c_1_" class="st1" d="M88.2,203.9"/>
						</g>
					</g>
				</g>
				<g id="text_16">
					<g transform="translate(54.617188 185.050781)scale(0.15 -0.15)">
						<g>
							<path id="Merriweather-32_11_" class="st2" d="M-5.9-161.4c4.3,2.7,8.4,5.5,12.3,8.6s7.4,6.3,10.3,9.5c3,3.3,5.4,6.6,7.2,9.9
								c1.8,3.3,2.7,6.5,2.7,9.7c0,1.6-0.2,3.1-0.7,4.8c-0.4,1.6-1.2,3.1-2.2,4.4c-1,1.3-2.3,2.4-4,3.2c-1.6,0.8-3.6,1.2-6,1.2
								c-1.7,0-3.3-0.2-5-0.7s-3.3-1.1-4.8-1.8s-2.9-1.5-4.1-2.3c-1.2-0.8-2.3-1.6-3.1-2.3l-2.3,3.7c0.9,1.1,2.1,2.3,3.7,3.5
								c1.5,1.2,3.3,2.2,5.3,3.2c2,1,4.1,1.7,6.4,2.3c2.3,0.6,4.7,0.9,7.1,0.9c3.4,0,6.3-0.5,8.7-1.4c2.5-1,4.5-2.2,6.1-3.8
								c1.6-1.6,2.8-3.4,3.5-5.4c0.8-2,1.2-4.1,1.2-6.2c0-3.4-0.8-6.8-2.3-10.4c-1.5-3.5-3.7-7-6.4-10.3c-2.7-3.4-5.9-6.6-9.6-9.8
								c-3.7-3.1-7.7-6-12-8.5l27.9,2l4.7,6.9l4.2-1.4l-3.2-13.4H-4.5L-5.9-161.4z"/>
						</g>
						<g>
							<path id="Merriweather-30_19_" class="st2" d="M53.7-134.4c0.1,4.7,0.8,8.9,2.3,12.7c1.5,3.8,3.5,6.9,5.9,9.5
								c2.5,2.6,5.3,4.6,8.5,6c3.2,1.4,6.6,2.1,10.1,2.1c4.8,0,8.8-0.7,12-2.3c3.2-1.6,5.8-3.7,7.8-6.5c2-2.8,3.4-6,4.2-9.8
								c0.8-3.8,1.2-7.8,1.2-12.1c0-4.7-0.7-9-2.1-12.9c-1.4-3.9-3.3-7.2-5.6-10s-5.2-5-8.4-6.5c-3.2-1.6-6.6-2.3-10.2-2.3
								c-3.1,0-5.9,0.4-8.4,1.2c-2.5,0.8-4.7,1.9-6.6,3.4c-1.9,1.4-3.5,3.2-4.9,5.2c-1.4,2-2.5,4.2-3.3,6.6
								c-0.9,2.4-1.5,4.9-1.9,7.6C53.9-140,53.7-137.2,53.7-134.4z M79.8-161.5c2.9-0.1,5.4,0.5,7.4,1.6c2,1.2,3.7,2.9,4.9,5.2
								c1.3,2.3,2.2,5,2.7,8.3c0.6,3.3,0.9,7,0.9,11.1c0,3.6-0.3,7-0.9,10.2c-0.6,3.1-1.5,5.9-2.8,8.2c-1.3,2.3-2.9,4.2-4.9,5.5
								c-2,1.3-4.4,2-7.1,2.1c-2.9,0-5.4-0.5-7.5-1.6c-2-1.1-3.7-2.7-5-4.8c-1.3-2.1-2.2-4.7-2.8-7.8c-0.6-3.1-0.9-6.5-0.9-10.4
								c0-3.5,0.3-6.9,1-10.1c0.6-3.3,1.6-6.2,2.9-8.8c1.3-2.6,3-4.6,5-6.2C74.6-160.7,77-161.5,79.8-161.5z"/>
						</g>
						<g>
							<path id="Merriweather-30_20_" class="st2" d="M118.5-134.4c0.1,4.7,0.8,8.9,2.3,12.7c1.5,3.8,3.5,6.9,5.9,9.5
								c2.5,2.6,5.3,4.6,8.5,6c3.2,1.4,6.6,2.1,10.1,2.1c4.8,0,8.8-0.7,12-2.3c3.2-1.6,5.8-3.7,7.8-6.5c2-2.8,3.4-6,4.2-9.8
								c0.8-3.8,1.2-7.8,1.2-12.1c0-4.7-0.7-9-2.1-12.9c-1.4-3.9-3.3-7.2-5.6-10s-5.2-5-8.4-6.5c-3.2-1.6-6.6-2.3-10.2-2.3
								c-3.1,0-5.9,0.4-8.4,1.2c-2.5,0.8-4.7,1.9-6.6,3.4c-1.9,1.4-3.5,3.2-4.9,5.2c-1.4,2-2.5,4.2-3.3,6.6
								c-0.9,2.4-1.5,4.9-1.9,7.6C118.7-140,118.5-137.2,118.5-134.4z M144.6-161.5c2.9-0.1,5.4,0.5,7.4,1.6c2,1.2,3.7,2.9,4.9,5.2
								c1.3,2.3,2.2,5,2.7,8.3c0.6,3.3,0.9,7,0.9,11.1c0,3.6-0.3,7-0.9,10.2c-0.6,3.1-1.5,5.9-2.8,8.2c-1.3,2.3-2.9,4.2-4.9,5.5
								c-2,1.3-4.4,2-7.1,2.1c-2.9,0-5.4-0.5-7.5-1.6c-2-1.1-3.7-2.7-5-4.8c-1.3-2.1-2.2-4.7-2.8-7.8c-0.6-3.1-0.9-6.5-0.9-10.4
								c0-3.5,0.3-6.9,1-10.1c0.6-3.3,1.6-6.2,2.9-8.8c1.3-2.6,3-4.6,5-6.2C139.4-160.7,141.8-161.5,144.6-161.5z"/>
						</g>
					</g>
				</g>
			</g>
			<g id="ytick_6">
				<g id="line2d_21">
					<g>
						<defs>
							<rect id="SVGID_11_" x="88.2" y="68" width="558" height="271.8"/>
						</defs>
						<clipPath id="SVGID_12_">
							<use xlink:href="#SVGID_11_"  style="overflow:visible;"/>
						</clipPath>
						<path class="st8" d="M88.2,169.9h558"/>
					</g>
				</g>
				<g id="line2d_22">
					<g>
						<g>
							<path id="m9b4b39a14c_11_" class="st1" d="M88.2,169.9"/>
						</g>
					</g>
				</g>
			</g>
			<g id="ytick_7">
				<g id="line2d_23">
					<g>
						<defs>
							<rect id="SVGID_13_" x="88.2" y="68" width="558" height="271.8"/>
						</defs>
						<clipPath id="SVGID_14_">
							<use xlink:href="#SVGID_13_"  style="overflow:visible;"/>
						</clipPath>
						<path class="st9" d="M88.2,135.9h558"/>
					</g>
				</g>
				<g id="line2d_24">
					<g>
						<g>
							<path id="m9b4b39a14c_10_" class="st1" d="M88.2,135.9"/>
						</g>
					</g>
				</g>
			</g>
			<g id="ytick_8">
				<g id="line2d_25">
					<g>
						<defs>
							<rect id="SVGID_15_" x="88.2" y="68" width="558" height="271.8"/>
						</defs>
						<clipPath id="SVGID_16_">
							<use xlink:href="#SVGID_15_"  style="overflow:visible;"/>
						</clipPath>
						<path class="st10" d="M88.2,102h558"/>
					</g>
				</g>
				<g id="line2d_26">
					<g>
						<g>
							<path id="m9b4b39a14c_9_" class="st1" d="M88.2,102"/>
						</g>
					</g>
				</g>
			</g>
			<g id="ytick_9">
				<g id="line2d_27">
					<g>
						<defs>
							<rect id="SVGID_17_" x="88.2" y="68" width="558" height="271.8"/>
						</defs>
						<clipPath id="SVGID_18_">
							<use xlink:href="#SVGID_17_"  style="overflow:visible;"/>
						</clipPath>
						<path class="st11" d="M88.2,68h558"/>
					</g>
				</g>
				<g id="line2d_28">
					<g>
						<g>
							<path id="m9b4b39a14c_2_" class="st1" d="M88.2,68"/>
						</g>
					</g>
				</g>
				<g id="text_20">
					<g transform="translate(54.382812 49.150781)scale(0.15 -0.15)">
						<g>
							<path id="Merriweather-34_1_" class="st2" d="M-8.7-160.7c2.5,4.6,5.1,9.2,7.6,13.6c2.6,4.5,5.1,9,7.7,13.7s5.1,9.5,7.7,14.4
								c2.6,5,5.1,10.2,7.7,15.8H25l5.8-4.3L3.2-154.6l-3.5-5.1l25.4,1.5l0.1,22.9l8.6,2.4v-24.7l10.4,0.6v-8.3H33.9v-18.4H25
								l0.1,18.4H-7.2L-8.7-160.7z"/>
						</g>
						<g>
							<path id="Merriweather-30_25_" class="st2" d="M55.3-134.4c0.1,4.7,0.8,8.9,2.3,12.7c1.5,3.8,3.5,6.9,5.9,9.5
								c2.5,2.6,5.3,4.6,8.5,6c3.2,1.4,6.6,2.1,10.1,2.1c4.8,0,8.8-0.7,12-2.3c3.2-1.6,5.8-3.7,7.8-6.5c2-2.8,3.4-6,4.2-9.8
								c0.8-3.8,1.2-7.8,1.2-12.1c0-4.7-0.7-9-2.1-12.9c-1.4-3.9-3.3-7.2-5.6-10s-5.2-5-8.4-6.5c-3.2-1.6-6.6-2.3-10.2-2.3
								c-3.1,0-5.9,0.4-8.4,1.2c-2.5,0.8-4.7,1.9-6.6,3.4c-1.9,1.4-3.5,3.2-4.9,5.2c-1.4,2-2.5,4.2-3.3,6.6s-1.5,4.9-1.9,7.6
								C55.4-140,55.3-137.2,55.3-134.4z M81.3-161.5c2.9-0.1,5.4,0.5,7.4,1.6c2,1.2,3.7,2.9,4.9,5.2c1.3,2.3,2.2,5,2.7,8.3
								c0.6,3.3,0.9,7,0.9,11.1c0,3.6-0.3,7-0.9,10.2c-0.6,3.1-1.5,5.9-2.8,8.2c-1.3,2.3-2.9,4.2-4.9,5.5c-2,1.3-4.4,2-7.1,2.1
								c-2.9,0-5.4-0.5-7.5-1.6c-2-1.1-3.7-2.7-5-4.8c-1.3-2.1-2.2-4.7-2.8-7.8c-0.6-3.1-0.9-6.5-0.9-10.4c0-3.5,0.3-6.9,1-10.1
								c0.6-3.3,1.6-6.2,2.9-8.8c1.3-2.6,3-4.6,5-6.2C76.2-160.7,78.6-161.5,81.3-161.5z"/>
						</g>
						<g>
							<path id="Merriweather-30_26_" class="st2" d="M120.1-134.4c0.1,4.7,0.8,8.9,2.3,12.7c1.5,3.8,3.5,6.9,5.9,9.5
								c2.5,2.6,5.3,4.6,8.5,6c3.2,1.4,6.6,2.1,10.1,2.1c4.8,0,8.8-0.7,12-2.3c3.2-1.6,5.8-3.7,7.8-6.5c2-2.8,3.4-6,4.2-9.8
								c0.8-3.8,1.2-7.8,1.2-12.1c0-4.7-0.7-9-2.1-12.9s-3.3-7.2-5.6-10s-5.2-5-8.4-6.5c-3.2-1.6-6.6-2.3-10.2-2.3
								c-3.1,0-5.9,0.4-8.4,1.2c-2.5,0.8-4.7,1.9-6.6,3.4c-1.9,1.4-3.5,3.2-4.9,5.2c-1.4,2-2.5,4.2-3.3,6.6
								c-0.9,2.4-1.5,4.9-1.9,7.6C120.2-140,120.1-137.2,120.1-134.4z M146.1-161.5c2.9-0.1,5.4,0.5,7.4,1.6c2,1.2,3.7,2.9,4.9,5.2
								c1.3,2.3,2.2,5,2.7,8.3c0.6,3.3,0.9,7,0.9,11.1c0,3.6-0.3,7-0.9,10.2c-0.6,3.1-1.5,5.9-2.8,8.2c-1.3,2.3-2.9,4.2-4.9,5.5
								c-2,1.3-4.4,2-7.1,2.1c-2.9,0-5.4-0.5-7.5-1.6c-2-1.1-3.7-2.7-5-4.8s-2.2-4.7-2.8-7.8c-0.6-3.1-0.9-6.5-0.9-10.4
								c0-3.5,0.3-6.9,1-10.1s1.6-6.2,2.9-8.8c1.3-2.6,3-4.6,5-6.2C141-160.7,143.4-161.5,146.1-161.5z"/>
						</g>
					</g>
				</g>
			</g>
		</g>
		<g id="line2d_29">
			<g>
				<defs>
					<rect id="SVGID_19_" x="88.2" y="68" width="558" height="271.8"/>
				</defs>
				<clipPath id="SVGID_20_">
					<use xlink:href="#SVGID_19_"  style="overflow:visible;"/>
				</clipPath>
				<path class="st12" d="M88.2,75.5l62,38.7l62,19h62l62-12.2l62-7.5l62,57.1h62l62-18.3l62-0.7"/>
			</g>
		</g>
		<g id="patch_3">
			<path class="st13" d="M19.1,56.4"/>
			<path class="st13" d="M19.1,328.2"/>
		</g>
		<g id="patch_4">
			<path class="st13" d="M646.2,339.8V68"/>
		</g>
		<g id="patch_5">
			<path class="st13" d="M88.2,339.8h558"/>
		</g>
		<g id="patch_6">
			<path class="st13" d="M88.2,68h558"/>
		</g>
		<g id="text_21">
			<g transform="translate(122.917969 23.2)scale(0.3 -0.3)">
				<g>
					<path id="Merriweather-4d" d="M-2.4-78.5L6-77.1L10.9-13l-9.5,0.8v5.3h22.5L41.4-60l2.2-7.2l2.2,7.4l16.8,53h20.8v-5.3L74.4-13
						L79.9-77l8.4-1.5v-4.2H62.9v4.2l8,1.4l-4,45.7l-0.5,16.9l-2-8L43.8-83.4h-3.3L21.8-30c-0.9,2.6-1.9,5.3-2.8,8
						c-0.9,2.7-1.8,5.3-2.7,8L16-30.7L13.6-77l9.3-1.5v-4.2H-2.4V-78.5z"/>
				</g>
				<g>
					<path id="Merriweather-75" d="M100.8-34.9l-5,1.5v3.8l12.5,2.7l1.7-0.9v-33.6c0-2.7,0.1-5,0.4-7c0.3-1.9,0.8-3.5,1.6-4.8
						c0.8-1.2,1.9-2.2,3.2-2.8c1.4-0.6,3.1-0.9,5.3-0.9c1.5,0,2.9,0.2,4.3,0.6c1.4,0.4,2.7,0.9,4,1.5c1.2,0.6,2.3,1.2,3.2,1.8
						c0.9,0.6,1.6,1.2,2,1.6v36.1l-6.1,1.6v4l14,2.8l1.4-0.8v-50.6h5.9v-3.7c-0.5-0.3-1.1-0.5-1.8-0.8c-0.7-0.2-1.5-0.5-2.3-0.7
						c-0.8-0.2-1.7-0.4-2.5-0.5c-0.9-0.1-1.7-0.2-2.5-0.2c-1.6,0-2.8,0.3-3.7,1c-0.9,0.7-1.3,1.7-1.3,3.2v4
						c-2.8-2.5-5.8-4.4-8.9-5.7c-3.1-1.3-6.1-1.9-9.1-1.9c-3.8,0-6.8,0.6-9,1.8c-2.1,1.2-3.8,2.8-4.8,4.9c-1.1,2.1-1.7,4.6-2,7.5
						c-0.2,2.9-0.4,6-0.4,9.4V-34.9z"/>
				</g>
				<g>
					<path id="Merriweather-72" d="M158.9-78.5l7.9,1v39.8l-6.9,3.8v3l12.9,3.8l2.3-1v-7.5c0.6,0.9,1.6,1.9,2.8,2.9s2.7,1.9,4.2,2.8
						c1.6,0.8,3.2,1.5,4.9,2c1.7,0.5,3.3,0.8,4.8,0.8c1.1,0,2,0,2.9-0.1c0.9,0,1.5-0.1,1.8-0.2v-10c-0.5,0.2-1.1,0.4-1.6,0.6
						c-0.6,0.2-1.2,0.4-1.8,0.5c-0.7,0.1-1.4,0.3-2.3,0.4c-0.8,0.1-1.8,0.2-2.9,0.2c-2.6,0-4.8-0.3-6.6-1c-1.8-0.7-3.4-1.5-4.9-2.4
						v-38.2l13.9-1.2v-4.2h-31.3V-78.5z"/>
				</g>
				<g>
					<path id="Merriweather-64" d="M224.7-83.8c-2.7,0-5.4,0.5-8,1.6c-2.6,1.1-4.8,2.8-6.8,5c-2,2.3-3.6,5.1-4.8,8.6
						c-1.2,3.5-1.8,7.6-1.8,12.3c0,4.4,0.7,8.4,2.2,12c1.5,3.7,3.5,6.8,6,9.5c2.5,2.6,5.5,4.7,9,6.2s7.1,2.2,11.1,2.2
						c1.7,0,3.4-0.1,5-0.3c1.6-0.2,3-0.5,4.2-0.9v16.3l-10.4,1.8v4.2l17.6,2l2.2-1.1v-74.1h6.6v-3.7c-0.6-0.3-1.2-0.6-2.1-0.8
						c-0.8-0.3-1.7-0.5-2.6-0.7c-0.9-0.2-1.9-0.3-2.8-0.4c-1-0.1-1.9-0.2-2.7-0.2c-0.6,0-1.2,0-1.8,0.1c-0.6,0.1-1.2,0.3-1.7,0.6
						c-0.5,0.3-1,0.8-1.3,1.5c-0.3,0.7-0.5,1.6-0.5,2.8v1.2c-0.5-0.6-1.2-1.2-2.2-1.9c-0.9-0.7-2.1-1.3-3.5-1.9
						c-1.4-0.6-3-1.1-4.8-1.5C228.9-83.6,226.9-83.8,224.7-83.8z M228.5-77.1c1,0,2,0.1,2.9,0.2c0.9,0.1,1.7,0.3,2.5,0.5
						c1.6,0.4,3,0.9,4.1,1.5c1.1,0.7,2.1,1.4,2.8,2.1v37.4c-0.4,0.4-0.8,0.9-1.3,1.3s-1.2,0.9-2,1.3c-0.8,0.4-1.8,0.7-3,1
						c-1.2,0.2-2.5,0.4-4.1,0.4c-1.2,0-2.5-0.2-3.9-0.5c-1.3-0.3-2.7-0.8-4-1.5c-1.3-0.7-2.5-1.6-3.7-2.8c-1.2-1.1-2.2-2.5-3.1-4.2
						c-0.9-1.6-1.6-3.6-2.2-5.8c-0.6-2.2-0.8-4.7-0.9-7.5c-0.1-4,0.3-7.5,1.2-10.4c0.9-2.9,2.1-5.3,3.5-7.2c1.5-1.9,3.2-3.3,5.1-4.2
						C224.5-76.7,226.5-77.1,228.5-77.1z"/>
				</g>
				<g>
					<path id="Merriweather-65" d="M265.4-55.5c0,4.2,0.7,8,2,11.5c1.3,3.5,3.2,6.6,5.5,9.1c2.4,2.6,5.2,4.6,8.5,6.1
						c3.3,1.5,7,2.3,11,2.4c2.9,0.1,5.4-0.4,7.8-1.2c2.3-0.9,4.3-2.2,5.9-4c1.6-1.8,2.9-3.9,3.8-6.4c0.9-2.5,1.5-5.4,1.6-8.6
						c0.1-2.1,0-3.8-0.1-5.3c-0.1-1.5-0.3-2.8-0.5-4h-36.2c0-0.2,0-0.4,0-0.6c0-0.2,0-0.4,0.1-0.6c0.1-3.9,0.8-7.2,2-9.8
						c1.2-2.6,2.7-4.6,4.5-6.1c1.8-1.5,3.8-2.6,6-3.2c2.2-0.6,4.3-0.9,6.4-0.9c1.3,0,2.6,0.1,4,0.2c1.4,0.1,2.8,0.4,4.1,0.6
						c1.3,0.3,2.5,0.6,3.7,1c1.1,0.4,2,0.7,2.7,1.1l1.8-4.2c-0.9-0.8-2.2-1.6-3.7-2.3c-1.5-0.7-3.2-1.3-5-1.7
						c-1.8-0.5-3.7-0.8-5.6-1.1c-1.9-0.2-3.9-0.4-5.7-0.4c-3.9,0-7.4,0.7-10.5,2c-3,1.4-5.6,3.3-7.7,5.7c-2.1,2.5-3.7,5.4-4.8,8.9
						C265.9-63.7,265.4-59.8,265.4-55.5z M301.5-50.3c0.1,1.7,0.1,3.3,0.1,5c0,1.7-0.2,3.3-0.6,4.8c-0.4,1.5-0.9,2.9-1.6,4.2
						c-0.7,1.2-1.7,2.3-3,3c-0.8,0.6-1.8,1-2.9,1.2c-1.1,0.3-2.3,0.4-3.7,0.4c-1.8,0-3.6-0.3-5.3-1c-1.7-0.7-3.2-1.8-4.6-3.3
						c-1.3-1.5-2.5-3.4-3.4-5.8c-0.9-2.4-1.5-5.2-1.8-8.6H301.5z"/>
				</g>
				<g>
					<path id="Merriweather-72_1_" d="M321.9-78.5l7.9,1v39.8l-6.9,3.8v3l12.9,3.8l2.3-1v-7.5c0.6,0.9,1.6,1.9,2.8,2.9
						s2.7,1.9,4.2,2.8c1.6,0.8,3.2,1.5,4.9,2c1.7,0.5,3.3,0.8,4.8,0.8c1.1,0,2,0,2.9-0.1c0.9,0,1.5-0.1,1.8-0.2v-10
						c-0.5,0.2-1.1,0.4-1.6,0.6c-0.6,0.2-1.2,0.4-1.8,0.5c-0.7,0.1-1.4,0.3-2.3,0.4c-0.8,0.1-1.8,0.2-2.9,0.2c-2.6,0-4.8-0.3-6.6-1
						c-1.8-0.7-3.4-1.5-4.9-2.4v-38.2l13.9-1.2v-4.2h-31.3V-78.5z"/>
				</g>
				<g>
					<path id="Merriweather-73" d="M369.7-68.5h4.3l1.9-6c0.8-0.7,1.6-1.3,2.4-1.8c0.8-0.5,1.6-0.9,2.5-1.2c0.8-0.3,1.7-0.6,2.7-0.8
						c0.9-0.2,2-0.3,3.1-0.3c1.8-0.1,3.5,0.1,5,0.4s2.8,0.9,4,1.7c1.1,0.8,2,1.7,2.6,2.9c0.6,1.2,0.9,2.6,0.9,4.2
						c0,1.5-0.4,2.7-1.2,3.8c-0.8,1-1.8,2-3.1,2.8c-1.3,0.8-2.8,1.6-4.5,2.3c-1.7,0.7-3.3,1.5-5.1,2.3c-1.9,0.9-3.8,1.9-5.7,3
						c-1.8,1.1-3.5,2.3-4.9,3.7c-1.4,1.4-2.5,2.9-3.4,4.6c-0.8,1.7-1.2,3.6-1.2,5.8c0,1.7,0.3,3.2,0.9,4.6c0.6,1.4,1.3,2.6,2.3,3.7
						c1,1.1,2.1,2,3.3,2.8c1.3,0.8,2.6,1.5,4,2c1.4,0.5,2.9,0.9,4.4,1.2c1.5,0.3,3,0.4,4.5,0.5c1.6,0,3.2,0,4.7-0.2
						c1.5-0.2,2.9-0.4,4.2-0.8c1.3-0.3,2.5-0.7,3.6-1.1c1.1-0.4,2-0.8,2.7-1.3v-10.4h-4.2l-2.1,5.5c-0.5,0.5-1,0.9-1.5,1.3
						c-0.5,0.4-1.1,0.8-1.8,1.1c-0.7,0.3-1.4,0.6-2.3,0.8c-0.8,0.2-1.8,0.3-2.9,0.3c-1.6,0-3-0.2-4.3-0.5c-1.3-0.3-2.5-0.8-3.4-1.5
						c-1-0.6-1.7-1.5-2.3-2.5c-0.6-1-0.9-2.3-0.9-3.8c-0.1-1.5,0.3-2.8,1.1-3.8c0.8-1.1,1.8-2.1,3.1-3c1.3-0.9,2.7-1.7,4.4-2.5
						c1.6-0.8,3.3-1.6,5.1-2.4c1.8-0.9,3.6-1.7,5.4-2.6c1.8-0.9,3.5-1.9,5-3.2c1.5-1.2,2.7-2.7,3.6-4.3c0.9-1.6,1.4-3.6,1.4-5.9
						c0-2.8-0.6-5.2-1.7-7.3c-1.1-2.1-2.6-3.8-4.6-5.2c-1.9-1.4-4.2-2.4-6.8-3.1c-2.6-0.7-5.4-1-8.3-1c-3,0-5.9,0.3-8.9,1
						c-3,0.7-5.7,1.7-8.2,3.1V-68.5z"/>
				</g>
				<g>
					<path id="Merriweather-20" d="M412.6-82.7"/>
				</g>
				<g>
					<path id="Merriweather-70" d="M451.1-102.4v64.7l-6.9,3.8v3l12.9,3.8l2.2-1v-5.7c0.7,0.8,1.6,1.6,2.7,2.5
						c1.1,0.9,2.4,1.7,3.9,2.4c1.5,0.7,3.1,1.3,4.9,1.8c1.8,0.5,3.7,0.7,5.7,0.7c2.7,0,5.4-0.5,8-1.4c2.6-1,4.9-2.5,6.9-4.7
						c2-2.1,3.6-5,4.8-8.4c1.2-3.5,1.8-7.7,1.8-12.7c0-4.2-0.7-8.1-2-11.8c-1.3-3.7-3.2-6.9-5.7-9.6c-2.5-2.7-5.4-4.9-8.8-6.5
						c-3.4-1.6-7.2-2.4-11.3-2.4c-1.8,0-3.6,0.2-5.2,0.5c-1.6,0.3-3.2,0.7-4.8,1.1l0.3-13.1v-7.1l9.6-1v-4.2h-25.8v4.2L451.1-102.4z
						 M460.4-74.4c0.8-1.3,2-2.3,3.8-3.1c1.8-0.8,4.1-1.2,7-1.2c2.1,0,4.2,0.4,6.2,1.3c2.1,0.9,3.9,2.2,5.5,4.2s2.9,4.4,4,7.4
						c1,3,1.6,6.7,1.6,11c0.1,4.1-0.4,7.6-1.2,10.4c-0.9,2.8-2.1,5.1-3.6,6.9c-1.5,1.8-3.2,3-5.2,3.8c-1.9,0.8-3.9,1.2-6,1.2
						c-1.6,0-3-0.2-4.2-0.5c-1.2-0.4-2.4-0.8-3.4-1.3c-1-0.5-1.9-1.1-2.7-1.7c-0.8-0.6-1.4-1.1-1.9-1.6l0-19V-74.4z"/>
				</g>
				<g>
					<path id="Merriweather-65_1_" d="M507.7-55.5c0,4.2,0.7,8,2,11.5c1.3,3.5,3.2,6.6,5.5,9.1c2.4,2.6,5.2,4.6,8.5,6.1
						c3.3,1.5,7,2.3,11,2.4c2.9,0.1,5.4-0.4,7.8-1.2c2.3-0.9,4.3-2.2,5.9-4c1.6-1.8,2.9-3.9,3.8-6.4c0.9-2.5,1.5-5.4,1.6-8.6
						c0.1-2.1,0-3.8-0.1-5.3c-0.1-1.5-0.3-2.8-0.5-4H517c0-0.2,0-0.4,0-0.6c0-0.2,0-0.4,0.1-0.6c0.1-3.9,0.8-7.2,2-9.8
						c1.2-2.6,2.7-4.6,4.5-6.1c1.8-1.5,3.8-2.6,6-3.2c2.2-0.6,4.3-0.9,6.4-0.9c1.3,0,2.6,0.1,4,0.2c1.4,0.1,2.8,0.4,4.1,0.6
						c1.3,0.3,2.5,0.6,3.7,1c1.1,0.4,2,0.7,2.7,1.1l1.8-4.2c-0.9-0.8-2.2-1.6-3.7-2.3c-1.5-0.7-3.2-1.3-5-1.7
						c-1.8-0.5-3.7-0.8-5.6-1.1c-1.9-0.2-3.9-0.4-5.7-0.4c-3.9,0-7.4,0.7-10.5,2c-3,1.4-5.6,3.3-7.7,5.7c-2.1,2.5-3.7,5.4-4.8,8.9
						C508.3-63.7,507.7-59.8,507.7-55.5z M543.8-50.3c0.1,1.7,0.1,3.3,0.1,5c0,1.7-0.2,3.3-0.6,4.8c-0.4,1.5-0.9,2.9-1.6,4.2
						c-0.7,1.2-1.7,2.3-3,3c-0.8,0.6-1.8,1-2.9,1.2c-1.1,0.3-2.3,0.4-3.7,0.4c-1.8,0-3.6-0.3-5.3-1c-1.7-0.7-3.2-1.8-4.6-3.3
						c-1.3-1.5-2.5-3.4-3.4-5.8c-0.9-2.4-1.5-5.2-1.8-8.6H543.8z"/>
				</g>
				<g>
					<path id="Merriweather-72_2_" d="M564.2-78.5l7.9,1v39.8l-6.9,3.8v3l12.9,3.8l2.3-1v-7.5c0.6,0.9,1.6,1.9,2.8,2.9
						s2.7,1.9,4.2,2.8c1.6,0.8,3.2,1.5,4.9,2c1.7,0.5,3.3,0.8,4.8,0.8c1.1,0,2,0,2.9-0.1c0.9,0,1.5-0.1,1.8-0.2v-10
						c-0.5,0.2-1.1,0.4-1.6,0.6c-0.6,0.2-1.2,0.4-1.8,0.5c-0.7,0.1-1.4,0.3-2.3,0.4c-0.8,0.1-1.8,0.2-2.9,0.2c-2.6,0-4.8-0.3-6.6-1
						c-1.8-0.7-3.4-1.5-4.9-2.4v-38.2l13.9-1.2v-4.2h-31.3V-78.5z"/>
				</g>
				<g>
					<path id="Merriweather-20_1_" d="M603.8-82.7"/>
				</g>
				<g>
					<path id="Merriweather-59" d="M649-78.5l10,1.5v25.5l-23.4,39.1l-5.6,0.8v4.8h24v-4.8l-7.5-0.9L662-41.4l2.3-4.9l2.2,5
						l14.1,28.8l-8.3,0.9v4.8h22.5v-4.8l-6.3-1.3l-19.9-38.6V-77l10.5-1.5v-4.2H649V-78.5z"/>
				</g>
				<g>
					<path id="Merriweather-65_2_" d="M700.2-55.5c0,4.2,0.7,8,2,11.5c1.3,3.5,3.2,6.6,5.5,9.1c2.4,2.6,5.2,4.6,8.5,6.1
						c3.3,1.5,7,2.3,11,2.4c2.9,0.1,5.4-0.4,7.8-1.2c2.3-0.9,4.3-2.2,5.9-4c1.6-1.8,2.9-3.9,3.8-6.4c0.9-2.5,1.5-5.4,1.6-8.6
						c0.1-2.1,0-3.8-0.1-5.3c-0.1-1.5-0.3-2.8-0.5-4h-36.2c0-0.2,0-0.4,0-0.6c0-0.2,0-0.4,0.1-0.6c0.1-3.9,0.8-7.2,2-9.8
						c1.2-2.6,2.7-4.6,4.5-6.1c1.8-1.5,3.8-2.6,6-3.2c2.2-0.6,4.3-0.9,6.4-0.9c1.3,0,2.6,0.1,4,0.2c1.4,0.1,2.8,0.4,4.1,0.6
						c1.3,0.3,2.5,0.6,3.7,1c1.1,0.4,2,0.7,2.7,1.1l1.8-4.2c-0.9-0.8-2.2-1.6-3.7-2.3c-1.5-0.7-3.2-1.3-5-1.7
						c-1.8-0.5-3.7-0.8-5.6-1.1c-1.9-0.2-3.9-0.4-5.7-0.4c-3.9,0-7.4,0.7-10.5,2c-3,1.4-5.6,3.3-7.7,5.7c-2.1,2.5-3.7,5.4-4.8,8.9
						C700.8-63.7,700.2-59.8,700.2-55.5z M736.4-50.3c0.1,1.7,0.1,3.3,0.1,5c0,1.7-0.2,3.3-0.6,4.8c-0.4,1.5-0.9,2.9-1.6,4.2
						c-0.7,1.2-1.7,2.3-3,3c-0.8,0.6-1.8,1-2.9,1.2c-1.1,0.3-2.3,0.4-3.7,0.4c-1.8,0-3.6-0.3-5.3-1c-1.7-0.7-3.2-1.8-4.6-3.3
						c-1.3-1.5-2.5-3.4-3.4-5.8c-0.9-2.4-1.5-5.2-1.8-8.6H736.4z"/>
				</g>
				<g>
					<path id="Merriweather-61" d="M757-66.9c0.2,2.3,1,4.3,2.2,6c1.2,1.7,2.8,3.2,4.6,4.4c1.8,1.2,3.8,2.3,6.1,3.1
						c2.2,0.8,4.5,1.5,6.7,2c2.2,0.5,4.4,0.8,6.5,1c2.1,0.2,3.9,0.3,5.4,0.3v4.2c0,2.6-0.3,4.7-1,6.3c-0.7,1.6-1.6,2.9-2.8,3.8
						c-1.2,0.9-2.6,1.5-4.2,1.9c-1.6,0.3-3.4,0.5-5.3,0.5c-0.9,0-2-0.1-3.2-0.3c-1.2-0.2-2.4-0.4-3.6-0.8c-1.2-0.3-2.5-0.7-3.8-1.2
						c-1.3-0.5-2.5-1-3.6-1.5l-1.8,4.4c1.2,1,2.7,1.8,4.4,2.5c1.7,0.7,3.5,1.4,5.4,1.8c1.8,0.5,3.6,0.8,5.4,1.1
						c1.8,0.2,3.2,0.3,4.5,0.3c2.6,0,5-0.3,7.3-0.8c2.3-0.5,4.4-1.5,6.1-2.8c1.8-1.3,3.2-3.2,4.2-5.5c1-2.3,1.5-5.2,1.5-8.8
						l-0.1-33.6h6.2v-3.2c-1.1-0.6-2.5-1.1-4.2-1.5c-1.7-0.4-3.4-0.6-5-0.6c-0.6,0-1.2,0-1.9,0.1c-0.7,0.1-1.3,0.3-1.9,0.6
						c-0.6,0.3-1,0.8-1.4,1.5c-0.4,0.7-0.6,1.6-0.6,2.8v1.4c-0.8-0.9-1.6-1.8-2.7-2.5c-1-0.8-2.2-1.5-3.5-2.1
						c-1.3-0.6-2.8-1-4.5-1.4c-1.7-0.3-3.5-0.5-5.6-0.5c-2.5,0-4.8,0.5-6.9,1.4c-2.1,0.9-3.8,2.1-5.2,3.7c-1.4,1.6-2.4,3.3-3.1,5.4
						C757-71.4,756.8-69.2,757-66.9z M766.5-67.1c0-1.9,0.3-3.6,0.8-4.9c0.5-1.3,1.3-2.4,2.3-3.2c1-0.8,2.2-1.4,3.6-1.8
						c1.4-0.4,3.1-0.6,4.8-0.6c1,0,2,0.1,3,0.4c1,0.3,2,0.6,2.9,1c0.9,0.4,1.8,0.8,2.6,1.3c0.8,0.5,1.4,1,1.9,1.5c0,3.1,0,6.1,0,9.1
						c0,3,0,6.1,0.1,9.1c-1.4,0-2.9-0.1-4.5-0.2s-3.3-0.4-4.9-0.8c-1.6-0.4-3.2-0.8-4.7-1.4c-1.5-0.6-2.9-1.3-4.1-2.2
						c-1.2-0.9-2.1-1.9-2.8-3.2C766.8-64.2,766.5-65.6,766.5-67.1z"/>
				</g>
				<g>
					<path id="Merriweather-72_3_" d="M812.6-78.5l7.9,1v39.8l-6.9,3.8v3l12.9,3.8l2.3-1v-7.5c0.6,0.9,1.6,1.9,2.8,2.9
						s2.7,1.9,4.2,2.8c1.6,0.8,3.2,1.5,4.9,2c1.7,0.5,3.3,0.8,4.8,0.8c1.1,0,2,0,2.9-0.1c0.9,0,1.5-0.1,1.8-0.2v-10
						c-0.5,0.2-1.1,0.4-1.6,0.6c-0.6,0.2-1.2,0.4-1.8,0.5c-0.7,0.1-1.4,0.3-2.3,0.4c-0.8,0.1-1.8,0.2-2.9,0.2c-2.6,0-4.8-0.3-6.6-1
						c-1.8-0.7-3.4-1.5-4.9-2.4v-38.2l13.9-1.2v-4.2h-31.3V-78.5z"/>
				</g>
				<g>
					<path id="Merriweather-20_2_" d="M852.2-82.7"/>
				</g>
				<g>
					<path id="Merriweather-69" d="M894-15.5c-0.8,0-1.5,0.1-2.3,0.4c-0.8,0.3-1.4,0.7-2,1.2c-0.6,0.5-1,1.1-1.4,1.9
						s-0.5,1.6-0.5,2.5c0,1,0.2,2,0.7,2.8c0.4,0.9,1,1.6,1.7,2.3s1.5,1.1,2.3,1.5c0.9,0.4,1.7,0.5,2.6,0.5c2.1,0,3.7-0.6,4.7-1.8
						c1-1.2,1.5-2.6,1.5-4.3c0-1.1-0.2-2.1-0.6-2.9c-0.4-0.9-1-1.6-1.7-2.2c-0.7-0.6-1.5-1.1-2.3-1.4
						C895.8-15.3,894.9-15.5,894-15.5z M883.2-78.5l8.3,1v40l-6.7,3.6v3l13.5,3.8l2.2-1v-49.5l7.9-1v-4.2h-25.2V-78.5z"/>
				</g>
				<g>
					<path id="Merriweather-6e" d="M917.9-78.5l6.6,1v39.8l-6.9,3.8v3l13,3.8l2.2-1v-7c1.1,0.9,2.5,1.9,4,2.8c1.6,0.9,3.2,1.8,5,2.5
						c1.8,0.8,3.6,1.4,5.4,1.8c1.9,0.5,3.6,0.7,5.3,0.8c3,0.1,5.6-0.3,7.6-1.1c2.1-0.8,3.7-2.2,5-4.1c1.3-1.9,2.2-4.3,2.7-7.2
						c0.6-2.9,0.8-6.4,0.8-10.5v-27.6l7.9-1v-4.2h-24.6v4.2l7.4,1v25.8c0,3-0.1,5.6-0.4,7.8c-0.3,2.2-0.9,4.1-1.7,5.6
						c-0.9,1.5-2.1,2.5-3.6,3.2c-1.5,0.7-3.5,1-6,0.9c-2-0.1-4.2-0.5-6.4-1.3c-2.2-0.8-4.6-2-7.1-3.7v-38.2l7.3-1v-4.2h-23.4V-78.5z
						"/>
				</g>
				<g>
					<path id="Merriweather-20_3_" d="M979.3-82.7"/>
				</g>
				<g>
					<path id="Merriweather-50" d="M1009-78.5l9.2,1.5V-13l-8,0.8v5.3h12.8c0.8,0,1.8,0,3.1,0.1c1.3,0.1,2.7,0.2,4.3,0.2
						c1.6,0.1,3.2,0.2,4.9,0.2c1.7,0.1,3.4,0.1,5,0.1c3.8,0,7.2-0.4,10.3-1.1s5.8-1.9,8-3.7c2.2-1.7,4-4.1,5.2-7
						c1.2-2.9,1.9-6.5,1.9-10.9c0-2.6-0.4-5.1-1.1-7.4s-1.7-4.3-3-6.2s-2.8-3.5-4.6-4.9c-1.8-1.4-3.7-2.6-5.8-3.6
						c-2.1-0.9-4.3-1.6-6.6-2.1c-2.3-0.5-4.7-0.7-7-0.6c-2.5,0.1-4.5,0.1-6,0c-1.5,0-2.8-0.1-3.9-0.3V-77l13-1.5v-4.2H1009V-78.5z
						 M1027.8-48.1c1.9-0.3,3.6-0.4,5.1-0.5c1.6-0.1,3.1-0.1,4.6-0.1c1.6,0,3.1,0.1,4.7,0.3c1.6,0.2,3,0.6,4.4,1.1
						c1.4,0.5,2.7,1.3,3.9,2.2s2.2,2.1,3.1,3.6c0.9,1.5,1.5,3.2,2,5.2c0.5,2,0.7,4.4,0.7,7.2c0,6-1.7,10.4-5.1,13.3
						c-3.4,2.9-8.2,4.2-14.5,4c-1.6-0.1-3.1-0.2-4.6-0.3c-1.4-0.1-2.9-0.3-4.4-0.7V-48.1z"/>
				</g>
				<g>
					<path id="Merriweather-68" d="M1074.2-78.5l7.3,1v66.1l-8.3,1.8v4.2l15.4,2l2.3-1.1l-0.1-21.6l-0.1-8.5c1.4,1.2,3,2.2,4.7,3.1
						c1.7,0.9,3.4,1.7,5,2.3c1.7,0.6,3.3,1.1,5,1.5c1.6,0.3,3.1,0.5,4.4,0.5c3.3,0,6-0.5,8.2-1.5c2.1-1,3.8-2.6,5-4.7
						c1.2-2.1,2.1-4.8,2.5-8.1c0.5-3.3,0.7-7.2,0.6-11.7v-24.5l7.3-1v-4.2h-24.9v4.2l8.2,1v20.3c0,3.8-0.1,7.1-0.3,10
						s-0.7,5.3-1.4,7.2c-0.8,1.9-1.9,3.4-3.4,4.4c-1.5,1-3.6,1.5-6.3,1.5c-1.1,0-2.2-0.1-3.4-0.2c-1.2-0.1-2.4-0.3-3.6-0.7
						c-1.2-0.3-2.4-0.7-3.7-1.2s-2.4-1.2-3.5-2v-39.2l7.2-1v-4.2h-23.9V-78.5z"/>
				</g>
				<g>
					<path id="Merriweather-69_1_" d="M1152.9-15.5c-0.8,0-1.5,0.1-2.3,0.4c-0.8,0.3-1.4,0.7-2,1.2c-0.6,0.5-1,1.1-1.4,1.9
						s-0.5,1.6-0.5,2.5c0,1,0.2,2,0.7,2.8c0.4,0.9,1,1.6,1.7,2.3s1.5,1.1,2.3,1.5c0.9,0.4,1.7,0.5,2.6,0.5c2.1,0,3.7-0.6,4.7-1.8
						c1-1.2,1.5-2.6,1.5-4.3c0-1.1-0.2-2.1-0.6-2.9c-0.4-0.9-1-1.6-1.7-2.2c-0.7-0.6-1.5-1.1-2.3-1.4
						C1154.7-15.3,1153.8-15.5,1152.9-15.5z M1142.1-78.5l8.3,1v40l-6.7,3.6v3l13.5,3.8l2.2-1v-49.5l7.9-1v-4.2h-25.2V-78.5z"/>
				</g>
				<g>
					<path id="Merriweather-6c" d="M1175.3-78.5l8.3,1v66.1l-7.8,1.8v4.2l15.3,2l2-1.1v-73l8.7-1v-4.2h-26.4V-78.5z"/>
				</g>
				<g>
					<path id="Merriweather-61_1_" d="M1209.9-66.9c0.2,2.3,1,4.3,2.2,6c1.2,1.7,2.8,3.2,4.6,4.4s3.8,2.3,6.1,3.1s4.5,1.5,6.7,2
						c2.2,0.5,4.4,0.8,6.5,1c2.1,0.2,3.9,0.3,5.4,0.3v4.2c0,2.6-0.3,4.7-1,6.3c-0.7,1.6-1.6,2.9-2.8,3.8c-1.2,0.9-2.6,1.5-4.2,1.9
						c-1.6,0.3-3.4,0.5-5.3,0.5c-0.9,0-2-0.1-3.2-0.3c-1.2-0.2-2.4-0.4-3.6-0.8c-1.2-0.3-2.5-0.7-3.8-1.2s-2.5-1-3.6-1.5l-1.8,4.4
						c1.2,1,2.7,1.8,4.4,2.5c1.7,0.7,3.5,1.4,5.4,1.8c1.8,0.5,3.6,0.8,5.4,1.1c1.8,0.2,3.2,0.3,4.5,0.3c2.6,0,5-0.3,7.3-0.8
						c2.3-0.5,4.4-1.5,6.1-2.8c1.8-1.3,3.2-3.2,4.2-5.5c1-2.3,1.5-5.2,1.5-8.8l-0.1-33.6h6.2v-3.2c-1.1-0.6-2.5-1.1-4.2-1.5
						c-1.7-0.4-3.4-0.6-5-0.6c-0.6,0-1.2,0-1.9,0.1c-0.7,0.1-1.3,0.3-1.9,0.6c-0.6,0.3-1,0.8-1.4,1.5c-0.4,0.7-0.6,1.6-0.6,2.8v1.4
						c-0.8-0.9-1.6-1.8-2.7-2.5c-1-0.8-2.2-1.5-3.5-2.1c-1.3-0.6-2.8-1-4.5-1.4s-3.5-0.5-5.6-0.5c-2.5,0-4.8,0.5-6.9,1.4
						c-2.1,0.9-3.8,2.1-5.2,3.7c-1.4,1.6-2.4,3.3-3.1,5.4C1209.8-71.4,1209.6-69.2,1209.9-66.9z M1219.3-67.1c0-1.9,0.3-3.6,0.8-4.9
						s1.3-2.4,2.3-3.2c1-0.8,2.2-1.4,3.6-1.8c1.4-0.4,3.1-0.6,4.8-0.6c1,0,2,0.1,3,0.4s2,0.6,2.9,1c0.9,0.4,1.8,0.8,2.6,1.3
						c0.8,0.5,1.4,1,1.9,1.5c0,3.1,0,6.1,0,9.1c0,3,0,6.1,0.1,9.1c-1.4,0-2.9-0.1-4.5-0.2s-3.3-0.4-4.9-0.8
						c-1.6-0.4-3.2-0.8-4.7-1.4c-1.5-0.6-2.9-1.3-4.1-2.2c-1.2-0.9-2.1-1.9-2.8-3.2C1219.7-64.2,1219.3-65.6,1219.3-67.1z"/>
				</g>
				<g>
					<path id="Merriweather-64_1_" d="M1286.2-83.8c-2.7,0-5.4,0.5-8,1.6c-2.6,1.1-4.8,2.8-6.8,5c-2,2.3-3.6,5.1-4.8,8.6
						c-1.2,3.5-1.8,7.6-1.8,12.3c0,4.4,0.7,8.4,2.2,12c1.5,3.7,3.5,6.8,6,9.5c2.5,2.6,5.5,4.7,9,6.2s7.1,2.2,11.1,2.2
						c1.7,0,3.4-0.1,5-0.3c1.6-0.2,3-0.5,4.2-0.9v16.3l-10.4,1.8v4.2l17.6,2l2.2-1.1v-74.1h6.6v-3.7c-0.6-0.3-1.2-0.6-2.1-0.8
						c-0.8-0.3-1.7-0.5-2.6-0.7c-0.9-0.2-1.9-0.3-2.8-0.4c-1-0.1-1.9-0.2-2.7-0.2c-0.6,0-1.2,0-1.8,0.1c-0.6,0.1-1.2,0.3-1.7,0.6
						c-0.5,0.3-1,0.8-1.3,1.5c-0.3,0.7-0.5,1.6-0.5,2.8v1.2c-0.5-0.6-1.2-1.2-2.2-1.9c-0.9-0.7-2.1-1.3-3.5-1.9
						c-1.4-0.6-3-1.1-4.8-1.5S1288.4-83.8,1286.2-83.8z M1290-77.1c1,0,2,0.1,2.9,0.2s1.7,0.3,2.5,0.5c1.6,0.4,3,0.9,4.1,1.5
						c1.1,0.7,2.1,1.4,2.8,2.1v37.4c-0.4,0.4-0.8,0.9-1.3,1.3s-1.2,0.9-2,1.3c-0.8,0.4-1.8,0.7-3,1c-1.2,0.2-2.5,0.4-4.1,0.4
						c-1.2,0-2.5-0.2-3.9-0.5s-2.7-0.8-4-1.5c-1.3-0.7-2.5-1.6-3.7-2.8c-1.2-1.1-2.2-2.5-3.1-4.2c-0.9-1.6-1.6-3.6-2.2-5.8
						s-0.8-4.7-0.9-7.5c-0.1-4,0.3-7.5,1.2-10.4c0.9-2.9,2.1-5.3,3.5-7.2s3.2-3.3,5.1-4.2C1286-76.7,1288-77.1,1290-77.1z"/>
				</g>
				<g>
					<path id="Merriweather-65_3_" d="M1326.9-55.5c0,4.2,0.7,8,2,11.5c1.3,3.5,3.2,6.6,5.5,9.1c2.4,2.6,5.2,4.6,8.5,6.1
						c3.3,1.5,7,2.3,11,2.4c2.9,0.1,5.4-0.4,7.8-1.2c2.3-0.9,4.3-2.2,5.9-4c1.6-1.8,2.9-3.9,3.8-6.4s1.5-5.4,1.6-8.6
						c0.1-2.1,0-3.8-0.1-5.3c-0.1-1.5-0.3-2.8-0.5-4h-36.2c0-0.2,0-0.4,0-0.6c0-0.2,0-0.4,0.1-0.6c0.1-3.9,0.8-7.2,2-9.8
						c1.2-2.6,2.7-4.6,4.5-6.1c1.8-1.5,3.8-2.6,6-3.2c2.2-0.6,4.3-0.9,6.4-0.9c1.3,0,2.6,0.1,4,0.2c1.4,0.1,2.8,0.4,4.1,0.6
						c1.3,0.3,2.5,0.6,3.7,1c1.1,0.4,2,0.7,2.7,1.1l1.8-4.2c-0.9-0.8-2.2-1.6-3.7-2.3c-1.5-0.7-3.2-1.3-5-1.7
						c-1.8-0.5-3.7-0.8-5.6-1.1c-1.9-0.2-3.9-0.4-5.7-0.4c-3.9,0-7.4,0.7-10.5,2c-3,1.4-5.6,3.3-7.7,5.7s-3.7,5.4-4.8,8.9
						C1327.4-63.7,1326.9-59.8,1326.9-55.5z M1363-50.3c0.1,1.7,0.1,3.3,0.1,5c0,1.7-0.2,3.3-0.6,4.8c-0.4,1.5-0.9,2.9-1.6,4.2
						s-1.7,2.3-3,3c-0.8,0.6-1.8,1-2.9,1.2c-1.1,0.3-2.3,0.4-3.7,0.4c-1.8,0-3.6-0.3-5.3-1s-3.2-1.8-4.6-3.3
						c-1.3-1.5-2.5-3.4-3.4-5.8c-0.9-2.4-1.5-5.2-1.8-8.6H1363z"/>
				</g>
				<g>
					<path id="Merriweather-6c_1_" d="M1383.2-78.5l8.3,1v66.1l-7.8,1.8v4.2l15.3,2l2-1.1v-73l8.7-1v-4.2h-26.4V-78.5z"/>
				</g>
				<g>
					<path id="Merriweather-70_1_" d="M1424.8-102.4v64.7l-6.9,3.8v3l12.9,3.8l2.2-1v-5.7c0.7,0.8,1.6,1.6,2.7,2.5
						c1.1,0.9,2.4,1.7,3.9,2.4c1.5,0.7,3.1,1.3,4.9,1.8c1.8,0.5,3.7,0.7,5.7,0.7c2.7,0,5.4-0.5,8-1.4c2.6-1,4.9-2.5,6.9-4.7
						c2-2.1,3.6-5,4.8-8.4c1.2-3.5,1.8-7.7,1.8-12.7c0-4.2-0.7-8.1-2-11.8c-1.3-3.7-3.2-6.9-5.7-9.6c-2.5-2.7-5.4-4.9-8.8-6.5
						c-3.4-1.6-7.2-2.4-11.3-2.4c-1.8,0-3.6,0.2-5.2,0.5c-1.6,0.3-3.2,0.7-4.8,1.1l0.3-13.1v-7.1l9.6-1v-4.2H1418v4.2L1424.8-102.4z
						 M1434.2-74.4c0.8-1.3,2-2.3,3.8-3.1c1.8-0.8,4.1-1.2,7-1.2c2.1,0,4.2,0.4,6.2,1.3s3.9,2.2,5.5,4.2s2.9,4.4,4,7.4
						c1,3,1.6,6.7,1.6,11c0.1,4.1-0.4,7.6-1.2,10.4c-0.9,2.8-2.1,5.1-3.6,6.9c-1.5,1.8-3.2,3-5.2,3.8c-1.9,0.8-3.9,1.2-6,1.2
						c-1.6,0-3-0.2-4.2-0.5c-1.2-0.4-2.4-0.8-3.4-1.3s-1.9-1.1-2.7-1.7c-0.8-0.6-1.4-1.1-1.9-1.6l0-19V-74.4z"/>
				</g>
				<g>
					<path id="Merriweather-68_1_" d="M1482.7-78.5l7.3,1v66.1l-8.3,1.8v4.2l15.4,2l2.3-1.1l-0.1-21.6l-0.1-8.5
						c1.4,1.2,3,2.2,4.7,3.1c1.7,0.9,3.4,1.7,5,2.3c1.7,0.6,3.3,1.1,5,1.5c1.6,0.3,3.1,0.5,4.4,0.5c3.3,0,6-0.5,8.2-1.5
						c2.1-1,3.8-2.6,5-4.7c1.2-2.1,2.1-4.8,2.5-8.1c0.5-3.3,0.7-7.2,0.6-11.7v-24.5l7.3-1v-4.2h-24.9v4.2l8.2,1v20.3
						c0,3.8-0.1,7.1-0.3,10s-0.7,5.3-1.4,7.2c-0.8,1.9-1.9,3.4-3.4,4.4c-1.5,1-3.6,1.5-6.3,1.5c-1.1,0-2.2-0.1-3.4-0.2
						c-1.2-0.1-2.4-0.3-3.6-0.7c-1.2-0.3-2.4-0.7-3.7-1.2s-2.4-1.2-3.5-2v-39.2l7.2-1v-4.2h-23.9V-78.5z"/>
				</g>
				<g>
					<path id="Merriweather-69_2_" d="M1561.4-15.5c-0.8,0-1.5,0.1-2.3,0.4c-0.8,0.3-1.4,0.7-2,1.2c-0.6,0.5-1,1.1-1.4,1.9
						s-0.5,1.6-0.5,2.5c0,1,0.2,2,0.7,2.8c0.4,0.9,1,1.6,1.7,2.3s1.5,1.1,2.3,1.5c0.9,0.4,1.7,0.5,2.6,0.5c2.1,0,3.7-0.6,4.7-1.8
						c1-1.2,1.5-2.6,1.5-4.3c0-1.1-0.2-2.1-0.6-2.9c-0.4-0.9-1-1.6-1.7-2.2c-0.7-0.6-1.5-1.1-2.3-1.4
						C1563.2-15.3,1562.3-15.5,1561.4-15.5z M1550.6-78.5l8.3,1v40l-6.7,3.6v3l13.5,3.8l2.2-1v-49.5l7.9-1v-4.2h-25.2V-78.5z"/>
				</g>
				<g>
					<path id="Merriweather-61_2_" d="M1584.3-66.9c0.2,2.3,1,4.3,2.2,6c1.2,1.7,2.8,3.2,4.6,4.4s3.8,2.3,6.1,3.1s4.5,1.5,6.7,2
						c2.2,0.5,4.4,0.8,6.5,1c2.1,0.2,3.9,0.3,5.4,0.3v4.2c0,2.6-0.3,4.7-1,6.3c-0.7,1.6-1.6,2.9-2.8,3.8c-1.2,0.9-2.6,1.5-4.2,1.9
						c-1.6,0.3-3.4,0.5-5.3,0.5c-0.9,0-2-0.1-3.2-0.3c-1.2-0.2-2.4-0.4-3.6-0.8c-1.2-0.3-2.5-0.7-3.8-1.2s-2.5-1-3.6-1.5l-1.8,4.4
						c1.2,1,2.7,1.8,4.4,2.5c1.7,0.7,3.5,1.4,5.4,1.8c1.8,0.5,3.6,0.8,5.4,1.1c1.8,0.2,3.2,0.3,4.5,0.3c2.6,0,5-0.3,7.3-0.8
						c2.3-0.5,4.4-1.5,6.1-2.8c1.8-1.3,3.2-3.2,4.2-5.5c1-2.3,1.5-5.2,1.5-8.8l-0.1-33.6h6.2v-3.2c-1.1-0.6-2.5-1.1-4.2-1.5
						c-1.7-0.4-3.4-0.6-5-0.6c-0.6,0-1.2,0-1.9,0.1c-0.7,0.1-1.3,0.3-1.9,0.6c-0.6,0.3-1,0.8-1.4,1.5c-0.4,0.7-0.6,1.6-0.6,2.8v1.4
						c-0.8-0.9-1.6-1.8-2.7-2.5c-1-0.8-2.2-1.5-3.5-2.1c-1.3-0.6-2.8-1-4.5-1.4s-3.5-0.5-5.6-0.5c-2.5,0-4.8,0.5-6.9,1.4
						c-2.1,0.9-3.8,2.1-5.2,3.7c-1.4,1.6-2.4,3.3-3.1,5.4C1584.2-71.4,1584-69.2,1584.3-66.9z M1593.7-67.1c0-1.9,0.3-3.6,0.8-4.9
						s1.3-2.4,2.3-3.2c1-0.8,2.2-1.4,3.6-1.8c1.4-0.4,3.1-0.6,4.8-0.6c1,0,2,0.1,3,0.4s2,0.6,2.9,1c0.9,0.4,1.8,0.8,2.6,1.3
						c0.8,0.5,1.4,1,1.9,1.5c0,3.1,0,6.1,0,9.1c0,3,0,6.1,0.1,9.1c-1.4,0-2.9-0.1-4.5-0.2s-3.3-0.4-4.9-0.8
						c-1.6-0.4-3.2-0.8-4.7-1.4c-1.5-0.6-2.9-1.3-4.1-2.2c-1.2-0.9-2.1-1.9-2.8-3.2C1594.1-64.2,1593.7-65.6,1593.7-67.1z"/>
				</g>
			</g>
		</g>
	</g>
</g>
</svg>
