<?xml version="1.0" encoding="utf-8"?>
<!-- Generator: Adobe Illustrator 22.1.0, SVG Export Plug-In . SVG Version: 6.00 Build 0)  -->
<svg version="1.1" id="Layer_1" xmlns="http://www.w3.org/2000/svg" xmlns:xlink="http://www.w3.org/1999/xlink" x="0px" y="0px"
	 viewBox="0 0 534.8 534" style="enable-background:new 0 0 534.8 534;" xml:space="preserve">
<style type="text/css">
	.st0{opacity:0.55;clip-path:url(#SVGID_2_);fill:#6B6869;}
	.st1{opacity:0.78;clip-path:url(#SVGID_2_);fill:#EEE8D5;}
	.st2{clip-path:url(#SVGID_2_);fill:#657B83;}
	.st3{clip-path:url(#SVGID_2_);}
	.st4{clip-path:url(#SVGID_4_);fill:none;stroke:#FDF6E3;stroke-linejoin:round;stroke-miterlimit:10;}
	.st5{clip-path:url(#SVGID_6_);fill:none;stroke:#FDF6E3;stroke-linejoin:round;stroke-miterlimit:10;}
	.st6{clip-path:url(#SVGID_8_);fill:none;stroke:#FDF6E3;stroke-linejoin:round;stroke-miterlimit:10;}
	.st7{clip-path:url(#SVGID_10_);fill:none;stroke:#FDF6E3;stroke-linejoin:round;stroke-miterlimit:10;}
	.st8{clip-path:url(#SVGID_12_);fill:none;stroke:#FDF6E3;stroke-linejoin:round;stroke-miterlimit:10;}
	.st9{clip-path:url(#SVGID_14_);fill:#859900;}
	.st10{clip-path:url(#SVGID_16_);fill:#D33682;}
	.st11{clip-path:url(#SVGID_18_);fill:#859900;}
	.st12{clip-path:url(#SVGID_20_);fill:#D33682;}
	.st13{clip-path:url(#SVGID_24_);fill:#859900;}
	.st14{clip-path:url(#SVGID_26_);fill:#D33682;}
	.st15{clip-path:url(#SVGID_30_);fill:#859900;}
	.st16{clip-path:url(#SVGID_32_);fill:#D33682;}
	.st17{clip-path:url(#SVGID_2_);fill:none;stroke:#EEE8D5;stroke-width:0.8;stroke-linecap:square;stroke-miterlimit:10;}
	.st18{fill:#231F20;}
	.st19{fill:none;}
	.st20{fill:#FFFFFF;}
	.st21{font-family:'MyriadPro-Regular';}
	.st22{font-size:18px;}
	.st23{fill:#FFFFFF;stroke:#000000;stroke-miterlimit:10;}
	.st24{fill:#859900;}
	.st25{fill:#D33682;}
	.st26{font-size:12px;}
	.st27{fill:#606060;}
</style>
<g>
	<defs>
		<polygon id="SVGID_1_" points="-32.3,664 540.7,664 535.2,5.4 -40.9,5.4 		"/>
	</defs>
	<clipPath id="SVGID_2_">
		<use xlink:href="#SVGID_1_"  style="overflow:visible;"/>
	</clipPath>
	<rect x="43.7" y="112.8" class="st0" width="118" height="290.5"/>
	<rect x="259.9" y="112.8" class="st0" width="108.7" height="289.6"/>
	<rect x="43.8" y="112.8" class="st1" width="446.4" height="217.4"/>
	<g class="st3">
		<defs>
			<rect id="SVGID_3_" x="43.8" y="112.8" width="446.4" height="217.4"/>
		</defs>
		<clipPath id="SVGID_4_">
			<use xlink:href="#SVGID_3_"  style="overflow:visible;"/>
		</clipPath>
		<line class="st4" x1="43.8" y1="330.2" x2="490.2" y2="330.2"/>
	</g>
	<g class="st3">
		<defs>
			<rect id="SVGID_5_" x="43.8" y="112.8" width="446.4" height="217.4"/>
		</defs>
		<clipPath id="SVGID_6_">
			<use xlink:href="#SVGID_5_"  style="overflow:visible;"/>
		</clipPath>
		<line class="st5" x1="43.8" y1="275.9" x2="490.2" y2="275.9"/>
	</g>
	<g class="st3">
		<defs>
			<rect id="SVGID_7_" x="43.8" y="112.8" width="446.4" height="217.4"/>
		</defs>
		<clipPath id="SVGID_8_">
			<use xlink:href="#SVGID_7_"  style="overflow:visible;"/>
		</clipPath>
		<line class="st6" x1="43.8" y1="221.5" x2="490.2" y2="221.5"/>
	</g>
	<g class="st3">
		<defs>
			<rect id="SVGID_9_" x="43.8" y="112.8" width="446.4" height="217.4"/>
		</defs>
		<clipPath id="SVGID_10_">
			<use xlink:href="#SVGID_9_"  style="overflow:visible;"/>
		</clipPath>
		<line class="st7" x1="43.8" y1="167.1" x2="490.2" y2="167.1"/>
	</g>
	<g class="st3">
		<defs>
			<rect id="SVGID_11_" x="43.8" y="112.8" width="446.4" height="217.4"/>
		</defs>
		<clipPath id="SVGID_12_">
			<use xlink:href="#SVGID_11_"  style="overflow:visible;"/>
		</clipPath>
		<line class="st8" x1="43.8" y1="112.8" x2="490.2" y2="112.8"/>
	</g>
	<g class="st3">
		<defs>
			<rect id="SVGID_13_" x="43.8" y="112.8" width="446.4" height="217.4"/>
		</defs>
		<clipPath id="SVGID_14_">
			<use xlink:href="#SVGID_13_"  style="overflow:visible;"/>
		</clipPath>
		<rect x="175.4" y="141.9" class="st9" width="20.3" height="186.9"/>
	</g>
	<g class="st3">
		<defs>
			<rect id="SVGID_15_" x="43.8" y="112.8" width="446.4" height="217.4"/>
		</defs>
		<clipPath id="SVGID_16_">
			<use xlink:href="#SVGID_15_"  style="overflow:visible;"/>
		</clipPath>
		<rect x="216" y="243.8" class="st10" width="20.3" height="84.9"/>
	</g>
	<g class="st3">
		<defs>
			<rect id="SVGID_17_" x="43.8" y="112.8" width="446.4" height="217.4"/>
		</defs>
		<clipPath id="SVGID_18_">
			<use xlink:href="#SVGID_17_"  style="overflow:visible;"/>
		</clipPath>
		<rect x="391.6" y="184.3" class="st11" width="20.3" height="146.7"/>
	</g>
	<g class="st3">
		<defs>
			<rect id="SVGID_19_" x="43.8" y="112.8" width="446.4" height="217.4"/>
		</defs>
		<clipPath id="SVGID_20_">
			<use xlink:href="#SVGID_19_"  style="overflow:visible;"/>
		</clipPath>
		<rect x="432.2" y="212.3" class="st12" width="20.3" height="118.7"/>
	</g>
	<g class="st3">
		<defs>
			<rect id="SVGID_21_" x="43.8" y="112.8" width="446.4" height="217.4"/>
		</defs>
		<clipPath id="SVGID_22_">
			<use xlink:href="#SVGID_21_"  style="overflow:visible;"/>
		</clipPath>
	</g>
	<g class="st3">
		<defs>
			<rect id="SVGID_23_" x="43.8" y="112.8" width="446.4" height="217.4"/>
		</defs>
		<clipPath id="SVGID_24_">
			<use xlink:href="#SVGID_23_"  style="overflow:visible;"/>
		</clipPath>
		<rect x="283.8" y="185.4" class="st13" width="20.3" height="144.3"/>
	</g>
	<g class="st3">
		<defs>
			<rect id="SVGID_25_" x="43.8" y="112.8" width="446.4" height="217.4"/>
		</defs>
		<clipPath id="SVGID_26_">
			<use xlink:href="#SVGID_25_"  style="overflow:visible;"/>
		</clipPath>
		<rect x="323.7" y="210.8" class="st14" width="20.3" height="118.8"/>
	</g>
	<g class="st3">
		<defs>
			<rect id="SVGID_27_" x="43.8" y="112.8" width="446.4" height="217.4"/>
		</defs>
		<clipPath id="SVGID_28_">
			<use xlink:href="#SVGID_27_"  style="overflow:visible;"/>
		</clipPath>
	</g>
	<g class="st3">
		<defs>
			<rect id="SVGID_29_" x="43.8" y="112.8" width="446.4" height="217.4"/>
		</defs>
		<clipPath id="SVGID_30_">
			<use xlink:href="#SVGID_29_"  style="overflow:visible;"/>
		</clipPath>
		<rect x="76.4" y="146.1" class="st15" width="20.3" height="182.6"/>
	</g>
	<g class="st3">
		<defs>
			<rect id="SVGID_31_" x="43.8" y="112.8" width="446.4" height="217.4"/>
		</defs>
		<clipPath id="SVGID_32_">
			<use xlink:href="#SVGID_31_"  style="overflow:visible;"/>
		</clipPath>
		<rect x="117" y="266.1" class="st16" width="20.3" height="62.6"/>
	</g>
	<g class="st3">
		<defs>
			<rect id="SVGID_33_" x="43.8" y="112.8" width="446.4" height="217.4"/>
		</defs>
		<clipPath id="SVGID_34_">
			<use xlink:href="#SVGID_33_"  style="overflow:visible;"/>
		</clipPath>
	</g>
	<line class="st17" x1="43.8" y1="330.2" x2="43.8" y2="112.8"/>
	<line class="st17" x1="490.2" y1="330.2" x2="490.2" y2="112.8"/>
	<line class="st17" x1="43.8" y1="330.2" x2="490.2" y2="330.2"/>
	<line class="st17" x1="43.8" y1="112.8" x2="490.2" y2="112.8"/>
	<path class="st3" d="M94,35.5l-1.6-4.8l-0.9-2.9l-2.6,7.7H94 M84.4,40.1l1.4-0.3l5.1-14h1.6l4.9,14l1.6,0.3v0.8h-5.2v-0.8l1.6-0.3
		l-1-3.1h-5.9l-1.1,3.1l1.6,0.3v0.8h-4.7V40.1"/>
	<path class="st3" d="M100.1,40.1l1.6-0.2v-7.9l-1.4-0.8v-0.6l2.6-0.8l0.5,0.2v1.5c0.1-0.2,0.3-0.4,0.6-0.6c0.2-0.2,0.5-0.4,0.8-0.5
		c0.3-0.2,0.6-0.3,1-0.4c0.3-0.1,0.7-0.2,1-0.2c0.2,0,0.4,0,0.6,0c0.2,0,0.3,0,0.4,0v2c-0.1,0-0.2-0.1-0.3-0.1
		c-0.1,0-0.2-0.1-0.4-0.1c-0.1,0-0.3,0-0.5-0.1c-0.2,0-0.4,0-0.6,0c-0.5,0-1,0.1-1.3,0.2c-0.4,0.1-0.7,0.3-1,0.5v7.6l2.8,0.2v0.8
		h-6.3V40.1"/>
	<path class="st3" d="M109.1,40.1l1.6-0.2v-7.9l-1.4-0.8v-0.6l2.6-0.8l0.5,0.2v1.5c0.1-0.2,0.3-0.4,0.6-0.6c0.2-0.2,0.5-0.4,0.8-0.5
		c0.3-0.2,0.6-0.3,1-0.4c0.3-0.1,0.7-0.2,1-0.2c0.2,0,0.4,0,0.6,0c0.2,0,0.3,0,0.4,0v2c-0.1,0-0.2-0.1-0.3-0.1
		c-0.1,0-0.2-0.1-0.4-0.1c-0.1,0-0.3,0-0.5-0.1c-0.2,0-0.4,0-0.6,0c-0.5,0-1,0.1-1.3,0.2c-0.4,0.1-0.7,0.3-1,0.5v7.6l2.8,0.2v0.8
		h-6.3V40.1"/>
	<path class="st3" d="M125.2,34.4c0-0.3,0-0.7,0-1c0-0.3-0.1-0.6-0.1-0.9c-0.1-0.3-0.2-0.6-0.3-0.8c-0.2-0.2-0.3-0.5-0.6-0.6
		c-0.2-0.1-0.4-0.2-0.6-0.2c-0.2,0-0.5-0.1-0.7-0.1c-0.4,0-0.7,0.1-1.1,0.2c-0.3,0.1-0.6,0.4-0.9,0.7c-0.3,0.3-0.5,0.7-0.7,1.2
		c-0.2,0.5-0.3,1-0.3,1.7H125.2 M118,35.5c0-0.8,0.1-1.6,0.4-2.3s0.6-1.3,1.1-1.8c0.5-0.5,1-0.9,1.7-1.2c0.7-0.3,1.4-0.4,2.2-0.5
		c0.6,0,1.1,0.1,1.5,0.3c0.5,0.2,0.9,0.4,1.2,0.8c0.3,0.4,0.6,0.8,0.8,1.3c0.2,0.5,0.3,1.1,0.3,1.7c0,0.4,0,0.8,0,1.1
		c0,0.3-0.1,0.6-0.1,0.8h-7.2c0,0,0,0.1,0,0.1c0,0,0,0.1,0,0.1c0,0.8,0.2,1.4,0.4,2c0.2,0.5,0.5,0.9,0.9,1.2
		c0.4,0.3,0.7,0.5,1.2,0.6s0.9,0.2,1.3,0.2c0.2,0,0.5,0,0.8,0c0.3,0,0.5-0.1,0.8-0.1c0.3,0,0.5-0.1,0.7-0.2c0.2-0.1,0.4-0.1,0.5-0.2
		l0.4,0.8c-0.2,0.2-0.4,0.3-0.7,0.5c-0.3,0.1-0.6,0.3-1,0.3c-0.4,0.1-0.7,0.1-1.1,0.2c-0.4,0-0.8,0.1-1.1,0.1
		c-0.8,0-1.5-0.1-2.1-0.4c-0.6-0.3-1.1-0.6-1.5-1.1c-0.4-0.5-0.7-1.1-1-1.8C118.1,37.1,118,36.4,118,35.5"/>
	<path class="st3" d="M129.9,38.1h0.9l0.4,1.2c0.2,0.1,0.3,0.3,0.5,0.4c0.2,0.1,0.3,0.2,0.5,0.2c0.2,0.1,0.3,0.1,0.5,0.2
		c0.2,0,0.4,0.1,0.6,0.1c0.4,0,0.7,0,1-0.1c0.3-0.1,0.6-0.2,0.8-0.3s0.4-0.3,0.5-0.6c0.1-0.2,0.2-0.5,0.2-0.9c0-0.3-0.1-0.5-0.2-0.7
		c-0.2-0.2-0.4-0.4-0.6-0.6s-0.6-0.3-0.9-0.5c-0.3-0.1-0.7-0.3-1-0.5c-0.4-0.2-0.8-0.4-1.1-0.6s-0.7-0.5-1-0.7s-0.5-0.6-0.7-0.9
		c-0.2-0.3-0.3-0.7-0.2-1.2c0-0.3,0.1-0.6,0.2-0.9c0.1-0.3,0.3-0.5,0.5-0.7c0.2-0.2,0.4-0.4,0.7-0.6c0.2-0.2,0.5-0.3,0.8-0.4
		c0.3-0.1,0.6-0.2,0.9-0.2c0.3,0,0.6-0.1,0.9-0.1c0.3,0,0.6,0,0.9,0.1c0.3,0,0.6,0.1,0.8,0.1c0.3,0.1,0.5,0.2,0.7,0.2
		c0.2,0.1,0.4,0.2,0.5,0.2v2.1h-0.8l-0.4-1.1c-0.1-0.1-0.2-0.2-0.3-0.3c-0.1-0.1-0.2-0.2-0.4-0.2c-0.1-0.1-0.3-0.1-0.5-0.2
		c-0.2,0-0.4-0.1-0.6-0.1c-0.3,0-0.6,0-0.9,0.1c-0.3,0.1-0.5,0.2-0.7,0.3s-0.3,0.3-0.5,0.5c-0.1,0.2-0.2,0.5-0.2,0.7
		c0,0.3,0.1,0.6,0.2,0.8c0.2,0.2,0.4,0.4,0.6,0.6c0.2,0.2,0.5,0.3,0.9,0.5c0.3,0.2,0.7,0.3,1,0.5c0.4,0.2,0.7,0.4,1.1,0.5
		c0.4,0.2,0.7,0.4,1,0.6c0.3,0.2,0.5,0.5,0.7,0.9c0.2,0.3,0.3,0.7,0.3,1.2c0,0.6-0.1,1-0.3,1.5c-0.2,0.4-0.5,0.8-0.9,1
		c-0.4,0.3-0.8,0.5-1.4,0.6c-0.5,0.1-1.1,0.2-1.7,0.2c-0.6,0-1.2-0.1-1.8-0.2c-0.6-0.1-1.1-0.3-1.6-0.6V38.1"/>
	<path class="st3" d="M141,38.4c0-1.2,0-2.4,0-3.6s0-2.4,0-3.6h-1.5v-0.7c0.3-0.1,0.5-0.1,0.7-0.2s0.4-0.1,0.5-0.1s0.2-0.1,0.3-0.2
		c0.1-0.1,0.2-0.2,0.2-0.4c0-0.1,0.1-0.3,0.2-0.5c0.1-0.2,0.1-0.4,0.2-0.7c0.1-0.2,0.1-0.4,0.2-0.6c0-0.2,0.1-0.3,0.1-0.4h1V30h3.3
		v1.2h-3.3v4.9c0,0.8,0,1.4,0,1.9c0,0.5,0.1,0.8,0.2,1.1c0.1,0.3,0.2,0.5,0.3,0.5c0.1,0.1,0.3,0.1,0.6,0.1c0.2,0,0.3,0,0.5,0
		c0.2,0,0.4-0.1,0.6-0.1c0.2,0,0.4-0.1,0.5-0.2c0.2,0,0.3-0.1,0.3-0.2l0.3,0.9c-0.2,0.2-0.4,0.3-0.6,0.4c-0.2,0.1-0.5,0.2-0.8,0.3
		c-0.3,0.1-0.6,0.1-0.9,0.2c-0.3,0-0.6,0.1-0.8,0.1c-0.7,0-1.3-0.2-1.7-0.6C141.2,40.1,141,39.4,141,38.4"/>
	<path class="st3" d="M156.6,33.3c0.1,0,0.2,0,0.3,0s0.3,0,0.5,0c0.2,0,0.3,0,0.5,0s0.3,0,0.4,0c0.5,0,1-0.1,1.4-0.2
		c0.4-0.1,0.8-0.3,1.1-0.6c0.3-0.3,0.5-0.6,0.7-1.1c0.2-0.4,0.2-1,0.2-1.6c0-0.5-0.1-0.9-0.2-1.3c-0.1-0.4-0.3-0.8-0.6-1
		c-0.3-0.3-0.6-0.5-1-0.7c-0.4-0.1-1-0.2-1.6-0.2c-0.3,0-0.6,0-0.9,0c-0.3,0-0.6,0.1-0.8,0.1V33.3 M152.8,40.1l1.8-0.3V27l-1.6-0.2
		v-1.1h2.6c0.3,0,0.7,0,1.2-0.1c0.5,0,1.1-0.1,1.7-0.1c0.7,0,1.4,0.1,2.1,0.2c0.6,0.1,1.2,0.3,1.6,0.7c0.4,0.3,0.8,0.7,1.1,1.2
		c0.2,0.5,0.4,1.2,0.4,2c0,0.5-0.1,1-0.2,1.4c-0.2,0.4-0.4,0.9-0.7,1.2c-0.3,0.4-0.6,0.7-1,1c-0.4,0.3-0.8,0.5-1.3,0.7
		c0,0,0,0,0.1,0c0,0,0.1,0,0.1,0c0.3,0.2,0.6,0.4,0.9,0.7c0.3,0.3,0.6,0.7,0.8,1.1c0.3,0.4,0.5,0.8,0.8,1.3c0.2,0.4,0.5,0.9,0.7,1.2
		c0.2,0.4,0.4,0.7,0.6,1c0.2,0.3,0.4,0.4,0.5,0.5l1.1,0.3v0.8h-2.8c-0.1,0-0.3-0.1-0.4-0.3c-0.2-0.2-0.3-0.5-0.5-0.8
		s-0.3-0.7-0.5-1.1c-0.2-0.4-0.4-0.8-0.6-1.2c-0.2-0.4-0.4-0.8-0.7-1.2c-0.2-0.4-0.5-0.7-0.7-1c-0.3-0.3-0.5-0.5-0.8-0.7
		c-0.3-0.2-0.5-0.2-0.8-0.2c-0.2,0-0.5,0-0.7,0c-0.3,0-0.5,0-0.8,0v5.4l2,0.3v0.8h-5.8V40.1"/>
	<path class="st3" d="M174,34.4c0-0.3,0-0.7,0-1c0-0.3-0.1-0.6-0.1-0.9c-0.1-0.3-0.2-0.6-0.3-0.8c-0.2-0.2-0.3-0.5-0.6-0.6
		c-0.2-0.1-0.4-0.2-0.6-0.2c-0.2,0-0.5-0.1-0.7-0.1c-0.4,0-0.7,0.1-1.1,0.2c-0.3,0.1-0.6,0.4-0.9,0.7c-0.3,0.3-0.5,0.7-0.7,1.2
		c-0.2,0.5-0.3,1-0.3,1.7H174 M166.8,35.5c0-0.8,0.1-1.6,0.4-2.3s0.6-1.3,1.1-1.8c0.5-0.5,1-0.9,1.7-1.2c0.7-0.3,1.4-0.4,2.2-0.5
		c0.6,0,1.1,0.1,1.5,0.3c0.5,0.2,0.9,0.4,1.2,0.8c0.3,0.4,0.6,0.8,0.8,1.3c0.2,0.5,0.3,1.1,0.3,1.7c0,0.4,0,0.8,0,1.1
		c0,0.3-0.1,0.6-0.1,0.8h-7.2c0,0,0,0.1,0,0.1c0,0,0,0.1,0,0.1c0,0.8,0.2,1.4,0.4,2c0.2,0.5,0.5,0.9,0.9,1.2
		c0.4,0.3,0.7,0.5,1.2,0.6s0.9,0.2,1.3,0.2c0.2,0,0.5,0,0.8,0c0.3,0,0.5-0.1,0.8-0.1c0.3,0,0.5-0.1,0.7-0.2c0.2-0.1,0.4-0.1,0.5-0.2
		l0.4,0.8c-0.2,0.2-0.4,0.3-0.7,0.5c-0.3,0.1-0.6,0.3-1,0.3c-0.4,0.1-0.7,0.1-1.1,0.2c-0.4,0-0.8,0.1-1.1,0.1
		c-0.8,0-1.5-0.1-2.1-0.4c-0.6-0.3-1.1-0.6-1.5-1.1c-0.4-0.5-0.7-1.1-1-1.8C166.9,37.1,166.8,36.4,166.8,35.5"/>
	<path class="st3" d="M178,35.7c0-0.9,0.1-1.7,0.4-2.4s0.7-1.3,1.1-1.9c0.5-0.5,1-0.9,1.7-1.2s1.3-0.4,2.1-0.5c0.3,0,0.6,0,0.8,0
		c0.3,0,0.5,0,0.8,0.1c0.2,0,0.5,0.1,0.7,0.2c0.2,0.1,0.4,0.1,0.5,0.2v2.4h-0.9l-0.5-1.2c-0.1-0.1-0.2-0.1-0.4-0.2s-0.3-0.1-0.4-0.2
		c-0.1,0-0.3-0.1-0.4-0.1c-0.2,0-0.3,0-0.4,0c-0.4,0-0.9,0.1-1.3,0.2c-0.4,0.2-0.8,0.4-1.1,0.7c-0.3,0.3-0.6,0.7-0.7,1.2
		c-0.2,0.5-0.3,1.1-0.3,1.7c0,0.9,0.1,1.7,0.3,2.3c0.2,0.6,0.5,1.2,0.8,1.6c0.3,0.4,0.7,0.7,1.2,0.9c0.4,0.2,0.8,0.3,1.2,0.3
		c0.2,0,0.5,0,0.8,0c0.3,0,0.5-0.1,0.8-0.1c0.3,0,0.5-0.1,0.7-0.2c0.2-0.1,0.4-0.1,0.5-0.2l0.3,0.9c-0.2,0.2-0.4,0.3-0.7,0.5
		s-0.6,0.2-0.9,0.3c-0.3,0.1-0.7,0.1-1.1,0.2s-0.7,0.1-1.1,0.1c-0.8,0-1.4-0.1-2-0.4c-0.6-0.3-1.1-0.6-1.5-1.1
		c-0.4-0.5-0.7-1.1-0.9-1.7C178.1,37.2,178,36.5,178,35.7"/>
	<path class="st3" d="M193.2,40.1c0.6,0,1-0.1,1.4-0.3c0.4-0.2,0.7-0.5,0.9-0.9c0.2-0.4,0.4-0.9,0.5-1.5c0.1-0.6,0.2-1.2,0.2-2
		c0-0.7-0.1-1.3-0.2-1.8s-0.3-1.1-0.5-1.5c-0.2-0.4-0.6-0.8-0.9-1c-0.4-0.2-0.8-0.4-1.3-0.4c-0.6,0-1,0.1-1.4,0.3
		c-0.4,0.2-0.7,0.5-1,0.9c-0.2,0.4-0.4,0.9-0.5,1.4c-0.1,0.6-0.2,1.2-0.2,1.9c0,0.6,0.1,1.3,0.2,1.8c0.1,0.6,0.3,1.1,0.6,1.6
		c0.2,0.5,0.6,0.8,0.9,1.1C192.3,39.9,192.7,40.1,193.2,40.1 M188.2,35.2c0-0.9,0.2-1.7,0.5-2.3c0.3-0.7,0.7-1.3,1.1-1.7
		c0.5-0.5,1-0.8,1.6-1.1c0.6-0.2,1.3-0.4,2-0.4c0.8,0,1.5,0.2,2.2,0.4c0.6,0.3,1.1,0.7,1.5,1.2c0.4,0.5,0.7,1.1,0.9,1.8
		c0.2,0.7,0.3,1.4,0.3,2.2c0,0.9-0.2,1.7-0.4,2.4c-0.3,0.7-0.6,1.3-1.1,1.8c-0.5,0.5-1,0.9-1.6,1.2c-0.6,0.3-1.3,0.4-2,0.4
		c-0.9,0-1.7-0.2-2.3-0.5c-0.6-0.3-1.1-0.7-1.5-1.3c-0.4-0.5-0.7-1.2-0.9-1.9C188.3,36.8,188.2,36,188.2,35.2"/>
	<path class="st3" d="M200.3,40.1l1.6-0.2v-7.9l-1.4-0.8v-0.6l2.6-0.8l0.5,0.2v1.5c0.1-0.2,0.3-0.4,0.6-0.6c0.2-0.2,0.5-0.4,0.8-0.5
		c0.3-0.2,0.6-0.3,1-0.4c0.3-0.1,0.7-0.2,1-0.2c0.2,0,0.4,0,0.6,0c0.2,0,0.3,0,0.4,0v2c-0.1,0-0.2-0.1-0.3-0.1
		c-0.1,0-0.2-0.1-0.4-0.1c-0.1,0-0.3,0-0.5-0.1c-0.2,0-0.4,0-0.6,0c-0.5,0-1,0.1-1.3,0.2c-0.4,0.1-0.7,0.3-1,0.5v7.6l2.8,0.2v0.8
		h-6.3V40.1"/>
	<path class="st3" d="M214.3,39.8c0.2,0,0.4,0,0.6,0c0.2,0,0.4-0.1,0.5-0.1c0.3-0.1,0.6-0.2,0.8-0.3c0.2-0.1,0.4-0.3,0.6-0.4v-7.5
		c-0.1-0.1-0.2-0.2-0.3-0.3c-0.1-0.1-0.3-0.2-0.4-0.2c-0.2-0.1-0.4-0.1-0.6-0.2c-0.2,0-0.5-0.1-0.8-0.1c-0.2,0-0.5,0-0.8,0.1
		c-0.3,0.1-0.5,0.2-0.8,0.3c-0.3,0.1-0.5,0.3-0.7,0.5c-0.2,0.2-0.4,0.5-0.6,0.8c-0.2,0.3-0.3,0.7-0.4,1.2c-0.1,0.4-0.2,0.9-0.2,1.5
		c0,0.8,0.1,1.5,0.2,2.1c0.2,0.6,0.4,1.1,0.7,1.5s0.6,0.7,1,0.8C213.5,39.7,213.9,39.8,214.3,39.8 M213.5,41.1
		c-0.6,0-1.1-0.1-1.6-0.3c-0.5-0.2-1-0.5-1.4-1c-0.4-0.4-0.7-1-0.9-1.7c-0.2-0.7-0.4-1.5-0.4-2.5c0-0.9,0.1-1.7,0.4-2.4
		c0.3-0.7,0.7-1.4,1.2-1.9c0.5-0.5,1.1-0.9,1.8-1.2c0.7-0.3,1.4-0.4,2.2-0.4c0.3,0,0.7,0,1,0.1c0.3,0,0.6,0.1,0.8,0.2v-3.3l-2.1-0.3
		v-0.9l3.5-0.4l0.4,0.2v14.8h1.3v0.7c-0.1,0.1-0.3,0.1-0.4,0.2s-0.3,0.1-0.5,0.1c-0.2,0-0.4,0.1-0.6,0.1c-0.2,0-0.4,0-0.5,0
		c-0.1,0-0.2,0-0.4,0c-0.1,0-0.2-0.1-0.3-0.1c-0.1-0.1-0.2-0.2-0.3-0.3c-0.1-0.1-0.1-0.3-0.1-0.6V40c-0.1,0.1-0.3,0.2-0.4,0.4
		c-0.2,0.1-0.4,0.3-0.7,0.4s-0.6,0.2-1,0.3C214.3,41.1,213.9,41.1,213.5,41.1"/>
	<path class="st3" d="M226.8,40.1l2-0.2v-8.6h-2.2v-0.8l2.2-0.6v-0.8c0-0.5,0.1-0.9,0.2-1.4c0.1-0.4,0.3-0.8,0.5-1.2
		c0.2-0.4,0.4-0.7,0.7-0.9c0.3-0.3,0.5-0.5,0.8-0.7c0.3-0.2,0.6-0.3,0.9-0.4c0.3-0.1,0.6-0.2,0.9-0.2c0.4,0,0.8,0,1,0.1
		c0.2,0,0.3,0.1,0.4,0.1v1.7c-0.1,0-0.3-0.1-0.6-0.2c-0.3-0.1-0.7-0.1-1.2-0.1c-0.3,0-0.5,0-0.7,0.1c-0.2,0-0.4,0.2-0.6,0.3
		c-0.2,0.2-0.3,0.4-0.3,0.7c-0.1,0.3-0.1,0.8-0.1,1.3V30h2.9v1.3h-2.9v8.6l2.2,0.2v0.8h-6.1V40.1"/>
	<path class="st3" d="M240,40.1c0.6,0,1-0.1,1.4-0.3c0.4-0.2,0.7-0.5,0.9-0.9c0.2-0.4,0.4-0.9,0.5-1.5c0.1-0.6,0.2-1.2,0.2-2
		c0-0.7-0.1-1.3-0.2-1.8c-0.1-0.6-0.3-1.1-0.5-1.5c-0.2-0.4-0.6-0.8-0.9-1c-0.4-0.2-0.8-0.4-1.3-0.4c-0.6,0-1,0.1-1.4,0.3
		c-0.4,0.2-0.7,0.5-1,0.9c-0.2,0.4-0.4,0.9-0.5,1.4c-0.1,0.6-0.2,1.2-0.2,1.9c0,0.6,0.1,1.3,0.2,1.8c0.1,0.6,0.3,1.1,0.6,1.6
		c0.2,0.5,0.6,0.8,0.9,1.1S239.4,40.1,240,40.1 M234.9,35.2c0-0.9,0.2-1.7,0.5-2.3c0.3-0.7,0.7-1.3,1.1-1.7c0.5-0.5,1-0.8,1.6-1.1
		c0.6-0.2,1.3-0.4,2-0.4c0.8,0,1.5,0.2,2.2,0.4c0.6,0.3,1.1,0.7,1.5,1.2c0.4,0.5,0.7,1.1,0.9,1.8c0.2,0.7,0.3,1.4,0.3,2.2
		c0,0.9-0.2,1.7-0.4,2.4c-0.3,0.7-0.6,1.3-1.1,1.8c-0.5,0.5-1,0.9-1.6,1.2c-0.6,0.3-1.3,0.4-2,0.4c-0.9,0-1.7-0.2-2.3-0.5
		c-0.6-0.3-1.1-0.7-1.5-1.3c-0.4-0.5-0.7-1.2-0.9-1.9S234.9,36,234.9,35.2"/>
	<path class="st3" d="M247.1,40.1l1.6-0.2v-7.9l-1.4-0.8v-0.6l2.6-0.8l0.5,0.2v1.5c0.1-0.2,0.3-0.4,0.6-0.6s0.5-0.4,0.8-0.5
		s0.6-0.3,1-0.4c0.3-0.1,0.7-0.2,1-0.2c0.2,0,0.4,0,0.6,0c0.2,0,0.3,0,0.4,0v2c-0.1,0-0.2-0.1-0.3-0.1c-0.1,0-0.2-0.1-0.4-0.1
		c-0.1,0-0.3,0-0.5-0.1s-0.4,0-0.6,0c-0.5,0-1,0.1-1.3,0.2c-0.4,0.1-0.7,0.3-1,0.5v7.6l2.8,0.2v0.8h-6.3V40.1"/>
	<path class="st3" d="M260.8,40.1l1.7-0.3l1-12.8l-1.9-0.2v-1.1h4.5l3.5,10.6l0.5,1.4l0.4-1.5l3.4-10.6h4.1v1.1l-1.8,0.2l1.1,12.8
		l1.7,0.3v0.8h-5.1v-0.8l1.6-0.3l-0.8-9.1l-0.1-3.4l-0.4,1.6L270.1,41h-0.7l-3.7-10.7c-0.2-0.5-0.4-1-0.6-1.6
		c-0.2-0.5-0.4-1.1-0.5-1.6l-0.1,3.3l-0.5,9.3l1.9,0.3v0.8h-5.1V40.1"/>
	<path class="st3" d="M281.5,31.4l-1-0.3v-0.7l2.5-0.5l0.3,0.2v6.7c0,0.6,0,1,0.1,1.4c0.1,0.4,0.2,0.7,0.3,1
		c0.2,0.2,0.4,0.4,0.6,0.5s0.6,0.2,1.1,0.2c0.3,0,0.6,0,0.9-0.1c0.3-0.1,0.6-0.2,0.8-0.3c0.2-0.1,0.4-0.2,0.6-0.4
		c0.2-0.1,0.3-0.2,0.4-0.3v-7.2l-1.2-0.3v-0.8l2.8-0.6L290,30v10.1h1.2v0.8c-0.1,0.1-0.2,0.1-0.4,0.1c-0.2,0-0.3,0.1-0.5,0.1
		c-0.2,0-0.3,0.1-0.5,0.1c-0.2,0-0.3,0-0.5,0c-0.3,0-0.6-0.1-0.8-0.2s-0.3-0.3-0.3-0.6v-0.8c-0.6,0.5-1.2,0.9-1.8,1.1
		c-0.6,0.2-1.2,0.4-1.8,0.4c-0.8,0-1.4-0.1-1.8-0.3c-0.4-0.2-0.8-0.5-1-1c-0.2-0.4-0.4-0.9-0.4-1.5c0-0.6-0.1-1.2-0.1-1.9V31.4"/>
	<path class="st3" d="M293.1,40.1l1.6-0.2v-7.9l-1.4-0.8v-0.6l2.6-0.8l0.5,0.2v1.5c0.1-0.2,0.3-0.4,0.6-0.6s0.5-0.4,0.8-0.5
		s0.6-0.3,1-0.4c0.3-0.1,0.7-0.2,1-0.2c0.2,0,0.4,0,0.6,0c0.2,0,0.3,0,0.4,0v2c-0.1,0-0.2-0.1-0.3-0.1c-0.1,0-0.2-0.1-0.4-0.1
		c-0.1,0-0.3,0-0.5-0.1s-0.4,0-0.6,0c-0.5,0-1,0.1-1.3,0.2c-0.4,0.1-0.7,0.3-1,0.5v7.6l2.8,0.2v0.8h-6.3V40.1"/>
	<path class="st3" d="M307,39.8c0.2,0,0.4,0,0.6,0c0.2,0,0.4-0.1,0.5-0.1c0.3-0.1,0.6-0.2,0.8-0.3c0.2-0.1,0.4-0.3,0.6-0.4v-7.5
		c-0.1-0.1-0.2-0.2-0.3-0.3c-0.1-0.1-0.3-0.2-0.4-0.2c-0.2-0.1-0.4-0.1-0.6-0.2c-0.2,0-0.5-0.1-0.8-0.1c-0.2,0-0.5,0-0.8,0.1
		c-0.3,0.1-0.5,0.2-0.8,0.3c-0.3,0.1-0.5,0.3-0.7,0.5c-0.2,0.2-0.4,0.5-0.6,0.8c-0.2,0.3-0.3,0.7-0.4,1.2c-0.1,0.4-0.2,0.9-0.2,1.5
		c0,0.8,0.1,1.5,0.2,2.1c0.2,0.6,0.4,1.1,0.7,1.5s0.6,0.7,1,0.8C306.2,39.7,306.6,39.8,307,39.8 M306.3,41.1c-0.6,0-1.1-0.1-1.6-0.3
		c-0.5-0.2-1-0.5-1.4-1c-0.4-0.4-0.7-1-0.9-1.7c-0.2-0.7-0.4-1.5-0.4-2.5c0-0.9,0.1-1.7,0.4-2.4c0.3-0.7,0.7-1.4,1.2-1.9
		c0.5-0.5,1.1-0.9,1.8-1.2c0.7-0.3,1.4-0.4,2.2-0.4c0.3,0,0.7,0,1,0.1c0.3,0,0.6,0.1,0.8,0.2v-3.3l-2.1-0.3v-0.9l3.5-0.4l0.4,0.2
		v14.8h1.3v0.7c-0.1,0.1-0.3,0.1-0.4,0.2s-0.3,0.1-0.5,0.1c-0.2,0-0.4,0.1-0.6,0.1c-0.2,0-0.4,0-0.5,0c-0.1,0-0.2,0-0.4,0
		c-0.1,0-0.2-0.1-0.3-0.1c-0.1-0.1-0.2-0.2-0.3-0.3c-0.1-0.1-0.1-0.3-0.1-0.6V40c-0.1,0.1-0.3,0.2-0.4,0.4c-0.2,0.1-0.4,0.3-0.7,0.4
		s-0.6,0.2-1,0.3C307.1,41.1,306.7,41.1,306.3,41.1"/>
	<path class="st3" d="M321.6,34.4c0-0.3,0-0.7,0-1c0-0.3-0.1-0.6-0.1-0.9c-0.1-0.3-0.2-0.6-0.3-0.8c-0.2-0.2-0.3-0.5-0.6-0.6
		c-0.2-0.1-0.4-0.2-0.6-0.2c-0.2,0-0.5-0.1-0.7-0.1c-0.4,0-0.7,0.1-1.1,0.2c-0.3,0.1-0.6,0.4-0.9,0.7c-0.3,0.3-0.5,0.7-0.7,1.2
		c-0.2,0.5-0.3,1-0.3,1.7H321.6 M314.4,35.5c0-0.8,0.1-1.6,0.4-2.3c0.3-0.7,0.6-1.3,1.1-1.8c0.5-0.5,1-0.9,1.7-1.2
		c0.7-0.3,1.4-0.4,2.2-0.5c0.6,0,1.1,0.1,1.5,0.3c0.5,0.2,0.9,0.4,1.2,0.8c0.3,0.4,0.6,0.8,0.8,1.3c0.2,0.5,0.3,1.1,0.3,1.7
		c0,0.4,0,0.8,0,1.1c0,0.3-0.1,0.6-0.1,0.8h-7.2c0,0,0,0.1,0,0.1c0,0,0,0.1,0,0.1c0,0.8,0.2,1.4,0.4,2c0.2,0.5,0.5,0.9,0.9,1.2
		c0.4,0.3,0.7,0.5,1.2,0.6s0.9,0.2,1.3,0.2c0.2,0,0.5,0,0.8,0c0.3,0,0.5-0.1,0.8-0.1c0.3,0,0.5-0.1,0.7-0.2c0.2-0.1,0.4-0.1,0.5-0.2
		l0.4,0.8c-0.2,0.2-0.4,0.3-0.7,0.5c-0.3,0.1-0.6,0.3-1,0.3c-0.4,0.1-0.7,0.1-1.1,0.2c-0.4,0-0.8,0.1-1.1,0.1
		c-0.8,0-1.5-0.1-2.1-0.4c-0.6-0.3-1.1-0.6-1.5-1.1c-0.4-0.5-0.7-1.1-1-1.8C314.5,37.1,314.4,36.4,314.4,35.5"/>
	<path class="st3" d="M325.7,40.1l1.6-0.2v-7.9l-1.4-0.8v-0.6l2.6-0.8l0.5,0.2v1.5c0.1-0.2,0.3-0.4,0.6-0.6s0.5-0.4,0.8-0.5
		s0.6-0.3,1-0.4c0.3-0.1,0.7-0.2,1-0.2c0.2,0,0.4,0,0.6,0c0.2,0,0.3,0,0.4,0v2c-0.1,0-0.2-0.1-0.3-0.1c-0.1,0-0.2-0.1-0.4-0.1
		c-0.1,0-0.3,0-0.5-0.1s-0.4,0-0.6,0c-0.5,0-1,0.1-1.3,0.2c-0.4,0.1-0.7,0.3-1,0.5v7.6l2.8,0.2v0.8h-6.3V40.1"/>
	<path class="st3" d="M335.3,38.1h0.9l0.4,1.2c0.2,0.1,0.3,0.3,0.5,0.4s0.3,0.2,0.5,0.2c0.2,0.1,0.3,0.1,0.5,0.2
		c0.2,0,0.4,0.1,0.6,0.1c0.4,0,0.7,0,1-0.1c0.3-0.1,0.6-0.2,0.8-0.3s0.4-0.3,0.5-0.6c0.1-0.2,0.2-0.5,0.2-0.9c0-0.3-0.1-0.5-0.2-0.7
		c-0.2-0.2-0.4-0.4-0.6-0.6c-0.3-0.2-0.6-0.3-0.9-0.5c-0.3-0.1-0.7-0.3-1-0.5c-0.4-0.2-0.8-0.4-1.1-0.6c-0.4-0.2-0.7-0.5-1-0.7
		c-0.3-0.3-0.5-0.6-0.7-0.9c-0.2-0.3-0.3-0.7-0.2-1.2c0-0.3,0.1-0.6,0.2-0.9c0.1-0.3,0.3-0.5,0.5-0.7c0.2-0.2,0.4-0.4,0.7-0.6
		c0.2-0.2,0.5-0.3,0.8-0.4c0.3-0.1,0.6-0.2,0.9-0.2c0.3,0,0.6-0.1,0.9-0.1c0.3,0,0.6,0,0.9,0.1c0.3,0,0.6,0.1,0.8,0.1
		c0.3,0.1,0.5,0.2,0.7,0.2c0.2,0.1,0.4,0.2,0.5,0.2v2.1h-0.8l-0.4-1.1c-0.1-0.1-0.2-0.2-0.3-0.3c-0.1-0.1-0.2-0.2-0.4-0.2
		c-0.1-0.1-0.3-0.1-0.5-0.2c-0.2,0-0.4-0.1-0.6-0.1c-0.3,0-0.6,0-0.9,0.1c-0.3,0.1-0.5,0.2-0.7,0.3c-0.2,0.1-0.3,0.3-0.5,0.5
		c-0.1,0.2-0.2,0.5-0.2,0.7c0,0.3,0.1,0.6,0.2,0.8c0.2,0.2,0.4,0.4,0.6,0.6c0.2,0.2,0.5,0.3,0.9,0.5s0.7,0.3,1,0.5
		c0.4,0.2,0.7,0.4,1.1,0.5c0.4,0.2,0.7,0.4,1,0.6c0.3,0.2,0.5,0.5,0.7,0.9c0.2,0.3,0.3,0.7,0.3,1.2c0,0.6-0.1,1-0.3,1.5
		c-0.2,0.4-0.5,0.8-0.9,1c-0.4,0.3-0.8,0.5-1.4,0.6c-0.5,0.1-1.1,0.2-1.7,0.2s-1.2-0.1-1.8-0.2c-0.6-0.1-1.1-0.3-1.6-0.6V38.1"/>
	<path class="st3" d="M352.8,39.4c0.1,0.3,0.4,0.5,0.8,0.6s0.9,0.2,1.4,0.2c0.4,0,0.8-0.1,1.2-0.3c0.4-0.2,0.8-0.5,1.1-0.9
		s0.6-0.9,0.8-1.5c0.2-0.6,0.3-1.3,0.3-2.2c0-0.8-0.1-1.4-0.3-2c-0.2-0.6-0.4-1-0.7-1.4c-0.3-0.3-0.7-0.6-1.1-0.8s-0.8-0.2-1.2-0.2
		c-0.3,0-0.6,0-0.8,0.1s-0.5,0.1-0.7,0.2c-0.2,0.1-0.4,0.2-0.5,0.3c-0.2,0.1-0.3,0.2-0.4,0.3V39.4 M350.9,26.6l-1.7-0.3v-0.9
		l3.1-0.3l0.4,0.2v5.7c0.2-0.1,0.4-0.3,0.6-0.4c0.2-0.2,0.4-0.3,0.7-0.4c0.2-0.1,0.5-0.2,0.8-0.3c0.3-0.1,0.7-0.1,1.1-0.1
		c0.5,0,1.1,0.1,1.6,0.3c0.5,0.2,1,0.5,1.4,0.9c0.4,0.4,0.7,1,1,1.7c0.2,0.7,0.4,1.5,0.4,2.5c0,0.8-0.1,1.6-0.4,2.4
		c-0.3,0.8-0.6,1.4-1.1,2s-1.1,1-1.7,1.3s-1.4,0.5-2.3,0.5c-0.5,0-0.9,0-1.4-0.1c-0.4-0.1-0.8-0.1-1.2-0.2c-0.4-0.1-0.6-0.2-0.9-0.2
		c-0.2-0.1-0.4-0.2-0.5-0.2V26.6"/>
	<path class="st3" d="M362.8,44.2c0.1,0,0.2,0,0.4,0.1c0.1,0,0.3,0,0.4,0c0.2,0,0.5-0.1,0.8-0.1c0.3-0.1,0.6-0.2,0.8-0.5
		s0.5-0.6,0.8-1c0.3-0.5,0.5-1,0.7-1.7h-0.4l-3.9-9.7l-1-0.2v-1h4.5v1l-1.4,0.2l2.3,6.6l0.7,2l0.6-2l2-6.6l-1.5-0.2v-1h4.2v1
		l-1.1,0.2c-0.4,1.3-0.8,2.4-1.2,3.3c-0.3,1-0.6,1.8-0.9,2.5c-0.2,0.7-0.5,1.3-0.6,1.8c-0.2,0.5-0.3,0.9-0.4,1.2s-0.2,0.6-0.3,0.8
		c-0.1,0.2-0.1,0.3-0.2,0.5c-0.3,0.6-0.5,1.2-0.8,1.7c-0.3,0.5-0.5,1-0.8,1.4s-0.6,0.7-0.9,0.9c-0.3,0.2-0.7,0.4-1.1,0.5
		c-0.3,0-0.6,0.1-0.9,0.1c-0.1,0-0.1,0-0.2,0c-0.1,0-0.2,0-0.2,0s-0.1,0-0.2,0c-0.1,0-0.1,0-0.1-0.1V44.2"/>
	<path class="st3" d="M382.2,33.3c0.1,0,0.2,0,0.3,0c0.2,0,0.3,0,0.5,0c0.2,0,0.3,0,0.5,0c0.2,0,0.3,0,0.4,0c0.5,0,1-0.1,1.4-0.2
		c0.4-0.1,0.8-0.3,1.1-0.6c0.3-0.3,0.5-0.6,0.7-1.1s0.2-1,0.2-1.6c0-0.5-0.1-0.9-0.2-1.3s-0.3-0.8-0.6-1c-0.3-0.3-0.6-0.5-1-0.7
		c-0.4-0.1-1-0.2-1.6-0.2c-0.3,0-0.6,0-0.9,0c-0.3,0-0.6,0.1-0.8,0.1V33.3 M378.5,40.1l1.8-0.3V27l-1.6-0.2v-1.1h2.6
		c0.3,0,0.7,0,1.2-0.1c0.5,0,1.1-0.1,1.7-0.1c0.7,0,1.4,0.1,2.1,0.2c0.6,0.1,1.2,0.3,1.6,0.7c0.4,0.3,0.8,0.7,1.1,1.2
		c0.2,0.5,0.4,1.2,0.4,2c0,0.5-0.1,1-0.2,1.4s-0.4,0.9-0.7,1.2c-0.3,0.4-0.6,0.7-1,1c-0.4,0.3-0.8,0.5-1.3,0.7c0,0,0,0,0.1,0
		c0,0,0.1,0,0.1,0c0.3,0.2,0.6,0.4,0.9,0.7c0.3,0.3,0.6,0.7,0.8,1.1c0.3,0.4,0.5,0.8,0.8,1.3c0.2,0.4,0.5,0.9,0.7,1.2
		c0.2,0.4,0.4,0.7,0.6,1c0.2,0.3,0.4,0.4,0.5,0.5l1.1,0.3v0.8h-2.8c-0.1,0-0.3-0.1-0.4-0.3c-0.2-0.2-0.3-0.5-0.5-0.8
		s-0.3-0.7-0.5-1.1c-0.2-0.4-0.4-0.8-0.6-1.2c-0.2-0.4-0.4-0.8-0.7-1.2c-0.2-0.4-0.5-0.7-0.7-1c-0.3-0.3-0.5-0.5-0.8-0.7
		c-0.3-0.2-0.5-0.2-0.8-0.2c-0.2,0-0.5,0-0.7,0c-0.3,0-0.5,0-0.8,0v5.4l2,0.3v0.8h-5.8V40.1"/>
	<path class="st3" d="M394.5,37.8c0,0.4,0,0.7,0.2,1c0.1,0.3,0.3,0.5,0.5,0.6c0.2,0.2,0.4,0.3,0.7,0.4c0.3,0.1,0.6,0.1,1,0.1
		c0.2,0,0.4,0,0.6-0.1c0.2,0,0.4-0.1,0.6-0.2s0.4-0.2,0.5-0.3s0.3-0.2,0.4-0.3c0-0.6,0-1.2,0-1.8s0-1.2,0-1.8c-0.3,0-0.6,0-0.9,0
		c-0.3,0-0.7,0.1-1,0.2c-0.3,0.1-0.6,0.2-0.9,0.3c-0.3,0.1-0.6,0.3-0.8,0.4c-0.2,0.2-0.4,0.4-0.6,0.6
		C394.5,37.2,394.5,37.5,394.5,37.8 M392.6,37.8c0-0.4,0.2-0.8,0.4-1.2c0.2-0.3,0.6-0.6,0.9-0.9c0.4-0.2,0.8-0.5,1.2-0.6
		c0.4-0.2,0.9-0.3,1.3-0.4s0.9-0.2,1.3-0.2s0.8-0.1,1.1-0.1v-0.8c0-0.5-0.1-0.9-0.2-1.3c-0.1-0.3-0.3-0.6-0.6-0.7
		c-0.2-0.2-0.5-0.3-0.9-0.4c-0.3-0.1-0.7-0.1-1-0.1c-0.2,0-0.4,0-0.6,0.1c-0.2,0-0.5,0.1-0.7,0.1c-0.3,0.1-0.5,0.2-0.8,0.2
		c-0.3,0.1-0.5,0.2-0.7,0.3L393,31c0.2-0.2,0.5-0.4,0.9-0.5c0.3-0.1,0.7-0.3,1.1-0.4c0.4-0.1,0.7-0.2,1.1-0.2c0.3,0,0.6-0.1,0.9-0.1
		c0.5,0,1,0.1,1.5,0.2c0.5,0.1,0.9,0.3,1.2,0.6c0.4,0.3,0.6,0.6,0.8,1.1c0.2,0.5,0.3,1,0.3,1.8l0,6.7h1.2v0.7
		c-0.2,0.1-0.5,0.2-0.8,0.3c-0.3,0.1-0.7,0.1-1,0.1c-0.1,0-0.3,0-0.4,0c-0.1,0-0.3-0.1-0.4-0.1c-0.1-0.1-0.2-0.1-0.3-0.3
		c-0.1-0.1-0.1-0.3-0.1-0.6v-0.3c-0.2,0.2-0.3,0.4-0.5,0.5s-0.4,0.3-0.7,0.4c-0.3,0.1-0.6,0.2-0.9,0.3c-0.3,0.1-0.7,0.1-1.1,0.1
		c-0.5,0-1-0.1-1.4-0.3c-0.4-0.2-0.8-0.4-1-0.7c-0.3-0.3-0.5-0.7-0.6-1.1C392.6,38.7,392.5,38.2,392.6,37.8"/>
	<path class="st3" d="M403.7,35.7c0-0.9,0.1-1.7,0.4-2.4s0.7-1.3,1.1-1.9c0.5-0.5,1-0.9,1.7-1.2c0.6-0.3,1.3-0.4,2.1-0.5
		c0.3,0,0.6,0,0.8,0c0.3,0,0.5,0,0.8,0.1c0.2,0,0.5,0.1,0.7,0.2c0.2,0.1,0.4,0.1,0.5,0.2v2.4h-0.9l-0.5-1.2
		c-0.1-0.1-0.2-0.1-0.4-0.2c-0.1-0.1-0.3-0.1-0.4-0.2c-0.1,0-0.3-0.1-0.4-0.1c-0.2,0-0.3,0-0.4,0c-0.4,0-0.9,0.1-1.3,0.2
		s-0.8,0.4-1.1,0.7c-0.3,0.3-0.6,0.7-0.7,1.2c-0.2,0.5-0.3,1.1-0.3,1.7c0,0.9,0.1,1.7,0.3,2.3c0.2,0.6,0.5,1.2,0.8,1.6
		c0.3,0.4,0.7,0.7,1.2,0.9c0.4,0.2,0.8,0.3,1.2,0.3c0.2,0,0.5,0,0.8,0c0.3,0,0.5-0.1,0.8-0.1c0.3,0,0.5-0.1,0.7-0.2
		c0.2-0.1,0.4-0.1,0.5-0.2l0.3,0.9c-0.2,0.2-0.4,0.3-0.7,0.5s-0.6,0.2-0.9,0.3c-0.3,0.1-0.7,0.1-1.1,0.2c-0.4,0-0.7,0.1-1.1,0.1
		c-0.8,0-1.4-0.1-2-0.4c-0.6-0.3-1.1-0.6-1.5-1.1c-0.4-0.5-0.7-1.1-0.9-1.7C403.8,37.2,403.7,36.5,403.7,35.7"/>
	<path class="st3" d="M421.1,34.4c0-0.3,0-0.7,0-1c0-0.3-0.1-0.6-0.1-0.9c-0.1-0.3-0.2-0.6-0.3-0.8c-0.2-0.2-0.3-0.5-0.6-0.6
		c-0.2-0.1-0.4-0.2-0.6-0.2c-0.2,0-0.5-0.1-0.7-0.1c-0.4,0-0.7,0.1-1.1,0.2c-0.3,0.1-0.6,0.4-0.9,0.7c-0.3,0.3-0.5,0.7-0.7,1.2
		c-0.2,0.5-0.3,1-0.3,1.7H421.1 M413.9,35.5c0-0.8,0.1-1.6,0.4-2.3c0.3-0.7,0.6-1.3,1.1-1.8c0.5-0.5,1-0.9,1.7-1.2
		c0.7-0.3,1.4-0.4,2.2-0.5c0.6,0,1.1,0.1,1.5,0.3c0.5,0.2,0.9,0.4,1.2,0.8c0.3,0.4,0.6,0.8,0.8,1.3c0.2,0.5,0.3,1.1,0.3,1.7
		c0,0.4,0,0.8,0,1.1c0,0.3-0.1,0.6-0.1,0.8h-7.2c0,0,0,0.1,0,0.1c0,0,0,0.1,0,0.1c0,0.8,0.2,1.4,0.4,2c0.2,0.5,0.5,0.9,0.9,1.2
		c0.4,0.3,0.7,0.5,1.2,0.6s0.9,0.2,1.3,0.2c0.2,0,0.5,0,0.8,0c0.3,0,0.5-0.1,0.8-0.1c0.3,0,0.5-0.1,0.7-0.2c0.2-0.1,0.4-0.1,0.5-0.2
		l0.4,0.8c-0.2,0.2-0.4,0.3-0.7,0.5c-0.3,0.1-0.6,0.3-1,0.3c-0.4,0.1-0.7,0.1-1.1,0.2c-0.4,0-0.8,0.1-1.1,0.1
		c-0.8,0-1.5-0.1-2.1-0.4c-0.6-0.3-1.1-0.6-1.5-1.1c-0.4-0.5-0.7-1.1-1-1.8C414,37.1,413.9,36.4,413.9,35.5"/>
</g>
<rect x="73" y="340.9" class="st19" width="52" height="17.8"/>
<text transform="matrix(1 0 0 1 76.8151 353.6471)" class="st20 st21 st22">White</text>
<rect x="179.9" y="340.9" class="st19" width="52" height="17.8"/>
<text transform="matrix(1 0 0 1 185.3662 353.6471)" class="st21 st22">Asian</text>
<rect x="396.1" y="340.9" class="st19" width="52" height="17.8"/>
<text transform="matrix(1 0 0 1 402.4929 353.6471)" class="st21 st22">Black</text>
<rect x="269.7" y="340.9" class="st19" width="85.8" height="17.8"/>
<text transform="matrix(1 0 0 1 280.4887 353.6471)" class="st20 st21 st22">Hispanic</text>
<rect x="369.9" y="421.9" class="st23" width="119.7" height="94.1"/>
<rect x="381.1" y="432.1" class="st24" width="11.2" height="28.2"/>
<rect x="381.1" y="476.9" class="st25" width="11.2" height="28.2"/>
<rect x="410.9" y="434.3" class="st19" width="55.7" height="25.8"/>
<text transform="matrix(1 0 0 1 414.2245 442.7781)"><tspan x="0" y="0" class="st21 st26">Closed by</tspan><tspan x="10.3" y="14.4" class="st21 st26">arrest</tspan></text>
<rect x="410.9" y="478.2" class="st19" width="55.7" height="25.8"/>
<text transform="matrix(1 0 0 1 423.5663 486.6983)"><tspan x="0" y="0" class="st21 st26">Open,</tspan><tspan x="-7" y="14.4" class="st21 st26">no arrest</tspan></text>
<rect x="72.5" y="137" class="st19" width="27.5" height="13.4"/>
<text transform="matrix(1 0 0 1 75.356 145.475)" class="st20 st21 st26">67%</text>
<rect x="115" y="255.4" class="st19" width="27.5" height="13.4"/>
<text transform="matrix(1 0 0 1 117.8251 263.9207)" class="st20 st21 st26">23%</text>
<rect x="320.7" y="200.9" class="st19" width="27.5" height="13.4"/>
<text transform="matrix(1 0 0 1 323.608 209.4584)" class="st20 st21 st26">43%</text>
<rect x="172.1" y="131.9" class="st19" width="27.5" height="13.4"/>
<text transform="matrix(1 0 0 1 174.961 140.4393)" class="st27 st21 st26">69%</text>
<rect x="214.3" y="233.5" class="st19" width="27.5" height="13.4"/>
<text transform="matrix(1 0 0 1 217.1656 242.0067)" class="st27 st21 st26">31%</text>
<rect x="429.1" y="201.9" class="st19" width="27.5" height="13.4"/>
<text transform="matrix(1 0 0 1 431.9498 210.3781)" class="st27 st21 st26">44%</text>
<rect x="280.6" y="176.2" class="st19" width="27.5" height="13.4"/>
<text transform="matrix(1 0 0 1 283.4543 184.7546)" class="st20 st21 st26">53%</text>
<rect x="387.6" y="174.1" class="st19" width="27.5" height="13.4"/>
<text transform="matrix(1 0 0 1 390.4536 182.6653)" class="st27 st21 st26">54%</text>
</svg>
